<?xml version="1.0" standalone="no"?>
<!DOCTYPE svg PUBLIC "-//W3C//DTD SVG 1.1//EN" "http://www.w3.org/Graphics/SVG/1.1/DTD/svg11.dtd" >
<svg>
<metadata>
Created by FontForge 20120731 at Fri Jul  8 13:19:22 2016
 By ,,,
 
</metadata>
<defs>
<font id="iconofont_Semi_bold_italic" horiz-adv-x="518" >
  <font-face 
    font-family="iconofont"
    font-weight="500"
    font-style="italic"
    font-stretch="normal"
    units-per-em="1024"
    panose-1="0 0 0 0 0 0 0 0 0 0"
    ascent="819"
    descent="-205"
    x-height="492"
    cap-height="722"
    bbox="-43 -250 1003 972"
    underline-thickness="0"
    underline-position="0"
    unicode-range="U+0020-F078"
  />
<missing-glyph horiz-adv-x="650" 
 />
    <glyph glyph-name=".notdef" horiz-adv-x="650" 
 />
    <glyph glyph-name=".notdef" horiz-adv-x="650" 
 />
    <glyph glyph-name=".null" horiz-adv-x="0" 
 />
    <glyph glyph-name="nonmarkingreturn" horiz-adv-x="341" 
 />
    <glyph glyph-name="space" unicode=" " horiz-adv-x="215" 
 />
    <glyph glyph-name="exclam" unicode="!" horiz-adv-x="207" 
d="M172 722h118l-53 -298l-82 -219h-30l-5 219zM49 0l20 109h108l-19 -109h-109z" />
    <glyph glyph-name="quotedbl" unicode="&#x22;" horiz-adv-x="473" 
d="M207 722h100l-19 -104l-42 -93h-48l-10 93zM397 722h100l-18 -104l-43 -93h-48l-9 93z" />
    <glyph glyph-name="numbersign" unicode="#" horiz-adv-x="642" 
d="M50 189l26 82h552l-26 -82h-552zM138 451l26 82h552l-26 -82h-552zM332 722h96l-222 -722h-96zM558 722h96l-222 -722h-96z" />
    <glyph glyph-name="dollar" unicode="$" horiz-adv-x="631" 
d="M68 163l112 69q-12 -67 36 -103t140 -36q68 0 109 28.5t49 76.5q8 41 -31 70t-121 44q-225 41 -195 213q17 93 89.5 150t175.5 57q105 0 170.5 -34.5t73.5 -98.5l-97 -75q-6 51 -50.5 77.5t-115.5 26.5q-48 0 -81.5 -25t-40.5 -65q-15 -83 124 -107q249 -46 217 -229
q-18 -98 -94 -155t-200 -57q-138 0 -211.5 44.5t-58.5 128.5zM440 822h65l-162 -922h-65z" />
    <glyph glyph-name="ampersand" unicode="&#x26;" horiz-adv-x="751" 
d="M641 2q-33 -12 -58 -12q-42 0 -81.5 36.5t-95.5 113.5q-147 199 -150 204q-25 25 -34.5 70t-1.5 94q13 73 67.5 117t130.5 44q72 0 109 -39.5t26 -104.5q-7 -41 -54.5 -88.5t-118.5 -84.5l-95 -48q-34 -17 -58.5 -49.5t-30.5 -67.5q-8 -49 18.5 -79t78.5 -30q88 0 154 76
t86 200l88 -21q-25 -159 -124 -256t-236 -97q-92 0 -139.5 53.5t-31.5 140.5q10 58 53 108t103 75l95 48q53 27 87 58.5t38 56.5q6 30 -11.5 48t-51.5 18t-58.5 -19.5t-29.5 -50.5q-6 -32 2.5 -64.5t27.5 -51.5l175 -243q30 -40 49 -58t38 -18q23 0 36 5z" />
    <glyph glyph-name="quotesingle" unicode="'" horiz-adv-x="228" 
d="M207 722h100l-19 -104l-42 -93h-48l-10 93z" />
    <glyph glyph-name="parenleft" unicode="(" horiz-adv-x="347" 
d="M426 757l29 -39q-184 -133 -230 -396q-47 -264 89 -398l-41 -39q-163 161 -113 437q48 275 266 435z" />
    <glyph glyph-name="parenright" unicode=")" horiz-adv-x="285" 
d="M204 757q148 -173 103 -435q-49 -277 -256 -437l-28 39q172 134 219 398q44 252 -79 396z" />
    <glyph glyph-name="asterisk" unicode="*" horiz-adv-x="393" 
d="M284 732h84l-47 -160h-47zM134 582l40 79l135 -67l-23 -44zM210 418l-59 49l130 119l33 -28zM407 467l-76 -49l-55 140l43 28zM453 661l11 -79l-163 -32l-7 44z" />
    <glyph glyph-name="plus" unicode="+" horiz-adv-x="561" 
d="M73 275h487l-10 -61h-487zM323 492h65l-87 -492h-65z" />
    <glyph glyph-name="comma" unicode="," horiz-adv-x="208" 
d="M69 109h109l-19 -109h-109zM159 0q-10 -61 -40 -86.5t-89 -25.5l9 52q23 0 36 14t18 46h66z" />
    <glyph glyph-name="hyphen" unicode="-" horiz-adv-x="334" 
d="M87 212l15 83h235l-15 -83h-235z" />
    <glyph glyph-name="period" unicode="." horiz-adv-x="208" 
d="M50 0l19 109h109l-19 -109h-109z" />
    <glyph glyph-name="slash" unicode="/" horiz-adv-x="303" 
d="M0 0l387 722h44l-388 -722h-43z" />
    <glyph glyph-name="zero" unicode="0" horiz-adv-x="661" 
d="M118 361q31 175 121 273t220 98q131 0 186.5 -98t24.5 -273q-32 -184 -118 -277.5t-223 -93.5t-190 93.5t-21 277.5zM345 86q155 0 203 275q22 130 -5.5 202.5t-99.5 72.5q-73 0 -126.5 -72.5t-76.5 -202.5q-48 -275 105 -275z" />
    <glyph glyph-name="one" unicode="1" horiz-adv-x="412" 
d="M195 0l100 567l53 155h92l-28 -155l-100 -567h-117zM148 553l200 169l-33 -148l-193 -164z" />
    <glyph glyph-name="two" unicode="2" horiz-adv-x="560" 
d="M525 0h-351l19 113h352zM47 0q15 85 41.5 139t64 88.5t104.5 70.5q94 51 156 109t70 102q10 57 -15 92t-76 35q-53 0 -91 -33t-48 -88q-8 -40 22 -90l-113 -53q-37 62 -22 143q17 98 91 157.5t178 59.5q103 0 155.5 -63.5t34.5 -167.5q-10 -55 -68.5 -116t-144.5 -108
q-102 -56 -147.5 -112.5t-64.5 -164.5h-127z" />
    <glyph glyph-name="three" unicode="3" horiz-adv-x="566" 
d="M90 236h122q-11 -64 13.5 -103t75.5 -39q50 0 85.5 30.5t44.5 80.5q11 63 -19.5 101.5t-91.5 38.5h-60l11 63h156q71 -20 107 -77t23 -130q-17 -95 -92.5 -153t-181.5 -58t-159 67.5t-34 178.5zM268 391l8 45h80q46 0 79.5 27.5t41.5 71.5q7 46 -16 73.5t-69 27.5
q-40 0 -69.5 -32t-38.5 -84h-118q17 95 84.5 153.5t161.5 58.5t142 -51.5t33 -135.5q-10 -54 -52.5 -96t-103.5 -58h-163z" />
    <glyph glyph-name="four" unicode="4" horiz-adv-x="556" 
d="M485 722h91l-33 -190l-94 -532h-118l94 532zM485 722l86 -24l-396 -407l-113 -79l16 91l101 13h413l-18 -104h-413h-99l16 91z" />
    <glyph glyph-name="five" unicode="5" horiz-adv-x="554" 
d="M133 336l83 386h376l-28 -113l-255 4l-68 -303zM235 403q32 29 73 47t78 18q95 0 141.5 -66.5t27.5 -175.5q-19 -106 -97 -171t-187 -65q-101 0 -150.5 67.5t-30.5 178.5h122q-11 -64 10 -103t67 -39q52 0 90.5 36.5t49.5 95.5q11 66 -11.5 106t-70.5 40q-39 0 -106 -62z
" />
    <glyph glyph-name="six" unicode="6" horiz-adv-x="565" 
d="M623 609l-96 -56q-16 40 -44.5 64t-59.5 24q-63 0 -109 -71.5t-67 -192.5q-52 -291 70 -291q49 0 86 41t49 109q11 66 -13.5 106t-76.5 40q-77 0 -130 -140q-25 7 -40 7l11 103q6 0 16.5 3.5t18.5 6.5l7 4q71 111 156 111q98 0 147 -66t30 -175q-19 -111 -95.5 -178.5
t-182.5 -67.5q-120 0 -165 92.5t-14 273.5q31 173 113.5 274.5t204.5 101.5q61 0 111.5 -34t72.5 -89z" />
    <glyph glyph-name="seven" unicode="7" horiz-adv-x="450" 
d="M157 722h411l-20 -113h-411zM548 609q-149 -198 -222.5 -338t-96.5 -271h-130q17 99 98.5 239t255.5 370h95z" />
    <glyph glyph-name="eight" unicode="8" horiz-adv-x="585" 
d="M94 195q18 104 90 155.5t182 51.5q118 0 167 -55t32 -152q-18 -103 -89.5 -154t-182.5 -51q-118 0 -166.5 54.5t-32.5 150.5zM310 86q110 0 132 120q10 59 -11.5 93t-76.5 34q-51 0 -86 -32t-47 -97q-9 -55 12.5 -86.5t76.5 -31.5zM185 543q16 92 80 140.5t159 48.5
q103 0 148.5 -51t30.5 -138q-16 -88 -80 -131.5t-163 -43.5q-103 0 -146.5 46.5t-28.5 128.5zM372 437q102 0 121 97q8 47 -14 74.5t-72 27.5q-45 0 -76 -26.5t-40 -75.5q-8 -45 12 -71t69 -26z" />
    <glyph glyph-name="nine" unicode="9" horiz-adv-x="586" 
d="M103 129l108 48q4 -41 28 -66t60 -25q59 0 105 70t68 195q23 135 5.5 210t-69.5 75t-91 -41t-51 -109q-12 -66 10.5 -106.5t70.5 -40.5q83 0 138 145q25 -7 40 -7l-9 -102q-7 0 -17.5 -3.5t-17.5 -7.5l-7 -3q-77 -117 -179 -117q-89 0 -132 64t-24 169q20 115 97.5 185
t183.5 70q110 0 159 -96t19 -264q-32 -181 -115.5 -281.5t-200.5 -100.5q-75 0 -124.5 38.5t-54.5 100.5z" />
    <glyph glyph-name="colon" unicode=":" horiz-adv-x="208" 
d="M50 0l19 109h109l-19 -109h-109zM118 383l19 109h108l-19 -109h-108z" />
    <glyph glyph-name="semicolon" unicode=";" horiz-adv-x="208" 
d="M88 109h109l-38 -109h-109zM159 0q-22 -61 -56 -86.5t-93 -25.5l19 52q23 0 38 14t26 46h66zM118 383l19 109h108l-19 -109h-108z" />
    <glyph glyph-name="less" unicode="&#x3c;" horiz-adv-x="492" 
d="M514 465l-15 -82l-417 -174l13 74l356 -174l-14 -82l-355 182l13 74z" />
    <glyph glyph-name="equal" unicode="=" horiz-adv-x="570" 
d="M105 374h467l-10 -61h-468zM72 185h467l-11 -61h-467z" />
    <glyph glyph-name="greater" unicode="&#x3e;" horiz-adv-x="492" 
d="M142 465l355 -182l-13 -74l-419 -182l14 82l418 174l-13 -74l-357 174z" />
    <glyph glyph-name="question" unicode="?" horiz-adv-x="519" 
d="M114 538q23 88 92.5 141t161.5 53q91 0 137 -54.5t30 -143.5q-11 -65 -42.5 -106.5t-94.5 -72.5q-39 -20 -54 -48t-28 -102h-96q19 106 41 146t79 69q42 22 63 48t28 66q10 54 -11.5 87t-65.5 33q-50 0 -90.5 -36.5t-56.5 -96.5zM177 0l19 109h109l-19 -109h-109z" />
    <glyph glyph-name="A_cap" unicode="A" horiz-adv-x="685" 
d="M14 0l400 722h124l138 -722h-127l-133 722h117l-392 -722h-127zM520 160l-292 1l49 89h226zM143 5v0q-1 -1 -1 -2l-1 -3h-63h-64q1 1 2 3l1 2v0h126zM675 5v0v-2l1 -3h-64h-63v3v2v0h126zM530 717h-119v0l2 2l1 3h60h59v0q0 -1 -3 -5z" />
    <glyph glyph-name="B_cap" unicode="B" horiz-adv-x="682" 
d="M91 5l125 712h117l-125 -712h-117zM334 722h124q139 0 190 -43.5t33 -146.5q-11 -65 -63 -105t-126 -40h-217l9 47h164q43 0 73 24.5t37 64.5q10 58 -15 83t-96 25h-129zM280 413h214q101 0 153.5 -56.5t36.5 -148.5q-20 -112 -87.5 -160t-205.5 -48h-184l16 92h151
q88 0 131 30t55 100q10 56 -33 90.5t-123 34.5h-136zM208 5l-1 -5v0h-59h-58v3l1 2v0h117zM333 717h-117v0q0 1 1 2v3h59h58v0q0 -1 -1 -5z" />
    <glyph glyph-name="C_cap" unicode="C" horiz-adv-x="707" 
d="M641 227l74 -72q-14 -74 -103.5 -119.5t-222.5 -45.5q-148 0 -223 108.5t-48 262.5t140.5 262.5t261.5 108.5q127 0 200.5 -45.5t66.5 -119.5l-98 -72q5 64 -46 102.5t-140 38.5q-92 0 -165 -80t-94 -195q-20 -115 25 -195t137 -80q95 0 159.5 38.5t75.5 102.5z" />
    <glyph glyph-name="D_cap" unicode="D" horiz-adv-x="719" 
d="M91 5l125 712h117l-125 -712h-117zM334 722h87q183 0 260.5 -91.5t46.5 -269.5q-32 -184 -132 -272.5t-273 -88.5h-116l16 91h108q113 0 179.5 66.5t91.5 203.5q47 270 -193 270h-91zM208 5l-1 -5v0h-59h-58v3l1 2v0h117zM333 717h-117v0q0 1 1 2v3h59h58v0q0 -1 -1 -5z
" />
    <glyph glyph-name="E_cap" unicode="E" horiz-adv-x="597" 
d="M91 5l125 712h117l-125 -712h-117zM334 722h327l-16 -96h-328zM281 418h310l-16 -91h-310zM207 0l17 96h340l-17 -96h-340zM208 5l-1 -5v0h-59h-58v3l1 2v0h117zM333 717h-117v0q0 1 1 2v3h59h58v0q0 -1 -1 -5zM586 418v0h2h3q-4 -18 -8 -45q-4 -20 -8 -46h-3h-2v0z
M656 722h5v0q-1 -7 -4 -24t-4 -24q-4 -20 -8 -48h-3h-2v0zM559 96v0h2h3q-1 -6 -4 -23t-5 -25q-5 -32 -8 -48v0h-5z" />
    <glyph glyph-name="F_cap" unicode="F" horiz-adv-x="562" 
d="M91 5l125 712h117l-125 -712h-117zM334 722h325l-17 -96h-325zM281 418h299l-16 -91h-299zM208 5v0q0 -1 -1 -2v-3h-59h-58v3l1 2v0h117zM333 717h-117v0q0 1 1 2v3h59h58v0q0 -1 -1 -5zM575 418v0h2h3q-4 -18 -8 -45q-4 -20 -8 -46h-3h-2v0zM654 722h5v0q-1 -7 -4 -24
t-4 -24q-2 -8 -5 -25t-4 -23h-2h-3v0z" />
    <glyph glyph-name="G_cap" unicode="G" horiz-adv-x="729" 
d="M431 323l17 96h310l-57 -327q-140 -102 -297 -102q-158 0 -236.5 102t-49.5 269t144 269t273 102q115 0 181 -45.5t59 -119.5l-98 -72q6 64 -38 102.5t-121 38.5q-101 0 -176 -75.5t-98 -199.5q-22 -124 27 -199.5t150 -75.5q92 0 177 63l31 174h-198z" />
    <glyph glyph-name="H_cap" unicode="H" horiz-adv-x="733" 
d="M91 5l125 712h117l-125 -712h-117zM194 426h500l-17 -96h-500zM532 5l125 712h118l-126 -712h-117zM208 5v0q0 -1 -1 -2v-3h-59h-58v3l1 2v0h117zM333 717h-117v0q0 1 1 2v3h59h58v-3l-1 -2v0zM649 5v0v-2l-1 -3h-59h-58v3l1 2v0h117zM775 717h-118v0q0 1 1 2v3h59h58v-3
v-2q-1 0 0 0z" />
    <glyph glyph-name="I_cap" unicode="I" horiz-adv-x="286" 
d="M85 5l126 712h117l-125 -712h-118zM203 5v0q0 -1 -1 -2v-3h-59h-58v3q2 2 0 2q1 0 0 0h118zM328 717h-117v0v2l1 3h59h58v-3l-1 -2v0z" />
    <glyph glyph-name="J_cap" unicode="J" horiz-adv-x="525" 
d="M101 280l121 21l-9 -51q-14 -78 -2 -114.5t52 -36.5q37 0 62.5 30.5t34.5 82.5l89 505h118l-89 -505q-18 -102 -79 -162t-155 -60q-100 0 -137 54.5t-17 172.5zM567 717h-118v0q1 1 1 2v3h59h59q-2 0 0 0q-1 0 -1 -5z" />
    <glyph glyph-name="K_cap" unicode="K" horiz-adv-x="644" 
d="M91 5l125 712h117l-125 -712h-117zM156 284l438 438h143l-482 -464zM496 0l-127 368l99 96l167 -464h-139zM208 5v0q0 -1 -1 -2v-3h-59h-58v3l1 2v0h117zM333 717h-117v0q0 1 1 2v3h59h58v-3l-1 -2v0zM633 5v0q0 -1 1 -2l1 -3h-70h-69v0q0 1 -2 5h139zM732 717h-143v0
q-2 0 2 2q1 3 3 3h71h72l-3 -3l-2 -2v0z" />
    <glyph glyph-name="L_cap" unicode="L" horiz-adv-x="525" 
d="M85 5l126 712h117l-125 -712h-118zM202 0l17 96h293l-17 -96h-293zM203 5l-1 -5v0h-59h-58v3q2 2 0 2q1 0 0 0h118zM328 717h-117v0v2l1 3h59h58v-3l-1 -2v0zM507 96v0h3h2q-1 -8 -4 -25t-4 -23q-2 -7 -5 -24t-4 -24v0h-5z" />
    <glyph glyph-name="M_cap" unicode="M" horiz-adv-x="867" 
d="M92 5l125 712h113l-125 -712h-113zM385 0l-97 722h108l93 -722h-104zM385 0l342 722h108l-346 -722h-104zM671 5l125 712h113l-125 -712h-113zM205 5v0q0 -1 -1 -2v-3h-57h-56v3l1 2v0h113zM330 717h-113v0q0 1 1 2v3h57h56v0q0 -1 -1 -5zM784 5v0q0 -1 -1 -2v-3h-57h-56
v3l1 2v0h113zM909 717h-113l1 5v0h57h56v-3l-1 -2v0z" />
    <glyph glyph-name="N_cap" unicode="N" horiz-adv-x="699" 
d="M216 717h117l-125 -712h-117zM217 722h128l236 -722h-128zM624 717h117l-126 -717h-118zM208 5v0q0 -1 -1 -2v-3h-59h-58v3l1 2v0h117zM333 717h-117v0q0 1 1 2v3h59h58v0q0 -1 -1 -5zM741 717h-117v0v2q0 3 1 3h58h59v-3l-1 -2v0z" />
    <glyph glyph-name="O_cap" unicode="O" horiz-adv-x="804" 
d="M123 361q28 158 145.5 264.5t264.5 106.5q148 0 228 -106.5t52 -264.5q-30 -167 -142.5 -269t-267.5 -102q-156 0 -232.5 102t-47.5 269zM419 86q99 0 172.5 75.5t95.5 199.5q20 118 -28.5 196.5t-141.5 78.5q-94 0 -170.5 -78.5t-97.5 -196.5q-22 -124 25 -199.5
t145 -75.5z" />
    <glyph glyph-name="P_cap" unicode="P" horiz-adv-x="636" 
d="M91 5l125 712h117l-125 -712h-117zM334 722h142q251 0 215 -217q-40 -213 -292 -213h-140l16 91h145q132 0 153 122q23 126 -118 126h-137zM208 5v0q0 -1 -1 -2v-3h-59h-58v3l1 2v0h117zM333 717h-117v0q0 1 1 2v3h59h58v0q0 -1 -1 -5z" />
    <glyph glyph-name="Q_cap" unicode="Q" horiz-adv-x="804" 
d="M123 361q28 158 145.5 264.5t264.5 106.5q148 0 228 -106.5t52 -264.5q-30 -167 -142.5 -269t-267.5 -102q-156 0 -232.5 102t-47.5 269zM419 86q99 0 172.5 75.5t95.5 199.5q20 118 -28.5 196.5t-141.5 78.5q-94 0 -170.5 -78.5t-97.5 -196.5q-22 -124 25 -199.5
t145 -75.5zM602 -90l-161 255l85 60l162 -255z" />
    <glyph glyph-name="R_cap" unicode="R" horiz-adv-x="643" 
d="M91 5l125 712h117l-125 -712h-117zM334 722h149q251 0 215 -217q-35 -194 -288 -194h-148l16 91h153q131 0 149 103q23 126 -118 126h-144zM503 0l-133 328h135l133 -328h-135zM208 5v0q0 -1 -1 -2v-3h-59h-58v3l1 2v0h117zM333 717h-117v0q0 1 1 2v3h59h58v0q0 -1 -1 -5
zM636 5v0q0 -1 1 -2l1 -3h-68h-67v0q0 1 -2 5h135z" />
    <glyph glyph-name="S_cap" unicode="S" horiz-adv-x="631" 
d="M68 163l112 69q-12 -67 36 -103t140 -36q68 0 109 28.5t49 76.5q8 41 -31 70t-121 44q-225 41 -195 213q17 93 89.5 150t175.5 57q105 0 170.5 -34.5t73.5 -98.5l-97 -75q-6 51 -50.5 77.5t-115.5 26.5q-48 0 -81.5 -25t-40.5 -65q-15 -83 124 -107q249 -46 217 -229
q-18 -98 -94 -155t-200 -57q-138 0 -211.5 44.5t-58.5 128.5z" />
    <glyph glyph-name="T_cap" unicode="T" horiz-adv-x="555" 
d="M137 722h535l-16 -96h-536zM220 5l126 717h118l-127 -717h-117zM337 5v0v-2l-1 -3h-58h-59v3l1 2v0h117zM667 722h5v0q-1 -7 -4 -24t-4 -24q-4 -20 -8 -48h-3h-2v0zM142 722l-17 -96v0h-2h-3q1 6 4 23t5 25q1 7 4 24t4 24v0h5z" />
    <glyph glyph-name="U_cap" unicode="U" horiz-adv-x="698" 
d="M209 717h117l-73 -417q-36 -201 115 -201t186 201l74 417h117l-77 -438q-50 -289 -319 -289q-268 0 -217 289zM326 717h-117v0q0 1 1 2v3h59h58v-3l-1 -2v0zM745 717h-117v0v2l1 3h59h58v-3l-1 -2v0z" />
    <glyph glyph-name="V_cap" unicode="V" horiz-adv-x="603" 
d="M142 722h126l90 -722h-108zM363 0h-109l341 722h126zM269 717h-126v0q-1 0 -1 2v3h63h63v-3q0 -2 1 -2q-1 0 0 0zM718 717h-126v0q1 1 1 2q1 3 2 3h63h63q-1 0 -2 -3l-1 -2v0z" />
    <glyph glyph-name="W_cap" unicode="W" horiz-adv-x="886" 
d="M142 722h126l34 -722h-113zM302 0h-105l319 722h113zM516 722h113l69 -722h-113zM698 0h-105l284 722h126zM268 717h-126v0v2v3h63h63v-3v-2v0zM1001 717h-126v0q1 1 1 2l1 3h63h63q0 -1 -1 -3l-1 -2v0z" />
    <glyph glyph-name="X_cap" unicode="X" horiz-adv-x="576" 
d="M175 722h125l262 -722h-124zM332 413l62 -83l-239 -330h-124zM565 722h124l-289 -394l-69 78zM301 717h-124v0q0 1 -1 2l-1 3h62h63v-3l1 -2v0zM685 717h-124v0l2 2l2 3h62h62q0 -1 -2 -3l-2 -2v0zM159 5v0l-2 -2l-2 -3h-62h-62q1 1 2 3l2 2v0h124zM560 5v0q0 -1 1 -2
l1 -3h-62h-62q-1 1 -1 3l-1 2v0h124z" />
    <glyph glyph-name="Y_cap" unicode="Y" horiz-adv-x="548" 
d="M141 722h131l97 -281l-88 -117zM535 722h131l-280 -398l-47 117zM295 441h117l-76 -436h-118zM336 5v0q0 -1 -1 -2v-3h-59h-59q0 1 1 3v2v0h118zM273 717h-131v0q0 1 -1 2v3h65h66l1 -3v-2v0zM663 717h-131v0v1l1 1l2 3h66h65q0 -1 -2 -3l-1 -2v0z" />
    <glyph glyph-name="Z_cap" unicode="Z" horiz-adv-x="625" 
d="M708 722l-17 -96h-521l17 96h521zM45 0l17 96h535l-16 -96h-536zM571 649l120 -23l-508 -553l-121 23zM592 96v0h3h2q-4 -28 -8 -48q-1 -7 -4 -24t-4 -24v0h-5zM192 722l-17 -96v0h-2h-3q1 6 4 23t5 25q1 7 4 24t4 24v0h5z" />
    <glyph glyph-name="bracketleft" unicode="[" horiz-adv-x="334" 
d="M255 722h65l-147 -837h-66zM320 722h112l-10 -57h-112zM183 -58h111l-10 -57h-111z" />
    <glyph glyph-name="backslash" unicode="\" horiz-adv-x="333" 
d="M290 0l-163 722h44l162 -722h-43z" />
    <glyph glyph-name="bracketright" unicode="]" horiz-adv-x="332" 
d="M269 722h65l-147 -837h-65zM157 722h112l-10 -57h-112zM20 -58h111l-9 -57h-112z" />
    <glyph glyph-name="underscore" unicode="_" horiz-adv-x="649" 
d="M27 -130l11 60h550l-11 -60h-550z" />
    <glyph glyph-name="a" unicode="a" 
d="M122 361q11 64 71 102.5t146 38.5q193 0 161 -181l-41 -228q-2 -14 4 -16.5t38 -2.5l-13 -74q-40 0 -59.5 0.5t-38.5 4.5t-25 8t-9.5 16.5t-2 25.5t5.5 38l48 270q5 29 -17 42.5t-65 13.5q-46 0 -78 -24t-39 -63zM409 198q-21 -115 -75 -161.5t-142 -46.5
q-150 0 -125 139q8 50 54.5 87.5t113.5 49.5q78 13 121.5 35.5t50.5 61.5l46 -21q-11 -63 -54 -95t-116 -45q-48 -8 -79.5 -27.5t-36.5 -42.5q-12 -73 68 -73q58 0 94.5 31t49.5 108h30z" />
    <glyph glyph-name="b" unicode="b" horiz-adv-x="557" 
d="M75 5l125 712h100l-125 -712h-100zM175 246q23 129 82 192.5t144 63.5q88 0 129 -70.5t21 -185.5q-21 -116 -87 -186t-154 -70q-84 0 -121 64t-14 192zM292 72q53 0 94.5 48t55.5 126q13 78 -11.5 126t-77.5 48q-49 0 -84.5 -43.5t-51.5 -130.5q-15 -87 5.5 -130.5
t69.5 -43.5zM175 5l-1 -5v0h-50h-50v3l1 2v0h100zM300 717h-100v0q1 1 1 2v3h50h50v0q0 -1 -1 -5z" />
    <glyph glyph-name="c" unicode="c" horiz-adv-x="505" 
d="M416 168l82 -44q-11 -60 -72.5 -97t-152.5 -37q-104 0 -151.5 63.5t-24.5 192.5q22 128 92.5 192t173.5 64t144.5 -40t29.5 -111l-95 -43q18 116 -93 116q-52 0 -89.5 -44.5t-53.5 -133.5q-15 -87 7 -130t74 -43q50 0 86 26t43 69z" />
    <glyph glyph-name="d" unicode="d" horiz-adv-x="552" 
d="M97 246q20 115 89 185.5t161 70.5q75 0 108.5 -70.5t13.5 -185.5t-78.5 -185.5t-133.5 -70.5q-92 0 -136 70.5t-24 185.5zM304 72q41 0 74.5 48t47.5 126t-3 126t-57 48q-58 0 -102 -48t-58 -126t13 -126t85 -48zM383 5l126 712h100l-126 -712h-100zM483 5v0v-2l-1 -3
h-50h-50v0q0 1 1 5h100zM609 717h-100v0v2q0 3 1 3h50h50q-2 0 0 0q-1 0 -1 -5z" />
    <glyph glyph-name="e" unicode="e" horiz-adv-x="506" 
d="M412 162l87 -36q-10 -61 -75 -98.5t-160 -37.5q-99 0 -144.5 63.5t-22.5 192.5q23 128 92.5 192t171.5 64q219 0 172 -265h-100h-229l12 69h229l-12 -69q33 187 -86 187q-51 0 -88 -44.5t-53 -133.5q-15 -86 4.5 -129.5t67.5 -43.5q53 0 90 24.5t44 64.5z" />
    <glyph glyph-name="f" unicode="f" horiz-adv-x="368" 
d="M99 5l105 592q12 67 44.5 96t97.5 29h80l-15 -83l-53 1q-25 1 -37 -9t-17 -34l-105 -592h-100zM117 492h268l-14 -78h-268zM199 5v0q2 0 0 -2v-3h-50h-50v3q2 2 0 2q1 0 0 0h100zM421 722h5q-2 0 0 0q-4 -18 -8 -41q-1 -6 -3.5 -20.5t-3.5 -21.5h-3h-2v0z" />
    <glyph glyph-name="g" unicode="g" horiz-adv-x="552" 
d="M97 246q46 256 238 256q81 0 117.5 -70t16.5 -186q-19 -111 -80.5 -178.5t-141.5 -67.5q-193 0 -150 246zM354 420q-117 0 -148 -174q-29 -164 88 -164q46 0 82 45t50 119q13 78 -6.5 126t-65.5 48zM44 -54h109q-5 -31 23 -45.5t83 -14.5q103 0 123 114l86 487h100
l-78 -445q-43 -238 -237 -238q-110 0 -166 34.5t-43 107.5zM568 487h-100l1 5v0h50h50v-3l-1 -2v0z" />
    <glyph glyph-name="h" unicode="h" horiz-adv-x="523" 
d="M75 5l125 712h100l-125 -712h-100zM354 5l50 282q10 58 -6 89t-52 31q-45 0 -78 -29.5t-41 -78.5h-34q17 89 73.5 143.5t133.5 54.5q65 0 93.5 -54t10.5 -156l-50 -282h-100zM175 5v0q0 -1 -1 -2v-3h-50h-50v3l1 2v0h100zM300 717h-100v0q1 1 1 2v3h50h50v0q0 -1 -1 -5z
M454 5v0q0 -1 -1 -2v-3h-50h-50v3l1 2v0h100z" />
    <glyph glyph-name="i" unicode="i" horiz-adv-x="247" 
d="M78 5l85 482h100l-85 -482h-100zM178 572l17 100h100l-17 -100h-100zM178 5v0q0 -1 -1 -2v-3h-50h-50v3l1 2v0h100zM263 487h-100v0v2l1 3h50h50v0q0 -1 -1 -5z" />
    <glyph glyph-name="j" unicode="j" horiz-adv-x="229" 
d="M-28 -75h24q29 0 42 15.5t21 59.5l86 487h100l-86 -487q-17 -92 -48 -125t-103 -33h-51zM160 572l18 100h100l-18 -100h-100zM245 487h-100v0q0 1 1 2v3h50h50v0q0 -1 -1 -5z" />
    <glyph glyph-name="k" unicode="k" horiz-adv-x="484" 
d="M75 5l125 712h100l-125 -712h-100zM119 207l308 285h113l-334 -308zM364 0l-85 251l88 82l108 -333h-111zM175 5v0q0 -1 -1 -2v-3h-50h-50v3l1 2v0h100zM300 717h-100v0q1 1 1 2v3h50h50v0q0 -1 -1 -5zM473 5v0q0 -1 1 -2l1 -3h-56h-55v0q-1 0 -2 5h111zM534 487h-112v0
l2 2l3 3h56h57l-3 -3q-2 -2 -3 -2q2 0 0 0z" />
    <glyph glyph-name="l" unicode="l" horiz-adv-x="244" 
d="M75 5l125 712h100l-125 -712h-100zM175 5v0q0 -1 -1 -2v-3h-50h-50v3l1 2v0h100zM300 717h-100v0q1 1 1 2v3h50h50v0q0 -1 -1 -5z" />
    <glyph glyph-name="m" unicode="m" horiz-adv-x="771" 
d="M75 5l85 482h100l-85 -482h-100zM344 5l50 282q10 58 -4.5 89t-49.5 31q-42 0 -73.5 -29.5t-39.5 -78.5h-34q17 89 72 143.5t130 54.5q62 0 89.5 -54t9.5 -156l-50 -282h-100zM607 5l50 282q10 58 -4 89t-47 31q-41 0 -71.5 -29.5t-38.5 -78.5h-34q16 89 70.5 143.5
t127.5 54.5q62 0 88.5 -54t8.5 -156l-50 -282h-100zM175 5v0q0 -1 -1 -2v-3h-50h-50v3l1 2v0h100zM260 487h-100v0v2l1 3h50h50v0q0 -1 -1 -5zM444 5v0q0 -1 -1 -2v-3h-50h-50v3l1 2v0h100zM707 5v0q0 -1 -1 -2v-3h-50h-50v3l1 2v0h100z" />
    <glyph glyph-name="n" unicode="n" 
d="M75 5l85 482h100l-85 -482h-100zM354 5l50 282q10 58 -6 89t-52 31q-45 0 -78 -29.5t-41 -78.5h-34q17 89 73.5 143.5t133.5 54.5q65 0 93.5 -54t10.5 -156l-50 -282h-100zM175 5v0q0 -1 -1 -2v-3h-50h-50v3l1 2v0h100zM260 487h-100v0v2l1 3h50h50v0q0 -1 -1 -5zM454 5
v0q0 -1 -1 -2v-3h-50h-50v3l1 2v0h100z" />
    <glyph glyph-name="o" unicode="o" horiz-adv-x="549" 
d="M97 246q22 128 93 192t175 64q112 0 155.5 -68t22.5 -188q-23 -129 -93.5 -192.5t-174.5 -63.5q-112 0 -155.5 68t-22.5 188zM288 64q54 0 92 45t54 137q16 85 -4.5 133.5t-77.5 48.5q-53 0 -91.5 -45.5t-54.5 -136.5q-15 -85 5 -133.5t77 -48.5z" />
    <glyph glyph-name="p" unicode="p" horiz-adv-x="557" 
d="M48 -150l112 637h100l-112 -637h-100zM175 246q23 129 79 192.5t135 63.5q93 0 137.5 -70.5t24.5 -185.5q-21 -116 -90 -186t-162 -70q-80 0 -113.5 63.5t-10.5 192.5zM280 72q59 0 103.5 48t58.5 126t-14 126t-86 48q-44 0 -76.5 -43.5t-48.5 -130.5q-15 -87 2 -130.5
t61 -43.5zM148 -150v0q-1 -1 -1 -2v-3h-50h-50v3l1 2v0h100zM260 487h-100v0v2l1 3h50h50v0q0 -1 -1 -5z" />
    <glyph glyph-name="q" unicode="q" horiz-adv-x="552" 
d="M97 246q20 115 82.5 185.5t143.5 70.5q86 0 126 -70t20 -186t-85 -186t-151 -70q-82 0 -119 70t-17 186zM281 72q51 0 91 48t54 126q13 78 -10 126t-74 48q-47 0 -84.5 -48t-51.5 -126t7 -126t68 -48zM356 -150l112 637h100l-112 -637h-100zM456 -150v0v-2l-1 -3h-50h-50
q0 1 1 3v2v0h100zM568 487h-100l1 5v0h50h50v-3l-1 -2v0z" />
    <glyph glyph-name="r" unicode="r" horiz-adv-x="342" 
d="M75 5l85 482h100l-85 -482h-100zM390 384h-20q-129 0 -159 -175h-34q52 283 222 283h10zM175 5v0q0 -1 -1 -2v-3h-50h-50v3l1 2v0h100zM260 487h-100v0v2l1 3h50h50v0q0 -1 -1 -5z" />
    <glyph glyph-name="s" unicode="s" horiz-adv-x="472" 
d="M53 131l97 35q-7 -42 22.5 -67.5t85.5 -25.5q44 0 74 16.5t35 43.5q4 26 -21 44t-77 24q-82 11 -119 51t-26 98q11 66 68.5 106.5t140.5 40.5q82 0 126.5 -38.5t33.5 -100.5l-89 -36q8 45 -15 73t-69 28q-40 0 -67.5 -18t-31.5 -47q-5 -25 17.5 -43t69.5 -24
q88 -12 129 -51.5t31 -97.5q-12 -66 -73.5 -106.5t-150.5 -40.5q-97 0 -149.5 37.5t-41.5 98.5z" />
    <glyph glyph-name="t" unicode="t" horiz-adv-x="315" 
d="M203 639l114 83l-104 -592q-6 -27 -0.5 -37.5t35.5 -10.5h52l-15 -82h-95q-68 0 -81 28.5t4 101.5zM372 492l-14 -78h-275l14 78h275z" />
    <glyph glyph-name="u" unicode="u" horiz-adv-x="507" 
d="M155 487h100l-51 -287q-10 -58 2 -89t42 -31q57 0 85 29t38 83l-22 -122q-65 -80 -148 -80q-62 0 -88.5 54t-8.5 156zM338 5l85 482h100l-85 -482h-100zM255 487h-100v0v2l1 3h50h50v0q0 -1 -1 -5zM523 487h-100v0v2l1 3h50h50v0q0 -1 -1 -5zM438 5v0q0 -1 -1 -2v-3h-50
h-50v0q0 1 1 5h100z" />
    <glyph glyph-name="v" unicode="v" horiz-adv-x="458" 
d="M100 492h114l47 -492h-87zM283 0h-87l226 492h113zM214 487h-113v0v2q0 3 -1 3h57h57v-3v-2v0zM532 487h-112v0q0 1 1 2l1 3h56h57q-1 -1 -1 -3l-2 -2q2 0 0 0z" />
    <glyph glyph-name="w" unicode="w" horiz-adv-x="694" 
d="M100 492h106l27 -492h-78zM255 0h-78l215 492h87zM392 492h87l42 -492h-78zM543 0h-78l200 492h106zM207 487h-106v0v2l-1 3h53h53q2 0 0 -3l1 -2v0zM769 487h-106v0q0 1 1 2l1 3h53h53q1 0 -1 -3l-1 -2v0z" />
    <glyph glyph-name="x" unicode="x" horiz-adv-x="478" 
d="M93 492h122l258 -492h-121zM414 492h109l-432 -492h-108z" />
    <glyph glyph-name="y" unicode="y" horiz-adv-x="485" 
d="M10 -200l15 87h50q43 0 66.5 16.5t48.5 63.5l259 525h113l-301 -563q-39 -75 -81 -102t-120 -27h-50zM100 492h114l61 -385l-74 -149zM559 487h-112v0q0 1 1 2l1 3h56h57q-1 -1 -1 -3l-2 -2v0zM214 487h-113v0q2 0 0 2q0 3 -1 3h57h57v-3v-2v0z" />
    <glyph glyph-name="z" unicode="z" horiz-adv-x="432" 
d="M132 492h245h106l-11 -61l-313 -360l-129 -71l11 61l111 17h274l-14 -78h-274h-108l11 61l311 364l120 6l-109 -17h-245zM421 78v0h2h3q-6 -33 -7 -39q-6 -33 -7 -39v0h-5zM137 492l-14 -78v0h-3h-2q6 33 7 39q6 33 7 39v0h5z" />
    <glyph glyph-name="braceleft" unicode="{" horiz-adv-x="318" 
d="M416 722l-10 -57h-60q-16 0 -28 -13.5t-16 -35.5q-11 -63 -20.5 -116t-14.5 -79.5t-5 -25.5q-5 -32 -28.5 -58t-55.5 -35l-74 -22l9 47l65 -22q29 -9 43.5 -35t8.5 -58l-39 -221q-4 -22 3.5 -35.5t23.5 -13.5h60l-10 -57h-60q-45 0 -67.5 29t-14.5 77l41 234q5 25 -10 40
t-44 15h-9l9 47h8q29 0 49 15t25 40q17 94 41 234q9 48 41.5 77t78.5 29h60z" />
    <glyph glyph-name="bar" unicode="|" horiz-adv-x="155" 
d="M181 772h65l-180 -1022h-65z" />
    <glyph glyph-name="braceright" unicode="}" horiz-adv-x="318" 
d="M157 722l-10 -57h61q16 0 23 -13.5t3 -35.5q-10 -58 -20 -114.5t-14 -81.5l-5 -25q-5 -33 9 -58.5t43 -34.5l66 -22l8 47l-73 -22q-33 -9 -56 -34.5t-29 -58.5l-39 -221q-4 -22 -16 -35.5t-28 -13.5h-60l-10 -57h60q45 0 78 29t41 77l41 234q4 25 24.5 40t49.5 15h9l8 47
h-8q-29 0 -44 15t-11 40q16 94 41 234q8 48 -14 77t-67 29h-61z" />
    <glyph glyph-name="nobreakspace" unicode="&#xa0;" horiz-adv-x="189" 
 />
    <glyph glyph-name="exclamdown" unicode="&#xa1;" horiz-adv-x="207" 
d="M4 -233l53 299l82 221h31l4 -221l-53 -299h-117zM117 383l19 109h109l-19 -109h-109z" />
    <glyph glyph-name="cent" unicode="&#xa2;" horiz-adv-x="498" 
d="M409 168l82 -44q-11 -60 -72 -97t-150 -37q-101 0 -148 63.5t-24 192.5t92 192.5t170 63.5t142 -40t29 -111l-95 -43q18 116 -89 116q-51 0 -87.5 -44.5t-52.5 -133.5q-15 -87 6 -130t72 -43q49 0 83.5 26t41.5 69zM349 592h65l-122 -692h-65z" />
    <glyph glyph-name="guillemotleft" unicode="&#xab;" horiz-adv-x="506" 
d="M272 445h87l-155 -199l85 -199h-87l-85 199zM432 445h87l-156 -199l85 -199h-86l-86 199z" />
    <glyph glyph-name="guillemotright" unicode="&#xbb;" horiz-adv-x="488" 
d="M140 445h87l86 -199l-156 -199h-87l156 199zM300 445h87l85 -199l-155 -199h-87l155 199z" />
    <glyph glyph-name="a_cap_grave" unicode="&#xc0;" horiz-adv-x="685" 
d="M14 0l400 722h124l138 -722h-127l-133 722h117l-392 -722h-127zM520 160l-292 1l49 89h226zM143 5v0q-1 -1 -1 -2l-1 -3h-63h-64q1 1 2 3l1 2v0h126zM675 5v0v-2l1 -3h-64h-63v3v2v0h126zM530 717h-119v0l2 2l1 3h60h59v0q0 -1 -3 -5zM446 802l-58 150h130l19 -150h-91z
" />
    <glyph glyph-name="a_cap_acute" unicode="&#xc1;" horiz-adv-x="685" 
d="M14 0l400 722h124l138 -722h-127l-133 722h117l-392 -722h-127zM520 160l-292 1l49 89h226zM143 5v0q-1 -1 -1 -2l-1 -3h-63h-64q1 1 2 3l1 2v0h126zM675 5v0v-2l1 -3h-64h-63v3v2v0h126zM530 717h-119v0l2 2l1 3h60h59v0q0 -1 -3 -5zM446 802l71 150h130l-110 -150h-91z
" />
    <glyph glyph-name="a_cap_circumflex" unicode="&#xc2;" horiz-adv-x="685" 
d="M14 0l400 722h124l138 -722h-127l-133 722h117l-392 -722h-127zM520 160l-292 1l49 89h226zM143 5v0q-1 -1 -1 -2l-1 -3h-63h-64q1 1 2 3l1 2v0h126zM675 5v0v-2l1 -3h-64h-63v3v2v0h126zM530 717h-119v0l2 2l1 3h60h59v0q0 -1 -3 -5zM504 874l-82 -72h-92l137 150h101
l84 -150h-91z" />
    <glyph glyph-name="a_cap_tilde" unicode="&#xc3;" horiz-adv-x="685" 
d="M14 0l400 722h124l138 -722h-127l-133 722h117l-392 -722h-127zM520 160l-292 1l49 89h226zM143 5v0q-1 -1 -1 -2l-1 -3h-63h-64q1 1 2 3l1 2v0h126zM675 5v0v-2l1 -3h-64h-63v3v2v0h126zM530 717h-119v0l2 2l1 3h60h59v0q0 -1 -3 -5zM461 949q20 0 33 -12.5t18.5 -27
t15.5 -27t24 -12.5l-7 -78q-20 0 -33 12.5t-18 27t-15 27t-25 12.5zM422 802h-74q12 66 43 106.5t70 40.5l-7 -78q-19 0 -32 -69zM545 792l7 78q20 0 32 69h74q-12 -66 -43 -106.5t-70 -40.5z" />
    <glyph glyph-name="a_cap_dieresis" unicode="&#xc4;" horiz-adv-x="685" 
d="M14 0l400 722h124l138 -722h-127l-133 722h117l-392 -722h-127zM520 160l-292 1l49 89h226zM143 5v0q-1 -1 -1 -2l-1 -3h-63h-64q1 1 2 3l1 2v0h126zM675 5v0v-2l1 -3h-64h-63v3v2v0h126zM530 717h-119v0l2 2l1 3h60h59v0q0 -1 -3 -5zM362 802l19 109h109l-20 -109h-108z
M512 802l19 109h109l-19 -109h-109z" />
    <glyph glyph-name="a_cap_ring" unicode="&#xc5;" horiz-adv-x="685" 
d="M14 0l400 722h124l138 -722h-127l-133 722h117l-392 -722h-127zM520 160l-292 1l49 89h226zM143 5v0q-1 -1 -1 -2l-1 -3h-63h-64q1 1 2 3l1 2v0h126zM675 5v0v-2l1 -3h-64h-63v3v2v0h126zM530 717h-119v0l2 2l1 3h60h59v0q0 -1 -3 -5zM421 887q7 40 33.5 62.5t66.5 22.5
q41 0 59 -22.5t11 -62.5q-15 -85 -100 -85q-84 0 -70 85zM499 848q36 0 42 39q8 39 -28 39q-34 0 -42 -39q-6 -39 28 -39z" />
    <glyph glyph-name="c_cap_cedilla" unicode="&#xc7;" horiz-adv-x="707" 
d="M641 227l74 -72q-14 -74 -103.5 -119.5t-222.5 -45.5q-148 0 -223 108.5t-48 262.5t140.5 262.5t261.5 108.5q127 0 200.5 -45.5t66.5 -119.5l-98 -72q5 64 -46 102.5t-140 38.5q-92 0 -165 -80t-94 -195q-20 -115 25 -195t137 -80q95 0 159.5 38.5t75.5 102.5zM358 28
h35l-65 -146l7 35q14 29 38 29q35 0 52 -26t9 -69q-7 -42 -35.5 -68t-67.5 -26q-26 0 -44 15t-21 40l44 31q5 -39 27 -39q15 0 26 13t15 34t-2 34t-20 13q-22 0 -28 -16l-27 17z" />
    <glyph glyph-name="e_cap_grave" unicode="&#xc8;" horiz-adv-x="597" 
d="M91 5l125 712h117l-125 -712h-117zM334 722h327l-16 -96h-328zM281 418h310l-16 -91h-310zM207 0l17 96h340l-17 -96h-340zM208 5l-1 -5v0h-59h-58v3l1 2v0h117zM333 717h-117v0q0 1 1 2v3h59h58v0q0 -1 -1 -5zM586 418v0h2h3q-4 -18 -8 -45q-4 -20 -8 -46h-3h-2v0z
M656 722h5v0q-1 -7 -4 -24t-4 -24q-4 -20 -8 -48h-3h-2v0zM559 96v0h2h3q-1 -6 -4 -23t-5 -25q-5 -32 -8 -48v0h-5zM408 802l-58 150h130l19 -150h-91z" />
    <glyph glyph-name="e_cap_acute" unicode="&#xc9;" horiz-adv-x="597" 
d="M91 5l125 712h117l-125 -712h-117zM334 722h327l-16 -96h-328zM281 418h310l-16 -91h-310zM207 0l17 96h340l-17 -96h-340zM208 5l-1 -5v0h-59h-58v3l1 2v0h117zM333 717h-117v0q0 1 1 2v3h59h58v0q0 -1 -1 -5zM586 418v0h2h3q-4 -18 -8 -45q-4 -20 -8 -46h-3h-2v0z
M656 722h5v0q-1 -7 -4 -24t-4 -24q-4 -20 -8 -48h-3h-2v0zM559 96v0h2h3q-1 -6 -4 -23t-5 -25q-5 -32 -8 -48v0h-5zM408 802l71 150h130l-110 -150h-91z" />
    <glyph glyph-name="e_cap_circumflex" unicode="&#xca;" horiz-adv-x="597" 
d="M91 5l125 712h117l-125 -712h-117zM334 722h327l-16 -96h-328zM281 418h310l-16 -91h-310zM207 0l17 96h340l-17 -96h-340zM208 5l-1 -5v0h-59h-58v3l1 2v0h117zM333 717h-117v0q0 1 1 2v3h59h58v0q0 -1 -1 -5zM586 418v0h2h3q-4 -18 -8 -45q-4 -20 -8 -46h-3h-2v0z
M656 722h5v0q-1 -7 -4 -24t-4 -24q-4 -20 -8 -48h-3h-2v0zM559 96v0h2h3q-1 -6 -4 -23t-5 -25q-5 -32 -8 -48v0h-5zM466 874l-82 -72h-92l137 150h101l84 -150h-91z" />
    <glyph glyph-name="e_cap_dieresis" unicode="&#xcb;" horiz-adv-x="597" 
d="M91 5l125 712h117l-125 -712h-117zM334 722h327l-16 -96h-328zM281 418h310l-16 -91h-310zM207 0l17 96h340l-17 -96h-340zM208 5l-1 -5v0h-59h-58v3l1 2v0h117zM333 717h-117v0q0 1 1 2v3h59h58v0q0 -1 -1 -5zM586 418v0h2h3q-4 -18 -8 -45q-4 -20 -8 -46h-3h-2v0z
M656 722h5v0q-1 -7 -4 -24t-4 -24q-4 -20 -8 -48h-3h-2v0zM559 96v0h2h3q-1 -6 -4 -23t-5 -25q-5 -32 -8 -48v0h-5zM324 802l19 109h109l-20 -109h-108zM474 802l19 109h109l-19 -109h-109z" />
    <glyph glyph-name="i_cap_grave" unicode="&#xcc;" horiz-adv-x="286" 
d="M85 5l126 712h117l-125 -712h-118zM203 5v0q0 -1 -1 -2v-3h-59h-58v3q2 2 0 2q1 0 0 0h118zM328 717h-117v0v2l1 3h59h58v-3l-1 -2v0zM239 802l-58 150h131l18 -150h-91z" />
    <glyph glyph-name="i_cap_acute" unicode="&#xcd;" horiz-adv-x="286" 
d="M85 5l126 712h117l-125 -712h-118zM203 5v0q0 -1 -1 -2v-3h-59h-58v3q2 2 0 2q1 0 0 0h118zM328 717h-117v0v2l1 3h59h58v-3l-1 -2v0zM239 802l71 150h131l-111 -150h-91z" />
    <glyph glyph-name="i_cap_circumflex" unicode="&#xce;" horiz-adv-x="286" 
d="M85 5l126 712h117l-125 -712h-118zM203 5v0q0 -1 -1 -2v-3h-59h-58v3q2 2 0 2q1 0 0 0h118zM328 717h-117v0v2l1 3h59h58v-3l-1 -2v0zM297 874l-82 -72h-91l137 150h101l84 -150h-92z" />
    <glyph glyph-name="i_cap_dieresis" unicode="&#xcf;" horiz-adv-x="286" 
d="M85 5l126 712h117l-125 -712h-118zM203 5v0q0 -1 -1 -2v-3h-59h-58v3q2 2 0 2q1 0 0 0h118zM328 717h-117v0v2l1 3h59h58v-3l-1 -2v0zM155 802l19 109h109l-19 -109h-109zM306 802l19 109h108l-19 -109h-108z" />
    <glyph glyph-name="n_cap_tilde" unicode="&#xd1;" horiz-adv-x="699" 
d="M216 717h117l-125 -712h-117zM217 722h128l236 -722h-128zM624 717h117l-126 -717h-118zM208 5v0q0 -1 -1 -2v-3h-59h-58v3l1 2v0h117zM333 717h-117v0q0 1 1 2v3h59h58v0q0 -1 -1 -5zM741 717h-117v0v2q0 3 1 3h58h59v-3l-1 -2v0zM464 949q20 0 33 -12.5t18 -27t15 -27
t25 -12.5l-7 -78q-20 0 -33 12.5t-18.5 27t-15 27t-24.5 12.5zM425 802h-74q11 66 42 106.5t71 40.5l-7 -78q-20 0 -32 -69zM548 792l7 78q19 0 32 69h73q-11 -66 -42 -106.5t-70 -40.5z" />
    <glyph glyph-name="o_cap_grave" unicode="&#xd2;" horiz-adv-x="804" 
d="M123 361q28 158 145.5 264.5t264.5 106.5q148 0 228 -106.5t52 -264.5q-30 -167 -142.5 -269t-267.5 -102q-156 0 -232.5 102t-47.5 269zM419 86q99 0 172.5 75.5t95.5 199.5q20 118 -28.5 196.5t-141.5 78.5q-94 0 -170.5 -78.5t-97.5 -196.5q-22 -124 25 -199.5
t145 -75.5zM500 802l-58 150h131l18 -150h-91z" />
    <glyph glyph-name="o_cap_acute" unicode="&#xd3;" horiz-adv-x="804" 
d="M123 361q28 158 145.5 264.5t264.5 106.5q148 0 228 -106.5t52 -264.5q-30 -167 -142.5 -269t-267.5 -102q-156 0 -232.5 102t-47.5 269zM419 86q99 0 172.5 75.5t95.5 199.5q20 118 -28.5 196.5t-141.5 78.5q-94 0 -170.5 -78.5t-97.5 -196.5q-22 -124 25 -199.5
t145 -75.5zM500 802l71 150h131l-111 -150h-91z" />
    <glyph glyph-name="o_cap_circumflex" unicode="&#xd4;" horiz-adv-x="804" 
d="M123 361q28 158 145.5 264.5t264.5 106.5q148 0 228 -106.5t52 -264.5q-30 -167 -142.5 -269t-267.5 -102q-156 0 -232.5 102t-47.5 269zM419 86q99 0 172.5 75.5t95.5 199.5q20 118 -28.5 196.5t-141.5 78.5q-94 0 -170.5 -78.5t-97.5 -196.5q-22 -124 25 -199.5
t145 -75.5zM558 874l-82 -72h-91l137 150h101l84 -150h-92z" />
    <glyph glyph-name="o_cap_tilde" unicode="&#xd5;" horiz-adv-x="804" 
d="M123 361q28 158 145.5 264.5t264.5 106.5q148 0 228 -106.5t52 -264.5q-30 -167 -142.5 -269t-267.5 -102q-156 0 -232.5 102t-47.5 269zM419 86q99 0 172.5 75.5t95.5 199.5q20 118 -28.5 196.5t-141.5 78.5q-94 0 -170.5 -78.5t-97.5 -196.5q-22 -124 25 -199.5
t145 -75.5zM516 949q20 0 33 -12.5t18 -27t15 -27t25 -12.5l-7 -78q-20 0 -33 12.5t-18.5 27t-15 27t-24.5 12.5zM477 802h-74q12 66 43 106.5t70 40.5l-7 -78q-19 0 -32 -69zM600 792l7 78q19 0 32 69h74q-12 -66 -43 -106.5t-70 -40.5z" />
    <glyph glyph-name="o_cap_dieresis" unicode="&#xd6;" horiz-adv-x="804" 
d="M123 361q28 158 145.5 264.5t264.5 106.5q148 0 228 -106.5t52 -264.5q-30 -167 -142.5 -269t-267.5 -102q-156 0 -232.5 102t-47.5 269zM419 86q99 0 172.5 75.5t95.5 199.5q20 118 -28.5 196.5t-141.5 78.5q-94 0 -170.5 -78.5t-97.5 -196.5q-22 -124 25 -199.5
t145 -75.5zM416 802l19 109h109l-19 -109h-109zM567 802l19 109h108l-19 -109h-108z" />
    <glyph glyph-name="O_cap_slash" unicode="&#xd8;" horiz-adv-x="804" 
d="M123 361q28 158 145.5 264.5t264.5 106.5q148 0 228 -106.5t52 -264.5q-30 -167 -142.5 -269t-267.5 -102q-156 0 -232.5 102t-47.5 269zM419 86q99 0 172.5 75.5t95.5 199.5q20 118 -28.5 196.5t-141.5 78.5q-94 0 -170.5 -78.5t-97.5 -196.5q-22 -124 25 -199.5
t145 -75.5zM58 -10l755 742h65l-755 -742h-65z" />
    <glyph glyph-name="u_cap_grave" unicode="&#xd9;" horiz-adv-x="698" 
d="M209 717h117l-73 -417q-36 -201 115 -201t186 201l74 417h117l-77 -438q-50 -289 -319 -289q-268 0 -217 289zM326 717h-117v0q0 1 1 2v3h59h58v-3l-1 -2v0zM745 717h-117v0v2l1 3h59h58v-3l-1 -2v0zM445 792l-58 150h131l18 -150h-91z" />
    <glyph glyph-name="u_cap_acute" unicode="&#xda;" horiz-adv-x="698" 
d="M209 717h117l-73 -417q-36 -201 115 -201t186 201l74 417h117l-77 -438q-50 -289 -319 -289q-268 0 -217 289zM326 717h-117v0q0 1 1 2v3h59h58v-3l-1 -2v0zM745 717h-117v0v2l1 3h59h58v-3l-1 -2v0zM445 792l71 150h131l-111 -150h-91z" />
    <glyph glyph-name="u_cap_circumflex" unicode="&#xdb;" horiz-adv-x="698" 
d="M209 717h117l-73 -417q-36 -201 115 -201t186 201l74 417h117l-77 -438q-50 -289 -319 -289q-268 0 -217 289zM326 717h-117v0q0 1 1 2v3h59h58v-3l-1 -2v0zM745 717h-117v0v2l1 3h59h58v-3l-1 -2v0zM503 864l-82 -72h-91l136 150h101l84 -150h-91z" />
    <glyph glyph-name="u_cap_dieresis" unicode="&#xdc;" horiz-adv-x="698" 
d="M209 717h117l-73 -417q-36 -201 115 -201t186 201l74 417h117l-77 -438q-50 -289 -319 -289q-268 0 -217 289zM326 717h-117v0q0 1 1 2v3h59h58v-3l-1 -2v0zM745 717h-117v0v2l1 3h59h58v-3l-1 -2v0zM361 792l19 109h109l-19 -109h-109zM511 792l19 109h109l-19 -109
h-109z" />
    <glyph glyph-name="y_cap_acute" unicode="&#xdd;" horiz-adv-x="548" 
d="M141 722h131l97 -281l-88 -117zM535 722h131l-280 -398l-47 117zM295 441h117l-76 -436h-118zM336 5v0q0 -1 -1 -2v-3h-59h-59q0 1 1 3v2v0h118zM273 717h-131v0q0 1 -1 2v3h65h66l1 -3v-2v0zM663 717h-131v0v1l1 1l2 3h66h65q0 -1 -2 -3l-1 -2v0zM372 802l71 150h131
l-111 -150h-91z" />
    <glyph glyph-name="a_grave" unicode="&#xe0;" 
d="M58 361q0 64 53 102.5t140 38.5q192 0 192 -181v-228q0 -14 6.5 -16.5t38.5 -2.5v-74q-40 0 -59.5 0.5t-39 4.5t-26.5 8t-13 16.5t-6.5 25.5t-0.5 38v270q0 56 -92 56q-46 0 -74 -24t-28 -63zM374 198q0 -115 -46 -161.5t-134 -46.5q-150 0 -150 139q0 50 39.5 87.5
t104.5 49.5q76 13 115.5 35.5t39.5 61.5l50 -21q0 -63 -37.5 -95t-108.5 -45q-46 -8 -74.5 -27.5t-28.5 -42.5q0 -73 81 -73q58 0 88.5 31t30.5 108h30zM205 572l-84 150h130l45 -150h-91z" />
    <glyph glyph-name="a_acute" unicode="&#xe1;" 
d="M58 361q0 64 53 102.5t140 38.5q192 0 192 -181v-228q0 -14 6.5 -16.5t38.5 -2.5v-74q-40 0 -59.5 0.5t-39 4.5t-26.5 8t-13 16.5t-6.5 25.5t-0.5 38v270q0 56 -92 56q-46 0 -74 -24t-28 -63zM374 198q0 -115 -46 -161.5t-134 -46.5q-150 0 -150 139q0 50 39.5 87.5
t104.5 49.5q76 13 115.5 35.5t39.5 61.5l50 -21q0 -63 -37.5 -95t-108.5 -45q-46 -8 -74.5 -27.5t-28.5 -42.5q0 -73 81 -73q58 0 88.5 31t30.5 108h30zM205 572l45 150h130l-84 -150h-91z" />
    <glyph glyph-name="a_circumflex" unicode="&#xe2;" 
d="M58 361q0 64 53 102.5t140 38.5q192 0 192 -181v-228q0 -14 6.5 -16.5t38.5 -2.5v-74q-40 0 -59.5 0.5t-39 4.5t-26.5 8t-13 16.5t-6.5 25.5t-0.5 38v270q0 56 -92 56q-46 0 -74 -24t-28 -63zM374 198q0 -115 -46 -161.5t-134 -46.5q-150 0 -150 139q0 50 39.5 87.5
t104.5 49.5q76 13 115.5 35.5t39.5 61.5l50 -21q0 -63 -37.5 -95t-108.5 -45q-46 -8 -74.5 -27.5t-28.5 -42.5q0 -73 81 -73q58 0 88.5 31t30.5 108h30zM251 644l-70 -72h-91l110 150h101l111 -150h-92z" />
    <glyph glyph-name="a_alt_tilde" unicode="&#xe3;" horiz-adv-x="544" 
d="M54 246q0 116 48.5 186t127.5 70q85 0 136.5 -70.5t51.5 -185.5t-51.5 -185.5t-136.5 -70.5q-79 0 -127.5 70t-48.5 186zM263 72q50 0 80.5 48t30.5 126t-30.5 126t-80.5 48q-45 0 -72.5 -48t-27.5 -126t27.5 -126t72.5 -48zM374 0v492h100v-492h-100zM208 719
q20 0 35.5 -12.5t23 -27t19.5 -27t27 -12.5l7 -78q-20 0 -35.5 12.5t-23 27t-19.5 27t-27 12.5zM195 572h-74q0 66 24 106.5t63 40.5l7 -78q-20 0 -20 -69zM320 562l-7 78q20 0 20 69h74q0 -66 -24 -106.5t-63 -40.5z" />
    <glyph glyph-name="a_dieresis" unicode="&#xe4;" 
d="M58 361q0 64 53 102.5t140 38.5q192 0 192 -181v-228q0 -14 6.5 -16.5t38.5 -2.5v-74q-40 0 -59.5 0.5t-39 4.5t-26.5 8t-13 16.5t-6.5 25.5t-0.5 38v270q0 56 -92 56q-46 0 -74 -24t-28 -63zM374 198q0 -115 -46 -161.5t-134 -46.5q-150 0 -150 139q0 50 39.5 87.5
t104.5 49.5q76 13 115.5 35.5t39.5 61.5l50 -21q0 -63 -37.5 -95t-108.5 -45q-46 -8 -74.5 -27.5t-28.5 -42.5q0 -73 81 -73q58 0 88.5 31t30.5 108h30zM94 572v109h109v-109h-109zM298 572v109h109v-109h-109z" />
    <glyph glyph-name="a_ring" unicode="&#xe5;" 
d="M58 361q0 64 53 102.5t140 38.5q192 0 192 -181v-228q0 -14 6.5 -16.5t38.5 -2.5v-74q-40 0 -59.5 0.5t-39 4.5t-26.5 8t-13 16.5t-6.5 25.5t-0.5 38v270q0 56 -92 56q-46 0 -74 -24t-28 -63zM374 198q0 -115 -46 -161.5t-134 -46.5q-150 0 -150 139q0 50 39.5 87.5
t104.5 49.5q76 13 115.5 35.5t39.5 61.5l50 -21q0 -63 -37.5 -95t-108.5 -45q-46 -8 -74.5 -27.5t-28.5 -42.5q0 -73 81 -73q58 0 88.5 31t30.5 108h30zM166 657q0 41 22 63t63 22q40 0 62 -22.5t22 -62.5q0 -85 -84 -85q-85 0 -85 85zM251 618q35 0 35 39t-35 39
q-36 0 -36 -39t36 -39z" />
    <glyph glyph-name="c_cedilla" unicode="&#xe7;" horiz-adv-x="498" 
d="M379 168l90 -44q0 -60 -54.5 -97t-143.5 -37q-101 0 -159 63.5t-58 192.5t58 192.5t159 63.5q195 0 197 -151l-87 -43q-2 116 -110 116q-51 0 -79.5 -44.5t-28.5 -133.5q0 -87 28.5 -130t79.5 -43q49 0 78.5 26t29.5 69zM244 23h35l-40 -141l1 35q10 29 33 29
q35 0 56.5 -26t21.5 -69q0 -42 -24 -68t-62 -26q-26 0 -47 15t-29 40l39 31q14 -39 34 -39q15 0 24 13t9 34t-8.5 34t-21.5 13q-21 0 -26 -16l-30 17z" />
    <glyph glyph-name="e_grave" unicode="&#xe8;" horiz-adv-x="506" 
d="M412 162l87 -36q-10 -61 -75 -98.5t-160 -37.5q-99 0 -144.5 63.5t-22.5 192.5q23 128 92.5 192t171.5 64q219 0 172 -265h-100h-229l12 69h229l-12 -69q33 187 -86 187q-51 0 -88 -44.5t-53 -133.5q-15 -86 4.5 -129.5t67.5 -43.5q53 0 90 24.5t44 64.5zM328 572
l-58 150h130l19 -150h-91z" />
    <glyph glyph-name="e_acute" unicode="&#xe9;" horiz-adv-x="506" 
d="M412 162l87 -36q-10 -61 -75 -98.5t-160 -37.5q-99 0 -144.5 63.5t-22.5 192.5q23 128 92.5 192t171.5 64q219 0 172 -265h-100h-229l12 69h229l-12 -69q33 187 -86 187q-51 0 -88 -44.5t-53 -133.5q-15 -86 4.5 -129.5t67.5 -43.5q53 0 90 24.5t44 64.5zM328 572l71 150
h130l-110 -150h-91z" />
    <glyph glyph-name="e_circumflex" unicode="&#xea;" horiz-adv-x="506" 
d="M412 162l87 -36q-10 -61 -75 -98.5t-160 -37.5q-99 0 -144.5 63.5t-22.5 192.5q23 128 92.5 192t171.5 64q219 0 172 -265h-100h-229l12 69h229l-12 -69q33 187 -86 187q-51 0 -88 -44.5t-53 -133.5q-15 -86 4.5 -129.5t67.5 -43.5q53 0 90 24.5t44 64.5zM386 644
l-82 -72h-92l137 150h101l84 -150h-91z" />
    <glyph glyph-name="e_dieresis" unicode="&#xeb;" horiz-adv-x="506" 
d="M412 162l87 -36q-10 -61 -75 -98.5t-160 -37.5q-99 0 -144.5 63.5t-22.5 192.5q23 128 92.5 192t171.5 64q219 0 172 -265h-100h-229l12 69h229l-12 -69q33 187 -86 187q-51 0 -88 -44.5t-53 -133.5q-15 -86 4.5 -129.5t67.5 -43.5q53 0 90 24.5t44 64.5zM244 572l19 109
h109l-20 -109h-108zM394 572l19 109h109l-19 -109h-109z" />
    <glyph glyph-name="i_grave" unicode="&#xec;" horiz-adv-x="247" 
d="M77 5v482h100v-482h-100zM81 572l-84 150h131l45 -150h-92zM177 5v0v-2v-3h-50h-50v3v2v0h100zM177 487h-100v0v2v3h50h50v0v-5z" />
    <glyph glyph-name="i_acute" unicode="&#xed;" horiz-adv-x="247" 
d="M77 5v482h100v-482h-100zM81 572l45 150h131l-84 -150h-92zM177 5v0v-2v-3h-50h-50v3v2v0h100zM177 487h-100v0v2v3h50h50v0v-5z" />
    <glyph glyph-name="i_circumflex" unicode="&#xee;" horiz-adv-x="247" 
d="M77 5v482h100v-482h-100zM127 644l-70 -72h-91l111 150h100l111 -150h-91zM177 5v0v-2v-3h-50h-50v3v2v0h100zM177 487h-100v0v2v3h50h50v0v-5z" />
    <glyph glyph-name="i_dieresis" unicode="&#xef;" horiz-adv-x="247" 
d="M77 5v482h100v-482h-100zM-29 572v109h109v-109h-109zM175 572v109h108v-109h-108zM177 5v0v-2v-3h-50h-50v3v2v0h100zM177 487h-100v0v2v3h50h50v0v-5z" />
    <glyph glyph-name="n_tilde" unicode="&#xf1;" 
d="M75 5l85 482h100l-85 -482h-100zM354 5l50 282q10 58 -6 89t-52 31q-45 0 -78 -29.5t-41 -78.5h-34q17 89 73.5 143.5t133.5 54.5q65 0 93.5 -54t10.5 -156l-50 -282h-100zM175 5v0q0 -1 -1 -2v-3h-50h-50v3l1 2v0h100zM260 487h-100v0v2l1 3h50h50v0q0 -1 -1 -5zM454 5
v0q0 -1 -1 -2v-3h-50h-50v3l1 2v0h100zM284 719q21 0 34 -12.5t18 -27t15 -27t24 -12.5l-6 -78q-21 0 -34 12.5t-18 27t-15 27t-25 12.5zM246 572h-74q11 66 42 106.5t70 40.5l-7 -78q-19 0 -31 -69zM369 562l6 78q20 0 32 69h74q-11 -66 -42.5 -106.5t-69.5 -40.5z" />
    <glyph glyph-name="o_grave" unicode="&#xf2;" horiz-adv-x="549" 
d="M97 246q22 128 93 192t175 64q112 0 155.5 -68t22.5 -188q-23 -129 -93.5 -192.5t-174.5 -63.5q-112 0 -155.5 68t-22.5 188zM288 64q54 0 92 45t54 137q16 85 -4.5 133.5t-77.5 48.5q-53 0 -91.5 -45.5t-54.5 -136.5q-15 -85 5 -133.5t77 -48.5zM332 572l-58 150h131
l18 -150h-91z" />
    <glyph glyph-name="o_acute" unicode="&#xf3;" horiz-adv-x="549" 
d="M97 246q22 128 93 192t175 64q112 0 155.5 -68t22.5 -188q-23 -129 -93.5 -192.5t-174.5 -63.5q-112 0 -155.5 68t-22.5 188zM288 64q54 0 92 45t54 137q16 85 -4.5 133.5t-77.5 48.5q-53 0 -91.5 -45.5t-54.5 -136.5q-15 -85 5 -133.5t77 -48.5zM332 572l71 150h131
l-111 -150h-91z" />
    <glyph glyph-name="o_circumflex" unicode="&#xf4;" horiz-adv-x="549" 
d="M97 246q22 128 93 192t175 64q112 0 155.5 -68t22.5 -188q-23 -129 -93.5 -192.5t-174.5 -63.5q-112 0 -155.5 68t-22.5 188zM288 64q54 0 92 45t54 137q16 85 -4.5 133.5t-77.5 48.5q-53 0 -91.5 -45.5t-54.5 -136.5q-15 -85 5 -133.5t77 -48.5zM390 644l-82 -72h-91
l137 150h100l84 -150h-91z" />
    <glyph glyph-name="o_tilde" unicode="&#xf5;" horiz-adv-x="549" 
d="M97 246q22 128 93 192t175 64q112 0 155.5 -68t22.5 -188q-23 -129 -93.5 -192.5t-174.5 -63.5q-112 0 -155.5 68t-22.5 188zM288 64q54 0 92 45t54 137q16 85 -4.5 133.5t-77.5 48.5q-53 0 -91.5 -45.5t-54.5 -136.5q-15 -85 5 -133.5t77 -48.5zM348 719q20 0 33 -12.5
t18 -27t15 -27t25 -12.5l-7 -78q-21 0 -34 12.5t-18 27t-15 27t-24 12.5zM309 572h-74q11 66 42 106.5t71 40.5l-7 -78q-20 0 -32 -69zM432 562l7 78q19 0 31 69h74q-11 -66 -42 -106.5t-70 -40.5z" />
    <glyph glyph-name="o_dieresis" unicode="&#xf6;" horiz-adv-x="549" 
d="M97 246q22 128 93 192t175 64q112 0 155.5 -68t22.5 -188q-23 -129 -93.5 -192.5t-174.5 -63.5q-112 0 -155.5 68t-22.5 188zM288 64q54 0 92 45t54 137q16 85 -4.5 133.5t-77.5 48.5q-53 0 -91.5 -45.5t-54.5 -136.5q-15 -85 5 -133.5t77 -48.5zM248 572l19 109h109
l-19 -109h-109zM398 572l20 109h108l-19 -109h-109z" />
    <glyph glyph-name="o_slash" unicode="&#xf8;" horiz-adv-x="549" 
d="M97 246q22 128 93 192t175 64q112 0 155.5 -68t22.5 -188q-23 -129 -93.5 -192.5t-174.5 -63.5q-112 0 -155.5 68t-22.5 188zM288 64q54 0 92 45t54 137q16 85 -4.5 133.5t-77.5 48.5q-53 0 -91.5 -45.5t-54.5 -136.5q-15 -85 5 -133.5t77 -48.5zM52 -10l493 512h43
l-492 -512h-44z" />
    <glyph glyph-name="u_grave" unicode="&#xf9;" horiz-adv-x="507" 
d="M155 487h100l-51 -287q-10 -58 2 -89t42 -31q57 0 85 29t38 83l-22 -122q-65 -80 -148 -80q-62 0 -88.5 54t-8.5 156zM338 5l85 482h100l-85 -482h-100zM255 487h-100v0v2l1 3h50h50v0q0 -1 -1 -5zM523 487h-100v0v2l1 3h50h50v0q0 -1 -1 -5zM438 5v0q0 -1 -1 -2v-3h-50
h-50v0q0 1 1 5h100zM308 572l-57 150h130l19 -150h-92z" />
    <glyph glyph-name="u_acute" unicode="&#xfa;" horiz-adv-x="507" 
d="M155 487h100l-51 -287q-10 -58 2 -89t42 -31q57 0 85 29t38 83l-22 -122q-65 -80 -148 -80q-62 0 -88.5 54t-8.5 156zM338 5l85 482h100l-85 -482h-100zM255 487h-100v0v2l1 3h50h50v0q0 -1 -1 -5zM523 487h-100v0v2l1 3h50h50v0q0 -1 -1 -5zM438 5v0q0 -1 -1 -2v-3h-50
h-50v0q0 1 1 5h100zM308 572l72 150h130l-110 -150h-92z" />
    <glyph glyph-name="u_circumflex" unicode="&#xfb;" horiz-adv-x="507" 
d="M155 487h100l-51 -287q-10 -58 2 -89t42 -31q57 0 85 29t38 83l-22 -122q-65 -80 -148 -80q-62 0 -88.5 54t-8.5 156zM338 5l85 482h100l-85 -482h-100zM255 487h-100v0v2l1 3h50h50v0q0 -1 -1 -5zM523 487h-100v0v2l1 3h50h50v0q0 -1 -1 -5zM438 5v0q0 -1 -1 -2v-3h-50
h-50v0q0 1 1 5h100zM367 644l-83 -72h-91l137 150h101l84 -150h-92z" />
    <glyph glyph-name="u_dieresis" unicode="&#xfc;" horiz-adv-x="507" 
d="M155 487h100l-51 -287q-10 -58 2 -89t42 -31q57 0 85 29t38 83l-22 -122q-65 -80 -148 -80q-62 0 -88.5 54t-8.5 156zM338 5l85 482h100l-85 -482h-100zM255 487h-100v0v2l1 3h50h50v0q0 -1 -1 -5zM523 487h-100v0v2l1 3h50h50v0q0 -1 -1 -5zM438 5v0q0 -1 -1 -2v-3h-50
h-50v0q0 1 1 5h100zM224 572l20 109h108l-19 -109h-109zM375 572l19 109h109l-20 -109h-108z" />
    <glyph glyph-name="y_dieresis" unicode="&#xff;" horiz-adv-x="485" 
d="M10 -200l15 87h50q43 0 66.5 16.5t48.5 63.5l259 525h113l-301 -563q-39 -75 -81 -102t-120 -27h-50zM100 492h114l61 -385l-74 -149zM559 487h-112v0q0 1 1 2l1 3h56h57q-1 -1 -1 -3l-2 -2v0zM214 487h-113v0q2 0 0 2q0 3 -1 3h57h57v-3v-2v0zM216 572l19 109h109
l-19 -109h-109zM366 572l19 109h109l-19 -109h-109z" />
    <glyph glyph-name="a_cap_macron" unicode="&#x100;" horiz-adv-x="685" 
d="M14 0l400 722h124l138 -722h-127l-133 722h117l-392 -722h-127zM520 160l-292 1l49 89h226zM143 5v0q-1 -1 -1 -2l-1 -3h-63h-64q1 1 2 3l1 2v0h126zM675 5v0v-2l1 -3h-64h-63v3v2v0h126zM530 717h-119v0l2 2l1 3h60h59v0q0 -1 -3 -5zM371 802l12 70h241l-12 -70h-241z
" />
    <glyph glyph-name="a_macron" unicode="&#x101;" 
d="M58 361q0 64 53 102.5t140 38.5q192 0 192 -181v-228q0 -14 6.5 -16.5t38.5 -2.5v-74q-40 0 -59.5 0.5t-39 4.5t-26.5 8t-13 16.5t-6.5 25.5t-0.5 38v270q0 56 -92 56q-46 0 -74 -24t-28 -63zM374 198q0 -115 -46 -161.5t-134 -46.5q-150 0 -150 139q0 50 39.5 87.5
t104.5 49.5q76 13 115.5 35.5t39.5 61.5l50 -21q0 -63 -37.5 -95t-108.5 -45q-46 -8 -74.5 -27.5t-28.5 -42.5q0 -73 81 -73q58 0 88.5 31t30.5 108h30zM130 572v70h241v-70h-241z" />
    <glyph glyph-name="a_cap_breve" unicode="&#x102;" horiz-adv-x="685" 
d="M14 0l400 722h124l138 -722h-127l-133 722h117l-392 -722h-127zM520 160l-292 1l49 89h226zM143 5v0q-1 -1 -1 -2l-1 -3h-63h-64q1 1 2 3l1 2v0h126zM675 5v0v-2l1 -3h-64h-63v3v2v0h126zM530 717h-119v0l2 2l1 3h60h59v0q0 -1 -3 -5zM384 932h74q-6 -31 6 -50.5
t38 -19.5q25 0 44 19.5t25 50.5h73q-10 -63 -53 -101.5t-102 -38.5q-58 0 -87 38.5t-18 101.5z" />
    <glyph glyph-name="a_breve" unicode="&#x103;" 
d="M58 361q0 64 53 102.5t140 38.5q192 0 192 -181v-228q0 -14 6.5 -16.5t38.5 -2.5v-74q-40 0 -59.5 0.5t-39 4.5t-26.5 8t-13 16.5t-6.5 25.5t-0.5 38v270q0 56 -92 56q-46 0 -74 -24t-28 -63zM374 198q0 -115 -46 -161.5t-134 -46.5q-150 0 -150 139q0 50 39.5 87.5
t104.5 49.5q76 13 115.5 35.5t39.5 61.5l50 -21q0 -63 -37.5 -95t-108.5 -45q-46 -8 -74.5 -27.5t-28.5 -42.5q0 -73 81 -73q58 0 88.5 31t30.5 108h30zM120 702h74q0 -31 15.5 -50.5t41.5 -19.5q25 0 40.5 19.5t15.5 50.5h74q0 -63 -35.5 -101.5t-94.5 -38.5t-95 38.5
t-36 101.5z" />
    <glyph glyph-name="c_cap_acute" unicode="&#x106;" horiz-adv-x="707" 
d="M641 227l74 -72q-14 -74 -103.5 -119.5t-222.5 -45.5q-148 0 -223 108.5t-48 262.5t140.5 262.5t261.5 108.5q127 0 200.5 -45.5t66.5 -119.5l-98 -72q5 64 -46 102.5t-140 38.5q-92 0 -165 -80t-94 -195q-20 -115 25 -195t137 -80q95 0 159.5 38.5t75.5 102.5zM467 802
l71 150h130l-110 -150h-91z" />
    <glyph glyph-name="c_cap_circumflex" unicode="&#x108;" horiz-adv-x="707" 
d="M641 227l74 -72q-14 -74 -103.5 -119.5t-222.5 -45.5q-148 0 -223 108.5t-48 262.5t140.5 262.5t261.5 108.5q127 0 200.5 -45.5t66.5 -119.5l-98 -72q5 64 -46 102.5t-140 38.5q-92 0 -165 -80t-94 -195q-20 -115 25 -195t137 -80q95 0 159.5 38.5t75.5 102.5zM525 874
l-82 -72h-92l137 150h101l84 -150h-91z" />
    <glyph glyph-name="c_cap_dot_accent" unicode="&#x10a;" horiz-adv-x="707" 
d="M641 227l74 -72q-14 -74 -103.5 -119.5t-222.5 -45.5q-148 0 -223 108.5t-48 262.5t140.5 262.5t261.5 108.5q127 0 200.5 -45.5t66.5 -119.5l-98 -72q5 64 -46 102.5t-140 38.5q-92 0 -165 -80t-94 -195q-20 -115 25 -195t137 -80q95 0 159.5 38.5t75.5 102.5zM458 802
l19 109h109l-19 -109h-109z" />
    <glyph glyph-name="c_dot_accent" unicode="&#x10b;" horiz-adv-x="498" 
d="M379 168l90 -44q0 -60 -54.5 -97t-143.5 -37q-101 0 -159 63.5t-58 192.5t58 192.5t159 63.5q195 0 197 -151l-87 -43q-2 116 -110 116q-51 0 -79.5 -44.5t-28.5 -133.5q0 -87 28.5 -130t79.5 -43q49 0 78.5 26t29.5 69zM216 572v109h109v-109h-109z" />
    <glyph glyph-name="c_cap_caron" unicode="&#x10c;" horiz-adv-x="707" 
d="M641 227l74 -72q-14 -74 -103.5 -119.5t-222.5 -45.5q-148 0 -223 108.5t-48 262.5t140.5 262.5t261.5 108.5q127 0 200.5 -45.5t66.5 -119.5l-98 -72q5 64 -46 102.5t-140 38.5q-92 0 -165 -80t-94 -195q-20 -115 25 -195t137 -80q95 0 159.5 38.5t75.5 102.5zM526 880
l-57 72h-91l84 -150h101l137 150h-92z" />
    <glyph glyph-name="c_caron" unicode="&#x10d;" horiz-adv-x="498" 
d="M379 168l90 -44q0 -60 -54.5 -97t-143.5 -37q-101 0 -159 63.5t-58 192.5t58 192.5t159 63.5q195 0 197 -151l-87 -43q-2 116 -110 116q-51 0 -79.5 -44.5t-28.5 -133.5q0 -87 28.5 -130t79.5 -43q49 0 78.5 26t29.5 69zM271 650l-70 72h-91l110 -150h101l111 150h-92z
" />
    <glyph glyph-name="d_cap_caron" unicode="&#x10e;" horiz-adv-x="719" 
d="M91 5l125 712h117l-125 -712h-117zM334 722h87q183 0 260.5 -91.5t46.5 -269.5q-32 -184 -132 -272.5t-273 -88.5h-116l16 91h108q113 0 179.5 66.5t91.5 203.5q47 270 -193 270h-91zM208 5l-1 -5v0h-59h-58v3l1 2v0h117zM333 717h-117v0q0 1 1 2v3h59h58v0q0 -1 -1 -5z
M469 880l-57 72h-91l84 -150h101l137 150h-92z" />
    <glyph glyph-name="d_caron" unicode="&#x10f;" horiz-adv-x="552" 
d="M97 246q20 115 89 185.5t161 70.5q75 0 108.5 -70.5t13.5 -185.5t-78.5 -185.5t-133.5 -70.5q-92 0 -136 70.5t-24 185.5zM304 72q41 0 74.5 48t47.5 126t-3 126t-57 48q-58 0 -102 -48t-58 -126t13 -126t85 -48zM383 5l126 712h100l-126 -712h-100zM483 5v0v-2l-1 -3
h-50h-50v0q0 1 1 5h100zM609 717h-100v0v2q0 3 1 3h50h50q-2 0 0 0q-1 0 -1 -5zM661 732h109l-61 -150h-74z" />
    <glyph glyph-name="e_cap_macron" unicode="&#x112;" horiz-adv-x="597" 
d="M91 5l125 712h117l-125 -712h-117zM334 722h327l-16 -96h-328zM281 418h310l-16 -91h-310zM207 0l17 96h340l-17 -96h-340zM208 5l-1 -5v0h-59h-58v3l1 2v0h117zM333 717h-117v0q0 1 1 2v3h59h58v0q0 -1 -1 -5zM586 418v0h2h3q-4 -18 -8 -45q-4 -20 -8 -46h-3h-2v0z
M656 722h5v0q-1 -7 -4 -24t-4 -24q-4 -20 -8 -48h-3h-2v0zM559 96v0h2h3q-1 -6 -4 -23t-5 -25q-5 -32 -8 -48v0h-5zM333 802l12 70h241l-12 -70h-241z" />
    <glyph glyph-name="e_macron" unicode="&#x113;" horiz-adv-x="506" 
d="M412 162l87 -36q-10 -61 -75 -98.5t-160 -37.5q-99 0 -144.5 63.5t-22.5 192.5q23 128 92.5 192t171.5 64q219 0 172 -265h-100h-229l12 69h229l-12 -69q33 187 -86 187q-51 0 -88 -44.5t-53 -133.5q-15 -86 4.5 -129.5t67.5 -43.5q53 0 90 24.5t44 64.5zM253 572l12 70
h241l-12 -70h-241z" />
    <glyph glyph-name="e_cap_breve" unicode="&#x114;" horiz-adv-x="597" 
d="M91 5l125 712h117l-125 -712h-117zM334 722h327l-16 -96h-328zM281 418h310l-16 -91h-310zM207 0l17 96h340l-17 -96h-340zM208 5l-1 -5v0h-59h-58v3l1 2v0h117zM333 717h-117v0q0 1 1 2v3h59h58v0q0 -1 -1 -5zM586 418v0h2h3q-4 -18 -8 -45q-4 -20 -8 -46h-3h-2v0z
M656 722h5v0q-1 -7 -4 -24t-4 -24q-4 -20 -8 -48h-3h-2v0zM559 96v0h2h3q-1 -6 -4 -23t-5 -25q-5 -32 -8 -48v0h-5zM346 932h74q-5 -32 7 -51t37 -19t44 19t25 51h74q-11 -63 -54 -101.5t-101 -38.5q-59 0 -88 38.5t-18 101.5z" />
    <glyph glyph-name="e_breve" unicode="&#x115;" horiz-adv-x="506" 
d="M412 162l87 -36q-10 -61 -75 -98.5t-160 -37.5q-99 0 -144.5 63.5t-22.5 192.5q23 128 92.5 192t171.5 64q219 0 172 -265h-100h-229l12 69h229l-12 -69q33 187 -86 187q-51 0 -88 -44.5t-53 -133.5q-15 -86 4.5 -129.5t67.5 -43.5q53 0 90 24.5t44 64.5zM266 702h74
q-6 -31 6 -50.5t38 -19.5q25 0 44 19t25 51h74q-11 -63 -54 -101.5t-101 -38.5q-59 0 -88 38.5t-18 101.5z" />
    <glyph glyph-name="e_cap_dot_accent" unicode="&#x116;" horiz-adv-x="597" 
d="M91 5l125 712h117l-125 -712h-117zM334 722h327l-16 -96h-328zM281 418h310l-16 -91h-310zM207 0l17 96h340l-17 -96h-340zM208 5l-1 -5v0h-59h-58v3l1 2v0h117zM333 717h-117v0q0 1 1 2v3h59h58v0q0 -1 -1 -5zM586 418v0h2h3q-4 -18 -8 -45q-4 -20 -8 -46h-3h-2v0z
M656 722h5v0q-1 -7 -4 -24t-4 -24q-4 -20 -8 -48h-3h-2v0zM559 96v0h2h3q-1 -6 -4 -23t-5 -25q-5 -32 -8 -48v0h-5zM399 802l19 109h109l-19 -109h-109z" />
    <glyph glyph-name="e_dot_accent" unicode="&#x117;" horiz-adv-x="506" 
d="M412 162l87 -36q-10 -61 -75 -98.5t-160 -37.5q-99 0 -144.5 63.5t-22.5 192.5q23 128 92.5 192t171.5 64q219 0 172 -265h-100h-229l12 69h229l-12 -69q33 187 -86 187q-51 0 -88 -44.5t-53 -133.5q-15 -86 4.5 -129.5t67.5 -43.5q53 0 90 24.5t44 64.5zM319 572l19 109
h109l-19 -109h-109z" />
    <glyph glyph-name="e_cap_caron" unicode="&#x11a;" horiz-adv-x="597" 
d="M91 5l125 712h117l-125 -712h-117zM334 722h327l-16 -96h-328zM281 418h310l-16 -91h-310zM207 0l17 96h340l-17 -96h-340zM208 5l-1 -5v0h-59h-58v3l1 2v0h117zM333 717h-117v0q0 1 1 2v3h59h58v0q0 -1 -1 -5zM586 418v0h2h3q-4 -18 -8 -45q-4 -20 -8 -46h-3h-2v0z
M656 722h5v0q-1 -7 -4 -24t-4 -24q-4 -20 -8 -48h-3h-2v0zM559 96v0h2h3q-1 -6 -4 -23t-5 -25q-5 -32 -8 -48v0h-5zM467 880l-57 72h-91l84 -150h101l137 150h-92z" />
    <glyph glyph-name="e_caron" unicode="&#x11b;" horiz-adv-x="506" 
d="M412 162l87 -36q-10 -61 -75 -98.5t-160 -37.5q-99 0 -144.5 63.5t-22.5 192.5q23 128 92.5 192t171.5 64q219 0 172 -265h-100h-229l12 69h229l-12 -69q33 187 -86 187q-51 0 -88 -44.5t-53 -133.5q-15 -86 4.5 -129.5t67.5 -43.5q53 0 90 24.5t44 64.5zM387 650l-57 72
h-91l84 -150h101l137 150h-92z" />
    <glyph glyph-name="g_cap_circumflex" unicode="&#x11c;" horiz-adv-x="729" 
d="M431 323l17 96h310l-57 -327q-140 -102 -297 -102q-158 0 -236.5 102t-49.5 269t144 269t273 102q115 0 181 -45.5t59 -119.5l-98 -72q6 64 -38 102.5t-121 38.5q-101 0 -176 -75.5t-98 -199.5q-22 -124 27 -199.5t150 -75.5q92 0 177 63l31 174h-198zM560 874l-83 -72
h-91l137 150h101l84 -150h-92z" />
    <glyph glyph-name="g_cap_breve" unicode="&#x11e;" horiz-adv-x="729" 
d="M431 323l17 96h310l-57 -327q-140 -102 -297 -102q-158 0 -236.5 102t-49.5 269t144 269t273 102q115 0 181 -45.5t59 -119.5l-98 -72q6 64 -38 102.5t-121 38.5q-101 0 -176 -75.5t-98 -199.5q-22 -124 27 -199.5t150 -75.5q92 0 177 63l31 174h-198zM440 932h74
q-6 -31 6 -50.5t37 -19.5q26 0 45 19.5t24 50.5h74q-11 -63 -53.5 -101.5t-101.5 -38.5t-87.5 38.5t-17.5 101.5z" />
    <glyph glyph-name="g_breve" unicode="&#x11f;" horiz-adv-x="552" 
d="M97 246q46 256 238 256q81 0 117.5 -70t16.5 -186q-19 -111 -80.5 -178.5t-141.5 -67.5q-193 0 -150 246zM354 420q-117 0 -148 -174q-29 -164 88 -164q46 0 82 45t50 119q13 78 -6.5 126t-65.5 48zM44 -54h109q-5 -31 23 -45.5t83 -14.5q103 0 123 114l86 487h100
l-78 -445q-43 -238 -237 -238q-110 0 -166 34.5t-43 107.5zM568 487h-100l1 5v0h50h50v-3l-1 -2v0zM262 702h74q-6 -31 6 -50.5t37 -19.5q26 0 45 19.5t24 50.5h74q-11 -63 -53.5 -101.5t-101.5 -38.5t-87.5 38.5t-17.5 101.5z" />
    <glyph glyph-name="g_cap_dot_accent" unicode="&#x120;" horiz-adv-x="729" 
d="M431 323l17 96h310l-57 -327q-140 -102 -297 -102q-158 0 -236.5 102t-49.5 269t144 269t273 102q115 0 181 -45.5t59 -119.5l-98 -72q6 64 -38 102.5t-121 38.5q-101 0 -176 -75.5t-98 -199.5q-22 -124 27 -199.5t150 -75.5q92 0 177 63l31 174h-198zM493 802l19 109
h108l-19 -109h-108z" />
    <glyph glyph-name="g_dot_accent" unicode="&#x121;" horiz-adv-x="552" 
d="M97 246q46 256 238 256q81 0 117.5 -70t16.5 -186q-19 -111 -80.5 -178.5t-141.5 -67.5q-193 0 -150 246zM354 420q-117 0 -148 -174q-29 -164 88 -164q46 0 82 45t50 119q13 78 -6.5 126t-65.5 48zM44 -54h109q-5 -31 23 -45.5t83 -14.5q103 0 123 114l86 487h100
l-78 -445q-43 -238 -237 -238q-110 0 -166 34.5t-43 107.5zM568 487h-100l1 5v0h50h50v-3l-1 -2v0zM315 572l19 109h108l-19 -109h-108z" />
    <glyph glyph-name="h_cap_circumflex" unicode="&#x124;" horiz-adv-x="733" 
d="M91 5l125 712h117l-125 -712h-117zM194 426h500l-17 -96h-500zM532 5l125 712h118l-126 -712h-117zM208 5v0q0 -1 -1 -2v-3h-59h-58v3l1 2v0h117zM333 717h-117v0q0 1 1 2v3h59h58v-3l-1 -2v0zM649 5v0v-2l-1 -3h-59h-58v3l1 2v0h117zM775 717h-118v0q0 1 1 2v3h59h58v-3
v-2q-1 0 0 0zM523 874l-82 -72h-92l137 150h101l84 -150h-91z" />
    <glyph glyph-name="i_cap_tilde" unicode="&#x128;" horiz-adv-x="286" 
d="M85 5l126 712h117l-125 -712h-118zM203 5v0q0 -1 -1 -2v-3h-59h-58v3q2 2 0 2q1 0 0 0h118zM328 717h-117v0v2l1 3h59h58v-3l-1 -2v0zM255 949q20 0 33 -12.5t18 -27t15 -27t25 -12.5l-7 -78q-20 0 -33 12.5t-18.5 27t-15.5 27t-24 12.5zM216 802h-74q12 66 43 106.5
t70 40.5l-7 -78q-20 0 -32 -69zM339 792l7 78q19 0 32 69h74q-12 -66 -43 -106.5t-70 -40.5z" />
    <glyph glyph-name="i_alt_tilde" unicode="&#x129;" horiz-adv-x="247" 
d="M77 0v487h100v-487h-100zM71 719q20 0 35.5 -12.5t23 -27t20 -27t26.5 -12.5l7 -78q-20 0 -35.5 12.5t-23 27t-20 27t-26.5 12.5zM58 572h-74q0 66 24 106.5t63 40.5l7 -78q-20 0 -20 -69zM183 562l-7 78q20 0 20 69h74q0 -66 -24 -106.5t-63 -40.5zM177 487h-100v0v2v3
h50h50v0v-5z" />
    <glyph glyph-name="i_cap_macron" unicode="&#x12a;" horiz-adv-x="286" 
d="M85 5l126 712h117l-125 -712h-118zM203 5v0q0 -1 -1 -2v-3h-59h-58v3q2 2 0 2q1 0 0 0h118zM328 717h-117v0v2l1 3h59h58v-3l-1 -2v0zM164 802l13 70h240l-12 -70h-241z" />
    <glyph glyph-name="i_macron" unicode="&#x12b;" horiz-adv-x="247" 
d="M77 5v482h100v-482h-100zM7 572v70h240v-70h-240zM177 5v0v-2v-3h-50h-50v3v2v0h100zM177 487h-100v0v2v3h50h50v0v-5z" />
    <glyph glyph-name="i_cap_breve" unicode="&#x12c;" horiz-adv-x="286" 
d="M85 5l126 712h117l-125 -712h-118zM203 5v0q0 -1 -1 -2v-3h-59h-58v3q2 2 0 2q1 0 0 0h118zM328 717h-117v0v2l1 3h59h58v-3l-1 -2v0zM177 932h74q-5 -32 7 -51t37 -19q26 0 45 19.5t24 50.5h74q-11 -63 -53.5 -101.5t-101.5 -38.5q-58 0 -87.5 38.5t-18.5 101.5z" />
    <glyph glyph-name="i_breve" unicode="&#x12d;" horiz-adv-x="247" 
d="M77 5v482h100v-482h-100zM-3 702h74q0 -32 15.5 -51t40.5 -19t40.5 19t15.5 51h74q0 -63 -35.5 -101.5t-94.5 -38.5t-94.5 38.5t-35.5 101.5zM177 5v0v-2v-3h-50h-50v3v2v0h100zM177 487h-100v0v2v3h50h50v0v-5z" />
    <glyph glyph-name="i_cap_dot_accent" unicode="&#x130;" horiz-adv-x="286" 
d="M85 5l126 712h117l-125 -712h-118zM203 5v0q0 -1 -1 -2v-3h-59h-58v3q2 2 0 2q1 0 0 0h118zM328 717h-117v0v2l1 3h59h58v-3l-1 -2v0zM230 802l19 109h109l-19 -109h-109z" />
    <glyph glyph-name="dotlessi" unicode="&#x131;" horiz-adv-x="287" 
d="M117 0v492h100v-492h-100z" />
    <glyph glyph-name="j_cap_circumflex" unicode="&#x134;" horiz-adv-x="525" 
d="M101 280l121 21l-9 -51q-14 -78 -2 -114.5t52 -36.5q37 0 62.5 30.5t34.5 82.5l89 505h118l-89 -505q-18 -102 -79 -162t-155 -60q-100 0 -137 54.5t-17 172.5zM567 717h-118v0q1 1 1 2v3h59h59q-2 0 0 0q-1 0 -1 -5zM536 874l-82 -72h-92l137 150h101l84 -150h-91z" />
    <glyph glyph-name="l_cap_acute" unicode="&#x139;" horiz-adv-x="525" 
d="M85 5l126 712h117l-125 -712h-118zM202 0l17 96h293l-17 -96h-293zM203 5l-1 -5v0h-59h-58v3q2 2 0 2q1 0 0 0h118zM328 717h-117v0v2l1 3h59h58v-3l-1 -2v0zM507 96v0h3h2q-1 -8 -4 -25t-4 -23q-2 -7 -5 -24t-4 -24v0h-5zM239 802l71 150h131l-111 -150h-91z" />
    <glyph glyph-name="l_cap_caron" unicode="&#x13d;" horiz-adv-x="525" 
d="M85 5l126 712h117l-125 -712h-118zM202 0l17 96h293l-17 -96h-293zM203 5l-1 -5v0h-59h-58v3q2 2 0 2q1 0 0 0h118zM328 717h-117v0v2l1 3h59h58v-3l-1 -2v0zM507 96v0h3h2q-1 -8 -4 -25t-4 -23q-2 -7 -5 -24t-4 -24v0h-5zM423 732h109l-61 -150h-74z" />
    <glyph glyph-name="l_caron" unicode="&#x13e;" horiz-adv-x="244" 
d="M75 5l125 712h100l-125 -712h-100zM175 5v0q0 -1 -1 -2v-3h-50h-50v3l1 2v0h100zM300 717h-100v0q1 1 1 2v3h50h50v0q0 -1 -1 -5zM353 732h109l-61 -150h-74z" />
    <glyph glyph-name="n_cap_acute" unicode="&#x143;" horiz-adv-x="699" 
d="M216 717h117l-125 -712h-117zM217 722h128l236 -722h-128zM624 717h117l-126 -717h-118zM208 5v0q0 -1 -1 -2v-3h-59h-58v3l1 2v0h117zM333 717h-117v0q0 1 1 2v3h59h58v0q0 -1 -1 -5zM741 717h-117v0v2q0 3 1 3h58h59v-3l-1 -2v0zM348 802l71 150h131l-111 -150h-91z
" />
    <glyph glyph-name="n_cap_caron" unicode="&#x147;" horiz-adv-x="699" 
d="M216 717h117l-125 -712h-117zM217 722h128l236 -722h-128zM624 717h117l-126 -717h-118zM208 5v0q0 -1 -1 -2v-3h-59h-58v3l1 2v0h117zM333 717h-117v0q0 1 1 2v3h59h58v0q0 -1 -1 -5zM741 717h-117v0v2q0 3 1 3h58h59v-3l-1 -2v0zM507 880l-57 72h-91l84 -150h101
l137 150h-91z" />
    <glyph glyph-name="n_caron" unicode="&#x148;" 
d="M75 5l85 482h100l-85 -482h-100zM354 5l50 282q10 58 -6 89t-52 31q-45 0 -78 -29.5t-41 -78.5h-34q17 89 73.5 143.5t133.5 54.5q65 0 93.5 -54t10.5 -156l-50 -282h-100zM175 5v0q0 -1 -1 -2v-3h-50h-50v3l1 2v0h100zM260 487h-100v0v2l1 3h50h50v0q0 -1 -1 -5zM454 5
v0q0 -1 -1 -2v-3h-50h-50v3l1 2v0h100zM328 650l-57 72h-91l84 -150h101l137 150h-92z" />
    <glyph glyph-name="o_cap_macron" unicode="&#x14c;" horiz-adv-x="804" 
d="M123 361q28 158 145.5 264.5t264.5 106.5q148 0 228 -106.5t52 -264.5q-30 -167 -142.5 -269t-267.5 -102q-156 0 -232.5 102t-47.5 269zM419 86q99 0 172.5 75.5t95.5 199.5q20 118 -28.5 196.5t-141.5 78.5q-94 0 -170.5 -78.5t-97.5 -196.5q-22 -124 25 -199.5
t145 -75.5zM425 802l13 70h240l-12 -70h-241z" />
    <glyph glyph-name="o_macron" unicode="&#x14d;" horiz-adv-x="549" 
d="M97 246q22 128 93 192t175 64q112 0 155.5 -68t22.5 -188q-23 -129 -93.5 -192.5t-174.5 -63.5q-112 0 -155.5 68t-22.5 188zM288 64q54 0 92 45t54 137q16 85 -4.5 133.5t-77.5 48.5q-53 0 -91.5 -45.5t-54.5 -136.5q-15 -85 5 -133.5t77 -48.5zM257 572l12 70h241
l-12 -70h-241z" />
    <glyph glyph-name="o_cap_breve" unicode="&#x14e;" horiz-adv-x="804" 
d="M123 361q28 158 145.5 264.5t264.5 106.5q148 0 228 -106.5t52 -264.5q-30 -167 -142.5 -269t-267.5 -102q-156 0 -232.5 102t-47.5 269zM419 86q99 0 172.5 75.5t95.5 199.5q20 118 -28.5 196.5t-141.5 78.5q-94 0 -170.5 -78.5t-97.5 -196.5q-22 -124 25 -199.5
t145 -75.5zM438 932h74q-5 -31 7 -50.5t37 -19.5q26 0 45 19.5t24 50.5h74q-11 -63 -54 -101.5t-101 -38.5t-87.5 38.5t-18.5 101.5z" />
    <glyph glyph-name="o_breve" unicode="&#x14f;" horiz-adv-x="549" 
d="M97 246q22 128 93 192t175 64q112 0 155.5 -68t22.5 -188q-23 -129 -93.5 -192.5t-174.5 -63.5q-112 0 -155.5 68t-22.5 188zM288 64q54 0 92 45t54 137q16 85 -4.5 133.5t-77.5 48.5q-53 0 -91.5 -45.5t-54.5 -136.5q-15 -85 5 -133.5t77 -48.5zM270 702h74
q-5 -32 7 -51t37 -19t44 19t25 51h74q-11 -63 -54 -101.5t-101 -38.5q-59 0 -88 38.5t-18 101.5z" />
    <glyph glyph-name="r_cap_acute" unicode="&#x154;" horiz-adv-x="643" 
d="M91 5l125 712h117l-125 -712h-117zM334 722h149q251 0 215 -217q-35 -194 -288 -194h-148l16 91h153q131 0 149 103q23 126 -118 126h-144zM503 0l-133 328h135l133 -328h-135zM208 5v0q0 -1 -1 -2v-3h-59h-58v3l1 2v0h117zM333 717h-117v0q0 1 1 2v3h59h58v0q0 -1 -1 -5
zM636 5v0q0 -1 1 -2l1 -3h-68h-67v0q0 1 -2 5h135zM445 802l71 150h131l-111 -150h-91z" />
    <glyph glyph-name="r_cap_caron" unicode="&#x158;" horiz-adv-x="643" 
d="M91 5l125 712h117l-125 -712h-117zM334 722h149q251 0 215 -217q-35 -194 -288 -194h-148l16 91h153q131 0 149 103q23 126 -118 126h-144zM503 0l-133 328h135l133 -328h-135zM208 5v0q0 -1 -1 -2v-3h-59h-58v3l1 2v0h117zM333 717h-117v0q0 1 1 2v3h59h58v0q0 -1 -1 -5
zM636 5v0q0 -1 1 -2l1 -3h-68h-67v0q0 1 -2 5h135zM504 880l-57 72h-91l84 -150h101l137 150h-92z" />
    <glyph glyph-name="r_caron" unicode="&#x159;" horiz-adv-x="342" 
d="M75 5l85 482h100l-85 -482h-100zM390 384h-20q-129 0 -159 -175h-34q52 283 222 283h10zM175 5v0q0 -1 -1 -2v-3h-50h-50v3l1 2v0h100zM260 487h-100v0v2l1 3h50h50v0q0 -1 -1 -5zM313 650l-57 72h-92l84 -150h101l137 150h-91z" />
    <glyph glyph-name="s_cap_acute" unicode="&#x15a;" horiz-adv-x="631" 
d="M68 163l112 69q-12 -67 36 -103t140 -36q68 0 109 28.5t49 76.5q8 41 -31 70t-121 44q-225 41 -195 213q17 93 89.5 150t175.5 57q105 0 170.5 -34.5t73.5 -98.5l-97 -75q-6 51 -50.5 77.5t-115.5 26.5q-48 0 -81.5 -25t-40.5 -65q-15 -83 124 -107q249 -46 217 -229
q-18 -98 -94 -155t-200 -57q-138 0 -211.5 44.5t-58.5 128.5zM400 802l72 150h130l-110 -150h-92z" />
    <glyph glyph-name="s_cap_circumflex" unicode="&#x15c;" horiz-adv-x="631" 
d="M68 163l112 69q-12 -67 36 -103t140 -36q68 0 109 28.5t49 76.5q8 41 -31 70t-121 44q-225 41 -195 213q17 93 89.5 150t175.5 57q105 0 170.5 -34.5t73.5 -98.5l-97 -75q-6 51 -50.5 77.5t-115.5 26.5q-48 0 -81.5 -25t-40.5 -65q-15 -83 124 -107q249 -46 217 -229
q-18 -98 -94 -155t-200 -57q-138 0 -211.5 44.5t-58.5 128.5zM459 874l-83 -72h-91l137 150h101l84 -150h-91z" />
    <glyph glyph-name="s_cap_cedilla" unicode="&#x15e;" horiz-adv-x="631" 
d="M68 163l112 69q-12 -67 36 -103t140 -36q68 0 109 28.5t49 76.5q8 41 -31 70t-121 44q-225 41 -195 213q17 93 89.5 150t175.5 57q105 0 170.5 -34.5t73.5 -98.5l-97 -75q-6 51 -50.5 77.5t-115.5 26.5q-48 0 -81.5 -25t-40.5 -65q-15 -83 124 -107q249 -46 217 -229
q-18 -98 -94 -155t-200 -57q-138 0 -211.5 44.5t-58.5 128.5zM332 52h35l-70 -170l7 35q12 29 38 29q35 0 52 -26t9 -69q-7 -42 -35.5 -68t-67.5 -26q-26 0 -43.5 15t-21.5 40l44 31q5 -39 27 -39q15 0 26 13t15 34t-2 34t-20 13q-22 0 -28 -16l-27 17z" />
    <glyph glyph-name="s_cedilla" unicode="&#x15f;" horiz-adv-x="462" 
d="M30 131l91 35q0 -42 32.5 -67.5t85.5 -25.5q43 0 68.5 16.5t25.5 43.5q0 25 -27 43t-78 25q-80 12 -123 51.5t-43 97.5q0 66 49.5 106.5t130.5 40.5q80 0 129.5 -38.5t49.5 -100.5l-82 -36q0 45 -27 73t-70 28q-38 0 -61.5 -18t-23.5 -47q0 -25 24.5 -43t70.5 -24
q87 -12 133.5 -52t46.5 -97q0 -66 -53 -106.5t-140 -40.5q-94 0 -151.5 37.5t-57.5 98.5zM222 42h35l-40 -160l1 35q7 29 33 29q35 0 56.5 -26t21.5 -69q0 -42 -24 -68t-62 -26q-26 0 -47 15t-29 40l39 31q14 -39 34 -39q14 0 23 13t9 34t-8 34t-21 13q-23 0 -26 -16l-30 17
z" />
    <glyph glyph-name="s_cap_caron" unicode="&#x160;" horiz-adv-x="631" 
d="M68 163l112 69q-12 -67 36 -103t140 -36q68 0 109 28.5t49 76.5q8 41 -31 70t-121 44q-225 41 -195 213q17 93 89.5 150t175.5 57q105 0 170.5 -34.5t73.5 -98.5l-97 -75q-6 51 -50.5 77.5t-115.5 26.5q-48 0 -81.5 -25t-40.5 -65q-15 -83 124 -107q249 -46 217 -229
q-18 -98 -94 -155t-200 -57q-138 0 -211.5 44.5t-58.5 128.5zM460 880l-57 72h-91l84 -150h101l136 150h-91z" />
    <glyph glyph-name="s_caron" unicode="&#x161;" horiz-adv-x="472" 
d="M53 131l97 35q-7 -42 22.5 -67.5t85.5 -25.5q44 0 74 16.5t35 43.5q4 26 -21 44t-77 24q-82 11 -119 51t-26 98q11 66 68.5 106.5t140.5 40.5q82 0 126.5 -38.5t33.5 -100.5l-89 -36q8 45 -15 73t-69 28q-40 0 -67.5 -18t-31.5 -47q-5 -25 17.5 -43t69.5 -24
q88 -12 129 -51.5t31 -97.5q-12 -66 -73.5 -106.5t-150.5 -40.5q-97 0 -149.5 37.5t-41.5 98.5zM360 650l-56 72h-92l84 -150h101l137 150h-91z" />
    <glyph glyph-name="t_cap_caron" unicode="&#x164;" horiz-adv-x="555" 
d="M137 722h535l-16 -96h-536zM220 5l126 717h118l-127 -717h-117zM337 5v0v-2l-1 -3h-58h-59v3l1 2v0h117zM667 722h5v0q-1 -7 -4 -24t-4 -24q-4 -20 -8 -48h-3h-2v0zM142 722l-17 -96v0h-2h-3q1 6 4 23t5 25q1 7 4 24t4 24v0h5zM433 880l-57 72h-91l84 -150h100l137 150
h-91z" />
    <glyph glyph-name="t_caron" unicode="&#x165;" horiz-adv-x="315" 
d="M203 639l114 83l-104 -592q-6 -27 -0.5 -37.5t35.5 -10.5h52l-15 -82h-95q-68 0 -81 28.5t4 101.5zM372 492l-14 -78h-275l14 78h275zM369 732h109l-61 -150h-74z" />
    <glyph glyph-name="u_cap_tilde" unicode="&#x168;" horiz-adv-x="698" 
d="M209 717h117l-73 -417q-36 -201 115 -201t186 201l74 417h117l-77 -438q-50 -289 -319 -289q-268 0 -217 289zM326 717h-117v0q0 1 1 2v3h59h58v-3l-1 -2v0zM745 717h-117v0v2l1 3h59h58v-3l-1 -2v0zM460 939q20 0 33 -12.5t18.5 -27t15.5 -27t25 -12.5l-7 -78
q-20 0 -33 12.5t-18.5 27t-15.5 27t-25 12.5zM422 792h-74q11 66 42 106.5t70 40.5l-7 -78q-19 0 -31 -69zM545 782l7 78q19 0 31 69h74q-11 -66 -42 -106.5t-70 -40.5z" />
    <glyph glyph-name="u_tilde" unicode="&#x169;" horiz-adv-x="507" 
d="M155 487h100l-51 -287q-10 -58 2 -89t42 -31q57 0 85 29t38 83l-22 -122q-65 -80 -148 -80q-62 0 -88.5 54t-8.5 156zM338 5l85 482h100l-85 -482h-100zM255 487h-100v0v2l1 3h50h50v0q0 -1 -1 -5zM523 487h-100v0v2l1 3h50h50v0q0 -1 -1 -5zM438 5v0q0 -1 -1 -2v-3h-50
h-50v0q0 1 1 5h100zM324 719q20 0 33 -12.5t18.5 -27t15 -27t24.5 -12.5l-7 -78q-20 0 -33 12.5t-18.5 27t-15 27t-24.5 12.5zM285 572h-74q12 66 43 106.5t70 40.5l-7 -78q-20 0 -32 -69zM408 562l7 78q20 0 32 69h74q-12 -66 -43 -106.5t-70 -40.5z" />
    <glyph glyph-name="u_cap_macron" unicode="&#x16a;" horiz-adv-x="698" 
d="M209 717h117l-73 -417q-36 -201 115 -201t186 201l74 417h117l-77 -438q-50 -289 -319 -289q-268 0 -217 289zM326 717h-117v0q0 1 1 2v3h59h58v-3l-1 -2v0zM745 717h-117v0v2l1 3h59h58v-3l-1 -2v0zM370 792l12 70h241l-12 -70h-241z" />
    <glyph glyph-name="u_macron" unicode="&#x16b;" horiz-adv-x="507" 
d="M155 487h100l-51 -287q-10 -58 2 -89t42 -31q57 0 85 29t38 83l-22 -122q-65 -80 -148 -80q-62 0 -88.5 54t-8.5 156zM338 5l85 482h100l-85 -482h-100zM255 487h-100v0v2l1 3h50h50v0q0 -1 -1 -5zM523 487h-100v0v2l1 3h50h50v0q0 -1 -1 -5zM438 5v0q0 -1 -1 -2v-3h-50
h-50v0q0 1 1 5h100zM233 572l13 70h241l-13 -70h-241z" />
    <glyph glyph-name="u_cap_breve" unicode="&#x16c;" horiz-adv-x="698" 
d="M209 717h117l-73 -417q-36 -201 115 -201t186 201l74 417h117l-77 -438q-50 -289 -319 -289q-268 0 -217 289zM326 717h-117v0q0 1 1 2v3h59h58v-3l-1 -2v0zM745 717h-117v0v2l1 3h59h58v-3l-1 -2v0zM383 922h74q-6 -31 6 -50.5t38 -19.5q25 0 44 19t25 51h74
q-11 -63 -53.5 -101.5t-101.5 -38.5q-58 0 -87.5 38.5t-18.5 101.5z" />
    <glyph glyph-name="u_breve" unicode="&#x16d;" horiz-adv-x="507" 
d="M155 487h100l-51 -287q-10 -58 2 -89t42 -31q57 0 85 29t38 83l-22 -122q-65 -80 -148 -80q-62 0 -88.5 54t-8.5 156zM338 5l85 482h100l-85 -482h-100zM255 487h-100v0v2l1 3h50h50v0q0 -1 -1 -5zM523 487h-100v0v2l1 3h50h50v0q0 -1 -1 -5zM438 5v0q0 -1 -1 -2v-3h-50
h-50v0q0 1 1 5h100zM247 702h73q-5 -31 7 -50.5t37 -19.5q26 0 45 19.5t24 50.5h74q-11 -63 -54 -101.5t-101 -38.5t-87 38.5t-18 101.5z" />
    <glyph glyph-name="u_cap_ring" unicode="&#x16e;" horiz-adv-x="698" 
d="M209 717h117l-73 -417q-36 -201 115 -201t186 201l74 417h117l-77 -438q-50 -289 -319 -289q-268 0 -217 289zM326 717h-117v0q0 1 1 2v3h59h58v-3l-1 -2v0zM745 717h-117v0v2l1 3h59h58v-3l-1 -2v0zM421 877q7 40 33 62.5t66 22.5q41 0 59 -22.5t11 -62.5
q-14 -85 -100 -85q-84 0 -69 85zM499 838q35 0 42 39q6 39 -29 39q-34 0 -42 -39q-6 -39 29 -39z" />
    <glyph glyph-name="u_ring" unicode="&#x16f;" horiz-adv-x="507" 
d="M155 487h100l-51 -287q-10 -58 2 -89t42 -31q57 0 85 29t38 83l-22 -122q-65 -80 -148 -80q-62 0 -88.5 54t-8.5 156zM338 5l85 482h100l-85 -482h-100zM255 487h-100v0v2l1 3h50h50v0q0 -1 -1 -5zM523 487h-100v0v2l1 3h50h50v0q0 -1 -1 -5zM438 5v0q0 -1 -1 -2v-3h-50
h-50v0q0 1 1 5h100zM284 657q7 40 33 62.5t67 22.5q40 0 58.5 -22.5t11.5 -62.5q-15 -85 -100 -85t-70 85zM362 618q34 0 42 39q6 39 -28 39q-36 0 -42 -39q-8 -39 28 -39z" />
    <glyph glyph-name="w_cap_circumflex" unicode="&#x174;" horiz-adv-x="886" 
d="M142 722h126l34 -722h-113zM302 0h-105l319 722h113zM516 722h113l69 -722h-113zM698 0h-105l284 722h126zM268 717h-126v0v2v3h63h63v-3v-2v0zM1001 717h-126v0q1 1 1 2l1 3h63h63q0 -1 -1 -3l-1 -2v0zM599 874l-82 -72h-91l137 150h101l84 -150h-92z" />
    <glyph glyph-name="y_cap_circumflex" unicode="&#x176;" horiz-adv-x="548" 
d="M141 722h131l97 -281l-88 -117zM535 722h131l-280 -398l-47 117zM295 441h117l-76 -436h-118zM336 5v0q0 -1 -1 -2v-3h-59h-59q0 1 1 3v2v0h118zM273 717h-131v0q0 1 -1 2v3h65h66l1 -3v-2v0zM663 717h-131v0v1l1 1l2 3h66h65q0 -1 -2 -3l-1 -2v0zM430 874l-82 -72h-91
l136 150h101l84 -150h-91z" />
    <glyph glyph-name="y_cap_dieresis" unicode="&#x178;" horiz-adv-x="548" 
d="M141 722h131l97 -281l-88 -117zM535 722h131l-280 -398l-47 117zM295 441h117l-76 -436h-118zM336 5v0q0 -1 -1 -2v-3h-59h-59q0 1 1 3v2v0h118zM273 717h-131v0q0 1 -1 2v3h65h66l1 -3v-2v0zM663 717h-131v0v1l1 1l2 3h66h65q0 -1 -2 -3l-1 -2v0zM288 802l19 109h109
l-19 -109h-109zM438 802l19 109h109l-19 -109h-109z" />
    <glyph glyph-name="z_cap_acute" unicode="&#x179;" horiz-adv-x="625" 
d="M708 722l-17 -96h-521l17 96h521zM45 0l17 96h535l-16 -96h-536zM571 649l120 -23l-508 -553l-121 23zM592 96v0h3h2q-4 -28 -8 -48q-1 -7 -4 -24t-4 -24v0h-5zM192 722l-17 -96v0h-2h-3q1 6 4 23t5 25q1 7 4 24t4 24v0h5zM416 802l71 150h131l-111 -150h-91z" />
    <glyph glyph-name="z_cap_dot_accent" unicode="&#x17b;" horiz-adv-x="625" 
d="M708 722l-17 -96h-521l17 96h521zM45 0l17 96h535l-16 -96h-536zM571 649l120 -23l-508 -553l-121 23zM592 96v0h3h2q-4 -28 -8 -48q-1 -7 -4 -24t-4 -24v0h-5zM192 722l-17 -96v0h-2h-3q1 6 4 23t5 25q1 7 4 24t4 24v0h5zM407 802l20 109h108l-19 -109h-109z" />
    <glyph glyph-name="z_dot_accent" unicode="&#x17c;" horiz-adv-x="432" 
d="M132 492h245h106l-11 -61l-313 -360l-129 -71l11 61l111 17h274l-14 -78h-274h-108l11 61l311 364l120 6l-109 -17h-245zM421 78v0h2h3q-6 -33 -7 -39q-6 -33 -7 -39v0h-5zM137 492l-14 -78v0h-3h-2q6 33 7 39q6 33 7 39v0h5zM275 572l19 109h109l-19 -109h-109z" />
    <glyph glyph-name="z_cap_caron" unicode="&#x17d;" horiz-adv-x="625" 
d="M708 722l-17 -96h-521l17 96h521zM45 0l17 96h535l-16 -96h-536zM571 649l120 -23l-508 -553l-121 23zM592 96v0h3h2q-4 -28 -8 -48q-1 -7 -4 -24t-4 -24v0h-5zM192 722l-17 -96v0h-2h-3q1 6 4 23t5 25q1 7 4 24t4 24v0h5zM476 880l-57 72h-92l84 -150h101l137 150h-91z
" />
    <glyph glyph-name="z_caron" unicode="&#x17e;" horiz-adv-x="432" 
d="M132 492h245h106l-11 -61l-313 -360l-129 -71l11 61l111 17h274l-14 -78h-274h-108l11 61l311 364l120 6l-109 -17h-245zM421 78v0h2h3q-6 -33 -7 -39q-6 -33 -7 -39v0h-5zM137 492l-14 -78v0h-3h-2q6 33 7 39q6 33 7 39v0h5zM343 650l-57 72h-91l84 -150h101l137 150
h-92z" />
    <glyph glyph-name="Q_sc" unicode="&#x1eb;" horiz-adv-x="724" 
d="M113 284q23 126 124 210.5t231 84.5t202 -84.5t50 -210.5q-23 -132 -121 -213t-234 -81t-205.5 81t-46.5 213zM380 76q85 0 147.5 57t79.5 151q15 89 -29 149t-125 60t-146 -60t-81 -149q-16 -94 26 -151t128 -57zM536 -90l-135 240l80 49l134 -240z" />
    <glyph glyph-name="a_cap_dotaccent" unicode="&#x226;" horiz-adv-x="685" 
d="M14 0l400 722h124l138 -722h-127l-133 722h117l-392 -722h-127zM520 160l-292 1l49 89h226zM143 5v0q-1 -1 -1 -2l-1 -3h-63h-64q1 1 2 3l1 2v0h126zM675 5v0v-2l1 -3h-64h-63v3v2v0h126zM530 717h-119v0l2 2l1 3h60h59v0q0 -1 -3 -5zM437 802l19 109h109l-19 -109h-109z
" />
    <glyph glyph-name="G_sc" unicode="&#x262;" horiz-adv-x="638" 
d="M401 264l15 86h240l-46 -257q-140 -103 -256 -103q-134 0 -201.5 81t-44.5 213q23 133 119.5 214t230.5 81q97 0 153 -39.5t50 -103.5l-89 -65q5 55 -30.5 88.5t-99.5 33.5q-83 0 -144 -57.5t-77 -151.5q-17 -94 24 -151t124 -57q57 0 149 69l21 119h-138z" />
    <glyph glyph-name="I_sc" unicode="&#x26a;" horiz-adv-x="281" 
d="M91 5l99 559h105l-98 -559h-106zM197 5v0v-2l-1 -3h-53h-53q0 1 1 3v2v0h106zM295 564h-105v0v2q0 3 1 3h53h52v-3l-1 -2v0z" />
    <glyph glyph-name="N_sc" unicode="&#x274;" horiz-adv-x="619" 
d="M192 564h106l-99 -559h-106zM193 569h109l202 -569h-110zM528 564h105l-99 -564h-106zM199 5v0v-2l-1 -3h-53h-52v3q2 2 0 2q1 0 0 0h106zM298 564h-106v0v2l1 3h53h53q-1 0 0 0q-1 0 -1 -5zM633 564h-105v0v2q0 3 1 3h53h52v-3l-1 -2v0z" />
    <glyph glyph-name="R_sc" unicode="&#x280;" horiz-adv-x="580" 
d="M93 5l99 559h106l-99 -559h-106zM299 569h106q119 0 172 -43t38 -128q-26 -150 -268 -150h-105l14 82h110q130 0 144 68q7 44 -24 66.5t-100 22.5l-102 -1zM453 0l-143 263h122l142 -263h-121zM199 5v0v-2l-1 -3h-53h-52v3q2 2 0 2q1 0 0 0h106zM298 564h-106v0v2l1 3h53
h53q-1 0 0 0q-1 0 -1 -5zM571 5v0l2 -2l1 -3h-61h-60v0q0 1 -3 5h121z" />
    <glyph glyph-name="Y_sc" unicode="&#x28f;" horiz-adv-x="470" 
d="M118 569h112l82 -202l-77 -106zM449 569h112l-225 -308l-40 106zM251 367h106l-64 -362h-106zM293 5v0v-2l-1 -3h-53h-53q0 1 1 3v2v0h106zM232 564h-112v0q0 1 -1 2l-1 3h56h56q1 -1 1 -3l1 -2v0zM557 564h-112v0l2 2l2 3h56h56q-1 -1 -2 -3l-2 -2v0z" />
    <glyph glyph-name="B_sc" unicode="&#x299;" horiz-adv-x="615" 
d="M93 5l99 559h106l-99 -559h-106zM299 569h90q132 0 182 -34.5t36 -115.5q-9 -50 -56.5 -81t-116.5 -31h-182l8 42h135q40 0 68 17t33 45q7 41 -20 58.5t-97 17.5l-95 -1zM256 330h169q97 0 147.5 -45.5t37.5 -120.5q-16 -89 -78.5 -126.5t-194.5 -37.5h-139l15 82h109
q86 0 126.5 21.5t49.5 72.5q8 43 -34.5 69t-118.5 26h-99zM199 5l-1 -5v0h-53h-52v3q2 2 0 2q1 0 0 0h106zM298 564h-106v0v2l1 3h53h53q-1 0 0 0q-1 0 -1 -5z" />
    <glyph glyph-name="H_sc" unicode="&#x29c;" horiz-adv-x="658" 
d="M93 5l99 559h106l-99 -559h-106zM177 329h428l-15 -86h-428zM468 5l99 559h106l-99 -559h-106zM199 5v0v-2l-1 -3h-53h-52v3q2 2 0 2q1 0 0 0h106zM298 564h-106v0v2l1 3h53h53q-1 0 -1 -3v-2v0zM574 5v0v-2l-1 -3h-53h-53q0 1 1 3v2v0h106zM673 564h-106v0v2l1 3h53h52
v-3v-2q-1 0 0 0z" />
    <glyph glyph-name="L_sc" unicode="&#x29f;" horiz-adv-x="461" 
d="M91 5l99 559h105l-98 -559h-106zM196 0l15 86h236l-15 -86h-236zM197 5l-1 -5v0h-53h-53q0 1 1 3v2v0h106zM295 564h-105v0v2q0 3 1 3h53h52v-3l-1 -2v0zM442 86v0h2h3q-4 -25 -8 -43q-1 -7 -3.5 -21.5t-3.5 -21.5v0h-5z" />
    <glyph glyph-name="A_sc" unicode="&#x1d00;" horiz-adv-x="617" 
d="M18 0l343 569h111l136 -569h-114l-132 569h106l-337 -569h-113zM467 117l-266 1l47 79h201zM134 5v0q-1 -1 -1 -2l-2 -3h-57h-56q0 1 1 3l2 2v0h113zM607 5v0v-2l1 -3h-57h-57v3l-1 2v0h114zM465 564h-107v0q0 1 1 2q1 3 2 3h53h54v0q0 -1 -3 -5z" />
    <glyph glyph-name="C_sc" unicode="&#x1d04;" horiz-adv-x="632" 
d="M575 222l66 -65q-13 -75 -93 -121t-196 -46q-130 0 -198 86t-46 208t119.5 208.5t227.5 86.5q111 0 174.5 -46t56.5 -121l-89 -65q6 66 -37 106t-120 40q-80 0 -142 -61t-77 -148q-15 -86 25 -147t121 -61q82 0 139 40t69 106z" />
    <glyph glyph-name="D_sc" unicode="&#x1d05;" horiz-adv-x="647" 
d="M93 5l99 559h106l-99 -559h-106zM299 569h36q177 0 255 -72t53 -213q-26 -144 -119 -214t-260 -70h-66l15 82h59q112 0 175.5 49.5t82.5 152.5q17 100 -34.5 151.5t-170.5 51.5l-41 -1zM199 5l-1 -5v0h-53h-52v3q2 2 0 2q1 0 0 0h106zM298 564h-106v0v2l1 3h53h53
q-1 0 0 0q-1 0 -1 -5z" />
    <glyph glyph-name="E_sc" unicode="&#x1d07;" horiz-adv-x="523" 
d="M93 5l99 559h106l-99 -559h-106zM299 569h266l-15 -86h-267zM257 335h255l-15 -83h-254zM198 0l15 86h276l-15 -86h-276zM199 5l-1 -5v0h-53h-52v3q2 2 0 2q1 0 0 0h106zM298 564h-106v0v2l1 3h53h53q-1 0 0 0q-1 0 -1 -5zM507 335v0h2h3q-3 -22 -8 -42q-6 -38 -7 -41h-2
h-3v0zM560 569h5v0q-4 -29 -8 -43q-2 -13 -7 -43h-3h-2v0zM484 86v0h2h3q-4 -25 -8 -43q-1 -7 -3.5 -21.5t-3.5 -21.5v0h-5z" />
    <glyph glyph-name="J_sc" unicode="&#x1d0a;" horiz-adv-x="448" 
d="M104 280l109 19l-9 -51q-29 -160 21 -160q48 0 63 79l70 397h105l-70 -397q-14 -81 -62 -129t-123 -48q-80 0 -107.5 55t-7.5 172zM463 564h-105v0v2q0 3 1 3h52h53v0q0 -1 -1 -5z" />
    <glyph glyph-name="K_sc" unicode="&#x1d0b;" horiz-adv-x="567" 
d="M93 5l99 559h106l-99 -559h-106zM147 227l353 342h129l-393 -365zM433 0l-119 276l91 85l153 -361h-125zM199 5v0v-2l-1 -3h-53h-52v3q2 2 0 2q1 0 0 0h106zM298 564h-106v0v2l1 3h53h53q-1 0 -1 -3v-2v0zM556 5v0q0 -1 1 -2l1 -3h-63h-62v0q0 1 -2 5h125zM624 564h-129
v0q1 1 3 2l2 3h65h64q-1 -1 -2 -3l-3 -2v0z" />
    <glyph glyph-name="M_sc" unicode="&#x1d0d;" horiz-adv-x="789" 
d="M94 5l99 559h102l-99 -559h-102zM352 0l-96 569h98l92 -569h-94zM352 0l287 569h98l-291 -569h-94zM603 5l99 559h101l-98 -559h-102zM196 5v0v-2l-1 -3h-51h-50v3q2 2 0 2q2 0 0 0h102zM295 564h-102v0v2l1 3h51h51q-2 0 0 0q-1 0 -1 -5zM705 5v0q0 -1 -1 -2v-3h-51h-51
q0 1 1 3v2v0h102zM803 564h-101q0 5 1 5q-1 0 0 0h50h51v-3l-1 -2v0z" />
    <glyph glyph-name="O_sc" unicode="&#x1d0f;" horiz-adv-x="724" 
d="M113 284q23 126 124 210.5t231 84.5t202 -84.5t50 -210.5q-23 -132 -121 -213t-234 -81t-205.5 81t-46.5 213zM380 76q85 0 147.5 57t79.5 151q15 89 -29 149t-125 60t-146 -60t-81 -149q-16 -94 26 -151t128 -57z" />
    <glyph glyph-name="P_sc" unicode="&#x1d18;" horiz-adv-x="560" 
d="M93 5l99 559h106l-99 -559h-106zM299 569h86q119 0 172 -43t38 -128q-29 -165 -270 -165h-86l15 82h89q132 0 147 83q7 44 -24 66.5t-100 22.5l-82 -1zM199 5v0v-2l-1 -3h-53h-52v3q2 2 0 2q1 0 0 0h106zM298 564h-106v0v2l1 3h53h53q-1 0 0 0q-1 0 -1 -5z" />
    <glyph glyph-name="T_sc" unicode="&#x1d1b;" horiz-adv-x="481" 
d="M110 569h462l-15 -86h-462zM189 5l99 564h106l-100 -564h-105zM294 5v0q2 0 0 -2v-3h-53h-53v3l1 2v0h105zM567 569h5v0q-4 -29 -8 -43q-2 -13 -7 -43h-3h-2v0zM115 569l-15 -86v0h-2h-3q5 30 8 43q5 30 7 43v0h5z" />
    <glyph glyph-name="U_sc" unicode="&#x1d1c;" horiz-adv-x="628" 
d="M185 564h106l-58 -326q-26 -150 100 -150t152 150l58 326h105l-60 -345q-41 -229 -273 -229q-230 0 -191 229zM291 564h-106v0v2l1 3h53h53q-1 0 -1 -3v-2v0zM648 564h-105v0v2q0 3 1 3h52h53v-3l-1 -2v0z" />
    <glyph glyph-name="V_sc" unicode="&#x1d20;" horiz-adv-x="540" 
d="M118 569h113l92 -569h-98zM327 0h-98l289 569h113zM232 564h-113v0q-1 1 -1 2v3h57h56q1 -1 1 -3v-2v0zM628 564h-113v0q1 1 1 2l2 3h56h57q0 -1 -1 -3l-2 -2v0z" />
    <glyph glyph-name="W_sc" unicode="&#x1d21;" horiz-adv-x="828" 
d="M118 569h113l51 -569h-101zM282 0h-93l279 569h101zM468 569h101l83 -569h-102zM652 0h-94l248 569h113zM232 564h-114v0v2v3h57h56q0 -1 1 -3v-2v0zM917 564h-114v0q1 1 1 2l2 3h56h57q0 -1 -1 -3l-1 -2v0z" />
    <glyph glyph-name="Z_sc" unicode="&#x1d22;" horiz-adv-x="571" 
d="M627 569l-15 -86h-467l15 86h467zM45 0l15 86h482l-16 -86h-481zM508 502l104 -19l-448 -416l-104 19zM537 86v0h2h3q-4 -18 -8 -43q-1 -6 -4 -21t-4 -22v0h-5zM165 569l-15 -86v0h-2h-3q5 30 8 43q5 30 7 43v0h5z" />
    <glyph glyph-name="w_cap_grave" unicode="&#x1e80;" horiz-adv-x="886" 
d="M142 722h126l34 -722h-113zM302 0h-105l319 722h113zM516 722h113l69 -722h-113zM698 0h-105l284 722h126zM268 717h-126v0v2v3h63h63v-3v-2v0zM1001 717h-126v0q1 1 1 2l1 3h63h63q0 -1 -1 -3l-1 -2v0zM541 802l-58 150h131l18 -150h-91z" />
    <glyph glyph-name="w_cap_acute" unicode="&#x1e82;" horiz-adv-x="886" 
d="M142 722h126l34 -722h-113zM302 0h-105l319 722h113zM516 722h113l69 -722h-113zM698 0h-105l284 722h126zM268 717h-126v0v2v3h63h63v-3v-2v0zM1001 717h-126v0q1 1 1 2l1 3h63h63q0 -1 -1 -3l-1 -2v0zM541 802l71 150h131l-111 -150h-91z" />
    <glyph glyph-name="w_cap_dieresis" unicode="&#x1e84;" horiz-adv-x="886" 
d="M142 722h126l34 -722h-113zM302 0h-105l319 722h113zM516 722h113l69 -722h-113zM698 0h-105l284 722h126zM268 717h-126v0v2v3h63h63v-3v-2v0zM1001 717h-126v0q1 1 1 2l1 3h63h63q0 -1 -1 -3l-1 -2v0zM457 802l19 109h109l-19 -109h-109zM608 802l19 109h108l-19 -109
h-108z" />
    <glyph glyph-name="e_cap_tilde" unicode="&#x1ebc;" horiz-adv-x="597" 
d="M91 5l125 712h117l-125 -712h-117zM334 722h327l-16 -96h-328zM281 418h310l-16 -91h-310zM207 0l17 96h340l-17 -96h-340zM208 5l-1 -5v0h-59h-58v3l1 2v0h117zM333 717h-117v0q0 1 1 2v3h59h58v0q0 -1 -1 -5zM586 418v0h2h3q-4 -18 -8 -45q-4 -20 -8 -46h-3h-2v0z
M656 722h5v0q-1 -7 -4 -24t-4 -24q-4 -20 -8 -48h-3h-2v0zM559 96v0h2h3q-1 -6 -4 -23t-5 -25q-5 -32 -8 -48v0h-5zM423 949q20 0 33 -12.5t18.5 -27t15.5 -27t24 -12.5l-7 -78q-20 0 -33 12.5t-18 27t-15 27t-25 12.5zM385 802h-74q11 66 42 106.5t70 40.5l-7 -78
q-19 0 -31 -69zM507 792l7 78q20 0 32 69h74q-11 -66 -42 -106.5t-71 -40.5z" />
    <glyph glyph-name="y_cap_grave" unicode="&#x1ef2;" horiz-adv-x="548" 
d="M141 722h131l97 -281l-88 -117zM535 722h131l-280 -398l-47 117zM295 441h117l-76 -436h-118zM336 5v0q0 -1 -1 -2v-3h-59h-59q0 1 1 3v2v0h118zM273 717h-131v0q0 1 -1 2v3h65h66l1 -3v-2v0zM663 717h-131v0v1l1 1l2 3h66h65q0 -1 -2 -3l-1 -2v0zM372 802l-58 150h131
l18 -150h-91z" />
    <glyph glyph-name="quoteleft" unicode="&#x2018;" horiz-adv-x="208" 
d="M159 620h109l-19 -109h-109zM288 732l-9 -52q-44 0 -54 -60h-66q20 112 129 112z" />
    <glyph glyph-name="quoteright" unicode="&#x2019;" horiz-adv-x="208" 
d="M233 732h109l-19 -109h-109zM323 623q-10 -61 -40 -86.5t-89 -25.5l10 52q23 0 35.5 14t18.5 46h65z" />
    <glyph glyph-name="quotedblleft" unicode="&#x201c;" horiz-adv-x="423" 
d="M214 620h108l-19 -109h-109zM342 732l-9 -52q-44 0 -54 -60h-65q18 112 128 112zM375 620h108l-19 -109h-109zM503 732l-9 -52q-44 0 -54 -60h-65q18 112 128 112z" />
    <glyph glyph-name="quotedblright" unicode="&#x201d;" horiz-adv-x="423" 
d="M233 732h109l-19 -109h-109zM323 623q-10 -61 -40 -86.5t-89 -25.5l10 52q23 0 35.5 14t18.5 46h65zM394 732h109l-19 -109h-109zM484 623q-10 -61 -40 -86.5t-89 -25.5l10 52q23 0 35.5 14t18.5 46h65z" />
    <glyph glyph-name="ellipsis" unicode="&#x2026;" horiz-adv-x="576" 
d="M50 0l19 109h109l-19 -109h-109zM234 0l19 109h109l-20 -109h-108zM417 0l20 109h108l-19 -109h-109z" />
    <glyph glyph-name="guilsinglleft" unicode="&#x2039;" horiz-adv-x="245" 
d="M252 445h87l-155 -199l85 -199h-87l-85 199z" />
    <glyph glyph-name="guilsinglright" unicode="&#x203a;" horiz-adv-x="245" 
d="M138 445h87l86 -199l-156 -199h-87l156 199z" />
    <glyph glyph-name="F_sc" unicode="&#xa730;" horiz-adv-x="488" 
d="M93 5l99 559h106l-99 -559h-106zM299 569h260l-15 -86h-261zM257 335h243l-15 -83h-242zM199 5v0v-2l-1 -3h-53h-52v3q2 2 0 2q1 0 0 0h106zM298 564h-106v0v2l1 3h53h53q-1 0 0 0q-1 0 -1 -5zM495 335v0h2h3q-3 -22 -8 -42q-6 -38 -7 -41h-2h-3v0zM554 569h5v0
q-4 -29 -8 -43q-2 -13 -7 -43h-3h-2v0z" />
    <glyph glyph-name="S_sc" unicode="&#xa731;" horiz-adv-x="567" 
d="M71 164l100 63q-12 -70 28.5 -107.5t121.5 -37.5q59 0 93.5 19.5t40.5 53.5q5 32 -29 53t-106 31q-195 27 -169 175q13 74 75 119.5t150 45.5t143.5 -35t63.5 -100l-87 -68q-7 53 -43.5 81t-92.5 28q-40 0 -66.5 -16.5t-31.5 -42.5q-5 -32 21 -52t84 -28
q110 -15 158.5 -62t35.5 -125q-14 -78 -80.5 -123.5t-175.5 -45.5q-122 0 -185.5 45t-48.5 129z" />
    <glyph glyph-name="X_sc" unicode="&#xf078;" horiz-adv-x="496" 
d="M152 569h109l220 -569h-108zM285 328l56 -75l-197 -253h-109zM473 569h109l-238 -314l-61 70zM263 564h-109v0q0 1 -1 2l-1 3h54h55q1 -1 1 -3l1 -2v0zM578 564h-109v0l2 2l2 3h54h55l-2 -3l-2 -2v0zM147 5v0q1 0 0.5 -0.5l-1.5 -1.5l-2 -3h-55h-54q1 1 2 3l2 2v0h108z
M479 5v0q1 0 1 -2l1 -3h-54h-54q-1 1 -1 3l-1 2v0h108z" />
  </font>
</defs>
</svg>
