<?xml version="1.0" standalone="no"?>
<!DOCTYPE svg PUBLIC "-//W3C//DTD SVG 1.1//EN" "http://www.w3.org/Graphics/SVG/1.1/DTD/svg11.dtd" >
<svg>
<metadata>
Created by FontForge 20120731 at Fri Jul  8 13:19:22 2016
 By ,,,
 
</metadata>
<defs>
<font id="iconofont_Regular" horiz-adv-x="513" >
  <font-face 
    font-family="iconofont"
    font-weight="500"
    font-stretch="normal"
    units-per-em="1024"
    panose-1="0 0 0 0 0 0 0 0 0 0"
    ascent="819"
    descent="-205"
    x-height="492"
    cap-height="722"
    bbox="-48 -250 852 972"
    underline-thickness="0"
    underline-position="0"
    unicode-range="U+0020-F078"
  />
<missing-glyph horiz-adv-x="650" 
 />
    <glyph glyph-name=".notdef" horiz-adv-x="650" 
 />
    <glyph glyph-name=".notdef" horiz-adv-x="650" 
 />
    <glyph glyph-name=".null" horiz-adv-x="0" 
 />
    <glyph glyph-name="nonmarkingreturn" horiz-adv-x="341" 
 />
    <glyph glyph-name="space" unicode=" " horiz-adv-x="215" 
 />
    <glyph glyph-name="exclam" unicode="!" horiz-adv-x="188" 
d="M26 722h98l8 -298l-30 -225h-26l-42 225zM49 0l-3 91h91l2 -91h-90z" />
    <glyph glyph-name="quotedbl" unicode="&#x22;" horiz-adv-x="427" 
d="M60 722h83l3 -86l-20 -76h-40l-24 76zM231 722h84l2 -86l-20 -76h-40l-24 76z" />
    <glyph glyph-name="numbersign" unicode="#" horiz-adv-x="632" 
d="M12 196l8 68h544l-8 -68h-544zM47 458l8 68h544l-8 -68h-544zM193 722h80l-75 -722h-80zM412 722h80l-75 -722h-80z" />
    <glyph glyph-name="dollar" unicode="$" horiz-adv-x="626" 
d="M39 165l82 59q1 -72 59.5 -110t156.5 -38q75 0 114 33t37 90q-2 93 -188 123q-229 36 -234 204q-2 93 57 149.5t159 56.5q102 0 172.5 -35t91.5 -101l-68 -63q-18 54 -69.5 83t-123.5 29q-55 0 -87 -29.5t-31 -78.5q2 -90 157 -116q257 -41 262 -219q3 -98 -60.5 -155
t-185.5 -57q-137 0 -218 45.5t-83 129.5zM277 822h55l24 -922h-55z" />
    <glyph glyph-name="ampersand" unicode="&#x26;" horiz-adv-x="751" 
d="M641 2q-31 -12 -56 -12q-39 0 -85 36.5t-118 113.5q-189 204 -193 206q-29 25 -47.5 70t-20.5 93q-2 72 42.5 116t118.5 44q71 0 115 -39.5t46 -104.5q1 -37 -40.5 -84.5t-110.5 -87.5l-71 -40q-35 -20 -55.5 -55t-19.5 -73q1 -55 36.5 -89t92.5 -34q94 0 148.5 79.5
t48.5 209.5l77 -17q7 -160 -71 -257t-212 -97q-91 0 -148 53.5t-59 141.5q-2 57 31.5 107t88.5 75l72 40q55 32 88 66.5t32 57.5q-1 35 -25 57t-62 22q-39 0 -62.5 -23.5t-22.5 -61.5q2 -34 17 -67.5t39 -54.5q-4 3 54.5 -60t165.5 -178q44 -47 69.5 -68t45.5 -21t38 6z" />
    <glyph glyph-name="quotesingle" unicode="'" horiz-adv-x="210" 
d="M60 722h83l3 -86l-20 -76h-40l-24 76z" />
    <glyph glyph-name="parenleft" unicode="(" horiz-adv-x="342" 
d="M273 757l30 -32q-158 -138 -152 -403q8 -267 173 -405l-28 -32q-191 157 -199 437q-8 277 176 435z" />
    <glyph glyph-name="parenright" unicode=")" horiz-adv-x="293" 
d="M51 757q182 -171 188 -435q8 -278 -165 -437l-29 33q146 136 140 404q-8 257 -162 402z" />
    <glyph glyph-name="asterisk" unicode="*" horiz-adv-x="379" 
d="M136 732h70l-11 -160h-40zM12 588l19 67l149 -64l-11 -38zM113 422l-58 41l104 121l32 -24zM300 463l-55 -41l-86 138l31 24zM314 655l23 -67l-156 -35l-13 38z" />
    <glyph glyph-name="plus" unicode="+" horiz-adv-x="561" 
d="M18 270h487l1 -51h-487zM228 492h55l13 -492h-55z" />
    <glyph glyph-name="comma" unicode="," horiz-adv-x="190" 
d="M48 91h90l3 -91h-91zM141 0q1 -56 -19 -80t-69 -24l-1 44q19 0 27 14t7 46h55z" />
    <glyph glyph-name="hyphen" unicode="-" horiz-adv-x="334" 
d="M44 219l-2 69h235l2 -69h-235z" />
    <glyph glyph-name="period" unicode="." horiz-adv-x="190" 
d="M50 0l-2 91h90l3 -91h-91z" />
    <glyph glyph-name="slash" unicode="/" horiz-adv-x="296" 
d="M0 0l241 722h36l-241 -722h-36z" />
    <glyph glyph-name="zero" unicode="0" horiz-adv-x="656" 
d="M50 361q-4 175 64.5 273t196.5 98t202 -97.5t79 -273.5q4 -184 -61.5 -277.5t-199.5 -93.5q-270 0 -281 371zM329 70q169 0 161 291q-4 137 -50.5 214t-126.5 77t-122.5 -77t-38.5 -214q8 -291 177 -291z" />
    <glyph glyph-name="one" unicode="1" horiz-adv-x="397" 
d="M200 0l-16 593l19 129h76l3 -129l16 -593h-98zM36 547l167 175l-4 -123l-160 -172z" />
    <glyph glyph-name="two" unicode="2" horiz-adv-x="555" 
d="M520 0h-362l-2 94h362zM53 0q-3 116 31.5 176t127.5 121q83 53 133.5 111.5t48.5 99.5q-2 65 -38 104.5t-94 39.5q-59 0 -94.5 -37.5t-33.5 -99.5q2 -46 42 -96l-85 -44q-49 59 -51 140q-3 98 57.5 157.5t162.5 59.5t165.5 -63.5t66.5 -167.5q1 -50 -45 -111t-123 -111
q-97 -62 -133 -119t-33 -160h-105z" />
    <glyph glyph-name="three" unicode="3" horiz-adv-x="560" 
d="M47 236h102q1 -71 38 -115t96 -44q56 0 89.5 35t32.5 93q-1 67 -44 107.5t-111 40.5h-60l-2 53h140q80 -18 130.5 -74.5t52.5 -130.5q2 -95 -60 -153t-166 -58t-169 67.5t-69 178.5zM189 392l-1 38h80q52 0 84 29.5t30 76.5q-2 53 -34.5 84.5t-84.5 31.5q-46 0 -73 -36.5
t-26 -95.5h-98q-3 95 51.5 153.5t146.5 58.5t149 -51.5t59 -136.5q2 -54 -35 -96t-98 -56h-150z" />
    <glyph glyph-name="four" unicode="4" horiz-adv-x="556" 
d="M349 722h76l5 -190l14 -532h-98l-14 532zM349 722l76 -20l-325 -409l-81 -66l-2 76l82 11h429l3 -87h-430h-82l-2 76z" />
    <glyph glyph-name="five" unicode="5" horiz-adv-x="549" 
d="M70 335l1 387h374l-4 -94l-274 3l-3 -317zM146 392q29 32 69 52t78 20q92 0 150 -65.5t61 -172.5q3 -106 -60.5 -171t-170.5 -65q-98 0 -160 67.5t-66 178.5h102q1 -71 34.5 -115t86.5 -44q59 0 94.5 41t33.5 108q-1 71 -35 114.5t-87 43.5q-23 0 -53.5 -19.5
t-58.5 -50.5z" />
    <glyph glyph-name="six" unicode="6" horiz-adv-x="562" 
d="M497 607l-72 -47q-25 43 -61.5 69.5t-70.5 26.5q-70 0 -105.5 -76t-32.5 -206q9 -304 146 -304q55 0 88 45.5t31 120.5q-2 71 -38 114t-92 43q-6 0 -30 -22t-52.5 -57t-41.5 -65q3 2 8.5 6t15.5 12t14.5 13t0.5 5l-22 112q8 -2 -27 -45q15 35 67.5 78t82.5 43
q96 0 156 -65t63 -172q3 -111 -58 -178.5t-163 -67.5q-239 0 -250 367q-4 173 57 274t180 101q58 0 114.5 -34.5t91.5 -90.5z" />
    <glyph glyph-name="seven" unicode="7" horiz-adv-x="450" 
d="M11 722h411l2 -94h-410zM424 628q-117 -213 -165.5 -357.5t-45.5 -270.5h-109q-2 99 53 243t187 385h80z" />
    <glyph glyph-name="eight" unicode="8" horiz-adv-x="580" 
d="M60 196q-3 102 57 153t168 51q116 0 175 -54.5t61 -150.5q3 -103 -57.5 -154t-168.5 -51q-115 0 -174 55t-61 151zM293 70q59 0 91.5 33.5t30.5 100.5q-2 64 -34 100.5t-95 36.5q-58 0 -90.5 -34.5t-30.5 -103.5q2 -62 33.5 -97.5t94.5 -35.5zM79 543q-2 92 51 140.5
t146 48.5q100 0 155 -51t57 -138q2 -86 -51.5 -129t-150.5 -43q-102 0 -153.5 46t-53.5 126zM284 429q55 0 85 26.5t29 79.5q-2 54 -33 85.5t-87 31.5q-51 0 -80 -30t-28 -87q2 -50 30 -78t84 -28z" />
    <glyph glyph-name="nine" unicode="9" horiz-adv-x="581" 
d="M81 131l82 40q13 -45 46 -73t73 -28q67 0 102.5 75t31.5 209q-4 139 -41.5 218.5t-97.5 79.5q-58 0 -92.5 -46t-32.5 -121q2 -70 34.5 -113.5t82.5 -43.5q25 0 66.5 44t68.5 105q-13 -6 0 -6l22 -112q-6 0 -8.5 4t-2.5 8v4q-22 -51 -72.5 -89t-100.5 -38q-85 0 -138.5 63
t-56.5 167q-3 114 58.5 184t165.5 70q108 0 175 -96t71 -265q5 -180 -56.5 -280.5t-176.5 -100.5q-73 0 -128.5 38.5t-74.5 102.5z" />
    <glyph glyph-name="colon" unicode=":" horiz-adv-x="190" 
d="M50 0l-2 91h90l3 -91h-91zM39 401l-2 91h91l2 -91h-91z" />
    <glyph glyph-name="semicolon" unicode=";" horiz-adv-x="190" 
d="M45 91h91l5 -91h-91zM141 0q3 -56 -16.5 -80t-69.5 -24l-2 44q19 0 27 14t6 46h55zM39 401l-2 91h91l2 -91h-91z" />
    <glyph glyph-name="less" unicode="&#x3c;" horiz-adv-x="492" 
d="M420 462l2 -69l-383 -178l-1 62l391 -178l2 -69l-392 185l-1 62z" />
    <glyph glyph-name="equal" unicode="=" horiz-adv-x="570" 
d="M29 369h468l1 -51h-467zM34 180h468l1 -51h-467z" />
    <glyph glyph-name="greater" unicode="&#x3e;" horiz-adv-x="492" 
d="M48 462l392 -185l1 -62l-382 -185l-2 69l383 178l1 -62l-391 178z" />
    <glyph glyph-name="question" unicode="?" horiz-adv-x="514" 
d="M9 538q5 87 63.5 140.5t148.5 53.5q89 0 144.5 -54.5t57.5 -143.5q2 -71 -19.5 -112t-73.5 -65q-40 -19 -51 -48t-10 -110h-80q-2 75 4 113t23 59.5t54 39.5q37 17 52 45.5t14 77.5q-2 60 -33 96.5t-80 36.5q-56 0 -92.5 -39.5t-41.5 -104.5zM189 0l-2 91h91l2 -91h-91z
" />
    <glyph glyph-name="A_cap" unicode="A" horiz-adv-x="680" 
d="M20 0l257 722h104l289 -722h-105l-286 722h98l-252 -722h-105zM496 175h-310l26 75h254zM127 5v0q-1 -1 -1 -2l-1 -3h-53h-52q0 1 1 3v2q1 0 0 0h106zM668 5v0q0 -1 1 -2l1 -3h-52h-53q0 1 -1 3l-1 2v0h105zM375 717h-99v0v1l1 1v3h50h50v0q0 -1 -2 -5z" />
    <glyph glyph-name="B_cap" unicode="B" horiz-adv-x="677" 
d="M94 5l-18 712h98l18 -712h-98zM174 722h153q128 0 183.5 -44t57.5 -147q2 -64 -37 -103t-104 -39h-245l-1 40h201q40 0 63 26t22 69q-1 66 -32 94t-102 28h-157zM182 410h244q92 0 150 -55t61 -146q2 -113 -50.5 -161t-179.5 -48h-214l-2 76h186q86 0 121 33t33 111
q-1 61 -48 98.5t-121 37.5h-179zM192 5l1 -5v0h-49h-50v3v2v0h98zM174 717h-98v0q-2 0 0 2q-2 3 0 3h49h49v0v-5z" />
    <glyph glyph-name="C_cap" unicode="C" horiz-adv-x="703" 
d="M606 218l74 -60q2 -76 -78 -122t-213 -46q-144 0 -239 108.5t-100 262.5q-4 154 85.5 262.5t233.5 108.5q127 0 209.5 -46t90.5 -122l-70 -60q-7 67 -70 107.5t-158 40.5q-98 0 -158.5 -85t-56.5 -206q3 -121 68 -206t163 -85q101 0 161 40.5t58 107.5z" />
    <glyph glyph-name="D_cap" unicode="D" horiz-adv-x="714" 
d="M94 5l-18 712h98l18 -712h-98zM174 722h116q173 0 264 -91t96 -270q4 -184 -72 -272.5t-239 -88.5h-146l-2 76h139q113 0 166 70t48 215q-3 141 -66 213t-182 72h-120zM192 5l1 -5v0h-49h-50v3v2v0h98zM174 717h-98v0q-2 0 0 2q-2 3 0 3h49h49v0v-5z" />
    <glyph glyph-name="E_cap" unicode="E" horiz-adv-x="582" 
d="M94 5l-18 712h98l18 -712h-98zM174 722h327l2 -80h-327zM182 411h310l2 -77h-310zM193 0l-3 80h340l3 -80h-340zM192 5l1 -5v0h-49h-50v3v2v0h98zM174 717h-98v0q-2 0 0 2q-2 3 0 3h49h49v0v-5zM487 411v0h2h3q0 -27 1 -38q0 -27 1 -39h-3h-2v0zM496 722h5v0
q0 -6 0.5 -20t0.5 -20t0.5 -20t0.5 -20h-3h-2v0zM525 80v0h3h2q0 -6 1 -20t1 -20t0.5 -20t0.5 -20v0h-5z" />
    <glyph glyph-name="F_cap" unicode="F" horiz-adv-x="547" 
d="M94 5l-18 712h98l18 -712h-98zM174 722h325l2 -80h-325zM182 411h299l2 -77h-299zM192 5v0q2 0 0 -2l1 -3h-49h-50v3v2v0h98zM174 717h-98v0q-2 0 0 2q-2 3 0 3h49h49v0v-5zM476 411v0h3h2q0 -6 0.5 -19.5t0.5 -18.5q0 -6 0.5 -19.5t0.5 -19.5h-2h-3v0zM494 722h5v0
q0 -6 0.5 -20t0.5 -20t0.5 -20t0.5 -20h-3h-2v0z" />
    <glyph glyph-name="G_cap" unicode="G" horiz-adv-x="724" 
d="M379 335l-2 80h292l8 -321q-55 -48 -127.5 -76t-146.5 -28q-155 0 -252 102t-101 269t87.5 269t245.5 102q114 0 188.5 -46t82.5 -122l-70 -60q-7 67 -61.5 107.5t-136.5 40.5q-107 0 -170.5 -80t-59.5 -211q3 -131 70.5 -211t174.5 -80q97 0 181 72l-5 193h-198z" />
    <glyph glyph-name="H_cap" unicode="H" horiz-adv-x="713" 
d="M94 5l-18 712h98l18 -712h-98zM108 418h485l2 -80h-485zM531 5l-19 712h98l19 -712h-98zM192 5v0q2 0 0 -2l1 -3h-49h-50v3v2v0h98zM174 717h-98v0q-2 0 0 2q-2 3 0 3h49h49v-3v-2v0zM629 5v0v-2v-3h-49h-49v3v2v0h98zM610 717h-98v0v2v3h49h49v-3v-2v0z" />
    <glyph glyph-name="I_cap" unicode="I" horiz-adv-x="267" 
d="M85 5l-19 712h98l19 -712h-98zM183 5v0v-2v-3h-49h-49v3v2v0h98zM164 717h-98v0v2v3h49h49v-3v-2v0z" />
    <glyph glyph-name="J_cap" unicode="J" horiz-adv-x="520" 
d="M49 281l98 17l1 -52q2 -86 25 -125.5t71 -39.5q45 0 67.5 35t20.5 96l-13 505h98l13 -505q3 -102 -44.5 -162t-139.5 -60q-98 0 -145 55t-50 173zM417 717h-98v0v2v3h49h49v0v-5z" />
    <glyph glyph-name="K_cap" unicode="K" horiz-adv-x="639" 
d="M94 5l-18 712h98l18 -712h-98zM101 281l358 441h120l-391 -462zM513 0l-223 380l67 80l272 -460h-116zM192 5v0q2 0 0 -2l1 -3h-49h-50v3v2v0h98zM174 717h-98v0q-2 0 0 2q-2 3 0 3h49h49v-3v-2v0zM626 5v0l2 -2l1 -3h-58h-58v0q0 1 -3 5h116zM575 717h-120v0l2 2l2 3h60
h60q-1 -1 -2 -3l-2 -2v0z" />
    <glyph glyph-name="L_cap" unicode="L" horiz-adv-x="506" 
d="M85 5l-19 712h98l19 -712h-98zM183 0l-2 80h293l2 -80h-293zM183 5v-5v0h-49h-49v3v2v0h98zM164 717h-98v0v2v3h49h49v-3v-2v0zM469 80v0h3h2q0 -6 0.5 -20t0.5 -20t0.5 -20t0.5 -20v0h-5z" />
    <glyph glyph-name="M_cap" unicode="M" horiz-adv-x="863" 
d="M95 5l-18 712h94l19 -712h-95zM393 0l-258 722h90l255 -722h-87zM393 0l213 722h91l-217 -722h-87zM684 5l-19 712h95l18 -712h-94zM190 5v0v-2v-3h-47h-48v3v2v0h95zM171 717h-94v0q-2 0 0 2l-1 3h48h47v0v-5zM778 5v0v-2v-3h-47h-47v3v2v0h94zM760 717h-95v5v0h47h47
v-3q0 -2 1 -2q-2 0 0 0z" />
    <glyph glyph-name="N_cap" unicode="N" horiz-adv-x="679" 
d="M76 717h98l18 -712h-98zM76 722h106l384 -722h-106zM478 717h98l19 -717h-98zM192 5v0q2 0 0 -2l1 -3h-49h-50v3v2v0h98zM174 717h-98v0q-2 0 0 2q-2 3 0 3h49h49v0v-5zM576 717h-98v0v2v3h49h49v-3v-2v0z" />
    <glyph glyph-name="O_cap" unicode="O" horiz-adv-x="799" 
d="M55 361q-4 158 90.5 264.5t239.5 106.5t245 -106.5t105 -264.5q4 -167 -87 -269t-243 -102q-153 0 -249.5 102t-100.5 269zM403 70q105 0 167.5 80t58.5 211q-3 124 -72 207.5t-170 83.5q-100 0 -165 -83.5t-61 -207.5q3 -131 69.5 -211t172.5 -80z" />
    <glyph glyph-name="P_cap" unicode="P" horiz-adv-x="617" 
d="M94 5l-18 712h98l18 -712h-98zM174 722h156q233 0 239 -217q2 -104 -55.5 -156.5t-173.5 -52.5h-155l-2 76h159q132 0 129 133q-5 141 -143 141h-152zM192 5v0q2 0 0 -2l1 -3h-49h-50v3v2v0h98zM174 717h-98v0q-2 0 0 2q-2 3 0 3h49h49v0v-5z" />
    <glyph glyph-name="Q_cap" unicode="Q" horiz-adv-x="799" 
d="M55 361q-4 158 90.5 264.5t239.5 106.5t245 -106.5t105 -264.5q4 -167 -87 -269t-243 -102q-153 0 -249.5 102t-100.5 269zM403 70q105 0 167.5 80t58.5 211q-3 124 -72 207.5t-170 83.5q-100 0 -165 -83.5t-61 -207.5q3 -131 69.5 -211t172.5 -80zM636 -90l-225 228
l60 52l224 -228z" />
    <glyph glyph-name="R_cap" unicode="R" horiz-adv-x="624" 
d="M94 5l-18 712h98l18 -712h-98zM174 722h163q233 0 239 -217q2 -94 -56 -142t-173 -48h-163l-2 76h167q132 0 129 114q-5 141 -143 141h-159zM505 0l-196 328h113l196 -328h-113zM192 5v0q2 0 0 -2l1 -3h-49h-50v3v2v0h98zM174 717h-98v0q-2 0 0 2q-2 3 0 3h49h49v0v-5z
M615 5v0q0 -1 1 -2l2 -3h-57h-56v0q0 1 -3 5h113z" />
    <glyph glyph-name="S_cap" unicode="S" horiz-adv-x="626" 
d="M39 165l82 59q1 -72 59.5 -110t156.5 -38q75 0 114 33t37 90q-2 93 -188 123q-229 36 -234 204q-2 93 57 149.5t159 56.5q102 0 172.5 -35t91.5 -101l-68 -63q-18 54 -69.5 83t-123.5 29q-55 0 -87 -29.5t-31 -78.5q2 -90 157 -116q257 -41 262 -219q3 -98 -60.5 -155
t-185.5 -57q-137 0 -218 45.5t-83 129.5z" />
    <glyph glyph-name="T_cap" unicode="T" horiz-adv-x="555" 
d="M-9 722h535l2 -80h-535zM228 5l-18 717h98l18 -717h-98zM326 5v0q1 0 1 -2v-3h-49h-49q0 1 -1 3q2 2 0 2q2 0 0 0h98zM521 722h5v0q0 -6 0.5 -20t0.5 -20t0.5 -20t0.5 -20h-2h-3v0zM-4 722l2 -80v0h-2h-3q0 6 -0.5 20t-0.5 20t-0.5 20t-0.5 20v0h5z" />
    <glyph glyph-name="U_cap" unicode="U" horiz-adv-x="694" 
d="M69 717h98l11 -420q6 -216 171 -216t159 216l-11 420h98l12 -437q8 -290 -256 -290q-263 0 -271 290zM167 717h-98v0q-2 0 0 2q-1 3 0 3h49h49v-3v-2v0zM595 717h-98v0v2v3h49h49v-3v-2v0z" />
    <glyph glyph-name="V_cap" unicode="V" horiz-adv-x="598" 
d="M1 722h105l243 -722h-91zM353 0h-91l202 722h105zM108 717h-105v0q-1 0 -1 2l-1 3h52h53q0 -1 1 -3l1 -2v0zM568 717h-106v0q1 1 1 2l1 3h53h52q0 -1 -1 -3v-2v0z" />
    <glyph glyph-name="W_cap" unicode="W" horiz-adv-x="880" 
d="M1 722h105l186 -722h-94zM292 0h-87l174 722h95zM379 722h95l215 -722h-94zM689 0h-87l145 722h105zM107 717h-105v0q0 1 -1 2v3h52h53q0 -1 1 -3v-2v0zM851 717h-105v0v2l1 3h52h53q0 -1 -1 -3v-2v0z" />
    <glyph glyph-name="X_cap" unicode="X" horiz-adv-x="561" 
d="M34 722h104l408 -722h-103zM250 405l67 -68l-177 -337h-104zM424 722h104l-207 -388l-70 66zM141 717h-104v0q0 1 -1 2l-2 3h52h52q1 -1 1 -3l2 -2v0zM525 717h-104v0q1 1 1 2l2 3h52h52l-2 -3l-1 -2v0zM142 5v0v-1l-1 -1l-1 -3h-52h-52q1 1 1 3l2 2v0h103zM544 5v0
q0 -1 1 -2l1 -3h-51h-52q-1 1 -2 3l-1 2v0h104z" />
    <glyph glyph-name="Y_cap" unicode="Y" horiz-adv-x="543" 
d="M0 722h109l165 -292l-51 -99zM405 722h110l-203 -391l-57 99zM216 430h98l11 -425h-98zM325 5v0v-2v-3h-49h-49v3v2v0h98zM112 717h-109v0l-2 2l-1 3h54h55q1 -1 2 -3l1 -2v0zM512 717h-110v0l2 2l1 3h55h55q-1 0 -2 -3l-1 -2v0z" />
    <glyph glyph-name="Z_cap" unicode="Z" horiz-adv-x="625" 
d="M562 722l2 -80h-521l-2 80h521zM45 0l-2 80h536l2 -80h-536zM459 658l105 -16l-416 -578l-105 16zM574 80v0h2h3q0 -28 1 -40q0 -6 0.5 -20t0.5 -20v0h-5zM46 722l2 -80v0h-2h-3q0 6 -0.5 20t-0.5 20t-0.5 20t-0.5 20v0h5z" />
    <glyph glyph-name="bracketleft" unicode="[" horiz-adv-x="326" 
d="M111 722h55l22 -837h-55zM166 722h112l1 -47h-112zM187 -68h111l2 -47h-112z" />
    <glyph glyph-name="backslash" unicode="\" horiz-adv-x="326" 
d="M290 0l-309 722h36l309 -722h-36z" />
    <glyph glyph-name="bracketright" unicode="]" horiz-adv-x="321" 
d="M123 722h54l22 -837h-54zM11 722h112l1 -47h-112zM32 -68h112l1 -47h-112z" />
    <glyph glyph-name="underscore" unicode="_" horiz-adv-x="649" 
d="M53 -125l-1 50h550l1 -50h-550z" />
    <glyph glyph-name="a" unicode="a" 
d="M53 360q-2 64 48.5 103t135.5 39q189 0 193 -175l7 -250q0 -11 6.5 -13t38.5 -2l2 -62q-36 0 -53.5 0.5t-35 3.5t-23.5 6.5t-11.5 14t-6 21l-1.5 31.5l-7 285q-3 71 -107 71q-50 0 -80.5 -27t-29.5 -71zM376 190q3 -111 -41.5 -155.5t-131.5 -44.5q-155 0 -158 131
q-2 50 38.5 88t107.5 49q76 13 116 37t39 67l42 -17q1 -63 -36.5 -95t-110.5 -45q-51 -9 -82 -31t-31 -50q3 -76 100 -76q62 0 93.5 31.5t29.5 110.5h25z" />
    <glyph glyph-name="b" unicode="b" horiz-adv-x="540" 
d="M78 5l-19 712h84l19 -712h-84zM120 246q-4 129 42 192.5t130 63.5q83 0 136 -70.5t56 -185.5t-46.5 -185.5t-132.5 -70.5t-132.5 64t-52.5 192zM276 59q55 0 87 51.5t30 135.5t-37 135.5t-90 51.5q-54 0 -83.5 -46.5t-27.5 -140.5q3 -94 35 -140.5t86 -46.5zM162 5v-5v0
h-42h-42v3v2v0h84zM143 717h-84v0v2v3h42h42v0v-5z" />
    <glyph glyph-name="c" unicode="c" horiz-adv-x="488" 
d="M380 162l76 -36q1 -61 -51 -98.5t-138 -37.5q-98 0 -155 64t-60 192q-4 129 50 192.5t151 63.5q189 0 196 -153l-72 -36q-5 124 -122 124q-55 0 -85 -47.5t-27 -143.5q2 -94 34.5 -140.5t87.5 -46.5q53 0 84.5 28.5t30.5 74.5z" />
    <glyph glyph-name="d" unicode="d" horiz-adv-x="541" 
d="M52 246q-3 116 50 186t144 70q74 0 121.5 -70.5t50.5 -185.5t-40.5 -185.5t-117.5 -70.5q-91 0 -148 70.5t-60 185.5zM286 59q45 0 71 51.5t24 135.5q-1 84 -30.5 135.5t-74.5 51.5q-62 0 -98.5 -51.5t-34.5 -135.5t41.5 -135.5t101.5 -51.5zM388 5l-19 712h84l18 -712
h-83zM471 5v0v-2v-3h-41h-42v0v5h83zM453 717h-84v0v2v3h42h41v0q0 -1 1 -5z" />
    <glyph glyph-name="e" unicode="e" horiz-adv-x="489" 
d="M377 157l79 -29q2 -62 -52 -100t-145 -38q-94 0 -149 64t-58 192q-4 129 49.5 192.5t150.5 63.5q206 0 213 -265h-83h-239l-2 58h239l2 -58q-5 200 -129 200q-54 0 -83.5 -47.5t-26.5 -143.5q2 -94 32.5 -140.5t81.5 -46.5q56 0 88.5 27t31.5 71z" />
    <glyph glyph-name="f" unicode="f" horiz-adv-x="355" 
d="M103 5l-16 609q-1 58 21.5 83t78.5 25h80l2 -69l-58 1q-23 0 -32.5 -9t-8.5 -31l16 -609h-83zM17 492h256l2 -65h-256zM186 5v0v-2v-3h-42h-41v3v2v0h83zM262 722h5v0q0 -5 0.5 -17t0.5 -18q0 -5 0.5 -17t0.5 -17h-3h-2v0z" />
    <glyph glyph-name="g" unicode="g" horiz-adv-x="541" 
d="M52 246q-7 256 179 256q81 0 132.5 -70.5t54.5 -185.5q2 -111 -45.5 -178.5t-128.5 -67.5q-186 0 -192 246zM261 433q-124 0 -118 -187q4 -177 127 -177q52 0 82.5 48.5t28.5 128.5q-1 84 -34.5 135.5t-85.5 51.5zM60 -60h91q1 -61 129 -61q111 0 108 121l-13 487h84
l11 -452q7 -224 -181 -224q-226 0 -229 129zM459 487h-84v5v0h42h41v-3q0 -2 1 -2q-1 0 0 0z" />
    <glyph glyph-name="h" unicode="h" horiz-adv-x="518" 
d="M78 5l-19 712h84l19 -712h-84zM365 5l-7 282q-2 65 -27.5 99.5t-66.5 34.5q-51 0 -81.5 -31.5t-28.5 -83.5h-28q-2 86 44 138.5t124 52.5q65 0 105 -54t42 -156l8 -282h-84zM162 5v0v-2v-3h-42h-42v3v2v0h84zM143 717h-84v0v2v3h42h42v0v-5zM449 5v0v-2v-3h-42h-42v3v2v0
h84z" />
    <glyph glyph-name="i" unicode="i" horiz-adv-x="238" 
d="M85 5l-13 482h84l13 -482h-84zM70 572l-2 84h84l2 -84h-84zM169 5v0v-2v-3h-42h-42v3v2v0h84zM156 487h-84v0v2v3h42h42v0v-5z" />
    <glyph glyph-name="j" unicode="j" horiz-adv-x="220" 
d="M-13 -75h32q29 0 39 16t9 59l-12 487h83l13 -487q2 -84 -20 -114t-87 -30h-55zM52 572l-2 84h84l2 -84h-84zM138 487h-83v0q-2 0 0 2q-1 3 0 3h41h42v0v-5z" />
    <glyph glyph-name="k" unicode="k" horiz-adv-x="480" 
d="M78 5l-19 712h84l19 -712h-84zM80 204l257 288h94l-275 -307zM377 0l-152 262l61 67l184 -329h-93zM162 5v0v-2v-3h-42h-42v3v2v0h84zM143 717h-84v0v2v3h42h42v0v-5zM467 5v0l2 -2l1 -3h-46h-47v0q0 1 -3 5h93zM426 487h-94v0l2 2q2 3 3 3h47h47q-1 -1 -2 -3l-3 -2v0z
" />
    <glyph glyph-name="l" unicode="l" horiz-adv-x="231" 
d="M78 5l-19 712h84l19 -712h-84zM162 5v0v-2v-3h-42h-42v3v2v0h84zM143 717h-84v0v2v3h42h42v0v-5z" />
    <glyph glyph-name="m" unicode="m" horiz-adv-x="758" 
d="M78 5l-13 482h84l13 -482h-84zM351 5l-7 282q-2 65 -26 99.5t-62 34.5q-47 0 -75 -31.5t-27 -83.5h-28q-2 86 42 138.5t118 52.5q63 0 101 -54t40 -156l8 -282h-84zM610 5l-7 282q-2 65 -24 99.5t-57 34.5q-44 0 -70 -31.5t-25 -83.5h-28q-2 86 40 138.5t113 52.5
q59 0 95.5 -54t38.5 -156l8 -282h-84zM162 5v0v-2v-3h-42h-42v3v2v0h84zM149 487h-84v0v2v3h42h42v0v-5zM435 5v0v-2v-3h-42h-42v3v2v0h84zM694 5v0v-2v-3h-42h-42v3v2v0h84z" />
    <glyph glyph-name="n" unicode="n" 
d="M78 5l-13 482h84l13 -482h-84zM365 5l-7 282q-2 65 -27.5 99.5t-66.5 34.5q-51 0 -81.5 -31.5t-28.5 -83.5h-28q-2 86 44 138.5t124 52.5q65 0 105 -54t42 -156l8 -282h-84zM162 5v0v-2v-3h-42h-42v3v2v0h84zM149 487h-84v0v2v3h42h42v0v-5zM449 5v0v-2v-3h-42h-42v3v2v0
h84z" />
    <glyph glyph-name="o" unicode="o" horiz-adv-x="536" 
d="M52 246q-4 128 51.5 192t155.5 64q108 0 163 -68t58 -188q3 -129 -52.5 -192.5t-155.5 -63.5q-107 0 -162 68t-58 188zM271 52q58 0 89 48t29 146q-2 90 -34.5 142t-93.5 52q-58 0 -89.5 -48.5t-28.5 -145.5q2 -90 34 -142t94 -52z" />
    <glyph glyph-name="p" unicode="p" horiz-adv-x="543" 
d="M82 -150l-17 637h84l17 -637h-84zM120 246q-4 129 36 192.5t113 63.5q95 0 155 -70.5t63 -185.5q3 -116 -53 -186t-151 -70q-73 0 -116.5 64t-46.5 192zM253 59q67 0 106 51.5t37 135.5q-1 84 -43.5 135.5t-109.5 51.5q-43 0 -66.5 -46.5t-21.5 -140.5q6 -187 98 -187z
M166 -150v0v-2v-3h-42h-42v3v2v0h84zM149 487h-84v0v2v3h42h42v0v-5z" />
    <glyph glyph-name="q" unicode="q" horiz-adv-x="541" 
d="M52 246q-3 116 44.5 186t129.5 70q83 0 136 -70.5t56 -185.5t-46 -185.5t-132 -70.5q-82 0 -133.5 70.5t-54.5 185.5zM266 59q54 0 85.5 51.5t29.5 135.5q-1 84 -36 135.5t-89 51.5q-53 0 -84 -51.5t-29 -135.5t36 -135.5t87 -51.5zM392 -150l-17 637h84l16 -637h-83z
M475 -150v0v-2v-3h-41h-42v3v2v0h83zM459 487h-84v5v0h42h41v-3q0 -2 1 -2q-1 0 0 0z" />
    <glyph glyph-name="r" unicode="r" horiz-adv-x="342" 
d="M78 5l-13 482h84l13 -482h-84zM311 402h-17q-143 0 -138 -186h-28q-7 276 171 276h10zM162 5v0v-2v-3h-42h-42v3v2v0h84zM149 487h-84v0v2v3h42h42v0v-5z" />
    <glyph glyph-name="s" unicode="s" horiz-adv-x="468" 
d="M31 133l75 29q1 -46 38.5 -74t98.5 -28q50 0 80 20.5t29 54.5q-1 28 -32 47.5t-90 26.5q-82 9 -126.5 47t-46.5 94q-2 66 46.5 106.5t129.5 40.5t131.5 -38.5t52.5 -101.5l-68 -31q-1 49 -32.5 79t-81.5 30q-45 0 -72.5 -21.5t-26.5 -56.5q2 -29 30.5 -48.5t81.5 -25.5
q89 -10 137 -47.5t50 -93.5q2 -66 -50.5 -106.5t-139.5 -40.5q-95 0 -153.5 38t-60.5 100z" />
    <glyph glyph-name="t" unicode="t" horiz-adv-x="295" 
d="M77 653l82 69l16 -608q1 -28 7 -36.5t30 -8.5h52l2 -69h-88q-30 0 -47 5t-26 21t-11 33.5t-3 54.5zM253 492l2 -65h-256l-2 65h256z" />
    <glyph glyph-name="u" unicode="u" horiz-adv-x="490" 
d="M60 487h84l7 -287q2 -65 23 -99.5t55 -34.5q59 0 82 27t22 79l2 -102q-43 -80 -130 -80q-61 0 -98 54t-39 156zM337 5l-13 482h84l12 -482h-83zM144 487h-84v0v2v3h42h42v0v-5zM408 487h-84v0v2v3h42h42v0v-5zM420 5v0q2 0 0 -2l1 -3h-42h-42v0v5h83z" />
    <glyph glyph-name="v" unicode="v" horiz-adv-x="453" 
d="M6 492h94l156 -492h-72zM275 0h-73l134 492h95zM102 487h-95v0q0 1 -1 2v3h47h47q0 -1 1 -3q0 -2 1 -2q-2 0 0 0zM429 487h-94v0q0 1 1 2v3h48h47q0 -1 -1 -3l-1 -2v0z" />
    <glyph glyph-name="w" unicode="w" horiz-adv-x="690" 
d="M5 492h89l133 -492h-65zM245 0h-65l120 492h72zM300 492h72l146 -492h-65zM536 0h-65l108 492h88zM95 487h-88v0q-1 0 -1 2l-1 3h44h45v-3l1 -2v0zM666 487h-88v0v2l1 3h44h44v-3l-1 -2v0z" />
    <glyph glyph-name="x" unicode="x" horiz-adv-x="463" 
d="M-1 492h101l358 -492h-101zM324 492h91l-333 -492h-90z" />
    <glyph glyph-name="y" unicode="y" horiz-adv-x="480" 
d="M50 -200l-2 73h50q44 0 66.5 21t41.5 80l157 518h95l-186 -550q-28 -83 -63.5 -112.5t-108.5 -29.5h-50zM6 492h94l155 -401l-38 -124zM456 487h-94v0q0 1 1 2v3h48h47q0 -1 -1 -3l-1 -2v0zM102 487h-94v0q-1 0 -1 2l-1 3h47h47q0 -1 1 -3l1 -2v0z" />
    <glyph glyph-name="z" unicode="z" horiz-adv-x="432" 
d="M32 492h263h88l1 -51l-258 -382l-96 -59l-1 51l90 14h291l2 -65h-292h-90l-1 51l256 385l99 5l-88 -14h-262zM405 65v0h3h2q1 -9 1 -32q0 -5 0.5 -16.5t0.5 -16.5v0h-5zM37 492l2 -65v0h-3h-2q0 5 -0.5 16t-0.5 16t-0.5 16.5t-0.5 16.5v0h5z" />
    <glyph glyph-name="braceleft" unicode="{" horiz-adv-x="313" 
d="M264 722l1 -47h-60q-17 0 -27 -14.5t-9 -37.5q0 -22 1 -45t1 -41.5t0.5 -37t1 -32.5t1 -27t0.5 -22v-16v-10v-3q1 -29 -17 -53t-50 -34l-59 -18l-1 39l59 -18q32 -10 52 -34t21 -53l6 -234q1 -23 12 -37.5t28 -14.5h60l1 -47h-60q-42 0 -68 27t-27 72l-7 244
q-1 25 -19.5 40.5t-48.5 15.5h-8l-1 39h8q30 0 48 15.5t18 40.5l-7 244q-1 45 23.5 72t66.5 27h60z" />
    <glyph glyph-name="bar" unicode="|" horiz-adv-x="144" 
d="M25 772h54l27 -1022h-54z" />
    <glyph glyph-name="braceright" unicode="}" horiz-adv-x="313" 
d="M11 722l1 -47h61q17 0 27.5 -14.5t11.5 -37.5q0 -23 1 -45.5t1 -41.5t0.5 -36.5t1 -32t1 -27.5t0.5 -22t0.5 -16t0.5 -10v-3q1 -29 21 -53t52 -34l60 -18l-1 39l-59 -18q-32 -10 -50.5 -34t-17.5 -53l6 -234q0 -23 -10 -37.5t-27 -14.5h-60l1 -47h60q42 0 66.5 27
t23.5 72l-6 244q-1 25 17 40.5t48 15.5h9l-1 39h-9q-30 0 -48.5 15.5t-19.5 40.5q-3 98 -7 244q-1 45 -27 72t-68 27h-60z" />
    <glyph glyph-name="nobreakspace" unicode="&#xa0;" horiz-adv-x="189" 
 />
    <glyph glyph-name="exclamdown" unicode="&#xa1;" horiz-adv-x="188" 
d="M51 -227l-8 299l31 221h25l42 -221l8 -299h-98zM38 401l-2 91h91l2 -91h-91z" />
    <glyph glyph-name="cent" unicode="&#xa2;" horiz-adv-x="483" 
d="M374 162l76 -36q1 -61 -49.5 -98.5t-136.5 -37.5q-96 0 -152.5 64t-59.5 192q-4 129 49 192.5t150 63.5q186 0 193 -153l-73 -36q-3 124 -119 124q-54 0 -83 -47.5t-26 -143.5q2 -94 33.5 -140.5t85.5 -46.5q52 0 82.5 28t29.5 75zM226 592h55l18 -692h-55z" />
    <glyph glyph-name="guillemotleft" unicode="&#xab;" horiz-adv-x="486" 
d="M186 445h72l-115 -199l126 -199h-73l-126 199zM339 445h72l-115 -199l126 -199h-73l-126 199z" />
    <glyph glyph-name="guillemotright" unicode="&#xbb;" horiz-adv-x="468" 
d="M61 445h73l125 -199l-115 -199h-73l115 199zM214 445h73l125 -199l-115 -199h-73l116 199z" />
    <glyph glyph-name="a_cap_grave" unicode="&#xc0;" horiz-adv-x="680" 
d="M20 0l257 722h104l289 -722h-105l-286 722h98l-252 -722h-105zM496 175h-310l26 75h254zM127 5v0q-1 -1 -1 -2l-1 -3h-53h-52q0 1 1 3v2q1 0 0 0h106zM668 5v0q0 -1 1 -2l1 -3h-52h-53q0 1 -1 3l-1 2v0h105zM375 717h-99v0v1l1 1v3h50h50v0q0 -1 -2 -5zM290 802l-85 150
h109l52 -150h-76z" />
    <glyph glyph-name="a_cap_acute" unicode="&#xc1;" horiz-adv-x="680" 
d="M20 0l257 722h104l289 -722h-105l-286 722h98l-252 -722h-105zM496 175h-310l26 75h254zM127 5v0q-1 -1 -1 -2l-1 -3h-53h-52q0 1 1 3v2q1 0 0 0h106zM668 5v0q0 -1 1 -2l1 -3h-52h-53q0 1 -1 3l-1 2v0h105zM375 717h-99v0v1l1 1v3h50h50v0q0 -1 -2 -5zM290 802l44 150
h109l-77 -150h-76z" />
    <glyph glyph-name="a_cap_circumflex" unicode="&#xc2;" horiz-adv-x="680" 
d="M20 0l257 722h104l289 -722h-105l-286 722h98l-252 -722h-105zM496 175h-310l26 75h254zM127 5v0q-1 -1 -1 -2l-1 -3h-53h-52q0 1 1 3v2q1 0 0 0h106zM668 5v0q0 -1 1 -2l1 -3h-52h-53q0 1 -1 3l-1 2v0h105zM375 717h-99v0v1l1 1v3h50h50v0q0 -1 -2 -5zM326 887l-83 -85
h-76l115 150h84l123 -150h-76z" />
    <glyph glyph-name="a_cap_tilde" unicode="&#xc3;" horiz-adv-x="680" 
d="M20 0l257 722h104l289 -722h-105l-286 722h98l-252 -722h-105zM496 175h-310l26 75h254zM127 5v0q-1 -1 -1 -2l-1 -3h-53h-52q0 1 1 3v2q1 0 0 0h106zM668 5v0q0 -1 1 -2l1 -3h-52h-53q0 1 -1 3l-1 2v0h105zM375 717h-99v0v1l1 1v3h50h50v0q0 -1 -2 -5zM271 935
q22 0 39 -19.5t31.5 -39t32.5 -19.5l8 -65q-22 0 -39 19.5t-31.5 39t-32.5 19.5zM259 802h-62q-1 60 19 96.5t55 36.5l8 -65q-22 0 -20 -68zM382 792l-8 65q22 0 20 68h61q2 -60 -18 -96.5t-55 -36.5z" />
    <glyph glyph-name="a_cap_dieresis" unicode="&#xc4;" horiz-adv-x="680" 
d="M20 0l257 722h104l289 -722h-105l-286 722h98l-252 -722h-105zM496 175h-310l26 75h254zM127 5v0q-1 -1 -1 -2l-1 -3h-53h-52q0 1 1 3v2q1 0 0 0h106zM668 5v0q0 -1 1 -2l1 -3h-52h-53q0 1 -1 3l-1 2v0h105zM375 717h-99v0v1l1 1v3h50h50v0q0 -1 -2 -5zM210 802l-2 91h90
l3 -91h-91zM355 802l-2 91h91l2 -91h-91z" />
    <glyph glyph-name="a_cap_ring" unicode="&#xc5;" horiz-adv-x="680" 
d="M20 0l257 722h104l289 -722h-105l-286 722h98l-252 -722h-105zM496 175h-310l26 75h254zM127 5v0q-1 -1 -1 -2l-1 -3h-53h-52q0 1 1 3v2q1 0 0 0h106zM668 5v0q0 -1 1 -2l1 -3h-52h-53q0 1 -1 3l-1 2v0h105zM375 717h-99v0v1l1 1v3h50h50v0q0 -1 -2 -5zM242 887
q-1 40 20.5 62.5t61.5 22.5q39 0 61.5 -22.5t23.5 -62.5q2 -85 -81 -85t-86 85zM327 841q43 0 41 46t-43 46q-43 0 -41 -46t43 -46z" />
    <glyph glyph-name="c_cap_cedilla" unicode="&#xc7;" horiz-adv-x="703" 
d="M606 218l74 -60q2 -76 -78 -122t-213 -46q-144 0 -239 108.5t-100 262.5q-4 154 85.5 262.5t233.5 108.5q127 0 209.5 -46t90.5 -122l-70 -60q-7 67 -70 107.5t-158 40.5q-98 0 -158.5 -85t-56.5 -206q3 -121 68 -206t163 -85q101 0 161 40.5t58 107.5zM357 22h29
l-35 -138l1 29q7 27 33 27q33 0 53.5 -24t21.5 -64t-20.5 -64t-56.5 -24q-26 0 -45.5 14t-26.5 37l32 25q12 -36 37 -36q15 0 24.5 13t8.5 35q-2 48 -34 48q-25 0 -28 -16l-25 15z" />
    <glyph glyph-name="e_cap_grave" unicode="&#xc8;" horiz-adv-x="582" 
d="M94 5l-18 712h98l18 -712h-98zM174 722h327l2 -80h-327zM182 411h310l2 -77h-310zM193 0l-3 80h340l3 -80h-340zM192 5l1 -5v0h-49h-50v3v2v0h98zM174 717h-98v0q-2 0 0 2q-2 3 0 3h49h49v0v-5zM487 411v0h2h3q0 -27 1 -38q0 -27 1 -39h-3h-2v0zM496 722h5v0
q0 -6 0.5 -20t0.5 -20t0.5 -20t0.5 -20h-3h-2v0zM525 80v0h3h2q0 -6 1 -20t1 -20t0.5 -20t0.5 -20v0h-5zM248 802l-85 150h109l52 -150h-76z" />
    <glyph glyph-name="e_cap_acute" unicode="&#xc9;" horiz-adv-x="582" 
d="M94 5l-18 712h98l18 -712h-98zM174 722h327l2 -80h-327zM182 411h310l2 -77h-310zM193 0l-3 80h340l3 -80h-340zM192 5l1 -5v0h-49h-50v3v2v0h98zM174 717h-98v0q-2 0 0 2q-2 3 0 3h49h49v0v-5zM487 411v0h2h3q0 -27 1 -38q0 -27 1 -39h-3h-2v0zM496 722h5v0
q0 -6 0.5 -20t0.5 -20t0.5 -20t0.5 -20h-3h-2v0zM525 80v0h3h2q0 -6 1 -20t1 -20t0.5 -20t0.5 -20v0h-5zM248 802l44 150h109l-77 -150h-76z" />
    <glyph glyph-name="e_cap_circumflex" unicode="&#xca;" horiz-adv-x="582" 
d="M94 5l-18 712h98l18 -712h-98zM174 722h327l2 -80h-327zM182 411h310l2 -77h-310zM193 0l-3 80h340l3 -80h-340zM192 5l1 -5v0h-49h-50v3v2v0h98zM174 717h-98v0q-2 0 0 2q-2 3 0 3h49h49v0v-5zM487 411v0h2h3q0 -27 1 -38q0 -27 1 -39h-3h-2v0zM496 722h5v0
q0 -6 0.5 -20t0.5 -20t0.5 -20t0.5 -20h-3h-2v0zM525 80v0h3h2q0 -6 1 -20t1 -20t0.5 -20t0.5 -20v0h-5zM284 887l-83 -85h-76l115 150h84l123 -150h-76z" />
    <glyph glyph-name="e_cap_dieresis" unicode="&#xcb;" horiz-adv-x="582" 
d="M94 5l-18 712h98l18 -712h-98zM174 722h327l2 -80h-327zM182 411h310l2 -77h-310zM193 0l-3 80h340l3 -80h-340zM192 5l1 -5v0h-49h-50v3v2v0h98zM174 717h-98v0q-2 0 0 2q-2 3 0 3h49h49v0v-5zM487 411v0h2h3q0 -27 1 -38q0 -27 1 -39h-3h-2v0zM496 722h5v0
q0 -6 0.5 -20t0.5 -20t0.5 -20t0.5 -20h-3h-2v0zM525 80v0h3h2q0 -6 1 -20t1 -20t0.5 -20t0.5 -20v0h-5zM168 802l-2 91h90l3 -91h-91zM313 802l-2 91h91l2 -91h-91z" />
    <glyph glyph-name="i_cap_grave" unicode="&#xcc;" horiz-adv-x="267" 
d="M85 5l-19 712h98l19 -712h-98zM183 5v0v-2v-3h-49h-49v3v2v0h98zM164 717h-98v0v2v3h49h49v-3v-2v0zM75 802l-85 150h109l52 -150h-76z" />
    <glyph glyph-name="i_cap_acute" unicode="&#xcd;" horiz-adv-x="267" 
d="M85 5l-19 712h98l19 -712h-98zM183 5v0v-2v-3h-49h-49v3v2v0h98zM164 717h-98v0v2v3h49h49v-3v-2v0zM75 802l44 150h109l-77 -150h-76z" />
    <glyph glyph-name="i_cap_circumflex" unicode="&#xce;" horiz-adv-x="267" 
d="M85 5l-19 712h98l19 -712h-98zM183 5v0v-2v-3h-49h-49v3v2v0h98zM164 717h-98v0v2v3h49h49v-3v-2v0zM110 887l-82 -85h-76l115 150h84l123 -150h-77z" />
    <glyph glyph-name="i_cap_dieresis" unicode="&#xcf;" horiz-adv-x="267" 
d="M85 5l-19 712h98l19 -712h-98zM183 5v0v-2v-3h-49h-49v3v2v0h98zM164 717h-98v0v2v3h49h49v-3v-2v0zM-5 802l-3 91h91l2 -91h-90zM140 802l-2 91h90l3 -91h-91z" />
    <glyph glyph-name="n_cap_tilde" unicode="&#xd1;" horiz-adv-x="679" 
d="M76 717h98l18 -712h-98zM76 722h106l384 -722h-106zM478 717h98l19 -717h-98zM192 5v0q2 0 0 -2l1 -3h-49h-50v3v2v0h98zM174 717h-98v0q-2 0 0 2q-2 3 0 3h49h49v0v-5zM576 717h-98v0v2v3h49h49v-3v-2v0zM267 935q17 0 31.5 -12t23 -27t21 -27t27.5 -12l7 -65
q-22 0 -39 19.5t-31.5 39t-32.5 19.5zM255 802h-62q-2 60 18.5 96.5t55.5 36.5l7 -65q-9 0 -14.5 -19t-4.5 -49zM377 792l-7 65q9 0 14.5 19t4.5 49h62q1 -60 -19 -96.5t-55 -36.5z" />
    <glyph glyph-name="o_cap_grave" unicode="&#xd2;" horiz-adv-x="799" 
d="M55 361q-4 158 90.5 264.5t239.5 106.5t245 -106.5t105 -264.5q4 -167 -87 -269t-243 -102q-153 0 -249.5 102t-100.5 269zM403 70q105 0 167.5 80t58.5 211q-3 124 -72 207.5t-170 83.5q-100 0 -165 -83.5t-61 -207.5q3 -131 69.5 -211t172.5 -80zM345 802l-85 150h109
l52 -150h-76z" />
    <glyph glyph-name="o_cap_acute" unicode="&#xd3;" horiz-adv-x="799" 
d="M55 361q-4 158 90.5 264.5t239.5 106.5t245 -106.5t105 -264.5q4 -167 -87 -269t-243 -102q-153 0 -249.5 102t-100.5 269zM403 70q105 0 167.5 80t58.5 211q-3 124 -72 207.5t-170 83.5q-100 0 -165 -83.5t-61 -207.5q3 -131 69.5 -211t172.5 -80zM345 802l44 150h109
l-77 -150h-76z" />
    <glyph glyph-name="o_cap_circumflex" unicode="&#xd4;" horiz-adv-x="799" 
d="M55 361q-4 158 90.5 264.5t239.5 106.5t245 -106.5t105 -264.5q4 -167 -87 -269t-243 -102q-153 0 -249.5 102t-100.5 269zM403 70q105 0 167.5 80t58.5 211q-3 124 -72 207.5t-170 83.5q-100 0 -165 -83.5t-61 -207.5q3 -131 69.5 -211t172.5 -80zM381 887l-82 -85h-77
l115 150h85l122 -150h-76z" />
    <glyph glyph-name="o_cap_tilde" unicode="&#xd5;" horiz-adv-x="799" 
d="M55 361q-4 158 90.5 264.5t239.5 106.5t245 -106.5t105 -264.5q4 -167 -87 -269t-243 -102q-153 0 -249.5 102t-100.5 269zM403 70q105 0 167.5 80t58.5 211q-3 124 -72 207.5t-170 83.5q-100 0 -165 -83.5t-61 -207.5q3 -131 69.5 -211t172.5 -80zM326 935
q18 0 32.5 -12t23 -27t21 -27t27.5 -12l7 -65q-22 0 -39 19.5t-31.5 39t-32.5 19.5zM315 802h-62q-2 60 18.5 96.5t54.5 36.5l8 -65q-21 0 -19 -68zM437 792l-7 65q9 0 14.5 19t4.5 49h62q1 -60 -19 -96.5t-55 -36.5z" />
    <glyph glyph-name="o_cap_dieresis" unicode="&#xd6;" horiz-adv-x="799" 
d="M55 361q-4 158 90.5 264.5t239.5 106.5t245 -106.5t105 -264.5q4 -167 -87 -269t-243 -102q-153 0 -249.5 102t-100.5 269zM403 70q105 0 167.5 80t58.5 211q-3 124 -72 207.5t-170 83.5q-100 0 -165 -83.5t-61 -207.5q3 -131 69.5 -211t172.5 -80zM265 802l-2 91h91
l2 -91h-91zM411 802l-3 91h91l2 -91h-90z" />
    <glyph glyph-name="O_cap_slash" unicode="&#xd8;" horiz-adv-x="799" 
d="M55 361q-4 158 90.5 264.5t239.5 106.5t245 -106.5t105 -264.5q4 -167 -87 -269t-243 -102q-153 0 -249.5 102t-100.5 269zM403 70q105 0 167.5 80t58.5 211q-3 124 -72 207.5t-170 83.5q-100 0 -165 -83.5t-61 -207.5q3 -131 69.5 -211t172.5 -80zM65 -10l605 742h55
l-606 -742h-54z" />
    <glyph glyph-name="u_cap_grave" unicode="&#xd9;" horiz-adv-x="694" 
d="M69 717h98l11 -420q6 -216 171 -216t159 216l-11 420h98l12 -437q8 -290 -256 -290q-263 0 -271 290zM167 717h-98v0q-2 0 0 2q-1 3 0 3h49h49v-3v-2v0zM595 717h-98v0v2v3h49h49v-3v-2v0zM292 792l-85 150h109l52 -150h-76z" />
    <glyph glyph-name="u_cap_acute" unicode="&#xda;" horiz-adv-x="694" 
d="M69 717h98l11 -420q6 -216 171 -216t159 216l-11 420h98l12 -437q8 -290 -256 -290q-263 0 -271 290zM167 717h-98v0q-2 0 0 2q-1 3 0 3h49h49v-3v-2v0zM595 717h-98v0v2v3h49h49v-3v-2v0zM292 792l44 150h109l-77 -150h-76z" />
    <glyph glyph-name="u_cap_circumflex" unicode="&#xdb;" horiz-adv-x="694" 
d="M69 717h98l11 -420q6 -216 171 -216t159 216l-11 420h98l12 -437q8 -290 -256 -290q-263 0 -271 290zM167 717h-98v0q-2 0 0 2q-1 3 0 3h49h49v-3v-2v0zM595 717h-98v0v2v3h49h49v-3v-2v0zM328 877l-83 -85h-76l115 150h84l123 -150h-76z" />
    <glyph glyph-name="u_cap_dieresis" unicode="&#xdc;" horiz-adv-x="694" 
d="M69 717h98l11 -420q6 -216 171 -216t159 216l-11 420h98l12 -437q8 -290 -256 -290q-263 0 -271 290zM167 717h-98v0q-2 0 0 2q-1 3 0 3h49h49v-3v-2v0zM595 717h-98v0v2v3h49h49v-3v-2v0zM212 792l-2 91h90l3 -91h-91zM357 792l-2 91h91l2 -91h-91z" />
    <glyph glyph-name="y_cap_acute" unicode="&#xdd;" horiz-adv-x="543" 
d="M0 722h109l165 -292l-51 -99zM405 722h110l-203 -391l-57 99zM216 430h98l11 -425h-98zM325 5v0v-2v-3h-49h-49v3v2v0h98zM112 717h-109v0l-2 2l-1 3h54h55q1 -1 2 -3l1 -2v0zM512 717h-110v0l2 2l1 3h55h55q-1 0 -2 -3l-1 -2v0zM217 802l44 150h109l-77 -150h-76z" />
    <glyph glyph-name="a_grave" unicode="&#xe0;" 
d="M62 360q0 64 51.5 103t136.5 39q189 0 189 -175v-250q0 -11 6.5 -13t38.5 -2v-62q-93 0 -111 10.5t-18 66.5v285q0 71 -105 71q-50 0 -81 -27t-31 -71zM381 190q0 -111 -45.5 -155.5t-132.5 -44.5q-155 0 -155 131q0 50 41 88t108 49q77 13 117.5 37t40.5 67l42 -17
q0 -63 -38.5 -95t-111.5 -45q-52 -9 -83.5 -31t-31.5 -50q0 -76 97 -76q62 0 94.5 31.5t32.5 110.5h25zM212 572l-81 150h109l49 -150h-77z" />
    <glyph glyph-name="a_acute" unicode="&#xe1;" 
d="M62 360q0 64 51.5 103t136.5 39q189 0 189 -175v-250q0 -11 6.5 -13t38.5 -2v-62q-93 0 -111 10.5t-18 66.5v285q0 71 -105 71q-50 0 -81 -27t-31 -71zM381 190q0 -111 -45.5 -155.5t-132.5 -44.5q-155 0 -155 131q0 50 41 88t108 49q77 13 117.5 37t40.5 67l42 -17
q0 -63 -38.5 -95t-111.5 -45q-52 -9 -83.5 -31t-31.5 -50q0 -76 97 -76q62 0 94.5 31.5t32.5 110.5h25zM212 572l48 150h109l-80 -150h-77z" />
    <glyph glyph-name="a_circumflex" unicode="&#xe2;" 
d="M62 360q0 64 51.5 103t136.5 39q189 0 189 -175v-250q0 -11 6.5 -13t38.5 -2v-62q-93 0 -111 10.5t-18 66.5v285q0 71 -105 71q-50 0 -81 -27t-31 -71zM381 190q0 -111 -45.5 -155.5t-132.5 -44.5q-155 0 -155 131q0 50 41 88t108 49q77 13 117.5 37t40.5 67l42 -17
q0 -63 -38.5 -95t-111.5 -45q-52 -9 -83.5 -31t-31.5 -50q0 -76 97 -76q62 0 94.5 31.5t32.5 110.5h25zM250 657l-84 -85h-76l118 150h85l118 -150h-76z" />
    <glyph glyph-name="a_alt_tilde" unicode="&#xe3;" horiz-adv-x="519" 
d="M58 246q0 115 46.5 185.5t123.5 70.5q79 0 127 -70.5t48 -185.5t-48 -185.5t-127 -70.5q-77 0 -123.5 70.5t-46.5 185.5zM255 59q50 0 80.5 51.5t30.5 135.5t-30.5 135.5t-80.5 51.5q-47 0 -76.5 -51.5t-29.5 -135.5t29.5 -135.5t76.5 -51.5zM366 0v492h84v-492h-84z
M201 705q22 0 38.5 -19.5t30.5 -39t32 -19.5l5 -65q-18 0 -32 12t-22 27t-20 27t-27 12zM185 572h-61q0 60 21 96.5t56 36.5l5 -65q-21 0 -21 -68zM307 562l-5 65q21 0 21 68h62q0 -60 -21.5 -96.5t-56.5 -36.5z" />
    <glyph glyph-name="a_dieresis" unicode="&#xe4;" 
d="M62 360q0 64 51.5 103t136.5 39q189 0 189 -175v-250q0 -11 6.5 -13t38.5 -2v-62q-93 0 -111 10.5t-18 66.5v285q0 71 -105 71q-50 0 -81 -27t-31 -71zM381 190q0 -111 -45.5 -155.5t-132.5 -44.5q-155 0 -155 131q0 50 41 88t108 49q77 13 117.5 37t40.5 67l42 -17
q0 -63 -38.5 -95t-111.5 -45q-52 -9 -83.5 -31t-31.5 -50q0 -76 97 -76q62 0 94.5 31.5t32.5 110.5h25zM112 572v91h91v-91h-91zM298 572v91h91v-91h-91z" />
    <glyph glyph-name="a_ring" unicode="&#xe5;" 
d="M62 360q0 64 51.5 103t136.5 39q189 0 189 -175v-250q0 -11 6.5 -13t38.5 -2v-62q-93 0 -111 10.5t-18 66.5v285q0 71 -105 71q-50 0 -81 -27t-31 -71zM381 190q0 -111 -45.5 -155.5t-132.5 -44.5q-155 0 -155 131q0 50 41 88t108 49q77 13 117.5 37t40.5 67l42 -17
q0 -63 -38.5 -95t-111.5 -45q-52 -9 -83.5 -31t-31.5 -50q0 -76 97 -76q62 0 94.5 31.5t32.5 110.5h25zM167 657q0 40 22 62.5t61 22.5q40 0 62 -22.5t22 -62.5q0 -85 -84 -85q-83 0 -83 85zM250 611q43 0 43 46t-43 46q-20 0 -31 -12t-11 -34q0 -46 42 -46z" />
    <glyph glyph-name="c_cedilla" unicode="&#xe7;" horiz-adv-x="483" 
d="M378 162l75 -36q0 -61 -52 -98.5t-137 -37.5q-97 0 -151.5 63.5t-54.5 192.5t54.5 192.5t151.5 63.5q187 0 189 -153l-73 -36q-2 124 -116 124q-54 0 -84.5 -47.5t-30.5 -143.5q0 -94 30.5 -140.5t84.5 -46.5q51 0 82.5 28.5t31.5 74.5zM241 18h29l-38 -134l2 29
q8 27 34 27q32 0 52 -24t20 -64t-22 -64t-57 -24q-26 0 -45 14t-25 37l32 25q5 -16 14.5 -26t21.5 -10q15 0 24.5 13t9.5 35t-9 35t-23 13q-24 0 -29 -16l-25 15z" />
    <glyph glyph-name="e_grave" unicode="&#xe8;" horiz-adv-x="489" 
d="M377 157l79 -29q2 -62 -52 -100t-145 -38q-94 0 -149 64t-58 192q-4 129 49.5 192.5t150.5 63.5q206 0 213 -265h-83h-239l-2 58h239l2 -58q-5 200 -129 200q-54 0 -83.5 -47.5t-26.5 -143.5q2 -94 32.5 -140.5t81.5 -46.5q56 0 88.5 27t31.5 71zM212 572l-85 150h109
l52 -150h-76z" />
    <glyph glyph-name="e_acute" unicode="&#xe9;" horiz-adv-x="489" 
d="M377 157l79 -29q2 -62 -52 -100t-145 -38q-94 0 -149 64t-58 192q-4 129 49.5 192.5t150.5 63.5q206 0 213 -265h-83h-239l-2 58h239l2 -58q-5 200 -129 200q-54 0 -83.5 -47.5t-26.5 -143.5q2 -94 32.5 -140.5t81.5 -46.5q56 0 88.5 27t31.5 71zM212 572l44 150h109
l-77 -150h-76z" />
    <glyph glyph-name="e_circumflex" unicode="&#xea;" horiz-adv-x="489" 
d="M377 157l79 -29q2 -62 -52 -100t-145 -38q-94 0 -149 64t-58 192q-4 129 49.5 192.5t150.5 63.5q206 0 213 -265h-83h-239l-2 58h239l2 -58q-5 200 -129 200q-54 0 -83.5 -47.5t-26.5 -143.5q2 -94 32.5 -140.5t81.5 -46.5q56 0 88.5 27t31.5 71zM248 657l-83 -85h-76
l115 150h84l123 -150h-77z" />
    <glyph glyph-name="e_dieresis" unicode="&#xeb;" horiz-adv-x="489" 
d="M377 157l79 -29q2 -62 -52 -100t-145 -38q-94 0 -149 64t-58 192q-4 129 49.5 192.5t150.5 63.5q206 0 213 -265h-83h-239l-2 58h239l2 -58q-5 200 -129 200q-54 0 -83.5 -47.5t-26.5 -143.5q2 -94 32.5 -140.5t81.5 -46.5q56 0 88.5 27t31.5 71zM132 572l-3 91h91l3 -91
h-91zM277 572l-2 91h91l2 -91h-91z" />
    <glyph glyph-name="i_grave" unicode="&#xec;" horiz-adv-x="238" 
d="M85 5v482h84v-482h-84zM89 572l-81 150h109l48 -150h-76zM169 5v0v-2v-3h-42h-42v3v2v0h84zM169 487h-84v0v2v3h42h42v0v-5z" />
    <glyph glyph-name="i_acute" unicode="&#xed;" horiz-adv-x="238" 
d="M85 5v482h84v-482h-84zM89 572l48 150h109l-81 -150h-76zM169 5v0v-2v-3h-42h-42v3v2v0h84zM169 487h-84v0v2v3h42h42v0v-5z" />
    <glyph glyph-name="i_circumflex" unicode="&#xee;" horiz-adv-x="238" 
d="M85 5v482h84v-482h-84zM127 657l-85 -85h-76l119 150h84l119 -150h-76zM169 5v0v-2v-3h-42h-42v3v2v0h84zM169 487h-84v0v2v3h42h42v0v-5z" />
    <glyph glyph-name="i_dieresis" unicode="&#xef;" horiz-adv-x="238" 
d="M85 5v482h84v-482h-84zM-11 572v91h91v-91h-91zM175 572v91h90v-91h-90zM169 5v0v-2v-3h-42h-42v3v2v0h84zM169 487h-84v0v2v3h42h42v0v-5z" />
    <glyph glyph-name="n_tilde" unicode="&#xf1;" 
d="M78 5l-13 482h84l13 -482h-84zM365 5l-7 282q-2 65 -27.5 99.5t-66.5 34.5q-51 0 -81.5 -31.5t-28.5 -83.5h-28q-2 86 44 138.5t124 52.5q65 0 105 -54t42 -156l8 -282h-84zM162 5v0v-2v-3h-42h-42v3v2v0h84zM149 487h-84v0v2v3h42h42v0v-5zM449 5v0v-2v-3h-42h-42v3v2v0
h84zM150 705q22 0 39 -19.5t31.5 -39t32.5 -19.5l7 -65q-22 0 -38.5 19.5t-31.5 39t-33 19.5zM138 572h-62q-2 60 18.5 96.5t55.5 36.5l7 -65q-9 0 -14.5 -19t-4.5 -49zM260 562l-7 65q22 0 19 68h62q2 -60 -18.5 -96.5t-55.5 -36.5z" />
    <glyph glyph-name="o_grave" unicode="&#xf2;" horiz-adv-x="536" 
d="M52 246q-4 128 51.5 192t155.5 64q108 0 163 -68t58 -188q3 -129 -52.5 -192.5t-155.5 -63.5q-107 0 -162 68t-58 188zM271 52q58 0 89 48t29 146q-2 90 -34.5 142t-93.5 52q-58 0 -89.5 -48.5t-28.5 -145.5q2 -90 34 -142t94 -52zM219 572l-85 150h109l52 -150h-76z" />
    <glyph glyph-name="o_acute" unicode="&#xf3;" horiz-adv-x="536" 
d="M52 246q-4 128 51.5 192t155.5 64q108 0 163 -68t58 -188q3 -129 -52.5 -192.5t-155.5 -63.5q-107 0 -162 68t-58 188zM271 52q58 0 89 48t29 146q-2 90 -34.5 142t-93.5 52q-58 0 -89.5 -48.5t-28.5 -145.5q2 -90 34 -142t94 -52zM219 572l44 150h109l-77 -150h-76z" />
    <glyph glyph-name="o_circumflex" unicode="&#xf4;" horiz-adv-x="536" 
d="M52 246q-4 128 51.5 192t155.5 64q108 0 163 -68t58 -188q3 -129 -52.5 -192.5t-155.5 -63.5q-107 0 -162 68t-58 188zM271 52q58 0 89 48t29 146q-2 90 -34.5 142t-93.5 52q-58 0 -89.5 -48.5t-28.5 -145.5q2 -90 34 -142t94 -52zM255 657l-82 -85h-77l115 150h84
l123 -150h-76z" />
    <glyph glyph-name="o_tilde" unicode="&#xf5;" horiz-adv-x="536" 
d="M52 246q-4 128 51.5 192t155.5 64q108 0 163 -68t58 -188q3 -129 -52.5 -192.5t-155.5 -63.5q-107 0 -162 68t-58 188zM271 52q58 0 89 48t29 146q-2 90 -34.5 142t-93.5 52q-58 0 -89.5 -48.5t-28.5 -145.5q2 -90 34 -142t94 -52zM200 705q22 0 39 -19.5t31.5 -39
t32.5 -19.5l8 -65q-22 0 -39 19.5t-31.5 39t-32.5 19.5zM188 572h-61q-2 60 18.5 96.5t54.5 36.5l8 -65q-22 0 -20 -68zM311 562l-8 65q22 0 20 68h62q1 -60 -19 -96.5t-55 -36.5z" />
    <glyph glyph-name="o_dieresis" unicode="&#xf6;" horiz-adv-x="536" 
d="M52 246q-4 128 51.5 192t155.5 64q108 0 163 -68t58 -188q3 -129 -52.5 -192.5t-155.5 -63.5q-107 0 -162 68t-58 188zM271 52q58 0 89 48t29 146q-2 90 -34.5 142t-93.5 52q-58 0 -89.5 -48.5t-28.5 -145.5q2 -90 34 -142t94 -52zM139 572l-2 91h91l2 -91h-91zM284 572
l-2 91h91l2 -91h-91z" />
    <glyph glyph-name="o_slash" unicode="&#xf8;" horiz-adv-x="536" 
d="M52 246q-4 128 51.5 192t155.5 64q108 0 163 -68t58 -188q3 -129 -52.5 -192.5t-155.5 -63.5q-107 0 -162 68t-58 188zM271 52q58 0 89 48t29 146q-2 90 -34.5 142t-93.5 52q-58 0 -89.5 -48.5t-28.5 -145.5q2 -90 34 -142t94 -52zM59 -10l378 512h36l-378 -512h-36z" />
    <glyph glyph-name="u_grave" unicode="&#xf9;" horiz-adv-x="490" 
d="M60 487h84l7 -287q2 -65 23 -99.5t55 -34.5q59 0 82 27t22 79l2 -102q-43 -80 -130 -80q-61 0 -98 54t-39 156zM337 5l-13 482h84l12 -482h-83zM144 487h-84v0v2v3h42h42v0v-5zM408 487h-84v0v2v3h42h42v0v-5zM420 5v0q2 0 0 -2l1 -3h-42h-42v0v5h83zM194 572l-85 150
h109l52 -150h-76z" />
    <glyph glyph-name="u_acute" unicode="&#xfa;" horiz-adv-x="490" 
d="M60 487h84l7 -287q2 -65 23 -99.5t55 -34.5q59 0 82 27t22 79l2 -102q-43 -80 -130 -80q-61 0 -98 54t-39 156zM337 5l-13 482h84l12 -482h-83zM144 487h-84v0v2v3h42h42v0v-5zM408 487h-84v0v2v3h42h42v0v-5zM420 5v0q2 0 0 -2l1 -3h-42h-42v0v5h83zM194 572l44 150h109
l-77 -150h-76z" />
    <glyph glyph-name="u_circumflex" unicode="&#xfb;" horiz-adv-x="490" 
d="M60 487h84l7 -287q2 -65 23 -99.5t55 -34.5q59 0 82 27t22 79l2 -102q-43 -80 -130 -80q-61 0 -98 54t-39 156zM337 5l-13 482h84l12 -482h-83zM144 487h-84v0v2v3h42h42v0v-5zM408 487h-84v0v2v3h42h42v0v-5zM420 5v0q2 0 0 -2l1 -3h-42h-42v0v5h83zM230 657l-83 -85
h-76l115 150h84l123 -150h-77z" />
    <glyph glyph-name="u_dieresis" unicode="&#xfc;" horiz-adv-x="490" 
d="M60 487h84l7 -287q2 -65 23 -99.5t55 -34.5q59 0 82 27t22 79l2 -102q-43 -80 -130 -80q-61 0 -98 54t-39 156zM337 5l-13 482h84l12 -482h-83zM144 487h-84v0v2v3h42h42v0v-5zM408 487h-84v0v2v3h42h42v0v-5zM420 5v0q2 0 0 -2l1 -3h-42h-42v0v5h83zM114 572l-3 91h91
l3 -91h-91zM259 572l-2 91h91l2 -91h-91z" />
    <glyph glyph-name="y_dieresis" unicode="&#xff;" horiz-adv-x="480" 
d="M50 -200l-2 73h50q44 0 66.5 21t41.5 80l157 518h95l-186 -550q-28 -83 -63.5 -112.5t-108.5 -29.5h-50zM6 492h94l155 -401l-38 -124zM456 487h-94v0q0 1 1 2v3h48h47q0 -1 -1 -3l-1 -2v0zM102 487h-94v0q-1 0 -1 2l-1 3h47h47q0 -1 1 -3l1 -2v0zM111 572l-2 91h91
l2 -91h-91zM257 572l-3 91h91l3 -91h-91z" />
    <glyph glyph-name="a_cap_macron" unicode="&#x100;" horiz-adv-x="680" 
d="M20 0l257 722h104l289 -722h-105l-286 722h98l-252 -722h-105zM496 175h-310l26 75h254zM127 5v0q-1 -1 -1 -2l-1 -3h-53h-52q0 1 1 3v2q1 0 0 0h106zM668 5v0q0 -1 1 -2l1 -3h-52h-53q0 1 -1 3l-1 2v0h105zM375 717h-99v0v1l1 1v3h50h50v0q0 -1 -2 -5zM208 802l-2 58
h241l1 -58h-240z" />
    <glyph glyph-name="a_macron" unicode="&#x101;" 
d="M62 360q0 64 51.5 103t136.5 39q189 0 189 -175v-250q0 -11 6.5 -13t38.5 -2v-62q-93 0 -111 10.5t-18 66.5v285q0 71 -105 71q-50 0 -81 -27t-31 -71zM381 190q0 -111 -45.5 -155.5t-132.5 -44.5q-155 0 -155 131q0 50 41 88t108 49q77 13 117.5 37t40.5 67l42 -17
q0 -63 -38.5 -95t-111.5 -45q-52 -9 -83.5 -31t-31.5 -50q0 -76 97 -76q62 0 94.5 31.5t32.5 110.5h25zM130 572v58h241v-58h-241z" />
    <glyph glyph-name="a_cap_breve" unicode="&#x102;" horiz-adv-x="680" 
d="M20 0l257 722h104l289 -722h-105l-286 722h98l-252 -722h-105zM496 175h-310l26 75h254zM127 5v0q-1 -1 -1 -2l-1 -3h-53h-52q0 1 1 3v2q1 0 0 0h106zM668 5v0q0 -1 1 -2l1 -3h-52h-53q0 1 -1 3l-1 2v0h105zM375 717h-99v0v1l1 1v3h50h50v0q0 -1 -2 -5zM197 927h62
q2 -35 20.5 -56t47.5 -21t46.5 21t16.5 56h62q1 -61 -33 -98t-91 -37t-93 37t-38 98z" />
    <glyph glyph-name="a_breve" unicode="&#x103;" 
d="M62 360q0 64 51.5 103t136.5 39q189 0 189 -175v-250q0 -11 6.5 -13t38.5 -2v-62q-93 0 -111 10.5t-18 66.5v285q0 71 -105 71q-50 0 -81 -27t-31 -71zM381 190q0 -111 -45.5 -155.5t-132.5 -44.5q-155 0 -155 131q0 50 41 88t108 49q77 13 117.5 37t40.5 67l42 -17
q0 -63 -38.5 -95t-111.5 -45q-52 -9 -83.5 -31t-31.5 -50q0 -76 97 -76q62 0 94.5 31.5t32.5 110.5h25zM123 697h62q0 -35 18 -56t47 -21q30 0 48 21t18 56h62q0 -61 -35 -98t-93 -37q-57 0 -92 37t-35 98z" />
    <glyph glyph-name="c_cap_acute" unicode="&#x106;" horiz-adv-x="703" 
d="M606 218l74 -60q2 -76 -78 -122t-213 -46q-144 0 -239 108.5t-100 262.5q-4 154 85.5 262.5t233.5 108.5q127 0 209.5 -46t90.5 -122l-70 -60q-7 67 -70 107.5t-158 40.5q-98 0 -158.5 -85t-56.5 -206q3 -121 68 -206t163 -85q101 0 161 40.5t58 107.5zM313 802l44 150
h109l-77 -150h-76z" />
    <glyph glyph-name="c_cap_circumflex" unicode="&#x108;" horiz-adv-x="703" 
d="M606 218l74 -60q2 -76 -78 -122t-213 -46q-144 0 -239 108.5t-100 262.5q-4 154 85.5 262.5t233.5 108.5q127 0 209.5 -46t90.5 -122l-70 -60q-7 67 -70 107.5t-158 40.5q-98 0 -158.5 -85t-56.5 -206q3 -121 68 -206t163 -85q101 0 161 40.5t58 107.5zM348 887l-82 -85
h-76l115 150h84l123 -150h-77z" />
    <glyph glyph-name="c_cap_dot_accent" unicode="&#x10a;" horiz-adv-x="703" 
d="M606 218l74 -60q2 -76 -78 -122t-213 -46q-144 0 -239 108.5t-100 262.5q-4 154 85.5 262.5t233.5 108.5q127 0 209.5 -46t90.5 -122l-70 -60q-7 67 -70 107.5t-158 40.5q-98 0 -158.5 -85t-56.5 -206q3 -121 68 -206t163 -85q101 0 161 40.5t58 107.5zM305 802l-2 91h91
l2 -91h-91z" />
    <glyph glyph-name="c_dot_accent" unicode="&#x10b;" horiz-adv-x="483" 
d="M378 162l75 -36q0 -61 -52 -98.5t-137 -37.5q-97 0 -151.5 63.5t-54.5 192.5t54.5 192.5t151.5 63.5q187 0 189 -153l-73 -36q-2 124 -116 124q-54 0 -84.5 -47.5t-30.5 -143.5q0 -94 30.5 -140.5t84.5 -46.5q51 0 82.5 28.5t31.5 74.5zM218 572v91h91v-91h-91z" />
    <glyph glyph-name="c_cap_caron" unicode="&#x10c;" horiz-adv-x="703" 
d="M606 218l74 -60q2 -76 -78 -122t-213 -46q-144 0 -239 108.5t-100 262.5q-4 154 85.5 262.5t233.5 108.5q127 0 209.5 -46t90.5 -122l-70 -60q-7 67 -70 107.5t-158 40.5q-98 0 -158.5 -85t-56.5 -206q3 -121 68 -206t163 -85q101 0 161 40.5t58 107.5zM349 867l-87 85
h-76l123 -150h84l115 150h-77z" />
    <glyph glyph-name="c_caron" unicode="&#x10d;" horiz-adv-x="483" 
d="M378 162l75 -36q0 -61 -52 -98.5t-137 -37.5q-97 0 -151.5 63.5t-54.5 192.5t54.5 192.5t151.5 63.5q187 0 189 -153l-73 -36q-2 124 -116 124q-54 0 -84.5 -47.5t-30.5 -143.5q0 -94 30.5 -140.5t84.5 -46.5q51 0 82.5 28.5t31.5 74.5zM264 637l-85 85h-76l119 -150h84
l119 150h-77z" />
    <glyph glyph-name="d_cap_caron" unicode="&#x10e;" horiz-adv-x="714" 
d="M94 5l-18 712h98l18 -712h-98zM174 722h116q173 0 264 -91t96 -270q4 -184 -72 -272.5t-239 -88.5h-146l-2 76h139q113 0 166 70t48 215q-3 141 -66 213t-182 72h-120zM192 5l1 -5v0h-49h-50v3v2v0h98zM174 717h-98v0q-2 0 0 2q-2 3 0 3h49h49v0v-5zM301 867l-86 85h-77
l123 -150h84l115 150h-76z" />
    <glyph glyph-name="d_caron" unicode="&#x10f;" horiz-adv-x="541" 
d="M52 246q-3 116 50 186t144 70q74 0 121.5 -70.5t50.5 -185.5t-40.5 -185.5t-117.5 -70.5q-91 0 -148 70.5t-60 185.5zM286 59q45 0 71 51.5t24 135.5q-1 84 -30.5 135.5t-74.5 51.5q-62 0 -98.5 -51.5t-34.5 -135.5t41.5 -135.5t101.5 -51.5zM388 5l-19 712h84l18 -712
h-83zM471 5v0v-2v-3h-41h-42v0v5h83zM453 717h-84v0v2v3h42h41v0q0 -1 1 -5zM502 732h91l-28 -150h-62z" />
    <glyph glyph-name="e_cap_macron" unicode="&#x112;" horiz-adv-x="582" 
d="M94 5l-18 712h98l18 -712h-98zM174 722h327l2 -80h-327zM182 411h310l2 -77h-310zM193 0l-3 80h340l3 -80h-340zM192 5l1 -5v0h-49h-50v3v2v0h98zM174 717h-98v0q-2 0 0 2q-2 3 0 3h49h49v0v-5zM487 411v0h2h3q0 -27 1 -38q0 -27 1 -39h-3h-2v0zM496 722h5v0
q0 -6 0.5 -20t0.5 -20t0.5 -20t0.5 -20h-3h-2v0zM525 80v0h3h2q0 -6 1 -20t1 -20t0.5 -20t0.5 -20v0h-5zM166 802l-2 58h241l1 -58h-240z" />
    <glyph glyph-name="e_macron" unicode="&#x113;" horiz-adv-x="489" 
d="M377 157l79 -29q2 -62 -52 -100t-145 -38q-94 0 -149 64t-58 192q-4 129 49.5 192.5t150.5 63.5q206 0 213 -265h-83h-239l-2 58h239l2 -58q-5 200 -129 200q-54 0 -83.5 -47.5t-26.5 -143.5q2 -94 32.5 -140.5t81.5 -46.5q56 0 88.5 27t31.5 71zM129 572l-1 58h241
l1 -58h-241z" />
    <glyph glyph-name="e_cap_breve" unicode="&#x114;" horiz-adv-x="582" 
d="M94 5l-18 712h98l18 -712h-98zM174 722h327l2 -80h-327zM182 411h310l2 -77h-310zM193 0l-3 80h340l3 -80h-340zM192 5l1 -5v0h-49h-50v3v2v0h98zM174 717h-98v0q-2 0 0 2q-2 3 0 3h49h49v0v-5zM487 411v0h2h3q0 -27 1 -38q0 -27 1 -39h-3h-2v0zM496 722h5v0
q0 -6 0.5 -20t0.5 -20t0.5 -20t0.5 -20h-3h-2v0zM525 80v0h3h2q0 -6 1 -20t1 -20t0.5 -20t0.5 -20v0h-5zM156 927h61q2 -35 20.5 -56t47.5 -21t46.5 21.5t16.5 55.5h62q1 -61 -33 -98t-91 -37t-92.5 37t-37.5 98z" />
    <glyph glyph-name="e_breve" unicode="&#x115;" horiz-adv-x="489" 
d="M377 157l79 -29q2 -62 -52 -100t-145 -38q-94 0 -149 64t-58 192q-4 129 49.5 192.5t150.5 63.5q206 0 213 -265h-83h-239l-2 58h239l2 -58q-5 200 -129 200q-54 0 -83.5 -47.5t-26.5 -143.5q2 -94 32.5 -140.5t81.5 -46.5q56 0 88.5 27t31.5 71zM119 697h62
q1 -35 19.5 -56t48.5 -21q29 0 46.5 21t16.5 56h62q1 -61 -33 -98t-91 -37t-93 37t-38 98z" />
    <glyph glyph-name="e_cap_dot_accent" unicode="&#x116;" horiz-adv-x="582" 
d="M94 5l-18 712h98l18 -712h-98zM174 722h327l2 -80h-327zM182 411h310l2 -77h-310zM193 0l-3 80h340l3 -80h-340zM192 5l1 -5v0h-49h-50v3v2v0h98zM174 717h-98v0q-2 0 0 2q-2 3 0 3h49h49v0v-5zM487 411v0h2h3q0 -27 1 -38q0 -27 1 -39h-3h-2v0zM496 722h5v0
q0 -6 0.5 -20t0.5 -20t0.5 -20t0.5 -20h-3h-2v0zM525 80v0h3h2q0 -6 1 -20t1 -20t0.5 -20t0.5 -20v0h-5zM241 802l-3 91h91l2 -91h-90z" />
    <glyph glyph-name="e_dot_accent" unicode="&#x117;" horiz-adv-x="489" 
d="M377 157l79 -29q2 -62 -52 -100t-145 -38q-94 0 -149 64t-58 192q-4 129 49.5 192.5t150.5 63.5q206 0 213 -265h-83h-239l-2 58h239l2 -58q-5 200 -129 200q-54 0 -83.5 -47.5t-26.5 -143.5q2 -94 32.5 -140.5t81.5 -46.5q56 0 88.5 27t31.5 71zM204 572l-2 91h91l2 -91
h-91z" />
    <glyph glyph-name="e_cap_caron" unicode="&#x11a;" horiz-adv-x="582" 
d="M94 5l-18 712h98l18 -712h-98zM174 722h327l2 -80h-327zM182 411h310l2 -77h-310zM193 0l-3 80h340l3 -80h-340zM192 5l1 -5v0h-49h-50v3v2v0h98zM174 717h-98v0q-2 0 0 2q-2 3 0 3h49h49v0v-5zM487 411v0h2h3q0 -27 1 -38q0 -27 1 -39h-3h-2v0zM496 722h5v0
q0 -6 0.5 -20t0.5 -20t0.5 -20t0.5 -20h-3h-2v0zM525 80v0h3h2q0 -6 1 -20t1 -20t0.5 -20t0.5 -20v0h-5zM284 867l-86 85h-77l123 -150h84l115 150h-76z" />
    <glyph glyph-name="e_caron" unicode="&#x11b;" horiz-adv-x="489" 
d="M377 157l79 -29q2 -62 -52 -100t-145 -38q-94 0 -149 64t-58 192q-4 129 49.5 192.5t150.5 63.5q206 0 213 -265h-83h-239l-2 58h239l2 -58q-5 200 -129 200q-54 0 -83.5 -47.5t-26.5 -143.5q2 -94 32.5 -140.5t81.5 -46.5q56 0 88.5 27t31.5 71zM248 637l-87 85h-76
l123 -150h84l115 150h-76z" />
    <glyph glyph-name="g_cap_circumflex" unicode="&#x11c;" horiz-adv-x="724" 
d="M379 335l-2 80h292l8 -321q-55 -48 -127.5 -76t-146.5 -28q-155 0 -252 102t-101 269t87.5 269t245.5 102q114 0 188.5 -46t82.5 -122l-70 -60q-7 67 -61.5 107.5t-136.5 40.5q-107 0 -170.5 -80t-59.5 -211q3 -131 70.5 -211t174.5 -80q97 0 181 72l-5 193h-198z
M379 887l-82 -85h-76l115 150h84l123 -150h-77z" />
    <glyph glyph-name="g_cap_breve" unicode="&#x11e;" horiz-adv-x="724" 
d="M379 335l-2 80h292l8 -321q-55 -48 -127.5 -76t-146.5 -28q-155 0 -252 102t-101 269t87.5 269t245.5 102q114 0 188.5 -46t82.5 -122l-70 -60q-7 67 -61.5 107.5t-136.5 40.5q-107 0 -170.5 -80t-59.5 -211q3 -131 70.5 -211t174.5 -80q97 0 181 72l-5 193h-198z
M251 927h62q1 -34 19.5 -55.5t47.5 -21.5q30 0 47.5 21t16.5 56h62q1 -61 -33 -98t-91 -37q-58 0 -93.5 37t-37.5 98z" />
    <glyph glyph-name="g_breve" unicode="&#x11f;" horiz-adv-x="541" 
d="M52 246q-7 256 179 256q81 0 132.5 -70.5t54.5 -185.5q2 -111 -45.5 -178.5t-128.5 -67.5q-186 0 -192 246zM261 433q-124 0 -118 -187q4 -177 127 -177q52 0 82.5 48.5t28.5 128.5q-1 84 -34.5 135.5t-85.5 51.5zM60 -60h91q1 -61 129 -61q111 0 108 121l-13 487h84
l11 -452q7 -224 -181 -224q-226 0 -229 129zM459 487h-84v5v0h42h41v-3q0 -2 1 -2q-1 0 0 0zM119 697h62q1 -35 19.5 -56t48.5 -21q29 0 46.5 21t16.5 56h62q1 -61 -33 -98t-91 -37t-93 37t-38 98z" />
    <glyph glyph-name="g_cap_dot_accent" unicode="&#x120;" horiz-adv-x="724" 
d="M379 335l-2 80h292l8 -321q-55 -48 -127.5 -76t-146.5 -28q-155 0 -252 102t-101 269t87.5 269t245.5 102q114 0 188.5 -46t82.5 -122l-70 -60q-7 67 -61.5 107.5t-136.5 40.5q-107 0 -170.5 -80t-59.5 -211q3 -131 70.5 -211t174.5 -80q97 0 181 72l-5 193h-198z
M336 802l-2 91h91l2 -91h-91z" />
    <glyph glyph-name="g_dot_accent" unicode="&#x121;" horiz-adv-x="541" 
d="M52 246q-7 256 179 256q81 0 132.5 -70.5t54.5 -185.5q2 -111 -45.5 -178.5t-128.5 -67.5q-186 0 -192 246zM261 433q-124 0 -118 -187q4 -177 127 -177q52 0 82.5 48.5t28.5 128.5q-1 84 -34.5 135.5t-85.5 51.5zM60 -60h91q1 -61 129 -61q111 0 108 121l-13 487h84
l11 -452q7 -224 -181 -224q-226 0 -229 129zM459 487h-84v5v0h42h41v-3q0 -2 1 -2q-1 0 0 0zM204 572l-2 91h91l2 -91h-91z" />
    <glyph glyph-name="h_cap_circumflex" unicode="&#x124;" horiz-adv-x="713" 
d="M94 5l-18 712h98l18 -712h-98zM108 418h485l2 -80h-485zM531 5l-19 712h98l19 -712h-98zM192 5v0q2 0 0 -2l1 -3h-49h-50v3v2v0h98zM174 717h-98v0q-2 0 0 2q-2 3 0 3h49h49v-3v-2v0zM629 5v0v-2v-3h-49h-49v3v2v0h98zM610 717h-98v0v2v3h49h49v-3v-2v0zM338 887l-82 -85
h-76l115 150h84l123 -150h-77z" />
    <glyph glyph-name="i_cap_tilde" unicode="&#x128;" horiz-adv-x="267" 
d="M85 5l-19 712h98l19 -712h-98zM183 5v0v-2v-3h-49h-49v3v2v0h98zM164 717h-98v0v2v3h49h49v-3v-2v0zM56 935q22 0 39 -19.5t31.5 -39t32.5 -19.5l7 -65q-22 0 -39 19.5t-31.5 39t-32.5 19.5zM44 802h-62q-2 60 18.5 96.5t55.5 36.5l7 -65q-9 0 -14.5 -19t-4.5 -49z
M166 792l-7 65q9 0 14.5 19t4.5 49h62q1 -60 -19 -96.5t-55 -36.5z" />
    <glyph glyph-name="i_alt_tilde" unicode="&#x129;" horiz-adv-x="238" 
d="M85 0v487h84v-487h-84zM74 705q18 0 32 -12t22 -27t20 -27t27 -12l5 -65q-18 0 -32 12t-22 27t-20 27t-27 12zM58 572h-62q0 60 21.5 96.5t56.5 36.5l5 -65q-21 0 -21 -68zM180 562l-5 65q21 0 21 68h62q0 -60 -21.5 -96.5t-56.5 -36.5zM169 487h-84v0v2v3h42h42v0v-5z
" />
    <glyph glyph-name="i_cap_macron" unicode="&#x12a;" horiz-adv-x="267" 
d="M85 5l-19 712h98l19 -712h-98zM183 5v0v-2v-3h-49h-49v3v2v0h98zM164 717h-98v0v2v3h49h49v-3v-2v0zM-8 802l-1 58h241l1 -58h-241z" />
    <glyph glyph-name="i_macron" unicode="&#x12b;" horiz-adv-x="238" 
d="M85 5v482h84v-482h-84zM7 572v58h240v-58h-240zM169 5v0v-2v-3h-42h-42v3v2v0h84zM169 487h-84v0v2v3h42h42v0v-5z" />
    <glyph glyph-name="i_cap_breve" unicode="&#x12c;" horiz-adv-x="267" 
d="M85 5l-19 712h98l19 -712h-98zM183 5v0v-2v-3h-49h-49v3v2v0h98zM164 717h-98v0v2v3h49h49v-3v-2v0zM-18 927h62q1 -34 19.5 -55.5t47.5 -21.5q30 0 47.5 21t16.5 56h62q1 -61 -33 -98t-91 -37q-58 0 -93.5 37t-37.5 98z" />
    <glyph glyph-name="i_breve" unicode="&#x12d;" horiz-adv-x="238" 
d="M85 5v482h84v-482h-84zM0 697h62q0 -35 18 -56t47 -21t47 21t18 56h62q0 -61 -35 -98t-92 -37t-92 37t-35 98zM169 5v0v-2v-3h-42h-42v3v2v0h84zM169 487h-84v0v2v3h42h42v0v-5z" />
    <glyph glyph-name="i_cap_dot_accent" unicode="&#x130;" horiz-adv-x="267" 
d="M85 5l-19 712h98l19 -712h-98zM183 5v0v-2v-3h-49h-49v3v2v0h98zM164 717h-98v0v2v3h49h49v-3v-2v0zM67 802l-2 91h91l2 -91h-91z" />
    <glyph glyph-name="dotlessi" unicode="&#x131;" horiz-adv-x="278" 
d="M125 0v492h84v-492h-84z" />
    <glyph glyph-name="j_cap_circumflex" unicode="&#x134;" horiz-adv-x="520" 
d="M49 281l98 17l1 -52q2 -86 25 -125.5t71 -39.5q45 0 67.5 35t20.5 96l-13 505h98l13 -505q3 -102 -44.5 -162t-139.5 -60q-98 0 -145 55t-50 173zM417 717h-98v0v2v3h49h49v0v-5zM363 887l-82 -85h-76l115 150h84l122 -150h-76z" />
    <glyph glyph-name="l_cap_acute" unicode="&#x139;" horiz-adv-x="506" 
d="M85 5l-19 712h98l19 -712h-98zM183 0l-2 80h293l2 -80h-293zM183 5v-5v0h-49h-49v3v2v0h98zM164 717h-98v0v2v3h49h49v-3v-2v0zM469 80v0h3h2q0 -6 0.5 -20t0.5 -20t0.5 -20t0.5 -20v0h-5zM75 802l44 150h109l-77 -150h-76z" />
    <glyph glyph-name="l_cap_caron" unicode="&#x13d;" horiz-adv-x="506" 
d="M85 5l-19 712h98l19 -712h-98zM183 0l-2 80h293l2 -80h-293zM183 5v-5v0h-49h-49v3v2v0h98zM164 717h-98v0v2v3h49h49v-3v-2v0zM469 80v0h3h2q0 -6 0.5 -20t0.5 -20t0.5 -20t0.5 -20v0h-5zM265 732h91l-28 -150h-62z" />
    <glyph glyph-name="l_caron" unicode="&#x13e;" horiz-adv-x="231" 
d="M78 5l-19 712h84l19 -712h-84zM162 5v0v-2v-3h-42h-42v3v2v0h84zM143 717h-84v0v2v3h42h42v0v-5zM192 732h91l-27 -150h-62z" />
    <glyph glyph-name="n_cap_acute" unicode="&#x143;" horiz-adv-x="679" 
d="M76 717h98l18 -712h-98zM76 722h106l384 -722h-106zM478 717h98l19 -717h-98zM192 5v0q2 0 0 -2l1 -3h-49h-50v3v2v0h98zM174 717h-98v0q-2 0 0 2q-2 3 0 3h49h49v0v-5zM576 717h-98v0v2v3h49h49v-3v-2v0zM185 802l45 150h109l-77 -150h-77z" />
    <glyph glyph-name="n_cap_caron" unicode="&#x147;" horiz-adv-x="679" 
d="M76 717h98l18 -712h-98zM76 722h106l384 -722h-106zM478 717h98l19 -717h-98zM192 5v0q2 0 0 -2l1 -3h-49h-50v3v2v0h98zM174 717h-98v0q-2 0 0 2q-2 3 0 3h49h49v0v-5zM576 717h-98v0v2v3h49h49v-3v-2v0zM322 867l-87 85h-76l122 -150h85l115 150h-77z" />
    <glyph glyph-name="n_caron" unicode="&#x148;" 
d="M78 5l-13 482h84l13 -482h-84zM365 5l-7 282q-2 65 -27.5 99.5t-66.5 34.5q-51 0 -81.5 -31.5t-28.5 -83.5h-28q-2 86 44 138.5t124 52.5q65 0 105 -54t42 -156l8 -282h-84zM162 5v0v-2v-3h-42h-42v3v2v0h84zM149 487h-84v0v2v3h42h42v0v-5zM449 5v0v-2v-3h-42h-42v3v2v0
h84zM205 637l-87 85h-76l123 -150h84l115 150h-77z" />
    <glyph glyph-name="o_cap_macron" unicode="&#x14c;" horiz-adv-x="799" 
d="M55 361q-4 158 90.5 264.5t239.5 106.5t245 -106.5t105 -264.5q4 -167 -87 -269t-243 -102q-153 0 -249.5 102t-100.5 269zM403 70q105 0 167.5 80t58.5 211q-3 124 -72 207.5t-170 83.5q-100 0 -165 -83.5t-61 -207.5q3 -131 69.5 -211t172.5 -80zM263 802l-2 58h241
l2 -58h-241z" />
    <glyph glyph-name="o_macron" unicode="&#x14d;" horiz-adv-x="536" 
d="M52 246q-4 128 51.5 192t155.5 64q108 0 163 -68t58 -188q3 -129 -52.5 -192.5t-155.5 -63.5q-107 0 -162 68t-58 188zM271 52q58 0 89 48t29 146q-2 90 -34.5 142t-93.5 52q-58 0 -89.5 -48.5t-28.5 -145.5q2 -90 34 -142t94 -52zM137 572l-2 58h241l2 -58h-241z" />
    <glyph glyph-name="o_cap_breve" unicode="&#x14e;" horiz-adv-x="799" 
d="M55 361q-4 158 90.5 264.5t239.5 106.5t245 -106.5t105 -264.5q4 -167 -87 -269t-243 -102q-153 0 -249.5 102t-100.5 269zM403 70q105 0 167.5 80t58.5 211q-3 124 -72 207.5t-170 83.5q-100 0 -165 -83.5t-61 -207.5q3 -131 69.5 -211t172.5 -80zM253 927h62
q1 -34 19.5 -55.5t47.5 -21.5t47 21.5t17 55.5h61q2 -61 -32 -98t-91 -37q-58 0 -93.5 37t-37.5 98z" />
    <glyph glyph-name="o_breve" unicode="&#x14f;" horiz-adv-x="536" 
d="M52 246q-4 128 51.5 192t155.5 64q108 0 163 -68t58 -188q3 -129 -52.5 -192.5t-155.5 -63.5q-107 0 -162 68t-58 188zM271 52q58 0 89 48t29 146q-2 90 -34.5 142t-93.5 52q-58 0 -89.5 -48.5t-28.5 -145.5q2 -90 34 -142t94 -52zM127 697h61q2 -35 20.5 -56t47.5 -21
t46.5 21.5t16.5 55.5h62q2 -61 -32 -98t-92 -37q-57 0 -93 37t-37 98z" />
    <glyph glyph-name="r_cap_acute" unicode="&#x154;" horiz-adv-x="624" 
d="M94 5l-18 712h98l18 -712h-98zM174 722h163q233 0 239 -217q2 -94 -56 -142t-173 -48h-163l-2 76h167q132 0 129 114q-5 141 -143 141h-159zM505 0l-196 328h113l196 -328h-113zM192 5v0q2 0 0 -2l1 -3h-49h-50v3v2v0h98zM174 717h-98v0q-2 0 0 2q-2 3 0 3h49h49v0v-5z
M615 5v0q0 -1 1 -2l2 -3h-57h-56v0q0 1 -3 5h113zM283 802l44 150h109l-77 -150h-76z" />
    <glyph glyph-name="r_cap_caron" unicode="&#x158;" horiz-adv-x="624" 
d="M94 5l-18 712h98l18 -712h-98zM174 722h163q233 0 239 -217q2 -94 -56 -142t-173 -48h-163l-2 76h167q132 0 129 114q-5 141 -143 141h-159zM505 0l-196 328h113l196 -328h-113zM192 5v0q2 0 0 -2l1 -3h-49h-50v3v2v0h98zM174 717h-98v0q-2 0 0 2q-2 3 0 3h49h49v0v-5z
M615 5v0q0 -1 1 -2l2 -3h-57h-56v0q0 1 -3 5h113zM319 867l-87 85h-76l123 -150h84l115 150h-77z" />
    <glyph glyph-name="r_caron" unicode="&#x159;" horiz-adv-x="342" 
d="M78 5l-13 482h84l13 -482h-84zM311 402h-17q-143 0 -138 -186h-28q-7 276 171 276h10zM162 5v0v-2v-3h-42h-42v3v2v0h84zM149 487h-84v0v2v3h42h42v0v-5zM183 637l-86 85h-77l123 -150h84l115 150h-76z" />
    <glyph glyph-name="s_cap_acute" unicode="&#x15a;" horiz-adv-x="626" 
d="M39 165l82 59q1 -72 59.5 -110t156.5 -38q75 0 114 33t37 90q-2 93 -188 123q-229 36 -234 204q-2 93 57 149.5t159 56.5q102 0 172.5 -35t91.5 -101l-68 -63q-18 54 -69.5 83t-123.5 29q-55 0 -87 -29.5t-31 -78.5q2 -90 157 -116q257 -41 262 -219q3 -98 -60.5 -155
t-185.5 -57q-137 0 -218 45.5t-83 129.5zM243 802l45 150h109l-77 -150h-77z" />
    <glyph glyph-name="s_cap_circumflex" unicode="&#x15c;" horiz-adv-x="626" 
d="M39 165l82 59q1 -72 59.5 -110t156.5 -38q75 0 114 33t37 90q-2 93 -188 123q-229 36 -234 204q-2 93 57 149.5t159 56.5q102 0 172.5 -35t91.5 -101l-68 -63q-18 54 -69.5 83t-123.5 29q-55 0 -87 -29.5t-31 -78.5q2 -90 157 -116q257 -41 262 -219q3 -98 -60.5 -155
t-185.5 -57q-137 0 -218 45.5t-83 129.5zM279 887l-82 -85h-76l115 150h84l122 -150h-76z" />
    <glyph glyph-name="s_cap_cedilla" unicode="&#x15e;" horiz-adv-x="626" 
d="M39 165l82 59q1 -72 59.5 -110t156.5 -38q75 0 114 33t37 90q-2 93 -188 123q-229 36 -234 204q-2 93 57 149.5t159 56.5q102 0 172.5 -35t91.5 -101l-68 -63q-18 54 -69.5 83t-123.5 29q-55 0 -87 -29.5t-31 -78.5q2 -90 157 -116q257 -41 262 -219q3 -98 -60.5 -155
t-185.5 -57q-137 0 -218 45.5t-83 129.5zM324 41h29l-34 -157l1 29q2 12 11.5 19.5t21.5 7.5q33 0 53 -24t22 -64q1 -40 -20.5 -64t-56.5 -24q-26 0 -45.5 14t-26.5 37l32 25q5 -16 15 -26t21 -10q16 0 25 13t8 35q0 22 -9 35t-24 13q-25 0 -28 -16l-26 15z" />
    <glyph glyph-name="s_cedilla" unicode="&#x15f;" horiz-adv-x="458" 
d="M34 133l76 29q0 -46 35.5 -74t93.5 -28q48 0 77 20.5t29 54.5q0 27 -29.5 47t-85.5 27q-79 10 -121.5 48t-42.5 93q0 66 48.5 106.5t127.5 40.5t127.5 -38.5t48.5 -101.5l-69 -31q0 49 -29.5 79t-77.5 30q-43 0 -69.5 -21.5t-26.5 -56.5q0 -28 27 -47.5t77 -26.5
q86 -11 132 -48.5t46 -92.5q0 -66 -52 -106.5t-137 -40.5q-92 0 -148.5 38t-56.5 100zM225 34h29l-39 -150l2 29q7 27 34 27q32 0 52 -24t20 -64t-22 -64t-57 -24q-26 0 -45 14t-25 37l33 25q9 -36 35 -36q15 0 24.5 13t9.5 35t-9 35t-23 13q-24 0 -29 -16l-25 15z" />
    <glyph glyph-name="s_cap_caron" unicode="&#x160;" horiz-adv-x="626" 
d="M39 165l82 59q1 -72 59.5 -110t156.5 -38q75 0 114 33t37 90q-2 93 -188 123q-229 36 -234 204q-2 93 57 149.5t159 56.5q102 0 172.5 -35t91.5 -101l-68 -63q-18 54 -69.5 83t-123.5 29q-55 0 -87 -29.5t-31 -78.5q2 -90 157 -116q257 -41 262 -219q3 -98 -60.5 -155
t-185.5 -57q-137 0 -218 45.5t-83 129.5zM280 867l-87 85h-76l122 -150h85l115 150h-77z" />
    <glyph glyph-name="s_caron" unicode="&#x161;" horiz-adv-x="468" 
d="M31 133l75 29q1 -46 38.5 -74t98.5 -28q50 0 80 20.5t29 54.5q-1 28 -32 47.5t-90 26.5q-82 9 -126.5 47t-46.5 94q-2 66 46.5 106.5t129.5 40.5t131.5 -38.5t52.5 -101.5l-68 -31q-1 49 -32.5 79t-81.5 30q-45 0 -72.5 -21.5t-26.5 -56.5q2 -29 30.5 -48.5t81.5 -25.5
q89 -10 137 -47.5t50 -93.5q2 -66 -50.5 -106.5t-139.5 -40.5q-95 0 -153.5 38t-60.5 100zM229 637l-86 85h-77l123 -150h84l115 150h-76z" />
    <glyph glyph-name="t_cap_caron" unicode="&#x164;" horiz-adv-x="555" 
d="M-9 722h535l2 -80h-535zM228 5l-18 717h98l18 -717h-98zM326 5v0q1 0 1 -2v-3h-49h-49q0 1 -1 3q2 2 0 2q2 0 0 0h98zM521 722h5v0q0 -6 0.5 -20t0.5 -20t0.5 -20t0.5 -20h-2h-3v0zM-4 722l2 -80v0h-2h-3q0 6 -0.5 20t-0.5 20t-0.5 20t-0.5 20v0h5zM255 867l-87 85h-76
l122 -150h85l115 150h-77z" />
    <glyph glyph-name="t_caron" unicode="&#x165;" horiz-adv-x="295" 
d="M77 653l82 69l16 -608q1 -28 7 -36.5t30 -8.5h52l2 -69h-88q-30 0 -47 5t-26 21t-11 33.5t-3 54.5zM253 492l2 -65h-256l-2 65h256zM208 732h91l-28 -150h-61z" />
    <glyph glyph-name="u_cap_tilde" unicode="&#x168;" horiz-adv-x="694" 
d="M69 717h98l11 -420q6 -216 171 -216t159 216l-11 420h98l12 -437q8 -290 -256 -290q-263 0 -271 290zM167 717h-98v0q-2 0 0 2q-1 3 0 3h49h49v-3v-2v0zM595 717h-98v0v2v3h49h49v-3v-2v0zM273 925q22 0 39 -19.5t31.5 -39t32.5 -19.5l8 -65q-22 0 -39 19.5t-31.5 39
t-32.5 19.5zM261 792h-61q-2 60 18 96.5t55 36.5l8 -65q-22 0 -20 -68zM384 782l-8 65q22 0 20 68h61q2 -60 -18.5 -96.5t-54.5 -36.5z" />
    <glyph glyph-name="u_tilde" unicode="&#x169;" horiz-adv-x="490" 
d="M60 487h84l7 -287q2 -65 23 -99.5t55 -34.5q59 0 82 27t22 79l2 -102q-43 -80 -130 -80q-61 0 -98 54t-39 156zM337 5l-13 482h84l12 -482h-83zM144 487h-84v0v2v3h42h42v0v-5zM408 487h-84v0v2v3h42h42v0v-5zM420 5v0q2 0 0 -2l1 -3h-42h-42v0v5h83zM175 705
q22 0 39 -19.5t31.5 -39t32.5 -19.5l8 -65q-18 0 -32.5 12t-23 27t-21 27t-27.5 12zM163 572h-62q-1 60 19 96.5t55 36.5l7 -65q-9 0 -14.5 -19t-4.5 -49zM286 562l-8 65q22 0 19 68h62q2 -60 -18.5 -96.5t-54.5 -36.5z" />
    <glyph glyph-name="u_cap_macron" unicode="&#x16a;" horiz-adv-x="694" 
d="M69 717h98l11 -420q6 -216 171 -216t159 216l-11 420h98l12 -437q8 -290 -256 -290q-263 0 -271 290zM167 717h-98v0q-2 0 0 2q-1 3 0 3h49h49v-3v-2v0zM595 717h-98v0v2v3h49h49v-3v-2v0zM210 792l-2 58h241l1 -58h-240z" />
    <glyph glyph-name="u_macron" unicode="&#x16b;" horiz-adv-x="490" 
d="M60 487h84l7 -287q2 -65 23 -99.5t55 -34.5q59 0 82 27t22 79l2 -102q-43 -80 -130 -80q-61 0 -98 54t-39 156zM337 5l-13 482h84l12 -482h-83zM144 487h-84v0v2v3h42h42v0v-5zM408 487h-84v0v2v3h42h42v0v-5zM420 5v0q2 0 0 -2l1 -3h-42h-42v0v5h83zM111 572l-1 58h241
l1 -58h-241z" />
    <glyph glyph-name="u_cap_breve" unicode="&#x16c;" horiz-adv-x="694" 
d="M69 717h98l11 -420q6 -216 171 -216t159 216l-11 420h98l12 -437q8 -290 -256 -290q-263 0 -271 290zM167 717h-98v0q-2 0 0 2q-1 3 0 3h49h49v-3v-2v0zM595 717h-98v0v2v3h49h49v-3v-2v0zM200 917h61q1 -35 19.5 -56t48.5 -21q29 0 46.5 21t16.5 56h62q2 -61 -32 -98
t-92 -37q-57 0 -93 37t-37 98z" />
    <glyph glyph-name="u_breve" unicode="&#x16d;" horiz-adv-x="490" 
d="M60 487h84l7 -287q2 -65 23 -99.5t55 -34.5q59 0 82 27t22 79l2 -102q-43 -80 -130 -80q-61 0 -98 54t-39 156zM337 5l-13 482h84l12 -482h-83zM144 487h-84v0v2v3h42h42v0v-5zM408 487h-84v0v2v3h42h42v0v-5zM420 5v0q2 0 0 -2l1 -3h-42h-42v0v5h83zM101 697h62
q1 -35 19.5 -56t48.5 -21q29 0 46.5 21t16.5 56h62q1 -61 -33 -98t-91 -37t-93 37t-38 98z" />
    <glyph glyph-name="u_cap_ring" unicode="&#x16e;" horiz-adv-x="694" 
d="M69 717h98l11 -420q6 -216 171 -216t159 216l-11 420h98l12 -437q8 -290 -256 -290q-263 0 -271 290zM167 717h-98v0q-2 0 0 2q-1 3 0 3h49h49v-3v-2v0zM595 717h-98v0v2v3h49h49v-3v-2v0zM244 877q-1 40 20.5 62.5t61.5 22.5q39 0 61.5 -22.5t23.5 -62.5q3 -85 -81 -85
q-83 0 -86 85zM329 831q43 0 41 46t-43 46q-43 0 -41 -46t43 -46z" />
    <glyph glyph-name="u_ring" unicode="&#x16f;" horiz-adv-x="490" 
d="M60 487h84l7 -287q2 -65 23 -99.5t55 -34.5q59 0 82 27t22 79l2 -102q-43 -80 -130 -80q-61 0 -98 54t-39 156zM337 5l-13 482h84l12 -482h-83zM144 487h-84v0v2v3h42h42v0v-5zM408 487h-84v0v2v3h42h42v0v-5zM420 5v0q2 0 0 -2l1 -3h-42h-42v0v5h83zM146 657
q-1 40 20.5 62.5t60.5 22.5q40 0 62.5 -22.5t23.5 -62.5q2 -85 -81 -85q-84 0 -86 85zM231 611q43 0 41 46t-44 46q-20 0 -30.5 -12t-9.5 -34q2 -46 43 -46z" />
    <glyph glyph-name="w_cap_circumflex" unicode="&#x174;" horiz-adv-x="880" 
d="M1 722h105l186 -722h-94zM292 0h-87l174 722h95zM379 722h95l215 -722h-94zM689 0h-87l145 722h105zM107 717h-105v0q0 1 -1 2v3h52h53q0 -1 1 -3v-2v0zM851 717h-105v0v2l1 3h52h53q0 -1 -1 -3v-2v0zM422 887l-82 -85h-77l115 150h85l122 -150h-76z" />
    <glyph glyph-name="y_cap_circumflex" unicode="&#x176;" horiz-adv-x="543" 
d="M0 722h109l165 -292l-51 -99zM405 722h110l-203 -391l-57 99zM216 430h98l11 -425h-98zM325 5v0v-2v-3h-49h-49v3v2v0h98zM112 717h-109v0l-2 2l-1 3h54h55q1 -1 2 -3l1 -2v0zM512 717h-110v0l2 2l1 3h55h55q-1 0 -2 -3l-1 -2v0zM253 887l-83 -85h-76l115 150h84
l123 -150h-76z" />
    <glyph glyph-name="y_cap_dieresis" unicode="&#x178;" horiz-adv-x="543" 
d="M0 722h109l165 -292l-51 -99zM405 722h110l-203 -391l-57 99zM216 430h98l11 -425h-98zM325 5v0v-2v-3h-49h-49v3v2v0h98zM112 717h-109v0l-2 2l-1 3h54h55q1 -1 2 -3l1 -2v0zM512 717h-110v0l2 2l1 3h55h55q-1 0 -2 -3l-1 -2v0zM137 802l-2 91h90l3 -91h-91zM282 802
l-2 91h91l2 -91h-91z" />
    <glyph glyph-name="z_cap_acute" unicode="&#x179;" horiz-adv-x="625" 
d="M562 722l2 -80h-521l-2 80h521zM45 0l-2 80h536l2 -80h-536zM459 658l105 -16l-416 -578l-105 16zM574 80v0h2h3q0 -28 1 -40q0 -6 0.5 -20t0.5 -20v0h-5zM46 722l2 -80v0h-2h-3q0 6 -0.5 20t-0.5 20t-0.5 20t-0.5 20v0h5zM261 802l44 150h109l-77 -150h-76z" />
    <glyph glyph-name="z_cap_dot_accent" unicode="&#x17b;" horiz-adv-x="625" 
d="M562 722l2 -80h-521l-2 80h521zM45 0l-2 80h536l2 -80h-536zM459 658l105 -16l-416 -578l-105 16zM574 80v0h2h3q0 -28 1 -40q0 -6 0.5 -20t0.5 -20v0h-5zM46 722l2 -80v0h-2h-3q0 6 -0.5 20t-0.5 20t-0.5 20t-0.5 20v0h5zM254 802l-2 91h90l3 -91h-91z" />
    <glyph glyph-name="z_dot_accent" unicode="&#x17c;" horiz-adv-x="432" 
d="M32 492h263h88l1 -51l-258 -382l-96 -59l-1 51l90 14h291l2 -65h-292h-90l-1 51l256 385l99 5l-88 -14h-262zM405 65v0h3h2q1 -9 1 -32q0 -5 0.5 -16.5t0.5 -16.5v0h-5zM37 492l2 -65v0h-3h-2q0 5 -0.5 16t-0.5 16t-0.5 16.5t-0.5 16.5v0h5zM168 572l-2 91h91l2 -91h-91z
" />
    <glyph glyph-name="z_cap_caron" unicode="&#x17d;" horiz-adv-x="625" 
d="M562 722l2 -80h-521l-2 80h521zM45 0l-2 80h536l2 -80h-536zM459 658l105 -16l-416 -578l-105 16zM574 80v0h2h3q0 -28 1 -40q0 -6 0.5 -20t0.5 -20v0h-5zM46 722l2 -80v0h-2h-3q0 6 -0.5 20t-0.5 20t-0.5 20t-0.5 20v0h5zM298 867l-87 85h-77l123 -150h84l115 150h-76z
" />
    <glyph glyph-name="z_caron" unicode="&#x17e;" horiz-adv-x="432" 
d="M32 492h263h88l1 -51l-258 -382l-96 -59l-1 51l90 14h291l2 -65h-292h-90l-1 51l256 385l99 5l-88 -14h-262zM405 65v0h3h2q1 -9 1 -32q0 -5 0.5 -16.5t0.5 -16.5v0h-5zM37 492l2 -65v0h-3h-2q0 5 -0.5 16t-0.5 16t-0.5 16.5t-0.5 16.5v0h5zM212 637l-87 85h-76l122 -150
h85l114 150h-76z" />
    <glyph glyph-name="Q_sc" unicode="&#x1eb;" horiz-adv-x="720" 
d="M60 284q-4 126 79.5 210.5t211.5 84.5q127 0 215 -84.5t92 -210.5q3 -132 -77 -213t-214 -81q-135 0 -219.5 81t-87.5 213zM365 62q91 0 145.5 61t52.5 161q-3 95 -63 159t-147 64t-144 -64t-54 -159q2 -100 60 -161t150 -61zM568 -90l-194 216l56 43l194 -216z" />
    <glyph glyph-name="a_cap_dotaccent" unicode="&#x226;" horiz-adv-x="680" 
d="M20 0l257 722h104l289 -722h-105l-286 722h98l-252 -722h-105zM496 175h-310l26 75h254zM127 5v0q-1 -1 -1 -2l-1 -3h-53h-52q0 1 1 3v2q1 0 0 0h106zM668 5v0q0 -1 1 -2l1 -3h-52h-53q0 1 -1 3l-1 2v0h105zM375 717h-99v0v1l1 1v3h50h50v0q0 -1 -2 -5zM283 802l-3 91h91
l2 -91h-90z" />
    <glyph glyph-name="G_sc" unicode="&#x262;" horiz-adv-x="634" 
d="M360 274l-2 72h223l6 -251q-123 -105 -234 -105q-131 0 -213 81t-85 213q-4 133 74 214t209 81q95 0 158 -41t71 -108l-64 -55q-6 59 -51 95.5t-112 36.5q-89 0 -141 -61.5t-49 -161.5q2 -100 57.5 -161t143.5 -61q60 0 151 76l-4 136h-138z" />
    <glyph glyph-name="I_sc" unicode="&#x26a;" horiz-adv-x="262" 
d="M89 5l-14 559h88l15 -559h-89zM178 5v0v-2v-3h-44h-44q0 1 -1 3q2 2 0 2q1 0 0 0h89zM163 564h-88v0v2v3h44h44v-3v-2v0z" />
    <glyph glyph-name="N_sc" unicode="&#x274;" horiz-adv-x="601" 
d="M82 564h88l15 -559h-88zM82 569h90l319 -569h-90zM413 564h88l15 -564h-88zM185 5v0v-2v-3h-44h-44v3v2v0h88zM170 564h-88v0v2v3h44h44v0v-5zM501 564h-88v0v2v3h44h44v-3v-2v0z" />
    <glyph glyph-name="R_sc" unicode="&#x280;" horiz-adv-x="562" 
d="M97 5l-15 559h88l15 -559h-88zM170 569h120q224 0 227 -171q2 -73 -53.5 -110t-166.5 -37h-118l-2 69h122q65 0 98 20t32 58q-3 102 -141 102h-116zM455 0l-193 263h102l192 -263h-101zM185 5v0v-2v-3h-44h-44v3v2v0h88zM170 564h-88v0v2v3h44h44v0v-5zM552 5v0l2 -2
l2 -3h-51h-50v0q-1 1 -4 5h101z" />
    <glyph glyph-name="Y_sc" unicode="&#x28f;" horiz-adv-x="465" 
d="M8 569h93l133 -212l-45 -89zM348 569h93l-165 -301l-50 89zM186 357h88l9 -352h-88zM283 5v0v-2v-3h-44h-44v3v2v0h88zM104 564h-93v0l-2 2l-1 3h46h47q1 -1 2 -3l1 -2v0zM438 564h-93v0q-1 0 -0.5 0.5l1.5 1.5l2 3h46h47q0 -1 -1 -3l-2 -2v0z" />
    <glyph glyph-name="B_sc" unicode="&#x299;" horiz-adv-x="611" 
d="M97 5l-15 559h88l15 -559h-88zM170 569h117q122 0 175 -34.5t55 -115.5q1 -50 -35.5 -80.5t-97.5 -30.5h-207l-1 36h167q38 0 61 18.5t22 49.5q-1 47 -32 67.5t-102 20.5h-120zM177 328h196q88 0 142.5 -45t56.5 -119q2 -88 -48.5 -126t-172.5 -38h-166l-2 69h141
q84 0 119 24t34 81q-1 47 -46 75.5t-116 28.5h-137zM185 5v-5v0h-44h-44v3v2v0h88zM170 564h-88v0v2v3h44h44v0v-5z" />
    <glyph glyph-name="H_sc" unicode="&#x29c;" horiz-adv-x="640" 
d="M97 5l-15 559h88l15 -559h-88zM111 322h414l2 -72h-415zM467 5l-14 559h88l15 -559h-89zM185 5v0v-2v-3h-44h-44v3v2v0h88zM170 564h-88v0v2v3h44h44v-3v-2v0zM556 5v0v-2v-3h-44h-45v3v2v0h89zM541 564h-88v0q-2 0 0 2q-1 3 0 3h44h44v-3v-2v0z" />
    <glyph glyph-name="L_sc" unicode="&#x29f;" horiz-adv-x="443" 
d="M89 5l-14 559h88l15 -559h-89zM178 0l-2 72h235l2 -72h-235zM178 5v-5v0h-44h-44q0 1 -1 3q2 2 0 2q1 0 0 0h89zM163 564h-88v0v2v3h44h44v-3v-2v0zM406 72v0h3h2q1 -11 1 -36q0 -5 0.5 -18t0.5 -18v0h-5z" />
    <glyph glyph-name="A_sc" unicode="&#x1d00;" horiz-adv-x="613" 
d="M22 0l232 569h94l255 -569h-95l-253 569h89l-227 -569h-95zM450 131h-281l27 66h225zM119 5v0q0 -1 -1 -2l-1 -3h-47h-48q1 1 1 3l1 2v0h95zM601 5v0q0 -1 1 -2l1 -3h-47h-48q0 1 -1 3l-1 2v0h95zM342 564h-90v0q1 1 1 2l1 3h45h45v0q0 -1 -2 -5z" />
    <glyph glyph-name="C_sc" unicode="&#x1d04;" horiz-adv-x="629" 
d="M540 214l66 -55q2 -76 -68 -122.5t-187 -46.5q-127 0 -210 86t-86 208q-3 123 75.5 209t205.5 86q110 0 182.5 -47t80.5 -123l-63 -54q-7 68 -62 110t-136 42q-86 0 -138.5 -65t-49.5 -158q2 -92 58 -157t141 -65q88 0 140.5 42t50.5 110z" />
    <glyph glyph-name="D_sc" unicode="&#x1d05;" horiz-adv-x="643" 
d="M97 5l-15 559h88l15 -559h-88zM170 569h64q339 0 347 -285q4 -144 -71 -214t-232 -70h-93l-2 68h88q112 0 165 53.5t50 162.5q-6 216 -247 216h-67zM185 5v-5v0h-44h-44v3v2v0h88zM170 564h-88v0v2v3h44h44v0v-5z" />
    <glyph glyph-name="E_sc" unicode="&#x1d07;" horiz-adv-x="510" 
d="M97 5l-15 559h88l15 -559h-88zM170 569h267l2 -72h-267zM177 328h254l2 -69h-255zM185 0l-2 72h276l2 -72h-276zM185 5v-5v0h-44h-44v3v2v0h88zM170 564h-88v0v2v3h44h44v0v-5zM426 328v0h3h2q1 -10 1 -35q0 -5 0.5 -17t0.5 -17h-3h-2v0zM432 569h5v0q0 -5 0.5 -18
t0.5 -18t0.5 -17.5t0.5 -18.5h-3h-2v0zM454 72v0h2h3q0 -6 0.5 -18.5t0.5 -17.5t0.5 -18t0.5 -18v0h-5z" />
    <glyph glyph-name="J_sc" unicode="&#x1d0a;" horiz-adv-x="444" 
d="M52 281l87 16l2 -53q4 -172 66 -172q30 0 45.5 25.5t14.5 69.5l-10 397h88l10 -397q2 -82 -35 -129.5t-110 -47.5q-78 0 -116 55.5t-41 173.5zM345 564h-88v0q-2 0 0 2l-1 3h45h44v0v-5z" />
    <glyph glyph-name="K_sc" unicode="&#x1d0b;" horiz-adv-x="562" 
d="M97 5l-15 559h88l15 -559h-88zM103 224l293 345h108l-322 -364zM448 0l-194 287l62 70l237 -357h-105zM185 5v0v-2v-3h-44h-44v3v2v0h88zM170 564h-88v0v2v3h44h44v-3v-2v0zM549 5v0l2 -2l2 -3h-53h-52v0q-1 1 -3 5h104zM499 564h-107v0q-2 0 2 2l2 3h54h54q-1 -1 -2 -3
l-3 -2v0z" />
    <glyph glyph-name="M_sc" unicode="&#x1d0d;" horiz-adv-x="784" 
d="M98 5l-15 559h85l15 -559h-85zM360 0l-225 569h82l221 -569h-78zM360 0l187 569h82l-191 -569h-78zM615 5l-15 559h85l15 -559h-85zM183 5v0v-2v-3h-43h-42v3v2v0h85zM168 564h-85v0v2v3h42h43v0v-5zM700 5v0v-2v-3h-43h-42v3v2v0h85zM685 564h-85v5v0h42h43v-3v-2v0z
" />
    <glyph glyph-name="O_sc" unicode="&#x1d0f;" horiz-adv-x="720" 
d="M60 284q-4 126 79.5 210.5t211.5 84.5q127 0 215 -84.5t92 -210.5q3 -132 -77 -213t-214 -81q-135 0 -219.5 81t-87.5 213zM365 62q91 0 145.5 61t52.5 161q-3 95 -63 159t-147 64t-144 -64t-54 -159q2 -100 60 -161t150 -61z" />
    <glyph glyph-name="P_sc" unicode="&#x1d18;" horiz-adv-x="542" 
d="M97 5l-15 559h88l15 -559h-88zM170 569h100q224 0 227 -171q2 -80 -53 -121t-167 -41h-98l-2 69h102q133 0 130 93q-2 102 -141 102h-96zM185 5v0v-2v-3h-44h-44v3v2v0h88zM170 564h-88v0v2v3h44h44v0v-5z" />
    <glyph glyph-name="T_sc" unicode="&#x1d1b;" horiz-adv-x="481" 
d="M-5 569h462l2 -72h-462zM197 5l-15 564h88l15 -564h-88zM285 5v0v-2v-3h-44h-44v3v2v0h88zM452 569h5v0q0 -5 0.5 -18t0.5 -18t0.5 -17.5t0.5 -18.5h-3h-2v0zM0 569l2 -72v0h-3h-2q0 6 -0.5 18.5t-0.5 17.5t-0.5 18t-0.5 18v0h5z" />
    <glyph glyph-name="U_sc" unicode="&#x1d1c;" horiz-adv-x="624" 
d="M75 564h88l9 -329q5 -163 143 -163q140 0 135 163l-8 329h88l9 -344q6 -230 -221 -230q-228 0 -234 230zM163 564h-88v0v2v3h44h44v-3v-2v0zM530 564h-88v0q-1 0 -1 2v3h45h44v-3v-2v0z" />
    <glyph glyph-name="V_sc" unicode="&#x1d20;" horiz-adv-x="536" 
d="M7 569h95l213 -569h-82zM318 0h-81l179 569h95zM104 564h-95v0q0 1 -1 2l-1 3h48h47q1 -1 1 -3l1 -2v0zM510 564h-95v0q0 1 1 2v3h48h47q0 -1 -1 -3v-2q-2 0 0 0z" />
    <glyph glyph-name="W_sc" unicode="&#x1d21;" horiz-adv-x="824" 
d="M7 569h95l172 -569h-85zM274 0h-78l165 569h85zM361 569h85l198 -569h-85zM644 0h-79l139 569h95zM104 564h-95v0q0 1 -1 2l-1 3h48h47q0 -1 1 -3q0 -2 1 -2q-2 0 0 0zM798 564h-95v0q0 1 1 2v3h48h47v-3l-1 -2v0z" />
    <glyph glyph-name="Z_sc" unicode="&#x1d22;" horiz-adv-x="571" 
d="M512 569l1 -72h-466l-2 72h467zM45 0l-2 72h482l1 -72h-481zM423 511l90 -14l-379 -439l-91 14zM520 72v0h2h3v-36q1 -11 1 -36v0h-5zM50 569l2 -72v0h-3h-2q0 6 -0.5 18.5t-0.5 17.5t-0.5 18t-0.5 18v0h5z" />
    <glyph glyph-name="w_cap_grave" unicode="&#x1e80;" horiz-adv-x="880" 
d="M1 722h105l186 -722h-94zM292 0h-87l174 722h95zM379 722h95l215 -722h-94zM689 0h-87l145 722h105zM107 717h-105v0q0 1 -1 2v3h52h53q0 -1 1 -3v-2v0zM851 717h-105v0v2l1 3h52h53q0 -1 -1 -3v-2v0zM386 802l-85 150h109l52 -150h-76z" />
    <glyph glyph-name="w_cap_acute" unicode="&#x1e82;" horiz-adv-x="880" 
d="M1 722h105l186 -722h-94zM292 0h-87l174 722h95zM379 722h95l215 -722h-94zM689 0h-87l145 722h105zM107 717h-105v0q0 1 -1 2v3h52h53q0 -1 1 -3v-2v0zM851 717h-105v0v2l1 3h52h53q0 -1 -1 -3v-2v0zM386 802l44 150h109l-77 -150h-76z" />
    <glyph glyph-name="w_cap_dieresis" unicode="&#x1e84;" horiz-adv-x="880" 
d="M1 722h105l186 -722h-94zM292 0h-87l174 722h95zM379 722h95l215 -722h-94zM689 0h-87l145 722h105zM107 717h-105v0q0 1 -1 2v3h52h53q0 -1 1 -3v-2v0zM851 717h-105v0v2l1 3h52h53q0 -1 -1 -3v-2v0zM306 802l-2 91h91l2 -91h-91zM452 802l-3 91h91l2 -91h-90z" />
    <glyph glyph-name="e_cap_tilde" unicode="&#x1ebc;" horiz-adv-x="582" 
d="M94 5l-18 712h98l18 -712h-98zM174 722h327l2 -80h-327zM182 411h310l2 -77h-310zM193 0l-3 80h340l3 -80h-340zM192 5l1 -5v0h-49h-50v3v2v0h98zM174 717h-98v0q-2 0 0 2q-2 3 0 3h49h49v0v-5zM487 411v0h2h3q0 -27 1 -38q0 -27 1 -39h-3h-2v0zM496 722h5v0
q0 -6 0.5 -20t0.5 -20t0.5 -20t0.5 -20h-3h-2v0zM525 80v0h3h2q0 -6 1 -20t1 -20t0.5 -20t0.5 -20v0h-5zM229 935q22 0 39 -19.5t31.5 -39t32.5 -19.5l8 -65q-22 0 -39 19.5t-31.5 39t-32.5 19.5zM217 802h-61q-2 60 18.5 96.5t54.5 36.5l8 -65q-22 0 -20 -68zM340 792
l-8 65q22 0 20 68h61q2 -60 -18 -96.5t-55 -36.5z" />
    <glyph glyph-name="y_cap_grave" unicode="&#x1ef2;" horiz-adv-x="543" 
d="M0 722h109l165 -292l-51 -99zM405 722h110l-203 -391l-57 99zM216 430h98l11 -425h-98zM325 5v0v-2v-3h-49h-49v3v2v0h98zM112 717h-109v0l-2 2l-1 3h54h55q1 -1 2 -3l1 -2v0zM512 717h-110v0l2 2l1 3h55h55q-1 0 -2 -3l-1 -2v0zM217 802l-85 150h109l52 -150h-76z" />
    <glyph glyph-name="quoteleft" unicode="&#x2018;" horiz-adv-x="190" 
d="M34 628h90l3 -90h-91zM122 732l1 -44q-37 0 -35 -60h-54q-3 104 88 104z" />
    <glyph glyph-name="quoteright" unicode="&#x2019;" horiz-adv-x="190" 
d="M76 732h91l2 -91h-90zM169 641q2 -56 -18.5 -79.5t-69.5 -23.5l-1 43q20 0 28 13.5t7 46.5h54z" />
    <glyph glyph-name="quotedblleft" unicode="&#x201c;" horiz-adv-x="378" 
d="M79 628h91l2 -90h-91zM167 732l1 -44q-35 0 -35 -60h-54q-3 104 88 104zM222 628h90l3 -90h-91zM310 732l1 -44q-37 0 -35 -60h-54q-3 104 88 104z" />
    <glyph glyph-name="quotedblright" unicode="&#x201d;" horiz-adv-x="378" 
d="M76 732h91l2 -91h-90zM169 641q2 -56 -18.5 -79.5t-69.5 -23.5l-1 43q20 0 28 13.5t7 46.5h54zM219 732h91l2 -91h-91zM312 641q1 -55 -19 -79t-69 -24l-1 43q19 0 27 13.5t8 46.5h54z" />
    <glyph glyph-name="ellipsis" unicode="&#x2026;" horiz-adv-x="522" 
d="M50 0l-2 91h90l3 -91h-91zM216 0l-3 91h91l3 -91h-91zM382 0l-3 91h91l2 -91h-90z" />
    <glyph glyph-name="guilsinglleft" unicode="&#x2039;" horiz-adv-x="245" 
d="M166 445h72l-115 -199l126 -199h-73l-126 199z" />
    <glyph glyph-name="guilsinglright" unicode="&#x203a;" horiz-adv-x="245" 
d="M59 445h73l125 -199l-115 -199h-73l115 199z" />
    <glyph glyph-name="F_sc" unicode="&#xa730;" horiz-adv-x="475" 
d="M97 5l-15 559h88l15 -559h-88zM170 569h261l2 -72h-261zM177 328h242l2 -69h-243zM185 5v0v-2v-3h-44h-44v3v2v0h88zM170 564h-88v0v2v3h44h44v0v-5zM414 328v0h3h2q1 -10 1 -35q0 -5 0.5 -17t0.5 -17h-3h-2v0zM426 569h5v0q0 -5 0.5 -18t0.5 -18t0.5 -17.5t0.5 -18.5h-3
h-2v0z" />
    <glyph glyph-name="S_sc" unicode="&#xa731;" horiz-adv-x="563" 
d="M41 167l73 52q2 -73 53.5 -112.5t136.5 -39.5q65 0 99 24t33 65q-2 74 -163 92q-197 23 -202 167q-2 74 49.5 119t137.5 45q84 0 145 -35.5t83 -102.5l-62 -57q-18 56 -61.5 86t-102.5 30q-45 0 -72 -21t-26 -55q1 -70 132 -87q227 -27 230 -178q2 -78 -54 -123.5
t-164 -45.5q-120 0 -191.5 45.5t-73.5 131.5z" />
    <glyph glyph-name="X_sc" unicode="&#xf078;" horiz-adv-x="482" 
d="M41 569h91l336 -569h-91zM221 322l59 -63l-150 -259h-91zM362 569h91l-171 -309l-63 59zM135 564h-91v0q0 1 -1 2l-2 3h46h45q1 -1 2 -3l1 -2v0zM450 564h-91v0l2 2l1 3h46h45q0 -1 -1 -3l-2 -2v0zM133 5v0q-1 -1 -1 -2l-2 -3h-45h-46q1 1 2 3l1 2v0h91zM465 5v0
q0 -1 1 -2l2 -3h-46h-45q-1 1 -1 3l-2 2v0h91z" />
  </font>
</defs>
</svg>
