<?xml version="1.0" standalone="no"?>
<!DOCTYPE svg PUBLIC "-//W3C//DTD SVG 1.1//EN" "http://www.w3.org/Graphics/SVG/1.1/DTD/svg11.dtd" >
<svg>
<metadata>
Created by FontForge 20120731 at Fri Jul  8 13:19:22 2016
 By ,,,
 
</metadata>
<defs>
<font id="iconofont_Regular_italic" horiz-adv-x="513" >
  <font-face 
    font-family="iconofont"
    font-weight="500"
    font-style="italic"
    font-stretch="normal"
    units-per-em="1024"
    panose-1="0 0 0 0 0 0 0 0 0 0"
    ascent="819"
    descent="-205"
    x-height="492"
    cap-height="722"
    bbox="-40 -250 998 972"
    underline-thickness="0"
    underline-position="0"
    unicode-range="U+0020-F078"
  />
<missing-glyph horiz-adv-x="650" 
 />
    <glyph glyph-name=".notdef" horiz-adv-x="650" 
 />
    <glyph glyph-name=".notdef" horiz-adv-x="650" 
 />
    <glyph glyph-name=".null" horiz-adv-x="0" 
 />
    <glyph glyph-name="nonmarkingreturn" horiz-adv-x="341" 
 />
    <glyph glyph-name="space" unicode=" " horiz-adv-x="215" 
 />
    <glyph glyph-name="exclam" unicode="!" horiz-adv-x="188" 
d="M172 722h98l-52 -298l-76 -225h-26l4 225zM49 0l16 91h90l-16 -91h-90z" />
    <glyph glyph-name="quotedbl" unicode="&#x22;" horiz-adv-x="427" 
d="M206 722h83l-15 -86l-35 -76h-40l-8 76zM377 722h84l-15 -86l-36 -76h-39l-9 76z" />
    <glyph glyph-name="numbersign" unicode="#" horiz-adv-x="632" 
d="M52 196l21 68h545l-22 -68h-544zM140 458l21 68h544l-21 -68h-544zM339 722h80l-221 -722h-80zM558 722h80l-221 -722h-80z" />
    <glyph glyph-name="dollar" unicode="$" horiz-adv-x="626" 
d="M72 165l94 59q-13 -72 37.5 -110t149.5 -38q75 0 120.5 33t55.5 90q8 46 -33.5 77t-130.5 46q-109 18 -158 69.5t-35 134.5q16 93 87.5 149.5t171.5 56.5q101 0 164.5 -35t71.5 -101l-81 -63q-7 54 -52.5 83t-118.5 29q-54 0 -92.5 -29.5t-47.5 -78.5q-7 -45 26.5 -74
t107.5 -42q250 -41 218 -219q-17 -98 -92 -155t-197 -57q-137 0 -209 45.5t-57 129.5zM444 822h54l-162 -922h-55z" />
    <glyph glyph-name="ampersand" unicode="&#x26;" horiz-adv-x="751" 
d="M641 2q-33 -12 -58 -12q-39 0 -77.5 36.5t-95.5 113.5q-148 204 -151 206q-24 26 -33.5 70.5t-1.5 92.5q13 72 66 116t128 44q71 0 107 -40t24 -104q-6 -37 -57 -84.5t-128 -87.5l-80 -40q-39 -19 -66.5 -54.5t-34.5 -73.5q-10 -55 19 -89t85 -34q95 0 165.5 79.5
t91.5 209.5l73 -17q-25 -160 -123 -257t-233 -97q-91 0 -137 53.5t-30 141.5q10 57 53 107t104 75l80 40q61 32 101 66.5t45 57.5q6 35 -13.5 57t-57.5 22q-39 0 -67 -23.5t-36 -61.5q-5 -34 3.5 -67.5t27.5 -54.5q-3 3 39 -55t133 -183q35 -47 56.5 -68t40.5 -21q18 0 40 6
z" />
    <glyph glyph-name="quotesingle" unicode="'" horiz-adv-x="210" 
d="M206 722h83l-15 -86l-35 -76h-40l-8 76z" />
    <glyph glyph-name="parenleft" unicode="(" horiz-adv-x="342" 
d="M426 757l24 -32q-186 -138 -233 -403q-47 -268 91 -405l-35 -32q-161 158 -111 437q48 277 264 435z" />
    <glyph glyph-name="parenright" unicode=")" horiz-adv-x="293" 
d="M204 757q147 -171 100 -435q-49 -278 -253 -437l-23 33q175 137 222 404q45 257 -80 402z" />
    <glyph glyph-name="asterisk" unicode="*" horiz-adv-x="379" 
d="M284 732h70l-44 -160h-39zM131 588l33 67l136 -64l-19 -38zM198 422l-49 41l128 121l28 -24zM394 463l-64 -41l-57 138l36 24zM447 655l10 -67l-163 -35l-6 38z" />
    <glyph glyph-name="plus" unicode="+" horiz-adv-x="561" 
d="M73 270h487l-9 -51h-487zM328 492h54l-86 -492h-55z" />
    <glyph glyph-name="comma" unicode="," horiz-adv-x="190" 
d="M66 91h91l-16 -91h-91zM141 0q-10 -56 -35 -80t-74 -24l7 44q19 0 30 14t17 46h55z" />
    <glyph glyph-name="hyphen" unicode="-" horiz-adv-x="334" 
d="M89 219l12 69h235l-13 -69h-234z" />
    <glyph glyph-name="period" unicode="." horiz-adv-x="190" 
d="M50 0l16 91h91l-16 -91h-91z" />
    <glyph glyph-name="slash" unicode="/" horiz-adv-x="296" 
d="M0 0l387 722h37l-388 -722h-36z" />
    <glyph glyph-name="zero" unicode="0" horiz-adv-x="656" 
d="M123 361q32 176 120.5 273.5t215.5 97.5q128 0 182.5 -97.5t23.5 -273.5q-32 -184 -117 -277.5t-219 -93.5q-271 0 -206 371zM343 70q168 0 220 291q24 138 -7 214.5t-111 76.5t-138 -77t-82 -214q-52 -291 118 -291z" />
    <glyph glyph-name="one" unicode="1" horiz-adv-x="397" 
d="M200 0l104 593l45 129h76l-23 -129l-104 -593h-98zM147 547l202 175l-28 -123l-196 -172z" />
    <glyph glyph-name="two" unicode="2" horiz-adv-x="555" 
d="M520 0h-362l17 94h362zM53 0q20 115 67 175.5t152 121.5q94 53 156 111.5t69 99.5q12 65 -16.5 104.5t-86.5 39.5q-59 0 -102 -38t-53 -99q-8 -46 22 -96l-95 -44q-36 58 -22 140q17 97 90 157t174 60q102 0 153 -63.5t33 -167.5q-9 -50 -67.5 -111t-145.5 -111
q-109 -62 -157 -119t-66 -160h-105z" />
    <glyph glyph-name="three" unicode="3" horiz-adv-x="560" 
d="M95 236h102q-13 -71 15 -115t86 -44q57 0 97.5 35t51.5 93q12 67 -23 107.5t-103 40.5h-60l10 53h139q76 -18 115.5 -74.5t25.5 -130.5q-16 -95 -90 -153t-178 -58t-155.5 67.5t-32.5 178.5zM268 392l7 38h80q52 0 89.5 29.5t45.5 76.5q10 52 -16 84t-79 32
q-46 0 -81 -36.5t-45 -95.5h-98q16 95 82.5 153.5t158.5 58.5t138.5 -51.5t31.5 -136.5q-10 -54 -55 -96t-109 -56h-150z" />
    <glyph glyph-name="four" unicode="4" horiz-adv-x="556" 
d="M495 722h76l-33 -190l-94 -532h-98l94 532zM495 722l72 -20l-408 -409l-94 -66l13 76l85 11h429l-15 -87h-430h-82l13 76z" />
    <glyph glyph-name="five" unicode="5" horiz-adv-x="549" 
d="M138 335l79 387h375l-24 -94l-273 3l-67 -317zM226 392q35 32 79 52t81 20q93 0 138 -65.5t26 -172.5q-19 -106 -95.5 -171t-183.5 -65q-98 0 -146.5 67.5t-29.5 178.5h102q-13 -71 11.5 -115t77.5 -44q59 0 102.5 41t55.5 108q13 71 -12 114.5t-78 43.5
q-23 0 -57.5 -19.5t-68.5 -50.5z" />
    <glyph glyph-name="six" unicode="6" horiz-adv-x="562" 
d="M619 607l-80 -47q-17 43 -48 69.5t-65 26.5q-70 0 -121 -76t-74 -206q-53 -304 85 -304q55 0 96.5 45.5t54.5 120.5q13 71 -14 114t-84 43q-21 0 -66.5 -40.5t-85.5 -103.5q6 -7 -6 -7l13 124q5 0 6 -3.5t0 -6.5l-2 -4q31 48 83 84.5t91 36.5q95 0 142.5 -65.5
t28.5 -171.5q-19 -111 -94 -178.5t-177 -67.5q-119 0 -163 93t-13 274q31 173 112.5 274t201.5 101q58 0 107.5 -34.5t71.5 -90.5z" />
    <glyph glyph-name="seven" unicode="7" horiz-adv-x="450" 
d="M157 722h411l-17 -94h-410zM551 628q-160 -212 -237.5 -357t-100.5 -271h-109q17 99 101.5 243t266.5 385h79z" />
    <glyph glyph-name="eight" unicode="8" horiz-adv-x="580" 
d="M99 196q18 102 88.5 153t178.5 51q116 0 163.5 -54.5t30.5 -150.5q-18 -103 -88.5 -154t-178.5 -51q-115 0 -162.5 55t-31.5 151zM308 70q58 0 97.5 33.5t51.5 100.5q11 64 -14 100.5t-88 36.5q-58 0 -97.5 -34.5t-51.5 -103.5q-11 -62 14 -97.5t88 -35.5zM189 543
q16 92 79 140.5t156 48.5q100 0 144.5 -51t29.5 -138q-15 -86 -77.5 -129t-159.5 -43q-102 0 -144 46t-28 126zM371 429q116 0 135 106q10 54 -14.5 85.5t-81.5 31.5q-51 0 -86.5 -30t-45.5 -87q-9 -50 14 -78t79 -28z" />
    <glyph glyph-name="nine" unicode="9" horiz-adv-x="581" 
d="M107 131l90 40q5 -45 32 -73t67 -28q67 0 117.5 75t74.5 209q24 141 2.5 219.5t-81.5 78.5q-58 0 -102 -46t-57 -121q-12 -71 11.5 -114t74.5 -43q25 0 74 41.5t90 107.5l-1 4q0 3 7 3l-11 -123q-6 0 -7 3.5t1 7.5l2 3q-33 -51 -92 -89t-107 -38q-85 0 -125.5 63
t-22.5 167q20 114 96 184t179 70q108 0 155.5 -96t17.5 -265q-31 -180 -113 -280.5t-197 -100.5q-73 0 -121 38.5t-54 102.5z" />
    <glyph glyph-name="colon" unicode=":" horiz-adv-x="190" 
d="M50 0l16 91h91l-16 -91h-91zM121 401l16 91h91l-16 -91h-91z" />
    <glyph glyph-name="semicolon" unicode=";" horiz-adv-x="190" 
d="M82 91h91l-32 -91h-91zM141 0q-19 -56 -48.5 -80t-79.5 -24l16 44q19 0 32.5 14t24.5 46h55zM121 401l16 91h91l-16 -91h-91z" />
    <glyph glyph-name="less" unicode="&#x3c;" horiz-adv-x="492" 
d="M513 462l-12 -69l-418 -178l11 62l355 -178l-12 -69l-354 185l11 62z" />
    <glyph glyph-name="equal" unicode="=" horiz-adv-x="570" 
d="M104 369h467l-9 -51h-467zM71 180h467l-9 -51h-467z" />
    <glyph glyph-name="greater" unicode="&#x3e;" horiz-adv-x="492" 
d="M141 462l355 -185l-11 -62l-420 -185l12 69l419 178l-11 -62l-356 178z" />
    <glyph glyph-name="question" unicode="?" horiz-adv-x="514" 
d="M118 538q23 87 92 140.5t160 53.5q88 0 132.5 -54.5t28.5 -143.5q-13 -71 -42.5 -112t-86.5 -65q-44 -19 -61 -48t-31 -110h-80q20 108 42.5 147.5t80.5 64.5q41 17 62 45.5t29 77.5q11 60 -13 96.5t-73 36.5q-56 0 -101 -39.5t-62 -104.5zM189 0l16 91h91l-16 -91h-91z
" />
    <glyph glyph-name="A_cap" unicode="A" horiz-adv-x="680" 
d="M20 0l404 722h104l142 -722h-105l-140 722h98l-398 -722h-105zM531 175h-309l41 75h253zM128 5v0l-2 -2l-1 -3h-53h-52q0 1 1 3q2 2 1 2q2 0 0 0h106zM669 5v0q0 -1 1 -2v-3h-52h-53v3l-1 2v0h105zM520 717h-99v0q0 1 1 2l2 3h49h50v0q0 -1 -3 -5z" />
    <glyph glyph-name="B_cap" unicode="B" horiz-adv-x="677" 
d="M95 5l126 712h98l-126 -712h-98zM320 722h153q128 0 174.5 -44t28.5 -147q-11 -64 -58 -103t-113 -39h-244l7 40h201q39 0 68 26t36 69q12 66 -13 94t-96 28h-158zM265 410h244q92 0 139 -55t31 -146q-20 -113 -82.5 -161t-189.5 -48h-214l13 76h186q86 0 128 33t55 111
q11 61 -27.5 98.5t-113.5 37.5h-179zM193 5v-5v0h-49h-50q0 1 1 3v2v0h98zM319 717h-98v0v2q0 3 1 3h49h49v0q0 -1 -1 -5z" />
    <glyph glyph-name="C_cap" unicode="C" horiz-adv-x="703" 
d="M650 218l62 -60q-13 -76 -102.5 -122t-222.5 -46q-144 0 -217.5 108.5t-46.5 262.5q28 154 139 262.5t256 108.5q126 0 199 -46t66 -122l-82 -60q6 67 -48.5 107.5t-149.5 40.5q-98 0 -175.5 -85t-98.5 -206q-22 -121 26 -206t146 -85q101 0 169.5 40.5t79.5 107.5z" />
    <glyph glyph-name="D_cap" unicode="D" horiz-adv-x="714" 
d="M95 5l126 712h98l-126 -712h-98zM320 722h116q173 0 245.5 -91.5t41.5 -269.5q-32 -184 -126.5 -272.5t-257.5 -88.5h-146l13 76h140q113 0 180 70t92 215q50 285 -191 285h-121zM193 5v-5v0h-49h-50q0 1 1 3v2v0h98zM319 717h-98v0v2q0 3 1 3h49h49v0q0 -1 -1 -5z" />
    <glyph glyph-name="E_cap" unicode="E" horiz-adv-x="582" 
d="M95 5l126 712h98l-126 -712h-98zM320 722h327l-14 -80h-327zM265 411h310l-14 -77h-309zM193 0l14 80h340l-14 -80h-340zM193 5v-5v0h-49h-50q0 1 1 3v2v0h98zM319 717h-98v0v2q0 3 1 3h49h49v0q0 -1 -1 -5zM570 411v0h2h3q-1 -7 -4 -21.5t-3 -16.5q-1 -6 -3.5 -19.5
t-3.5 -19.5h-2h-3v0zM642 722h5v0q-1 -6 -3.5 -20t-3.5 -20t-3.5 -20t-3.5 -20h-3h-2v0zM542 80v0h2h3q-1 -6 -3.5 -20t-3.5 -20t-3.5 -20t-3.5 -20v0h-5z" />
    <glyph glyph-name="F_cap" unicode="F" horiz-adv-x="547" 
d="M95 5l126 712h98l-126 -712h-98zM320 722h325l-14 -80h-325zM265 411h299l-13 -77h-299zM193 5v0q2 0 0 -2v-3h-49h-50q0 1 1 3v2v0h98zM319 717h-98v0v2q0 3 1 3h49h49v0q0 -1 -1 -5zM559 411v0h3h2q-5 -32 -7 -38q-1 -6 -6 -39h-3h-2v0zM640 722h5v0q-1 -6 -3.5 -20
t-3.5 -20t-3.5 -20t-3.5 -20h-3h-2v0z" />
    <glyph glyph-name="G_cap" unicode="G" horiz-adv-x="724" 
d="M447 335l14 80h292l-57 -321q-143 -104 -295 -104q-155 0 -231 102t-47 269q30 167 142.5 269t266.5 102q113 0 178 -46t58 -122l-82 -60q6 67 -40 107.5t-128 40.5q-107 0 -187 -80t-102 -211q-23 -131 28 -211t158 -80q97 0 196 72l34 193h-198z" />
    <glyph glyph-name="H_cap" unicode="H" horiz-adv-x="713" 
d="M95 5l126 712h98l-126 -712h-98zM193 418h485l-14 -80h-485zM532 5l125 712h98l-125 -712h-98zM193 5v0q2 0 0 -2v-3h-49h-50q0 1 1 3v2v0h98zM319 717h-98v0v2q0 3 1 3h49h49q0 -1 -1 -3v-2v0zM630 5v0q0 -1 -1 -2v-3h-49h-49v3l1 2v0h98zM755 717h-98v0q0 1 1 2v3h49
h49v-3l-1 -2v0z" />
    <glyph glyph-name="I_cap" unicode="I" horiz-adv-x="267" 
d="M86 5l125 712h98l-125 -712h-98zM184 5v0q0 -1 -1 -2v-3h-49h-49v3l1 2v0h98zM309 717h-98v0q0 1 1 2v3h49h49v-3l-1 -2v0z" />
    <glyph glyph-name="J_cap" unicode="J" horiz-adv-x="520" 
d="M106 281l101 17l-9 -52q-16 -86 -0.5 -125.5t62.5 -39.5q45 0 74.5 35t40.5 96l89 505h98l-89 -505q-18 -102 -77.5 -162t-151.5 -60q-97 0 -133 55t-16 173zM562 717h-98v0v2l1 3h49h49v0q0 -1 -1 -5z" />
    <glyph glyph-name="K_cap" unicode="K" horiz-adv-x="639" 
d="M95 5l126 712h98l-126 -712h-98zM157 281l449 441h119l-485 -462zM513 0l-146 380l83 80l179 -460h-116zM193 5v0q2 0 0 -2v-3h-49h-50q0 1 1 3v2v0h98zM319 717h-98v0v2q0 3 1 3h49h49q0 -1 -1 -3v-2v0zM627 5v0q0 -1 1 -2l1 -3h-58h-58v0q0 1 -2 5h116zM720 717h-120v0
q1 1 3 2q1 3 3 3h59h60q-1 -1 -2 -3l-3 -2v0z" />
    <glyph glyph-name="L_cap" unicode="L" horiz-adv-x="506" 
d="M86 5l125 712h98l-125 -712h-98zM183 0l14 80h293l-14 -80h-293zM184 5l-1 -5v0h-49h-49v3l1 2v0h98zM309 717h-98v0q0 1 1 2v3h49h49v-3l-1 -2v0zM485 80v0h3h2q-1 -6 -3.5 -20t-3.5 -20t-3.5 -20t-3.5 -20v0h-5z" />
    <glyph glyph-name="M_cap" unicode="M" horiz-adv-x="863" 
d="M96 5l126 712h94l-125 -712h-95zM393 0l-112 722h91l108 -722h-87zM393 0l359 722h91l-363 -722h-87zM685 5l125 712h95l-126 -712h-94zM191 5v0q0 -1 -1 -2v-3h-47h-48q0 1 1 3v2v0h95zM316 717h-94v0v2q0 3 1 3h47h47v0q0 -1 -1 -5zM779 5v0v-2l-1 -3h-47h-47v3l1 2v0
h94zM905 717h-95l1 5v0h47h48q-1 0 -1 -3v-2v0z" />
    <glyph glyph-name="N_cap" unicode="N" horiz-adv-x="679" 
d="M221 717h98l-126 -712h-98zM222 722h106l238 -722h-106zM623 717h98l-126 -717h-98zM193 5v0q2 0 0 -2v-3h-49h-50q0 1 1 3v2v0h98zM319 717h-98v0v2q0 3 1 3h49h49v0q0 -1 -1 -5zM721 717h-98v0v2l1 3h49h49q0 -1 -1 -3v-2v0z" />
    <glyph glyph-name="O_cap" unicode="O" horiz-adv-x="799" 
d="M128 361q29 158 144.5 264.5t260.5 106.5t224 -106.5t51 -264.5q-30 -167 -141.5 -269t-263.5 -102q-153 0 -228.5 102t-46.5 269zM417 70q105 0 184 80t101 211q22 124 -30 207.5t-153 83.5q-100 0 -181.5 -83.5t-103.5 -207.5q-23 -131 27 -211t156 -80z" />
    <glyph glyph-name="P_cap" unicode="P" horiz-adv-x="617" 
d="M95 5l126 712h98l-126 -712h-98zM320 722h156q233 0 195 -217q-36 -209 -271 -209h-155l13 76h160q132 0 155 133q24 141 -114 141h-153zM193 5v0q2 0 0 -2v-3h-49h-50q0 1 1 3v2v0h98zM319 717h-98v0v2q0 3 1 3h49h49v0q0 -1 -1 -5z" />
    <glyph glyph-name="Q_cap" unicode="Q" horiz-adv-x="799" 
d="M128 361q29 158 144.5 264.5t260.5 106.5t224 -106.5t51 -264.5q-30 -167 -141.5 -269t-263.5 -102q-153 0 -228.5 102t-46.5 269zM417 70q105 0 184 80t101 211q22 124 -30 207.5t-153 83.5q-100 0 -181.5 -83.5t-103.5 -207.5q-23 -131 27 -211t156 -80zM618 -90
l-179 228l70 52l179 -228z" />
    <glyph glyph-name="R_cap" unicode="R" horiz-adv-x="624" 
d="M95 5l126 712h98l-126 -712h-98zM320 722h163q233 0 195 -217q-33 -190 -267 -190h-163l14 76h166q132 0 152 114q24 141 -114 141h-160zM505 0l-129 328h112l130 -328h-113zM193 5v0q2 0 0 -2v-3h-49h-50q0 1 1 3v2v0h98zM319 717h-98v0v2q0 3 1 3h49h49v0q0 -1 -1 -5z
M616 5v0q0 -1 1 -2l1 -3h-57h-56v0q0 1 -2 5h113z" />
    <glyph glyph-name="S_cap" unicode="S" horiz-adv-x="626" 
d="M72 165l94 59q-13 -72 37.5 -110t149.5 -38q75 0 120.5 33t55.5 90q8 46 -33.5 77t-130.5 46q-109 18 -158 69.5t-35 134.5q16 93 87.5 149.5t171.5 56.5q101 0 164.5 -35t71.5 -101l-81 -63q-7 54 -52.5 83t-118.5 29q-54 0 -92.5 -29.5t-47.5 -78.5q-7 -45 26.5 -74
t107.5 -42q250 -41 218 -219q-17 -98 -92 -155t-197 -57q-137 0 -209 45.5t-57 129.5z" />
    <glyph glyph-name="T_cap" unicode="T" horiz-adv-x="555" 
d="M137 722h535l-14 -80h-535zM229 5l127 717h98l-127 -717h-98zM327 5v0q2 0 0 -2v-3h-49h-49v3q2 2 0 2q1 0 0 0h98zM667 722h5v0q-1 -6 -3.5 -20t-3.5 -20t-3.5 -20t-3.5 -20h-2h-3v0zM142 722l-14 -80v0h-2h-3q1 6 3.5 20t3.5 20t3.5 20t3.5 20v0h5z" />
    <glyph glyph-name="U_cap" unicode="U" horiz-adv-x="694" 
d="M214 717h98l-74 -420q-38 -216 127 -216t203 216l74 420h99l-78 -437q-50 -290 -314 -290q-263 0 -212 290zM312 717h-98v0v2q0 3 1 3h49h49q0 -1 -1 -3v-2v0zM741 717h-99v0q1 1 1 2v3h49h49v-3v-2q-1 0 0 0z" />
    <glyph glyph-name="V_cap" unicode="V" horiz-adv-x="598" 
d="M147 722h105l97 -722h-91zM353 0h-91l348 722h105zM253 717h-105v0q-1 1 -1 2v3h53h52q0 -1 1 -3v-2v0zM713 717h-105v0q0 1 1 2l1 3h53h52q0 -1 -1 -3l-1 -2v0z" />
    <glyph glyph-name="W_cap" unicode="W" horiz-adv-x="880" 
d="M147 722h105l40 -722h-94zM292 0h-87l320 722h95zM525 722h95l69 -722h-94zM689 0h-87l291 722h105zM253 717h-106v0v2v3h53h52v-3q0 -2 1 -2q-1 0 0 0zM996 717h-105v0q0 1 1 2l1 3h53h52q0 -1 -1 -3l-1 -2v0z" />
    <glyph glyph-name="X_cap" unicode="X" horiz-adv-x="561" 
d="M180 722h104l262 -722h-103zM332 405l53 -68l-245 -337h-104zM570 722h104l-285 -388l-57 66zM286 717h-104v0q0 1 -1 2l-1 3h52h52q1 -1 1 -3l1 -2v0zM670 717h-104v0l2 2l2 3h52h52q-1 -1 -2 -3l-2 -2v0zM144 5v0l-2 -2l-2 -3h-52h-52q1 1 2 3l2 2v0h104zM545 5v0
q0 -1 1 -2v-3h-51h-52q0 1 -1 3l-1 2v0h104z" />
    <glyph glyph-name="Y_cap" unicode="Y" horiz-adv-x="543" 
d="M146 722h109l106 -292l-71 -99zM551 722h110l-282 -391l-36 99zM303 430h98l-75 -425h-98zM326 5v0v-2l-1 -3h-49h-49v3l1 2v0h98zM257 717h-109v0q-1 1 -1 2l-1 3h55h54q1 -1 1 -3l1 -2v0zM657 717h-109v0q0 1 1 2l2 3h55h55q-1 -1 -2 -3l-2 -2v0z" />
    <glyph glyph-name="Z_cap" unicode="Z" horiz-adv-x="625" 
d="M708 722l-14 -80h-521l14 80h521zM45 0l14 80h536l-14 -80h-536zM592 658l102 -16l-533 -578l-102 16zM590 80v0h2h3q-1 -6 -3.5 -20t-3.5 -20t-3.5 -20t-3.5 -20v0h-5zM192 722l-14 -80v0h-2h-3q1 6 3.5 20t3.5 20t3.5 20t3.5 20v0h5z" />
    <glyph glyph-name="bracketleft" unicode="[" horiz-adv-x="326" 
d="M258 722h54l-147 -837h-55zM312 722h112l-8 -47h-112zM173 -68h112l-9 -47h-111z" />
    <glyph glyph-name="backslash" unicode="\" horiz-adv-x="326" 
d="M290 0l-163 722h37l162 -722h-36z" />
    <glyph glyph-name="bracketright" unicode="]" horiz-adv-x="321" 
d="M269 722h55l-148 -837h-54zM157 722h112l-8 -47h-112zM18 -68h112l-8 -47h-112z" />
    <glyph glyph-name="underscore" unicode="_" horiz-adv-x="649" 
d="M28 -125l9 50h550l-9 -50h-550z" />
    <glyph glyph-name="a" unicode="a" 
d="M126 360q11 64 69.5 103t143.5 39q189 0 158 -175l-44 -250q-2 -11 4 -13t38 -2l-11 -62q-93 0 -109 10.5t-6 66.5l50 285q6 37 -18 54t-74 17q-51 0 -87 -27t-43 -71zM415 190q-20 -111 -73.5 -155.5t-140.5 -44.5q-154 0 -131 131q8 50 56 88t117 49q162 27 176 104
l39 -17q-11 -63 -55 -95t-120 -45q-54 -9 -89.5 -31t-39.5 -50q-6 -36 13.5 -56t69.5 -20q62 0 100.5 31.5t52.5 110.5h25z" />
    <glyph glyph-name="b" unicode="b" horiz-adv-x="540" 
d="M79 5l126 712h83l-125 -712h-84zM169 246q23 129 82 192.5t142 63.5t122 -70.5t19 -185.5q-21 -116 -84.5 -186t-146.5 -70t-120 64t-14 192zM287 59q55 0 98 51.5t58 135.5t-10 135.5t-80 51.5q-54 0 -92.5 -46.5t-55.5 -140.5q-16 -94 6 -140.5t76 -46.5zM163 5l-1 -5
v0h-42h-42q0 1 1 3v2v0h84zM288 717h-83v0v2v3h42h42v0q0 -1 -1 -5z" />
    <glyph glyph-name="c" unicode="c" horiz-adv-x="488" 
d="M412 162l69 -36q-10 -61 -70 -98.5t-146 -37.5q-98 0 -142 64t-21 192q23 129 89.5 192.5t163.5 63.5q98 0 137.5 -40.5t27.5 -112.5l-80 -36q22 124 -97 124q-54 0 -94 -47.5t-57 -143.5q-16 -94 7 -140.5t78 -46.5q53 0 90.5 28.5t44.5 74.5z" />
    <glyph glyph-name="d" unicode="d" horiz-adv-x="541" 
d="M102 246q20 116 87.5 186t158.5 70q74 0 106.5 -70t12.5 -186q-20 -115 -77.5 -185.5t-131.5 -70.5q-91 0 -134 70.5t-22 185.5zM298 59q45 0 81.5 51.5t51.5 135.5t-3.5 135.5t-63.5 51.5q-62 0 -109.5 -51.5t-62.5 -135.5q-14 -84 15 -135.5t91 -51.5zM389 5l125 712
h84l-126 -712h-83zM472 5v0v-2l-1 -3h-41h-42v0q0 1 1 5h83zM598 717h-84v0q1 1 1 2v3h42h42q-1 0 0 0q-1 0 -1 -5z" />
    <glyph glyph-name="e" unicode="e" horiz-adv-x="489" 
d="M409 157l73 -29q-10 -62 -72 -100t-153 -38q-94 0 -136 64t-19 192q23 129 88.5 192.5t162.5 63.5q207 0 160 -265h-83h-239l10 58h239l-10 -58q35 200 -88 200q-54 0 -93.5 -47.5t-56.5 -143.5q-16 -94 5 -140.5t72 -46.5q56 0 94.5 27t45.5 71z" />
    <glyph glyph-name="f" unicode="f" horiz-adv-x="355" 
d="M104 5l107 609q11 59 39 83.5t84 24.5h79l-12 -69l-57 1q-23 0 -34.5 -9t-14.5 -31l-108 -609h-83zM117 492h256l-12 -65h-256zM187 5v0v-2l-1 -3h-42h-41v3l1 2v0h83zM408 722h5v0q-1 -6 -3 -18.5t-3 -16.5q-1 -5 -3 -17t-3 -17h-2h-3v0z" />
    <glyph glyph-name="g" unicode="g" horiz-adv-x="541" 
d="M102 246q45 256 231 256q81 0 117.5 -70t16.5 -186q-19 -111 -80.5 -178.5t-142.5 -67.5q-186 0 -142 246zM348 433q-123 0 -156 -187q-31 -177 92 -177q53 0 93.5 49t53.5 128q15 84 -8 135.5t-75 51.5zM48 -60h90q-5 -32 26 -46.5t91 -14.5q111 0 133 121l86 487h83
l-79 -452q-40 -224 -227 -224q-107 0 -161 31t-42 98zM557 487h-83l1 5v0h41h42v-3l-1 -2v0z" />
    <glyph glyph-name="h" unicode="h" horiz-adv-x="518" 
d="M79 5l126 712h83l-125 -712h-84zM366 5l50 282q11 65 -7.5 99.5t-59.5 34.5q-51 0 -87.5 -31.5t-45.5 -83.5h-28q15 86 72 138.5t135 52.5q65 0 93.5 -54t10.5 -156l-49 -282h-84zM163 5v0q0 -1 -1 -2v-3h-42h-42q0 1 1 3v2v0h84zM288 717h-83v0v2v3h42h42v0q0 -1 -1 -5z
M450 5v0q0 -1 -1 -2v-3h-42h-42q0 1 1 3v2v0h84z" />
    <glyph glyph-name="i" unicode="i" horiz-adv-x="238" 
d="M86 5l85 482h84l-85 -482h-84zM186 572l15 84h83l-14 -84h-84zM170 5v0q0 -1 -1 -2v-3h-42h-42q0 1 1 3v2v0h84zM255 487h-84v0q0 1 1 2v3h42h42v0q0 -1 -1 -5z" />
    <glyph glyph-name="j" unicode="j" horiz-adv-x="220" 
d="M-28 -75h32q29 0 42 15.5t21 59.5l86 487h84l-86 -487q-15 -84 -43.5 -114t-93.5 -30h-54zM168 572l15 84h84l-15 -84h-84zM237 487h-84v0q0 1 1 2v3h42h42v0q0 -1 -1 -5z" />
    <glyph glyph-name="k" unicode="k" horiz-adv-x="480" 
d="M79 5l126 712h83l-125 -712h-84zM121 204l315 288h95l-337 -307zM377 0l-99 262l74 67l118 -329h-93zM163 5v0q0 -1 -1 -2v-3h-42h-42q0 1 1 3v2v0h84zM288 717h-83v0v2v3h42h42v0q0 -1 -1 -5zM468 5v0q1 0 1 -2l1 -3h-46h-47v0q0 1 -2 5h93zM525 487h-94v0q1 1 3 2l2 3
h47h48l-3 -3l-3 -2v0z" />
    <glyph glyph-name="l" unicode="l" horiz-adv-x="231" 
d="M79 5l126 712h83l-125 -712h-84zM163 5v0q0 -1 -1 -2v-3h-42h-42q0 1 1 3v2v0h84zM288 717h-83v0v2v3h42h42v0q0 -1 -1 -5z" />
    <glyph glyph-name="m" unicode="m" horiz-adv-x="758" 
d="M79 5l85 482h84l-85 -482h-84zM352 5l50 282q11 65 -5.5 99.5t-54.5 34.5q-48 0 -82.5 -31.5t-43.5 -83.5h-28q15 86 70 138.5t129 52.5q62 0 89 -54t9 -156l-49 -282h-84zM611 5l50 282q11 65 -4 99.5t-50 34.5q-44 0 -76.5 -31.5t-41.5 -83.5h-28q15 86 68 138.5
t123 52.5q60 0 85 -54t7 -156l-49 -282h-84zM163 5v0q0 -1 -1 -2v-3h-42h-42q0 1 1 3v2v0h84zM248 487h-84v0v2l1 3h42h41q2 0 0 0q1 0 0 -5zM436 5v0q0 -1 -1 -2v-3h-42h-42q0 1 1 3v2v0h84zM695 5v0q0 -1 -1 -2v-3h-42h-42q0 1 1 3v2v0h84z" />
    <glyph glyph-name="n" unicode="n" 
d="M79 5l85 482h84l-85 -482h-84zM366 5l50 282q11 65 -7.5 99.5t-59.5 34.5q-51 0 -87.5 -31.5t-45.5 -83.5h-28q15 86 72 138.5t135 52.5q65 0 93.5 -54t10.5 -156l-49 -282h-84zM163 5v0q0 -1 -1 -2v-3h-42h-42q0 1 1 3v2v0h84zM248 487h-84v0v2l1 3h42h41q2 0 0 0
q1 0 0 -5zM450 5v0q0 -1 -1 -2v-3h-42h-42q0 1 1 3v2v0h84z" />
    <glyph glyph-name="o" unicode="o" horiz-adv-x="536" 
d="M102 246q23 129 91 192.5t168 63.5q107 0 148.5 -68t19.5 -188q-23 -129 -91 -192.5t-168 -63.5q-107 0 -148.5 68t-19.5 188zM281 52q58 0 99.5 48.5t58.5 145.5q16 91 -5.5 142.5t-83.5 51.5q-58 0 -99.5 -48.5t-58.5 -145.5q-16 -91 5.5 -142.5t83.5 -51.5z" />
    <glyph glyph-name="p" unicode="p" horiz-adv-x="543" 
d="M52 -150l112 637h84l-113 -637h-83zM169 246q23 129 76 192.5t126 63.5q95 0 140.5 -70t25.5 -186t-90.5 -186t-165.5 -70q-73 0 -104 63.5t-8 192.5zM265 59q67 0 117 51.5t64 135.5q15 84 -16.5 135.5t-98.5 51.5q-44 0 -76.5 -46.5t-49.5 -140.5q-32 -187 60 -187z
M135 -150v0v-2q0 -3 -1 -3h-41h-42v3l1 2v0h83zM248 487h-84v0v2l1 3h42h41q2 0 0 0q1 0 0 -5z" />
    <glyph glyph-name="q" unicode="q" horiz-adv-x="541" 
d="M102 246q20 116 82 186t144 70q83 0 121 -70t18 -186q-20 -115 -83 -185.5t-146 -70.5q-82 0 -119.5 70.5t-16.5 185.5zM278 59q54 0 96 51.5t57 135.5t-9 135.5t-78 51.5q-53 0 -95 -51.5t-57 -135.5q-14 -84 9.5 -135.5t76.5 -51.5zM361 -150l113 637h83l-112 -637h-84
zM445 -150v0q-1 -1 -1 -2v-3h-42h-42q1 0 1 3v2v0h84zM557 487h-83l1 5v0h41h42v-3l-1 -2v0z" />
    <glyph glyph-name="r" unicode="r" horiz-adv-x="342" 
d="M79 5l85 482h84l-85 -482h-84zM393 402h-18q-141 0 -175 -186h-28q49 276 227 276h10zM163 5v0q0 -1 -1 -2v-3h-42h-42q0 1 1 3v2v0h84zM248 487h-84v0v2l1 3h42h41q2 0 0 0q1 0 0 -5z" />
    <glyph glyph-name="s" unicode="s" horiz-adv-x="468" 
d="M57 133l82 29q-8 -46 23.5 -74t92.5 -28q50 0 84.5 20.5t39.5 54.5q5 28 -22.5 47.5t-84.5 26.5q-80 9 -117 47t-27 94q11 66 68 106.5t138 40.5t123.5 -38.5t31.5 -101.5l-74 -31q9 49 -16.5 79t-75.5 30q-45 0 -76.5 -21.5t-37.5 -56.5q-5 -28 19.5 -48t76.5 -26
q87 -10 128 -47.5t31 -93.5q-12 -66 -72.5 -106.5t-147.5 -40.5q-95 0 -146.5 38t-40.5 100z" />
    <glyph glyph-name="t" unicode="t" horiz-adv-x="295" 
d="M209 653l96 69l-107 -608q-6 -26 -1 -35.5t29 -9.5h52l-12 -69h-88q-57 0 -68 25t4 89zM352 492l-11 -65h-256l12 65h255z" />
    <glyph glyph-name="u" unicode="u" horiz-adv-x="490" 
d="M159 487h84l-51 -287q-11 -65 3 -99.5t48 -34.5q58 0 86.5 27t37.5 79l-18 -102q-58 -80 -146 -80q-61 0 -87 54t-8 156zM338 5l85 482h83l-85 -482h-83zM243 487h-84v0v2l1 3h42h41q1 0 0 0q1 0 0 -5zM506 487h-83v0v2l1 3h42h41q1 0 0 0q1 0 -1 -5zM421 5v0q2 0 0 -2
v-3h-42h-42v0q0 1 1 5h83z" />
    <glyph glyph-name="v" unicode="v" horiz-adv-x="453" 
d="M105 492h95l56 -492h-72zM275 0h-73l234 492h94zM200 487h-94v0v2l-1 3h47h48v-3v-2v0zM528 487h-94v0q0 1 1 2l1 3h47h47l-1 -3l-1 -2v0z" />
    <glyph glyph-name="w" unicode="w" horiz-adv-x="690" 
d="M105 492h88l34 -492h-65zM245 0h-65l219 492h73zM399 492h73l46 -492h-65zM536 0h-65l207 492h89zM194 487h-89v0v2v3h44h44v-3l1 -2v0zM765 487h-89v0q0 1 1 2l1 3h45h44q-1 -1 -1 -3l-1 -2v0z" />
    <glyph glyph-name="x" unicode="x" horiz-adv-x="463" 
d="M98 492h102l258 -492h-101zM423 492h91l-432 -492h-90z" />
    <glyph glyph-name="y" unicode="y" horiz-adv-x="480" 
d="M10 -200l13 73h50q43 0 69.5 21t57.5 80l263 518h94l-297 -550q-44 -83 -85.5 -112.5t-114.5 -29.5h-50zM105 492h95l73 -401l-63 -124zM555 487h-95v0l2 2l1 3h47h47q1 0 -1 -3l-1 -2v0zM201 487h-95v0v2l-1 3h47h48v-3l1 -2v0z" />
    <glyph glyph-name="z" unicode="z" horiz-adv-x="432" 
d="M132 492h262h89l-9 -51l-336 -382l-108 -59l9 51l93 14h292l-12 -65h-292h-90l9 51l334 385l101 5l-91 -14h-263zM419 65v0h2h3q-5 -22 -6 -32q-1 -5 -3 -16.5t-3 -16.5v0h-5zM137 492l-12 -65v0h-2h-3q1 5 3 16t3 16t3 16.5t3 16.5v0h5z" />
    <glyph glyph-name="braceleft" unicode="{" horiz-adv-x="313" 
d="M410 722l-8 -47h-60q-17 0 -30 -14.5t-17 -37.5q-12 -66 -22 -122.5t-15 -84.5t-5 -27q-4 -29 -28 -53t-57 -34l-63 -18l7 39l56 -18q30 -10 45 -34t10 -53l-41 -234q-4 -23 4 -37.5t25 -14.5h60l-8 -47h-60q-42 0 -62.5 27t-13.5 72l44 244q4 25 -12 40.5t-45 15.5h-9
l7 39h9q29 0 50.5 15.5t25.5 40.5q17 98 43 244q8 45 38 72t72 27h60z" />
    <glyph glyph-name="bar" unicode="|" horiz-adv-x="144" 
d="M181 772h55l-181 -1022h-54z" />
    <glyph glyph-name="braceright" unicode="}" horiz-adv-x="313" 
d="M157 722l-8 -47h60q17 0 25 -14.5t4 -37.5q-4 -22 -8 -45t-7.5 -41.5t-6.5 -37t-5.5 -32.5t-4.5 -27t-4 -22t-3 -16t-1 -10l-1 -3q-5 -29 10 -53t45 -34l56 -18l7 39l-63 -18q-33 -10 -57 -34t-28 -53l-42 -234q-4 -23 -17 -37.5t-30 -14.5h-60l-8 -47h60q42 0 72.5 27
t37.5 72l43 244q4 25 25.5 40.5t50.5 15.5h9l7 39h-9q-29 0 -45 15.5t-12 40.5q1 0 44 244q7 45 -13.5 72t-61.5 27h-61z" />
    <glyph glyph-name="nobreakspace" unicode="&#xa0;" horiz-adv-x="189" 
 />
    <glyph glyph-name="exclamdown" unicode="&#xa1;" horiz-adv-x="188" 
d="M5 -227l53 299l75 221h25l-2 -221l-53 -299h-98zM119 401l16 91h91l-16 -91h-91z" />
    <glyph glyph-name="cent" unicode="&#xa2;" horiz-adv-x="483" 
d="M407 162l68 -36q-10 -61 -69 -98.5t-144 -37.5q-97 0 -140 63.5t-20 192.5t88.5 192.5t161.5 63.5q97 0 135.5 -40t26.5 -113l-79 -36q20 124 -94 124q-54 0 -93 -47.5t-56 -143.5q-16 -94 6 -140.5t76 -46.5q52 0 88.5 28.5t44.5 74.5zM346 592h55l-122 -692h-55z" />
    <glyph glyph-name="guillemotleft" unicode="&#xab;" horiz-adv-x="486" 
d="M276 445h72l-155 -199l85 -199h-72l-86 199zM429 445h72l-155 -199l85 -199h-72l-86 199z" />
    <glyph glyph-name="guillemotright" unicode="&#xbb;" horiz-adv-x="468" 
d="M151 445h73l85 -199l-155 -199h-73l155 199zM304 445h73l85 -199l-155 -199h-73l155 199z" />
    <glyph glyph-name="a_cap_grave" unicode="&#xc0;" horiz-adv-x="680" 
d="M20 0l404 722h104l142 -722h-105l-140 722h98l-398 -722h-105zM531 175h-309l41 75h253zM128 5v0l-2 -2l-1 -3h-53h-52q0 1 1 3q2 2 1 2q2 0 0 0h106zM669 5v0q0 -1 1 -2v-3h-52h-53v3l-1 2v0h105zM520 717h-99v0q0 1 1 2l2 3h49h50v0q0 -1 -3 -5zM452 802l-54 150h109
l22 -150h-77z" />
    <glyph glyph-name="a_cap_acute" unicode="&#xc1;" horiz-adv-x="680" 
d="M20 0l404 722h104l142 -722h-105l-140 722h98l-398 -722h-105zM531 175h-309l41 75h253zM128 5v0l-2 -2l-1 -3h-53h-52q0 1 1 3q2 2 1 2q2 0 0 0h106zM669 5v0q0 -1 1 -2v-3h-52h-53v3l-1 2v0h105zM520 717h-99v0q0 1 1 2l2 3h49h50v0q0 -1 -3 -5zM452 802l75 150h109
l-107 -150h-77z" />
    <glyph glyph-name="a_cap_circumflex" unicode="&#xc2;" horiz-adv-x="680" 
d="M20 0l404 722h104l142 -722h-105l-140 722h98l-398 -722h-105zM531 175h-309l41 75h253zM128 5v0l-2 -2l-1 -3h-53h-52q0 1 1 3q2 2 1 2q2 0 0 0h106zM669 5v0q0 -1 1 -2v-3h-52h-53v3l-1 2v0h105zM520 717h-99v0q0 1 1 2l2 3h49h50v0q0 -1 -3 -5zM505 887l-99 -85h-76
l145 150h84l92 -150h-76z" />
    <glyph glyph-name="a_cap_tilde" unicode="&#xc3;" horiz-adv-x="680" 
d="M20 0l404 722h104l142 -722h-105l-140 722h98l-398 -722h-105zM531 175h-309l41 75h253zM128 5v0l-2 -2l-1 -3h-53h-52q0 1 1 3q2 2 1 2q2 0 0 0h106zM669 5v0q0 -1 1 -2v-3h-52h-53v3l-1 2v0h105zM520 717h-99v0q0 1 1 2l2 3h49h50v0q0 -1 -3 -5zM460 935q18 0 30.5 -12
t17.5 -27t15 -27t25 -12l-6 -65q-18 0 -30 12t-17.5 27t-15.5 27t-24 12zM422 802h-62q10 60 37.5 96.5t62.5 36.5l-5 -65q-21 0 -33 -68zM542 792l6 65q21 0 33 68h62q-11 -60 -38.5 -96.5t-62.5 -36.5z" />
    <glyph glyph-name="a_cap_dieresis" unicode="&#xc4;" horiz-adv-x="680" 
d="M20 0l404 722h104l142 -722h-105l-140 722h98l-398 -722h-105zM531 175h-309l41 75h253zM128 5v0l-2 -2l-1 -3h-53h-52q0 1 1 3q2 2 1 2q2 0 0 0h106zM669 5v0q0 -1 1 -2v-3h-52h-53v3l-1 2v0h105zM520 717h-99v0q0 1 1 2l2 3h49h50v0q0 -1 -3 -5zM372 802l16 91h91
l-16 -91h-91zM518 802l16 91h91l-17 -91h-90z" />
    <glyph glyph-name="a_cap_ring" unicode="&#xc5;" horiz-adv-x="680" 
d="M20 0l404 722h104l142 -722h-105l-140 722h98l-398 -722h-105zM531 175h-309l41 75h253zM128 5v0l-2 -2l-1 -3h-53h-52q0 1 1 3q2 2 1 2q2 0 0 0h106zM669 5v0q0 -1 1 -2v-3h-52h-53v3l-1 2v0h105zM520 717h-99v0q0 1 1 2l2 3h49h50v0q0 -1 -3 -5zM422 887q7 40 33 62.5
t65 22.5q40 0 58 -22t11 -63q-15 -85 -99 -85q-83 0 -68 85zM497 841q42 0 50 46q4 22 -4.5 34t-28.5 12q-43 0 -51 -46t34 -46z" />
    <glyph glyph-name="c_cap_cedilla" unicode="&#xc7;" horiz-adv-x="703" 
d="M650 218l62 -60q-13 -76 -102.5 -122t-222.5 -46q-144 0 -217.5 108.5t-46.5 262.5q28 154 139 262.5t256 108.5q126 0 199 -46t66 -122l-82 -60q6 67 -48.5 107.5t-149.5 40.5q-98 0 -175.5 -85t-98.5 -206q-22 -121 26 -206t146 -85q101 0 169.5 40.5t79.5 107.5z
M361 22h29l-62 -138l7 29q12 27 38 27q33 0 48.5 -24t8.5 -64t-33 -64t-62 -24q-26 0 -42.5 14t-18.5 37l37 25q2 -16 10 -26t19 -10q16 0 27.5 13t15.5 35t-3 35t-21 13q-25 0 -31 -16l-23 15z" />
    <glyph glyph-name="e_cap_grave" unicode="&#xc8;" horiz-adv-x="582" 
d="M95 5l126 712h98l-126 -712h-98zM320 722h327l-14 -80h-327zM265 411h310l-14 -77h-309zM193 0l14 80h340l-14 -80h-340zM193 5v-5v0h-49h-50q0 1 1 3v2v0h98zM319 717h-98v0v2q0 3 1 3h49h49v0q0 -1 -1 -5zM570 411v0h2h3q-1 -7 -4 -21.5t-3 -16.5q-1 -6 -3.5 -19.5
t-3.5 -19.5h-2h-3v0zM642 722h5v0q-1 -6 -3.5 -20t-3.5 -20t-3.5 -20t-3.5 -20h-3h-2v0zM542 80v0h2h3q-1 -6 -3.5 -20t-3.5 -20t-3.5 -20t-3.5 -20v0h-5zM410 802l-54 150h109l22 -150h-77z" />
    <glyph glyph-name="e_cap_acute" unicode="&#xc9;" horiz-adv-x="582" 
d="M95 5l126 712h98l-126 -712h-98zM320 722h327l-14 -80h-327zM265 411h310l-14 -77h-309zM193 0l14 80h340l-14 -80h-340zM193 5v-5v0h-49h-50q0 1 1 3v2v0h98zM319 717h-98v0v2q0 3 1 3h49h49v0q0 -1 -1 -5zM570 411v0h2h3q-1 -7 -4 -21.5t-3 -16.5q-1 -6 -3.5 -19.5
t-3.5 -19.5h-2h-3v0zM642 722h5v0q-1 -6 -3.5 -20t-3.5 -20t-3.5 -20t-3.5 -20h-3h-2v0zM542 80v0h2h3q-1 -6 -3.5 -20t-3.5 -20t-3.5 -20t-3.5 -20v0h-5zM410 802l75 150h109l-107 -150h-77z" />
    <glyph glyph-name="e_cap_circumflex" unicode="&#xca;" horiz-adv-x="582" 
d="M95 5l126 712h98l-126 -712h-98zM320 722h327l-14 -80h-327zM265 411h310l-14 -77h-309zM193 0l14 80h340l-14 -80h-340zM193 5v-5v0h-49h-50q0 1 1 3v2v0h98zM319 717h-98v0v2q0 3 1 3h49h49v0q0 -1 -1 -5zM570 411v0h2h3q-1 -7 -4 -21.5t-3 -16.5q-1 -6 -3.5 -19.5
t-3.5 -19.5h-2h-3v0zM642 722h5v0q-1 -6 -3.5 -20t-3.5 -20t-3.5 -20t-3.5 -20h-3h-2v0zM542 80v0h2h3q-1 -6 -3.5 -20t-3.5 -20t-3.5 -20t-3.5 -20v0h-5zM463 887l-99 -85h-76l145 150h84l92 -150h-76z" />
    <glyph glyph-name="e_cap_dieresis" unicode="&#xcb;" horiz-adv-x="582" 
d="M95 5l126 712h98l-126 -712h-98zM320 722h327l-14 -80h-327zM265 411h310l-14 -77h-309zM193 0l14 80h340l-14 -80h-340zM193 5v-5v0h-49h-50q0 1 1 3v2v0h98zM319 717h-98v0v2q0 3 1 3h49h49v0q0 -1 -1 -5zM570 411v0h2h3q-1 -7 -4 -21.5t-3 -16.5q-1 -6 -3.5 -19.5
t-3.5 -19.5h-2h-3v0zM642 722h5v0q-1 -6 -3.5 -20t-3.5 -20t-3.5 -20t-3.5 -20h-3h-2v0zM542 80v0h2h3q-1 -6 -3.5 -20t-3.5 -20t-3.5 -20t-3.5 -20v0h-5zM330 802l16 91h91l-16 -91h-91zM476 802l16 91h91l-16 -91h-91z" />
    <glyph glyph-name="i_cap_grave" unicode="&#xcc;" horiz-adv-x="267" 
d="M86 5l125 712h98l-125 -712h-98zM184 5v0q0 -1 -1 -2v-3h-49h-49v3l1 2v0h98zM309 717h-98v0q0 1 1 2v3h49h49v-3l-1 -2v0zM237 802l-54 150h109l21 -150h-76z" />
    <glyph glyph-name="i_cap_acute" unicode="&#xcd;" horiz-adv-x="267" 
d="M86 5l125 712h98l-125 -712h-98zM184 5v0q0 -1 -1 -2v-3h-49h-49v3l1 2v0h98zM309 717h-98v0q0 1 1 2v3h49h49v-3l-1 -2v0zM237 802l75 150h109l-108 -150h-76z" />
    <glyph glyph-name="i_cap_circumflex" unicode="&#xce;" horiz-adv-x="267" 
d="M86 5l125 712h98l-125 -712h-98zM184 5v0q0 -1 -1 -2v-3h-49h-49v3l1 2v0h98zM309 717h-98v0q0 1 1 2v3h49h49v-3l-1 -2v0zM290 887l-100 -85h-76l145 150h85l92 -150h-76z" />
    <glyph glyph-name="i_cap_dieresis" unicode="&#xcf;" horiz-adv-x="267" 
d="M86 5l125 712h98l-125 -712h-98zM184 5v0q0 -1 -1 -2v-3h-49h-49v3l1 2v0h98zM309 717h-98v0q0 1 1 2v3h49h49v-3l-1 -2v0zM157 802l16 91h91l-16 -91h-91zM302 802l16 91h91l-16 -91h-91z" />
    <glyph glyph-name="n_cap_tilde" unicode="&#xd1;" horiz-adv-x="679" 
d="M221 717h98l-126 -712h-98zM222 722h106l238 -722h-106zM623 717h98l-126 -717h-98zM193 5v0q2 0 0 -2v-3h-49h-50q0 1 1 3v2v0h98zM319 717h-98v0v2q0 3 1 3h49h49v0q0 -1 -1 -5zM721 717h-98v0v2l1 3h49h49q0 -1 -1 -3v-2v0zM456 935q18 0 30 -12t17.5 -27t15.5 -27
t24 -12l-5 -65q-18 0 -30 12t-17.5 27t-16 27t-24.5 12zM417 802h-62q10 60 38 96.5t63 36.5l-6 -65q-20 0 -33 -68zM538 792l5 65q21 0 33 68h62q-10 -60 -37.5 -96.5t-62.5 -36.5z" />
    <glyph glyph-name="o_cap_grave" unicode="&#xd2;" horiz-adv-x="799" 
d="M128 361q29 158 144.5 264.5t260.5 106.5t224 -106.5t51 -264.5q-30 -167 -141.5 -269t-263.5 -102q-153 0 -228.5 102t-46.5 269zM417 70q105 0 184 80t101 211q22 124 -30 207.5t-153 83.5q-100 0 -181.5 -83.5t-103.5 -207.5q-23 -131 27 -211t156 -80zM508 802
l-55 150h109l22 -150h-76z" />
    <glyph glyph-name="o_cap_acute" unicode="&#xd3;" horiz-adv-x="799" 
d="M128 361q29 158 144.5 264.5t260.5 106.5t224 -106.5t51 -264.5q-30 -167 -141.5 -269t-263.5 -102q-153 0 -228.5 102t-46.5 269zM417 70q105 0 184 80t101 211q22 124 -30 207.5t-153 83.5q-100 0 -181.5 -83.5t-103.5 -207.5q-23 -131 27 -211t156 -80zM508 802
l74 150h109l-107 -150h-76z" />
    <glyph glyph-name="o_cap_circumflex" unicode="&#xd4;" horiz-adv-x="799" 
d="M128 361q29 158 144.5 264.5t260.5 106.5t224 -106.5t51 -264.5q-30 -167 -141.5 -269t-263.5 -102q-153 0 -228.5 102t-46.5 269zM417 70q105 0 184 80t101 211q22 124 -30 207.5t-153 83.5q-100 0 -181.5 -83.5t-103.5 -207.5q-23 -131 27 -211t156 -80zM561 887
l-100 -85h-76l145 150h84l93 -150h-77z" />
    <glyph glyph-name="o_cap_tilde" unicode="&#xd5;" horiz-adv-x="799" 
d="M128 361q29 158 144.5 264.5t260.5 106.5t224 -106.5t51 -264.5q-30 -167 -141.5 -269t-263.5 -102q-153 0 -228.5 102t-46.5 269zM417 70q105 0 184 80t101 211q22 124 -30 207.5t-153 83.5q-100 0 -181.5 -83.5t-103.5 -207.5q-23 -131 27 -211t156 -80zM516 935
q18 0 30 -12t17.5 -27t15.5 -27t24 -12l-6 -65q-18 0 -30 12t-17.5 27t-15.5 27t-24 12zM477 802h-62q10 60 38 96.5t63 36.5l-6 -65q-21 0 -33 -68zM597 792l6 65q21 0 33 68h62q-11 -60 -38.5 -96.5t-62.5 -36.5z" />
    <glyph glyph-name="o_cap_dieresis" unicode="&#xd6;" horiz-adv-x="799" 
d="M128 361q29 158 144.5 264.5t260.5 106.5t224 -106.5t51 -264.5q-30 -167 -141.5 -269t-263.5 -102q-153 0 -228.5 102t-46.5 269zM417 70q105 0 184 80t101 211q22 124 -30 207.5t-153 83.5q-100 0 -181.5 -83.5t-103.5 -207.5q-23 -131 27 -211t156 -80zM428 802l16 91
h91l-17 -91h-90zM573 802l16 91h91l-16 -91h-91z" />
    <glyph glyph-name="O_cap_slash" unicode="&#xd8;" horiz-adv-x="799" 
d="M128 361q29 158 144.5 264.5t260.5 106.5t224 -106.5t51 -264.5q-30 -167 -141.5 -269t-263.5 -102q-153 0 -228.5 102t-46.5 269zM417 70q105 0 184 80t101 211q22 124 -30 207.5t-153 83.5q-100 0 -181.5 -83.5t-103.5 -207.5q-23 -131 27 -211t156 -80zM63 -10
l756 742h54l-756 -742h-54z" />
    <glyph glyph-name="u_cap_grave" unicode="&#xd9;" horiz-adv-x="694" 
d="M214 717h98l-74 -420q-38 -216 127 -216t203 216l74 420h99l-78 -437q-50 -290 -314 -290q-263 0 -212 290zM312 717h-98v0v2q0 3 1 3h49h49q0 -1 -1 -3v-2v0zM741 717h-99v0q1 1 1 2v3h49h49v-3v-2q-1 0 0 0zM452 792l-54 150h109l22 -150h-77z" />
    <glyph glyph-name="u_cap_acute" unicode="&#xda;" horiz-adv-x="694" 
d="M214 717h98l-74 -420q-38 -216 127 -216t203 216l74 420h99l-78 -437q-50 -290 -314 -290q-263 0 -212 290zM312 717h-98v0v2q0 3 1 3h49h49q0 -1 -1 -3v-2v0zM741 717h-99v0q1 1 1 2v3h49h49v-3v-2q-1 0 0 0zM452 792l75 150h109l-107 -150h-77z" />
    <glyph glyph-name="u_cap_circumflex" unicode="&#xdb;" horiz-adv-x="694" 
d="M214 717h98l-74 -420q-38 -216 127 -216t203 216l74 420h99l-78 -437q-50 -290 -314 -290q-263 0 -212 290zM312 717h-98v0v2q0 3 1 3h49h49q0 -1 -1 -3v-2v0zM741 717h-99v0q1 1 1 2v3h49h49v-3v-2q-1 0 0 0zM505 877l-99 -85h-76l145 150h84l92 -150h-76z" />
    <glyph glyph-name="u_cap_dieresis" unicode="&#xdc;" horiz-adv-x="694" 
d="M214 717h98l-74 -420q-38 -216 127 -216t203 216l74 420h99l-78 -437q-50 -290 -314 -290q-263 0 -212 290zM312 717h-98v0v2q0 3 1 3h49h49q0 -1 -1 -3v-2v0zM741 717h-99v0q1 1 1 2v3h49h49v-3v-2q-1 0 0 0zM372 792l16 91h91l-16 -91h-91zM518 792l16 91h91l-16 -91
h-91z" />
    <glyph glyph-name="y_cap_acute" unicode="&#xdd;" horiz-adv-x="543" 
d="M146 722h109l106 -292l-71 -99zM551 722h110l-282 -391l-36 99zM303 430h98l-75 -425h-98zM326 5v0v-2l-1 -3h-49h-49v3l1 2v0h98zM257 717h-109v0q-1 1 -1 2l-1 3h55h54q1 -1 1 -3l1 -2v0zM657 717h-109v0q0 1 1 2l2 3h55h55q-1 -1 -2 -3l-2 -2v0zM379 802l75 150h109
l-107 -150h-77z" />
    <glyph glyph-name="a_grave" unicode="&#xe0;" 
d="M62 360q0 64 51.5 103t136.5 39q189 0 189 -175v-250q0 -11 6.5 -13t38.5 -2v-62q-93 0 -111 10.5t-18 66.5v285q0 71 -105 71q-50 0 -81 -27t-31 -71zM381 190q0 -111 -45.5 -155.5t-132.5 -44.5q-155 0 -155 131q0 50 41 88t108 49q77 13 117.5 37t40.5 67l42 -17
q0 -63 -38.5 -95t-111.5 -45q-52 -9 -83.5 -31t-31.5 -50q0 -76 97 -76q62 0 94.5 31.5t32.5 110.5h25zM212 572l-81 150h109l49 -150h-77z" />
    <glyph glyph-name="a_acute" unicode="&#xe1;" 
d="M62 360q0 64 51.5 103t136.5 39q189 0 189 -175v-250q0 -11 6.5 -13t38.5 -2v-62q-93 0 -111 10.5t-18 66.5v285q0 71 -105 71q-50 0 -81 -27t-31 -71zM381 190q0 -111 -45.5 -155.5t-132.5 -44.5q-155 0 -155 131q0 50 41 88t108 49q77 13 117.5 37t40.5 67l42 -17
q0 -63 -38.5 -95t-111.5 -45q-52 -9 -83.5 -31t-31.5 -50q0 -76 97 -76q62 0 94.5 31.5t32.5 110.5h25zM212 572l48 150h109l-80 -150h-77z" />
    <glyph glyph-name="a_circumflex" unicode="&#xe2;" 
d="M62 360q0 64 51.5 103t136.5 39q189 0 189 -175v-250q0 -11 6.5 -13t38.5 -2v-62q-93 0 -111 10.5t-18 66.5v285q0 71 -105 71q-50 0 -81 -27t-31 -71zM381 190q0 -111 -45.5 -155.5t-132.5 -44.5q-155 0 -155 131q0 50 41 88t108 49q77 13 117.5 37t40.5 67l42 -17
q0 -63 -38.5 -95t-111.5 -45q-52 -9 -83.5 -31t-31.5 -50q0 -76 97 -76q62 0 94.5 31.5t32.5 110.5h25zM250 657l-84 -85h-76l118 150h85l118 -150h-76z" />
    <glyph glyph-name="a_alt_tilde" unicode="&#xe3;" horiz-adv-x="519" 
d="M58 246q0 115 46.5 185.5t123.5 70.5q79 0 127 -70.5t48 -185.5t-48 -185.5t-127 -70.5q-77 0 -123.5 70.5t-46.5 185.5zM255 59q50 0 80.5 51.5t30.5 135.5t-30.5 135.5t-80.5 51.5q-47 0 -76.5 -51.5t-29.5 -135.5t29.5 -135.5t76.5 -51.5zM366 0v492h84v-492h-84z
M201 705q22 0 38.5 -19.5t30.5 -39t32 -19.5l5 -65q-18 0 -32 12t-22 27t-20 27t-27 12zM185 572h-61q0 60 21 96.5t56 36.5l5 -65q-21 0 -21 -68zM307 562l-5 65q21 0 21 68h62q0 -60 -21.5 -96.5t-56.5 -36.5z" />
    <glyph glyph-name="a_dieresis" unicode="&#xe4;" 
d="M62 360q0 64 51.5 103t136.5 39q189 0 189 -175v-250q0 -11 6.5 -13t38.5 -2v-62q-93 0 -111 10.5t-18 66.5v285q0 71 -105 71q-50 0 -81 -27t-31 -71zM381 190q0 -111 -45.5 -155.5t-132.5 -44.5q-155 0 -155 131q0 50 41 88t108 49q77 13 117.5 37t40.5 67l42 -17
q0 -63 -38.5 -95t-111.5 -45q-52 -9 -83.5 -31t-31.5 -50q0 -76 97 -76q62 0 94.5 31.5t32.5 110.5h25zM112 572v91h91v-91h-91zM298 572v91h91v-91h-91z" />
    <glyph glyph-name="a_ring" unicode="&#xe5;" 
d="M62 360q0 64 51.5 103t136.5 39q189 0 189 -175v-250q0 -11 6.5 -13t38.5 -2v-62q-93 0 -111 10.5t-18 66.5v285q0 71 -105 71q-50 0 -81 -27t-31 -71zM381 190q0 -111 -45.5 -155.5t-132.5 -44.5q-155 0 -155 131q0 50 41 88t108 49q77 13 117.5 37t40.5 67l42 -17
q0 -63 -38.5 -95t-111.5 -45q-52 -9 -83.5 -31t-31.5 -50q0 -76 97 -76q62 0 94.5 31.5t32.5 110.5h25zM167 657q0 40 22 62.5t61 22.5q40 0 62 -22.5t22 -62.5q0 -85 -84 -85q-83 0 -83 85zM250 611q43 0 43 46t-43 46q-20 0 -31 -12t-11 -34q0 -46 42 -46z" />
    <glyph glyph-name="c_cedilla" unicode="&#xe7;" horiz-adv-x="483" 
d="M378 162l75 -36q0 -61 -52 -98.5t-137 -37.5q-97 0 -151.5 63.5t-54.5 192.5t54.5 192.5t151.5 63.5q187 0 189 -153l-73 -36q-2 124 -116 124q-54 0 -84.5 -47.5t-30.5 -143.5q0 -94 30.5 -140.5t84.5 -46.5q51 0 82.5 28.5t31.5 74.5zM241 18h29l-38 -134l2 29
q8 27 34 27q32 0 52 -24t20 -64t-22 -64t-57 -24q-26 0 -45 14t-25 37l32 25q5 -16 14.5 -26t21.5 -10q15 0 24.5 13t9.5 35t-9 35t-23 13q-24 0 -29 -16l-25 15z" />
    <glyph glyph-name="e_grave" unicode="&#xe8;" horiz-adv-x="489" 
d="M409 157l73 -29q-10 -62 -72 -100t-153 -38q-94 0 -136 64t-19 192q23 129 88.5 192.5t162.5 63.5q207 0 160 -265h-83h-239l10 58h239l-10 -58q35 200 -88 200q-54 0 -93.5 -47.5t-56.5 -143.5q-16 -94 5 -140.5t72 -46.5q56 0 94.5 27t45.5 71zM328 572l-55 150h109
l22 -150h-76z" />
    <glyph glyph-name="e_acute" unicode="&#xe9;" horiz-adv-x="489" 
d="M409 157l73 -29q-10 -62 -72 -100t-153 -38q-94 0 -136 64t-19 192q23 129 88.5 192.5t162.5 63.5q207 0 160 -265h-83h-239l10 58h239l-10 -58q35 200 -88 200q-54 0 -93.5 -47.5t-56.5 -143.5q-16 -94 5 -140.5t72 -46.5q56 0 94.5 27t45.5 71zM328 572l74 150h109
l-107 -150h-76z" />
    <glyph glyph-name="e_circumflex" unicode="&#xea;" horiz-adv-x="489" 
d="M409 157l73 -29q-10 -62 -72 -100t-153 -38q-94 0 -136 64t-19 192q23 129 88.5 192.5t162.5 63.5q207 0 160 -265h-83h-239l10 58h239l-10 -58q35 200 -88 200q-54 0 -93.5 -47.5t-56.5 -143.5q-16 -94 5 -140.5t72 -46.5q56 0 94.5 27t45.5 71zM381 657l-100 -85h-76
l145 150h84l93 -150h-77z" />
    <glyph glyph-name="e_dieresis" unicode="&#xeb;" horiz-adv-x="489" 
d="M409 157l73 -29q-10 -62 -72 -100t-153 -38q-94 0 -136 64t-19 192q23 129 88.5 192.5t162.5 63.5q207 0 160 -265h-83h-239l10 58h239l-10 -58q35 200 -88 200q-54 0 -93.5 -47.5t-56.5 -143.5q-16 -94 5 -140.5t72 -46.5q56 0 94.5 27t45.5 71zM248 572l16 91h90
l-16 -91h-90zM393 572l16 91h91l-16 -91h-91z" />
    <glyph glyph-name="i_grave" unicode="&#xec;" horiz-adv-x="238" 
d="M85 5v482h84v-482h-84zM89 572l-81 150h109l48 -150h-76zM169 5v0v-2v-3h-42h-42v3v2v0h84zM169 487h-84v0v2v3h42h42v0v-5z" />
    <glyph glyph-name="i_acute" unicode="&#xed;" horiz-adv-x="238" 
d="M85 5v482h84v-482h-84zM89 572l48 150h109l-81 -150h-76zM169 5v0v-2v-3h-42h-42v3v2v0h84zM169 487h-84v0v2v3h42h42v0v-5z" />
    <glyph glyph-name="i_circumflex" unicode="&#xee;" horiz-adv-x="238" 
d="M85 5v482h84v-482h-84zM127 657l-85 -85h-76l119 150h84l119 -150h-76zM169 5v0v-2v-3h-42h-42v3v2v0h84zM169 487h-84v0v2v3h42h42v0v-5z" />
    <glyph glyph-name="i_dieresis" unicode="&#xef;" horiz-adv-x="238" 
d="M85 5v482h84v-482h-84zM-11 572v91h91v-91h-91zM175 572v91h90v-91h-90zM169 5v0v-2v-3h-42h-42v3v2v0h84zM169 487h-84v0v2v3h42h42v0v-5z" />
    <glyph glyph-name="n_tilde" unicode="&#xf1;" 
d="M79 5l85 482h84l-85 -482h-84zM366 5l50 282q11 65 -7.5 99.5t-59.5 34.5q-51 0 -87.5 -31.5t-45.5 -83.5h-28q15 86 72 138.5t135 52.5q65 0 93.5 -54t10.5 -156l-49 -282h-84zM163 5v0q0 -1 -1 -2v-3h-42h-42q0 1 1 3v2v0h84zM248 487h-84v0v2l1 3h42h41q2 0 0 0
q1 0 0 -5zM450 5v0q0 -1 -1 -2v-3h-42h-42q0 1 1 3v2v0h84zM293 705q18 0 30 -12t17.5 -27t15.5 -27t24 -12l-6 -65q-18 0 -30 12t-17.5 27t-15.5 27t-24 12zM254 572h-62q11 60 38.5 96.5t62.5 36.5l-6 -65q-21 0 -33 -68zM374 562l6 65q21 0 33 68h62q-10 -60 -38 -96.5
t-63 -36.5z" />
    <glyph glyph-name="o_grave" unicode="&#xf2;" horiz-adv-x="536" 
d="M102 246q23 129 91 192.5t168 63.5q107 0 148.5 -68t19.5 -188q-23 -129 -91 -192.5t-168 -63.5q-107 0 -148.5 68t-19.5 188zM281 52q58 0 99.5 48.5t58.5 145.5q16 91 -5.5 142.5t-83.5 51.5q-58 0 -99.5 -48.5t-58.5 -145.5q-16 -91 5.5 -142.5t83.5 -51.5zM335 572
l-54 150h109l21 -150h-76z" />
    <glyph glyph-name="o_acute" unicode="&#xf3;" horiz-adv-x="536" 
d="M102 246q23 129 91 192.5t168 63.5q107 0 148.5 -68t19.5 -188q-23 -129 -91 -192.5t-168 -63.5q-107 0 -148.5 68t-19.5 188zM281 52q58 0 99.5 48.5t58.5 145.5q16 91 -5.5 142.5t-83.5 51.5q-58 0 -99.5 -48.5t-58.5 -145.5q-16 -91 5.5 -142.5t83.5 -51.5zM335 572
l75 150h109l-108 -150h-76z" />
    <glyph glyph-name="o_circumflex" unicode="&#xf4;" horiz-adv-x="536" 
d="M102 246q23 129 91 192.5t168 63.5q107 0 148.5 -68t19.5 -188q-23 -129 -91 -192.5t-168 -63.5q-107 0 -148.5 68t-19.5 188zM281 52q58 0 99.5 48.5t58.5 145.5q16 91 -5.5 142.5t-83.5 51.5q-58 0 -99.5 -48.5t-58.5 -145.5q-16 -91 5.5 -142.5t83.5 -51.5zM388 657
l-100 -85h-76l145 150h85l92 -150h-76z" />
    <glyph glyph-name="o_tilde" unicode="&#xf5;" horiz-adv-x="536" 
d="M102 246q23 129 91 192.5t168 63.5q107 0 148.5 -68t19.5 -188q-23 -129 -91 -192.5t-168 -63.5q-107 0 -148.5 68t-19.5 188zM281 52q58 0 99.5 48.5t58.5 145.5q16 91 -5.5 142.5t-83.5 51.5q-58 0 -99.5 -48.5t-58.5 -145.5q-16 -91 5.5 -142.5t83.5 -51.5zM343 705
q18 0 30 -12t17.5 -27t15.5 -27t24 -12l-5 -65q-18 0 -30 12t-17.5 27t-15.5 27t-25 12zM304 572h-61q10 60 37.5 96.5t62.5 36.5l-6 -65q-21 0 -33 -68zM425 562l5 65q21 0 33 68h62q-10 -60 -37.5 -96.5t-62.5 -36.5z" />
    <glyph glyph-name="o_dieresis" unicode="&#xf6;" horiz-adv-x="536" 
d="M102 246q23 129 91 192.5t168 63.5q107 0 148.5 -68t19.5 -188q-23 -129 -91 -192.5t-168 -63.5q-107 0 -148.5 68t-19.5 188zM281 52q58 0 99.5 48.5t58.5 145.5q16 91 -5.5 142.5t-83.5 51.5q-58 0 -99.5 -48.5t-58.5 -145.5q-16 -91 5.5 -142.5t83.5 -51.5zM255 572
l16 91h91l-16 -91h-91zM400 572l16 91h91l-16 -91h-91z" />
    <glyph glyph-name="o_slash" unicode="&#xf8;" horiz-adv-x="536" 
d="M102 246q23 129 91 192.5t168 63.5q107 0 148.5 -68t19.5 -188q-23 -129 -91 -192.5t-168 -63.5q-107 0 -148.5 68t-19.5 188zM281 52q58 0 99.5 48.5t58.5 145.5q16 91 -5.5 142.5t-83.5 51.5q-58 0 -99.5 -48.5t-58.5 -145.5q-16 -91 5.5 -142.5t83.5 -51.5zM57 -10
l481 512h37l-482 -512h-36z" />
    <glyph glyph-name="u_grave" unicode="&#xf9;" horiz-adv-x="490" 
d="M159 487h84l-51 -287q-11 -65 3 -99.5t48 -34.5q58 0 86.5 27t37.5 79l-18 -102q-58 -80 -146 -80q-61 0 -87 54t-8 156zM338 5l85 482h83l-85 -482h-83zM243 487h-84v0v2l1 3h42h41q1 0 0 0q1 0 0 -5zM506 487h-83v0v2l1 3h42h41q1 0 0 0q1 0 -1 -5zM421 5v0q2 0 0 -2
v-3h-42h-42v0q0 1 1 5h83zM310 572l-55 150h109l22 -150h-76z" />
    <glyph glyph-name="u_acute" unicode="&#xfa;" horiz-adv-x="490" 
d="M159 487h84l-51 -287q-11 -65 3 -99.5t48 -34.5q58 0 86.5 27t37.5 79l-18 -102q-58 -80 -146 -80q-61 0 -87 54t-8 156zM338 5l85 482h83l-85 -482h-83zM243 487h-84v0v2l1 3h42h41q1 0 0 0q1 0 0 -5zM506 487h-83v0v2l1 3h42h41q1 0 0 0q1 0 -1 -5zM421 5v0q2 0 0 -2
v-3h-42h-42v0q0 1 1 5h83zM310 572l74 150h109l-107 -150h-76z" />
    <glyph glyph-name="u_circumflex" unicode="&#xfb;" horiz-adv-x="490" 
d="M159 487h84l-51 -287q-11 -65 3 -99.5t48 -34.5q58 0 86.5 27t37.5 79l-18 -102q-58 -80 -146 -80q-61 0 -87 54t-8 156zM338 5l85 482h83l-85 -482h-83zM243 487h-84v0v2l1 3h42h41q1 0 0 0q1 0 0 -5zM506 487h-83v0v2l1 3h42h41q1 0 0 0q1 0 -1 -5zM421 5v0q2 0 0 -2
v-3h-42h-42v0q0 1 1 5h83zM363 657l-100 -85h-76l145 150h84l93 -150h-77z" />
    <glyph glyph-name="u_dieresis" unicode="&#xfc;" horiz-adv-x="490" 
d="M159 487h84l-51 -287q-11 -65 3 -99.5t48 -34.5q58 0 86.5 27t37.5 79l-18 -102q-58 -80 -146 -80q-61 0 -87 54t-8 156zM338 5l85 482h83l-85 -482h-83zM243 487h-84v0v2l1 3h42h41q1 0 0 0q1 0 0 -5zM506 487h-83v0v2l1 3h42h41q1 0 0 0q1 0 -1 -5zM421 5v0q2 0 0 -2
v-3h-42h-42v0q0 1 1 5h83zM230 572l16 91h90l-16 -91h-90zM375 572l16 91h91l-16 -91h-91z" />
    <glyph glyph-name="y_dieresis" unicode="&#xff;" horiz-adv-x="480" 
d="M10 -200l13 73h50q43 0 69.5 21t57.5 80l263 518h94l-297 -550q-44 -83 -85.5 -112.5t-114.5 -29.5h-50zM105 492h95l73 -401l-63 -124zM555 487h-95v0l2 2l1 3h47h47q1 0 -1 -3l-1 -2v0zM201 487h-95v0v2l-1 3h47h48v-3l1 -2v0zM227 572l16 91h91l-16 -91h-91zM373 572
l16 91h90l-16 -91h-90z" />
    <glyph glyph-name="a_cap_macron" unicode="&#x100;" horiz-adv-x="680" 
d="M20 0l404 722h104l142 -722h-105l-140 722h98l-398 -722h-105zM531 175h-309l41 75h253zM128 5v0l-2 -2l-1 -3h-53h-52q0 1 1 3q2 2 1 2q2 0 0 0h106zM669 5v0q0 -1 1 -2v-3h-52h-53v3l-1 2v0h105zM520 717h-99v0q0 1 1 2l2 3h49h50v0q0 -1 -3 -5zM370 802l10 58h241
l-10 -58h-241z" />
    <glyph glyph-name="a_macron" unicode="&#x101;" 
d="M62 360q0 64 51.5 103t136.5 39q189 0 189 -175v-250q0 -11 6.5 -13t38.5 -2v-62q-93 0 -111 10.5t-18 66.5v285q0 71 -105 71q-50 0 -81 -27t-31 -71zM381 190q0 -111 -45.5 -155.5t-132.5 -44.5q-155 0 -155 131q0 50 41 88t108 49q77 13 117.5 37t40.5 67l42 -17
q0 -63 -38.5 -95t-111.5 -45q-52 -9 -83.5 -31t-31.5 -50q0 -76 97 -76q62 0 94.5 31.5t32.5 110.5h25zM130 572v58h241v-58h-241z" />
    <glyph glyph-name="a_cap_breve" unicode="&#x102;" horiz-adv-x="680" 
d="M20 0l404 722h104l142 -722h-105l-140 722h98l-398 -722h-105zM531 175h-309l41 75h253zM128 5v0l-2 -2l-1 -3h-53h-52q0 1 1 3q2 2 1 2q2 0 0 0h106zM669 5v0q0 -1 1 -2v-3h-52h-53v3l-1 2v0h105zM520 717h-99v0q0 1 1 2l2 3h49h50v0q0 -1 -3 -5zM385 927h62
q-6 -34 8.5 -55.5t43.5 -21.5t51 21.5t28 55.5h62q-11 -61 -52.5 -98t-98.5 -37q-58 0 -86.5 37t-17.5 98z" />
    <glyph glyph-name="a_breve" unicode="&#x103;" 
d="M62 360q0 64 51.5 103t136.5 39q189 0 189 -175v-250q0 -11 6.5 -13t38.5 -2v-62q-93 0 -111 10.5t-18 66.5v285q0 71 -105 71q-50 0 -81 -27t-31 -71zM381 190q0 -111 -45.5 -155.5t-132.5 -44.5q-155 0 -155 131q0 50 41 88t108 49q77 13 117.5 37t40.5 67l42 -17
q0 -63 -38.5 -95t-111.5 -45q-52 -9 -83.5 -31t-31.5 -50q0 -76 97 -76q62 0 94.5 31.5t32.5 110.5h25zM123 697h62q0 -35 18 -56t47 -21q30 0 48 21t18 56h62q0 -61 -35 -98t-93 -37q-57 0 -92 37t-35 98z" />
    <glyph glyph-name="c_cap_acute" unicode="&#x106;" horiz-adv-x="703" 
d="M650 218l62 -60q-13 -76 -102.5 -122t-222.5 -46q-144 0 -217.5 108.5t-46.5 262.5q28 154 139 262.5t256 108.5q126 0 199 -46t66 -122l-82 -60q6 67 -48.5 107.5t-149.5 40.5q-98 0 -175.5 -85t-98.5 -206q-22 -121 26 -206t146 -85q101 0 169.5 40.5t79.5 107.5z
M475 802l75 150h109l-108 -150h-76z" />
    <glyph glyph-name="c_cap_circumflex" unicode="&#x108;" horiz-adv-x="703" 
d="M650 218l62 -60q-13 -76 -102.5 -122t-222.5 -46q-144 0 -217.5 108.5t-46.5 262.5q28 154 139 262.5t256 108.5q126 0 199 -46t66 -122l-82 -60q6 67 -48.5 107.5t-149.5 40.5q-98 0 -175.5 -85t-98.5 -206q-22 -121 26 -206t146 -85q101 0 169.5 40.5t79.5 107.5z
M528 887l-99 -85h-77l145 150h85l92 -150h-76z" />
    <glyph glyph-name="c_cap_dot_accent" unicode="&#x10a;" horiz-adv-x="703" 
d="M650 218l62 -60q-13 -76 -102.5 -122t-222.5 -46q-144 0 -217.5 108.5t-46.5 262.5q28 154 139 262.5t256 108.5q126 0 199 -46t66 -122l-82 -60q6 67 -48.5 107.5t-149.5 40.5q-98 0 -175.5 -85t-98.5 -206q-22 -121 26 -206t146 -85q101 0 169.5 40.5t79.5 107.5z
M468 802l16 91h91l-16 -91h-91z" />
    <glyph glyph-name="c_dot_accent" unicode="&#x10b;" horiz-adv-x="483" 
d="M378 162l75 -36q0 -61 -52 -98.5t-137 -37.5q-97 0 -151.5 63.5t-54.5 192.5t54.5 192.5t151.5 63.5q187 0 189 -153l-73 -36q-2 124 -116 124q-54 0 -84.5 -47.5t-30.5 -143.5q0 -94 30.5 -140.5t84.5 -46.5q51 0 82.5 28.5t31.5 74.5zM218 572v91h91v-91h-91z" />
    <glyph glyph-name="c_cap_caron" unicode="&#x10c;" horiz-adv-x="703" 
d="M650 218l62 -60q-13 -76 -102.5 -122t-222.5 -46q-144 0 -217.5 108.5t-46.5 262.5q28 154 139 262.5t256 108.5q126 0 199 -46t66 -122l-82 -60q6 67 -48.5 107.5t-149.5 40.5q-98 0 -175.5 -85t-98.5 -206q-22 -121 26 -206t146 -85q101 0 169.5 40.5t79.5 107.5z
M525 867l-70 85h-76l92 -150h84l145 150h-76z" />
    <glyph glyph-name="c_caron" unicode="&#x10d;" horiz-adv-x="483" 
d="M378 162l75 -36q0 -61 -52 -98.5t-137 -37.5q-97 0 -151.5 63.5t-54.5 192.5t54.5 192.5t151.5 63.5q187 0 189 -153l-73 -36q-2 124 -116 124q-54 0 -84.5 -47.5t-30.5 -143.5q0 -94 30.5 -140.5t84.5 -46.5q51 0 82.5 28.5t31.5 74.5zM264 637l-85 85h-76l119 -150h84
l119 150h-77z" />
    <glyph glyph-name="d_cap_caron" unicode="&#x10e;" horiz-adv-x="714" 
d="M95 5l126 712h98l-126 -712h-98zM320 722h116q173 0 245.5 -91.5t41.5 -269.5q-32 -184 -126.5 -272.5t-257.5 -88.5h-146l13 76h140q113 0 180 70t92 215q50 285 -191 285h-121zM193 5v-5v0h-49h-50q0 1 1 3v2v0h98zM319 717h-98v0v2q0 3 1 3h49h49v0q0 -1 -1 -5z
M477 867l-70 85h-76l92 -150h85l145 150h-76z" />
    <glyph glyph-name="d_caron" unicode="&#x10f;" horiz-adv-x="541" 
d="M102 246q20 116 87.5 186t158.5 70q74 0 106.5 -70t12.5 -186q-20 -115 -77.5 -185.5t-131.5 -70.5q-91 0 -134 70.5t-22 185.5zM298 59q45 0 81.5 51.5t51.5 135.5t-3.5 135.5t-63.5 51.5q-62 0 -109.5 -51.5t-62.5 -135.5q-14 -84 15 -135.5t91 -51.5zM389 5l125 712
h84l-126 -712h-83zM472 5v0v-2l-1 -3h-41h-42v0q0 1 1 5h83zM598 717h-84v0q1 1 1 2v3h42h42q-1 0 0 0q-1 0 -1 -5zM650 732h91l-58 -150h-62z" />
    <glyph glyph-name="e_cap_macron" unicode="&#x112;" horiz-adv-x="582" 
d="M95 5l126 712h98l-126 -712h-98zM320 722h327l-14 -80h-327zM265 411h310l-14 -77h-309zM193 0l14 80h340l-14 -80h-340zM193 5v-5v0h-49h-50q0 1 1 3v2v0h98zM319 717h-98v0v2q0 3 1 3h49h49v0q0 -1 -1 -5zM570 411v0h2h3q-1 -7 -4 -21.5t-3 -16.5q-1 -6 -3.5 -19.5
t-3.5 -19.5h-2h-3v0zM642 722h5v0q-1 -6 -3.5 -20t-3.5 -20t-3.5 -20t-3.5 -20h-3h-2v0zM542 80v0h2h3q-1 -6 -3.5 -20t-3.5 -20t-3.5 -20t-3.5 -20v0h-5zM328 802l10 58h241l-10 -58h-241z" />
    <glyph glyph-name="e_macron" unicode="&#x113;" horiz-adv-x="489" 
d="M409 157l73 -29q-10 -62 -72 -100t-153 -38q-94 0 -136 64t-19 192q23 129 88.5 192.5t162.5 63.5q207 0 160 -265h-83h-239l10 58h239l-10 -58q35 200 -88 200q-54 0 -93.5 -47.5t-56.5 -143.5q-16 -94 5 -140.5t72 -46.5q56 0 94.5 27t45.5 71zM245 572l11 58h240
l-10 -58h-241z" />
    <glyph glyph-name="e_cap_breve" unicode="&#x114;" horiz-adv-x="582" 
d="M95 5l126 712h98l-126 -712h-98zM320 722h327l-14 -80h-327zM265 411h310l-14 -77h-309zM193 0l14 80h340l-14 -80h-340zM193 5v-5v0h-49h-50q0 1 1 3v2v0h98zM319 717h-98v0v2q0 3 1 3h49h49v0q0 -1 -1 -5zM570 411v0h2h3q-1 -7 -4 -21.5t-3 -16.5q-1 -6 -3.5 -19.5
t-3.5 -19.5h-2h-3v0zM642 722h5v0q-1 -6 -3.5 -20t-3.5 -20t-3.5 -20t-3.5 -20h-3h-2v0zM542 80v0h2h3q-1 -6 -3.5 -20t-3.5 -20t-3.5 -20t-3.5 -20v0h-5zM343 927h62q-6 -34 8.5 -55.5t43.5 -21.5q30 0 51.5 21t27.5 56h62q-11 -61 -52.5 -98t-98.5 -37q-58 0 -86.5 37
t-17.5 98z" />
    <glyph glyph-name="e_breve" unicode="&#x115;" horiz-adv-x="489" 
d="M409 157l73 -29q-10 -62 -72 -100t-153 -38q-94 0 -136 64t-19 192q23 129 88.5 192.5t162.5 63.5q207 0 160 -265h-83h-239l10 58h239l-10 -58q35 200 -88 200q-54 0 -93.5 -47.5t-56.5 -143.5q-16 -94 5 -140.5t72 -46.5q56 0 94.5 27t45.5 71zM261 697h61
q-6 -34 8.5 -55.5t43.5 -21.5t51 21.5t28 55.5h62q-10 -61 -52 -98t-99 -37t-85.5 37t-17.5 98z" />
    <glyph glyph-name="e_cap_dot_accent" unicode="&#x116;" horiz-adv-x="582" 
d="M95 5l126 712h98l-126 -712h-98zM320 722h327l-14 -80h-327zM265 411h310l-14 -77h-309zM193 0l14 80h340l-14 -80h-340zM193 5v-5v0h-49h-50q0 1 1 3v2v0h98zM319 717h-98v0v2q0 3 1 3h49h49v0q0 -1 -1 -5zM570 411v0h2h3q-1 -7 -4 -21.5t-3 -16.5q-1 -6 -3.5 -19.5
t-3.5 -19.5h-2h-3v0zM642 722h5v0q-1 -6 -3.5 -20t-3.5 -20t-3.5 -20t-3.5 -20h-3h-2v0zM542 80v0h2h3q-1 -6 -3.5 -20t-3.5 -20t-3.5 -20t-3.5 -20v0h-5zM403 802l16 91h91l-16 -91h-91z" />
    <glyph glyph-name="e_dot_accent" unicode="&#x117;" horiz-adv-x="489" 
d="M409 157l73 -29q-10 -62 -72 -100t-153 -38q-94 0 -136 64t-19 192q23 129 88.5 192.5t162.5 63.5q207 0 160 -265h-83h-239l10 58h239l-10 -58q35 200 -88 200q-54 0 -93.5 -47.5t-56.5 -143.5q-16 -94 5 -140.5t72 -46.5q56 0 94.5 27t45.5 71zM320 572l16 91h91
l-16 -91h-91z" />
    <glyph glyph-name="e_cap_caron" unicode="&#x11a;" horiz-adv-x="582" 
d="M95 5l126 712h98l-126 -712h-98zM320 722h327l-14 -80h-327zM265 411h310l-14 -77h-309zM193 0l14 80h340l-14 -80h-340zM193 5v-5v0h-49h-50q0 1 1 3v2v0h98zM319 717h-98v0v2q0 3 1 3h49h49v0q0 -1 -1 -5zM570 411v0h2h3q-1 -7 -4 -21.5t-3 -16.5q-1 -6 -3.5 -19.5
t-3.5 -19.5h-2h-3v0zM642 722h5v0q-1 -6 -3.5 -20t-3.5 -20t-3.5 -20t-3.5 -20h-3h-2v0zM542 80v0h2h3q-1 -6 -3.5 -20t-3.5 -20t-3.5 -20t-3.5 -20v0h-5zM460 867l-70 85h-76l92 -150h85l145 150h-76z" />
    <glyph glyph-name="e_caron" unicode="&#x11b;" horiz-adv-x="489" 
d="M409 157l73 -29q-10 -62 -72 -100t-153 -38q-94 0 -136 64t-19 192q23 129 88.5 192.5t162.5 63.5q207 0 160 -265h-83h-239l10 58h239l-10 -58q35 200 -88 200q-54 0 -93.5 -47.5t-56.5 -143.5q-16 -94 5 -140.5t72 -46.5q56 0 94.5 27t45.5 71zM377 637l-69 85h-77
l93 -150h84l145 150h-76z" />
    <glyph glyph-name="g_cap_circumflex" unicode="&#x11c;" horiz-adv-x="724" 
d="M447 335l14 80h292l-57 -321q-143 -104 -295 -104q-155 0 -231 102t-47 269q30 167 142.5 269t266.5 102q113 0 178 -46t58 -122l-82 -60q6 67 -40 107.5t-128 40.5q-107 0 -187 -80t-102 -211q-23 -131 28 -211t158 -80q97 0 196 72l34 193h-198zM559 887l-100 -85h-76
l145 150h85l92 -150h-76z" />
    <glyph glyph-name="g_cap_breve" unicode="&#x11e;" horiz-adv-x="724" 
d="M447 335l14 80h292l-57 -321q-143 -104 -295 -104q-155 0 -231 102t-47 269q30 167 142.5 269t266.5 102q113 0 178 -46t58 -122l-82 -60q6 67 -40 107.5t-128 40.5q-107 0 -187 -80t-102 -211q-23 -131 28 -211t158 -80q97 0 196 72l34 193h-198zM439 927h62
q-7 -34 7.5 -55.5t44.5 -21.5q29 0 50.5 21t28.5 56h61q-11 -61 -52 -98t-99 -37q-57 0 -85.5 37t-17.5 98z" />
    <glyph glyph-name="g_breve" unicode="&#x11f;" horiz-adv-x="541" 
d="M102 246q45 256 231 256q81 0 117.5 -70t16.5 -186q-19 -111 -80.5 -178.5t-142.5 -67.5q-186 0 -142 246zM348 433q-123 0 -156 -187q-31 -177 92 -177q53 0 93.5 49t53.5 128q15 84 -8 135.5t-75 51.5zM48 -60h90q-5 -32 26 -46.5t91 -14.5q111 0 133 121l86 487h83
l-79 -452q-40 -224 -227 -224q-107 0 -161 31t-42 98zM557 487h-83l1 5v0h41h42v-3l-1 -2v0zM261 697h61q-6 -34 8.5 -55.5t43.5 -21.5t51 21.5t28 55.5h62q-10 -61 -52 -98t-99 -37t-85.5 37t-17.5 98z" />
    <glyph glyph-name="g_cap_dot_accent" unicode="&#x120;" horiz-adv-x="724" 
d="M447 335l14 80h292l-57 -321q-143 -104 -295 -104q-155 0 -231 102t-47 269q30 167 142.5 269t266.5 102q113 0 178 -46t58 -122l-82 -60q6 67 -40 107.5t-128 40.5q-107 0 -187 -80t-102 -211q-23 -131 28 -211t158 -80q97 0 196 72l34 193h-198zM499 802l16 91h90
l-16 -91h-90z" />
    <glyph glyph-name="g_dot_accent" unicode="&#x121;" horiz-adv-x="541" 
d="M102 246q45 256 231 256q81 0 117.5 -70t16.5 -186q-19 -111 -80.5 -178.5t-142.5 -67.5q-186 0 -142 246zM348 433q-123 0 -156 -187q-31 -177 92 -177q53 0 93.5 49t53.5 128q15 84 -8 135.5t-75 51.5zM48 -60h90q-5 -32 26 -46.5t91 -14.5q111 0 133 121l86 487h83
l-79 -452q-40 -224 -227 -224q-107 0 -161 31t-42 98zM557 487h-83l1 5v0h41h42v-3l-1 -2v0zM320 572l16 91h91l-16 -91h-91z" />
    <glyph glyph-name="h_cap_circumflex" unicode="&#x124;" horiz-adv-x="713" 
d="M95 5l126 712h98l-126 -712h-98zM193 418h485l-14 -80h-485zM532 5l125 712h98l-125 -712h-98zM193 5v0q2 0 0 -2v-3h-49h-50q0 1 1 3v2v0h98zM319 717h-98v0v2q0 3 1 3h49h49q0 -1 -1 -3v-2v0zM630 5v0q0 -1 -1 -2v-3h-49h-49v3l1 2v0h98zM755 717h-98v0q0 1 1 2v3h49
h49v-3l-1 -2v0zM518 887l-100 -85h-76l145 150h85l92 -150h-76z" />
    <glyph glyph-name="i_cap_tilde" unicode="&#x128;" horiz-adv-x="267" 
d="M86 5l125 712h98l-125 -712h-98zM184 5v0q0 -1 -1 -2v-3h-49h-49v3l1 2v0h98zM309 717h-98v0q0 1 1 2v3h49h49v-3l-1 -2v0zM245 935q18 0 30 -12t17.5 -27t15.5 -27t25 -12l-6 -65q-18 0 -30 12t-17.5 27t-15.5 27t-25 12zM206 802h-61q10 60 37.5 96.5t62.5 36.5l-6 -65
q-20 0 -33 -68zM327 792l6 65q20 0 33 68h61q-10 -60 -37.5 -96.5t-62.5 -36.5z" />
    <glyph glyph-name="i_alt_tilde" unicode="&#x129;" horiz-adv-x="238" 
d="M85 0v487h84v-487h-84zM74 705q18 0 32 -12t22 -27t20 -27t27 -12l5 -65q-18 0 -32 12t-22 27t-20 27t-27 12zM58 572h-62q0 60 21.5 96.5t56.5 36.5l5 -65q-21 0 -21 -68zM180 562l-5 65q21 0 21 68h62q0 -60 -21.5 -96.5t-56.5 -36.5zM169 487h-84v0v2v3h42h42v0v-5z
" />
    <glyph glyph-name="i_cap_macron" unicode="&#x12a;" horiz-adv-x="267" 
d="M86 5l125 712h98l-125 -712h-98zM184 5v0q0 -1 -1 -2v-3h-49h-49v3l1 2v0h98zM309 717h-98v0q0 1 1 2v3h49h49v-3l-1 -2v0zM155 802l10 58h241l-11 -58h-240z" />
    <glyph glyph-name="i_macron" unicode="&#x12b;" horiz-adv-x="238" 
d="M85 5v482h84v-482h-84zM7 572v58h240v-58h-240zM169 5v0v-2v-3h-42h-42v3v2v0h84zM169 487h-84v0v2v3h42h42v0v-5z" />
    <glyph glyph-name="i_cap_breve" unicode="&#x12c;" horiz-adv-x="267" 
d="M86 5l125 712h98l-125 -712h-98zM184 5v0q0 -1 -1 -2v-3h-49h-49v3l1 2v0h98zM309 717h-98v0q0 1 1 2v3h49h49v-3l-1 -2v0zM170 927h62q-7 -34 7.5 -55.5t44.5 -21.5q29 0 50.5 21t28.5 56h61q-11 -61 -52 -98t-99 -37q-57 0 -85.5 37t-17.5 98z" />
    <glyph glyph-name="i_breve" unicode="&#x12d;" horiz-adv-x="238" 
d="M85 5v482h84v-482h-84zM0 697h62q0 -35 18 -56t47 -21t47 21t18 56h62q0 -61 -35 -98t-92 -37t-92 37t-35 98zM169 5v0v-2v-3h-42h-42v3v2v0h84zM169 487h-84v0v2v3h42h42v0v-5z" />
    <glyph glyph-name="i_cap_dot_accent" unicode="&#x130;" horiz-adv-x="267" 
d="M86 5l125 712h98l-125 -712h-98zM184 5v0q0 -1 -1 -2v-3h-49h-49v3l1 2v0h98zM309 717h-98v0q0 1 1 2v3h49h49v-3l-1 -2v0zM230 802l16 91h91l-16 -91h-91z" />
    <glyph glyph-name="dotlessi" unicode="&#x131;" horiz-adv-x="278" 
d="M125 0v492h84v-492h-84z" />
    <glyph glyph-name="j_cap_circumflex" unicode="&#x134;" horiz-adv-x="520" 
d="M106 281l101 17l-9 -52q-16 -86 -0.5 -125.5t62.5 -39.5q45 0 74.5 35t40.5 96l89 505h98l-89 -505q-18 -102 -77.5 -162t-151.5 -60q-97 0 -133 55t-16 173zM562 717h-98v0v2l1 3h49h49v0q0 -1 -1 -5zM543 887l-100 -85h-76l145 150h85l92 -150h-76z" />
    <glyph glyph-name="l_cap_acute" unicode="&#x139;" horiz-adv-x="506" 
d="M86 5l125 712h98l-125 -712h-98zM183 0l14 80h293l-14 -80h-293zM184 5l-1 -5v0h-49h-49v3l1 2v0h98zM309 717h-98v0q0 1 1 2v3h49h49v-3l-1 -2v0zM485 80v0h3h2q-1 -6 -3.5 -20t-3.5 -20t-3.5 -20t-3.5 -20v0h-5zM237 802l75 150h109l-108 -150h-76z" />
    <glyph glyph-name="l_cap_caron" unicode="&#x13d;" horiz-adv-x="506" 
d="M86 5l125 712h98l-125 -712h-98zM183 0l14 80h293l-14 -80h-293zM184 5l-1 -5v0h-49h-49v3l1 2v0h98zM309 717h-98v0q0 1 1 2v3h49h49v-3l-1 -2v0zM485 80v0h3h2q-1 -6 -3.5 -20t-3.5 -20t-3.5 -20t-3.5 -20v0h-5zM413 732h91l-58 -150h-62z" />
    <glyph glyph-name="l_caron" unicode="&#x13e;" horiz-adv-x="231" 
d="M79 5l126 712h83l-125 -712h-84zM163 5v0q0 -1 -1 -2v-3h-42h-42q0 1 1 3v2v0h84zM288 717h-83v0v2v3h42h42v0q0 -1 -1 -5zM341 732h91l-59 -150h-61z" />
    <glyph glyph-name="n_cap_acute" unicode="&#x143;" horiz-adv-x="679" 
d="M221 717h98l-126 -712h-98zM222 722h106l238 -722h-106zM623 717h98l-126 -717h-98zM193 5v0q2 0 0 -2v-3h-49h-50q0 1 1 3v2v0h98zM319 717h-98v0v2q0 3 1 3h49h49v0q0 -1 -1 -5zM721 717h-98v0v2l1 3h49h49q0 -1 -1 -3v-2v0zM348 802l74 150h109l-107 -150h-76z" />
    <glyph glyph-name="n_cap_caron" unicode="&#x147;" horiz-adv-x="679" 
d="M221 717h98l-126 -712h-98zM222 722h106l238 -722h-106zM623 717h98l-126 -717h-98zM193 5v0q2 0 0 -2v-3h-49h-50q0 1 1 3v2v0h98zM319 717h-98v0v2q0 3 1 3h49h49v0q0 -1 -1 -5zM721 717h-98v0v2l1 3h49h49q0 -1 -1 -3v-2v0zM497 867l-69 85h-76l92 -150h84l145 150
h-76z" />
    <glyph glyph-name="n_caron" unicode="&#x148;" 
d="M79 5l85 482h84l-85 -482h-84zM366 5l50 282q11 65 -7.5 99.5t-59.5 34.5q-51 0 -87.5 -31.5t-45.5 -83.5h-28q15 86 72 138.5t135 52.5q65 0 93.5 -54t10.5 -156l-49 -282h-84zM163 5v0q0 -1 -1 -2v-3h-42h-42q0 1 1 3v2v0h84zM248 487h-84v0v2l1 3h42h41q2 0 0 0
q1 0 0 -5zM450 5v0q0 -1 -1 -2v-3h-42h-42q0 1 1 3v2v0h84zM334 637l-70 85h-76l92 -150h85l145 150h-76z" />
    <glyph glyph-name="o_cap_macron" unicode="&#x14c;" horiz-adv-x="799" 
d="M128 361q29 158 144.5 264.5t260.5 106.5t224 -106.5t51 -264.5q-30 -167 -141.5 -269t-263.5 -102q-153 0 -228.5 102t-46.5 269zM417 70q105 0 184 80t101 211q22 124 -30 207.5t-153 83.5q-100 0 -181.5 -83.5t-103.5 -207.5q-23 -131 27 -211t156 -80zM425 802l11 58
h240l-10 -58h-241z" />
    <glyph glyph-name="o_macron" unicode="&#x14d;" horiz-adv-x="536" 
d="M102 246q23 129 91 192.5t168 63.5q107 0 148.5 -68t19.5 -188q-23 -129 -91 -192.5t-168 -63.5q-107 0 -148.5 68t-19.5 188zM281 52q58 0 99.5 48.5t58.5 145.5q16 91 -5.5 142.5t-83.5 51.5q-58 0 -99.5 -48.5t-58.5 -145.5q-16 -91 5.5 -142.5t83.5 -51.5zM253 572
l10 58h241l-11 -58h-240z" />
    <glyph glyph-name="o_cap_breve" unicode="&#x14e;" horiz-adv-x="799" 
d="M128 361q29 158 144.5 264.5t260.5 106.5t224 -106.5t51 -264.5q-30 -167 -141.5 -269t-263.5 -102q-153 0 -228.5 102t-46.5 269zM417 70q105 0 184 80t101 211q22 124 -30 207.5t-153 83.5q-100 0 -181.5 -83.5t-103.5 -207.5q-23 -131 27 -211t156 -80zM441 927h61
q-6 -34 8.5 -55.5t43.5 -21.5q30 0 51.5 21t27.5 56h62q-11 -61 -52 -98t-99 -37q-57 0 -85.5 37t-17.5 98z" />
    <glyph glyph-name="o_breve" unicode="&#x14f;" horiz-adv-x="536" 
d="M102 246q23 129 91 192.5t168 63.5q107 0 148.5 -68t19.5 -188q-23 -129 -91 -192.5t-168 -63.5q-107 0 -148.5 68t-19.5 188zM281 52q58 0 99.5 48.5t58.5 145.5q16 91 -5.5 142.5t-83.5 51.5q-58 0 -99.5 -48.5t-58.5 -145.5q-16 -91 5.5 -142.5t83.5 -51.5zM268 697
h62q-6 -35 8 -56t44 -21q29 0 51 21.5t28 55.5h61q-10 -61 -52 -98t-99 -37t-85.5 37t-17.5 98z" />
    <glyph glyph-name="r_cap_acute" unicode="&#x154;" horiz-adv-x="624" 
d="M95 5l126 712h98l-126 -712h-98zM320 722h163q233 0 195 -217q-33 -190 -267 -190h-163l14 76h166q132 0 152 114q24 141 -114 141h-160zM505 0l-129 328h112l130 -328h-113zM193 5v0q2 0 0 -2v-3h-49h-50q0 1 1 3v2v0h98zM319 717h-98v0v2q0 3 1 3h49h49v0q0 -1 -1 -5z
M616 5v0q0 -1 1 -2l1 -3h-57h-56v0q0 1 -2 5h113zM445 802l75 150h109l-108 -150h-76z" />
    <glyph glyph-name="r_cap_caron" unicode="&#x158;" horiz-adv-x="624" 
d="M95 5l126 712h98l-126 -712h-98zM320 722h163q233 0 195 -217q-33 -190 -267 -190h-163l14 76h166q132 0 152 114q24 141 -114 141h-160zM505 0l-129 328h112l130 -328h-113zM193 5v0q2 0 0 -2v-3h-49h-50q0 1 1 3v2v0h98zM319 717h-98v0v2q0 3 1 3h49h49v0q0 -1 -1 -5z
M616 5v0q0 -1 1 -2l1 -3h-57h-56v0q0 1 -2 5h113zM495 867l-70 85h-76l92 -150h84l146 150h-77z" />
    <glyph glyph-name="r_caron" unicode="&#x159;" horiz-adv-x="342" 
d="M79 5l85 482h84l-85 -482h-84zM393 402h-18q-141 0 -175 -186h-28q49 276 227 276h10zM163 5v0q0 -1 -1 -2v-3h-42h-42q0 1 1 3v2v0h84zM248 487h-84v0v2l1 3h42h41q2 0 0 0q1 0 0 -5zM312 637l-69 85h-77l93 -150h84l145 150h-76z" />
    <glyph glyph-name="s_cap_acute" unicode="&#x15a;" horiz-adv-x="626" 
d="M72 165l94 59q-13 -72 37.5 -110t149.5 -38q75 0 120.5 33t55.5 90q8 46 -33.5 77t-130.5 46q-109 18 -158 69.5t-35 134.5q16 93 87.5 149.5t171.5 56.5q101 0 164.5 -35t71.5 -101l-81 -63q-7 54 -52.5 83t-118.5 29q-54 0 -92.5 -29.5t-47.5 -78.5q-7 -45 26.5 -74
t107.5 -42q250 -41 218 -219q-17 -98 -92 -155t-197 -57q-137 0 -209 45.5t-57 129.5zM406 802l74 150h109l-107 -150h-76z" />
    <glyph glyph-name="s_cap_circumflex" unicode="&#x15c;" horiz-adv-x="626" 
d="M72 165l94 59q-13 -72 37.5 -110t149.5 -38q75 0 120.5 33t55.5 90q8 46 -33.5 77t-130.5 46q-109 18 -158 69.5t-35 134.5q16 93 87.5 149.5t171.5 56.5q101 0 164.5 -35t71.5 -101l-81 -63q-7 54 -52.5 83t-118.5 29q-54 0 -92.5 -29.5t-47.5 -78.5q-7 -45 26.5 -74
t107.5 -42q250 -41 218 -219q-17 -98 -92 -155t-197 -57q-137 0 -209 45.5t-57 129.5zM459 887l-100 -85h-76l145 150h85l92 -150h-76z" />
    <glyph glyph-name="s_cap_cedilla" unicode="&#x15e;" horiz-adv-x="626" 
d="M72 165l94 59q-13 -72 37.5 -110t149.5 -38q75 0 120.5 33t55.5 90q8 46 -33.5 77t-130.5 46q-109 18 -158 69.5t-35 134.5q16 93 87.5 149.5t171.5 56.5q101 0 164.5 -35t71.5 -101l-81 -63q-7 54 -52.5 83t-118.5 29q-54 0 -92.5 -29.5t-47.5 -78.5q-7 -45 26.5 -74
t107.5 -42q250 -41 218 -219q-17 -98 -92 -155t-197 -57q-137 0 -209 45.5t-57 129.5zM332 41h29l-66 -157l7 29q12 27 39 27q32 0 48 -24t9 -64q-8 -40 -33.5 -64t-61.5 -24q-26 0 -43 14t-18 37l37 25q1 -16 9 -26t20 -10q16 0 27.5 13t14.5 35q4 22 -2.5 35t-20.5 13
q-24 0 -32 -16l-22 15z" />
    <glyph glyph-name="s_cedilla" unicode="&#x15f;" horiz-adv-x="458" 
d="M34 133l76 29q0 -46 35.5 -74t93.5 -28q48 0 77 20.5t29 54.5q0 27 -29.5 47t-85.5 27q-79 10 -121.5 48t-42.5 93q0 66 48.5 106.5t127.5 40.5t127.5 -38.5t48.5 -101.5l-69 -31q0 49 -29.5 79t-77.5 30q-43 0 -69.5 -21.5t-26.5 -56.5q0 -28 27 -47.5t77 -26.5
q86 -11 132 -48.5t46 -92.5q0 -66 -52 -106.5t-137 -40.5q-92 0 -148.5 38t-56.5 100zM225 34h29l-39 -150l2 29q7 27 34 27q32 0 52 -24t20 -64t-22 -64t-57 -24q-26 0 -45 14t-25 37l33 25q9 -36 35 -36q15 0 24.5 13t9.5 35t-9 35t-23 13q-24 0 -29 -16l-25 15z" />
    <glyph glyph-name="s_cap_caron" unicode="&#x160;" horiz-adv-x="626" 
d="M72 165l94 59q-13 -72 37.5 -110t149.5 -38q75 0 120.5 33t55.5 90q8 46 -33.5 77t-130.5 46q-109 18 -158 69.5t-35 134.5q16 93 87.5 149.5t171.5 56.5q101 0 164.5 -35t71.5 -101l-81 -63q-7 54 -52.5 83t-118.5 29q-54 0 -92.5 -29.5t-47.5 -78.5q-7 -45 26.5 -74
t107.5 -42q250 -41 218 -219q-17 -98 -92 -155t-197 -57q-137 0 -209 45.5t-57 129.5zM456 867l-70 85h-76l92 -150h84l145 150h-76z" />
    <glyph glyph-name="s_caron" unicode="&#x161;" horiz-adv-x="468" 
d="M57 133l82 29q-8 -46 23.5 -74t92.5 -28q50 0 84.5 20.5t39.5 54.5q5 28 -22.5 47.5t-84.5 26.5q-80 9 -117 47t-27 94q11 66 68 106.5t138 40.5t123.5 -38.5t31.5 -101.5l-74 -31q9 49 -16.5 79t-75.5 30q-45 0 -76.5 -21.5t-37.5 -56.5q-5 -28 19.5 -48t76.5 -26
q87 -10 128 -47.5t31 -93.5q-12 -66 -72.5 -106.5t-147.5 -40.5q-95 0 -146.5 38t-40.5 100zM358 637l-69 85h-76l92 -150h84l145 150h-76z" />
    <glyph glyph-name="t_cap_caron" unicode="&#x164;" horiz-adv-x="555" 
d="M137 722h535l-14 -80h-535zM229 5l127 717h98l-127 -717h-98zM327 5v0q2 0 0 -2v-3h-49h-49v3q2 2 0 2q1 0 0 0h98zM667 722h5v0q-1 -6 -3.5 -20t-3.5 -20t-3.5 -20t-3.5 -20h-2h-3v0zM142 722l-14 -80v0h-2h-3q1 6 3.5 20t3.5 20t3.5 20t3.5 20v0h5zM430 867l-69 85h-76
l92 -150h84l145 150h-76z" />
    <glyph glyph-name="t_caron" unicode="&#x165;" horiz-adv-x="295" 
d="M209 653l96 69l-107 -608q-6 -26 -1 -35.5t29 -9.5h52l-12 -69h-88q-57 0 -68 25t4 89zM352 492l-11 -65h-256l12 65h255zM357 732h90l-58 -150h-61z" />
    <glyph glyph-name="u_cap_tilde" unicode="&#x168;" horiz-adv-x="694" 
d="M214 717h98l-74 -420q-38 -216 127 -216t203 216l74 420h99l-78 -437q-50 -290 -314 -290q-263 0 -212 290zM312 717h-98v0v2q0 3 1 3h49h49q0 -1 -1 -3v-2v0zM741 717h-99v0q1 1 1 2v3h49h49v-3v-2q-1 0 0 0zM460 925q18 0 30.5 -12t17.5 -27t15 -27t25 -12l-6 -65
q-18 0 -30 12t-17.5 27t-15.5 27t-24 12zM422 792h-62q10 60 37.5 96.5t62.5 36.5l-5 -65q-21 0 -33 -68zM542 782l6 65q21 0 33 68h62q-11 -60 -39 -96.5t-62 -36.5z" />
    <glyph glyph-name="u_tilde" unicode="&#x169;" horiz-adv-x="490" 
d="M159 487h84l-51 -287q-11 -65 3 -99.5t48 -34.5q58 0 86.5 27t37.5 79l-18 -102q-58 -80 -146 -80q-61 0 -87 54t-8 156zM338 5l85 482h83l-85 -482h-83zM243 487h-84v0v2l1 3h42h41q1 0 0 0q1 0 0 -5zM506 487h-83v0v2l1 3h42h41q1 0 0 0q1 0 -1 -5zM421 5v0q2 0 0 -2
v-3h-42h-42v0q0 1 1 5h83zM318 705q18 0 30 -12t17.5 -27t15.5 -27t24 -12l-6 -65q-18 0 -30 12t-17.5 27t-15.5 27t-24 12zM279 572h-62q11 60 38.5 96.5t62.5 36.5l-6 -65q-21 0 -33 -68zM399 562l6 65q21 0 33 68h62q-10 -60 -38 -96.5t-63 -36.5z" />
    <glyph glyph-name="u_cap_macron" unicode="&#x16a;" horiz-adv-x="694" 
d="M214 717h98l-74 -420q-38 -216 127 -216t203 216l74 420h99l-78 -437q-50 -290 -314 -290q-263 0 -212 290zM312 717h-98v0v2q0 3 1 3h49h49q0 -1 -1 -3v-2v0zM741 717h-99v0q1 1 1 2v3h49h49v-3v-2q-1 0 0 0zM370 792l10 58h241l-10 -58h-241z" />
    <glyph glyph-name="u_macron" unicode="&#x16b;" horiz-adv-x="490" 
d="M159 487h84l-51 -287q-11 -65 3 -99.5t48 -34.5q58 0 86.5 27t37.5 79l-18 -102q-58 -80 -146 -80q-61 0 -87 54t-8 156zM338 5l85 482h83l-85 -482h-83zM243 487h-84v0v2l1 3h42h41q1 0 0 0q1 0 0 -5zM506 487h-83v0v2l1 3h42h41q1 0 0 0q1 0 -1 -5zM421 5v0q2 0 0 -2
v-3h-42h-42v0q0 1 1 5h83zM227 572l11 58h240l-10 -58h-241z" />
    <glyph glyph-name="u_cap_breve" unicode="&#x16c;" horiz-adv-x="694" 
d="M214 717h98l-74 -420q-38 -216 127 -216t203 216l74 420h99l-78 -437q-50 -290 -314 -290q-263 0 -212 290zM312 717h-98v0v2q0 3 1 3h49h49q0 -1 -1 -3v-2v0zM741 717h-99v0q1 1 1 2v3h49h49v-3v-2q-1 0 0 0zM385 917h62q-6 -35 8 -56t44 -21q29 0 51 21.5t28 55.5h62
q-11 -61 -52.5 -98t-98.5 -37t-85.5 37t-18.5 98z" />
    <glyph glyph-name="u_breve" unicode="&#x16d;" horiz-adv-x="490" 
d="M159 487h84l-51 -287q-11 -65 3 -99.5t48 -34.5q58 0 86.5 27t37.5 79l-18 -102q-58 -80 -146 -80q-61 0 -87 54t-8 156zM338 5l85 482h83l-85 -482h-83zM243 487h-84v0v2l1 3h42h41q1 0 0 0q1 0 0 -5zM506 487h-83v0v2l1 3h42h41q1 0 0 0q1 0 -1 -5zM421 5v0q2 0 0 -2
v-3h-42h-42v0q0 1 1 5h83zM243 697h61q-6 -34 8.5 -55.5t43.5 -21.5t51 21.5t28 55.5h62q-10 -61 -52 -98t-99 -37t-85.5 37t-17.5 98z" />
    <glyph glyph-name="u_cap_ring" unicode="&#x16e;" horiz-adv-x="694" 
d="M214 717h98l-74 -420q-38 -216 127 -216t203 216l74 420h99l-78 -437q-50 -290 -314 -290q-263 0 -212 290zM312 717h-98v0v2q0 3 1 3h49h49q0 -1 -1 -3v-2v0zM741 717h-99v0q1 1 1 2v3h49h49v-3v-2q-1 0 0 0zM422 877q7 40 33 62.5t65 22.5q40 0 58 -22t11 -63
q-15 -85 -99 -85q-83 0 -68 85zM497 831q42 0 51 46q4 22 -5 34t-29 12q-41 0 -51 -46q-8 -46 34 -46z" />
    <glyph glyph-name="u_ring" unicode="&#x16f;" horiz-adv-x="490" 
d="M159 487h84l-51 -287q-11 -65 3 -99.5t48 -34.5q58 0 86.5 27t37.5 79l-18 -102q-58 -80 -146 -80q-61 0 -87 54t-8 156zM338 5l85 482h83l-85 -482h-83zM243 487h-84v0v2l1 3h42h41q1 0 0 0q1 0 0 -5zM506 487h-83v0v2l1 3h42h41q1 0 0 0q1 0 -1 -5zM421 5v0q2 0 0 -2
v-3h-42h-42v0q0 1 1 5h83zM279 657q7 40 33 62.5t66 22.5q39 0 57 -22.5t11 -62.5q-15 -85 -98 -85q-84 0 -69 85zM354 611q42 0 51 46q4 22 -5 34t-29 12q-42 0 -50 -46q-9 -46 33 -46z" />
    <glyph glyph-name="w_cap_circumflex" unicode="&#x174;" horiz-adv-x="880" 
d="M147 722h105l40 -722h-94zM292 0h-87l320 722h95zM525 722h95l69 -722h-94zM689 0h-87l291 722h105zM253 717h-106v0v2v3h53h52v-3q0 -2 1 -2q-1 0 0 0zM996 717h-105v0q0 1 1 2l1 3h53h52q0 -1 -1 -3l-1 -2v0zM602 887l-100 -85h-76l145 150h84l93 -150h-77z" />
    <glyph glyph-name="y_cap_circumflex" unicode="&#x176;" horiz-adv-x="543" 
d="M146 722h109l106 -292l-71 -99zM551 722h110l-282 -391l-36 99zM303 430h98l-75 -425h-98zM326 5v0v-2l-1 -3h-49h-49v3l1 2v0h98zM257 717h-109v0q-1 1 -1 2l-1 3h55h54q1 -1 1 -3l1 -2v0zM657 717h-109v0q0 1 1 2l2 3h55h55q-1 -1 -2 -3l-2 -2v0zM432 887l-99 -85h-76
l145 150h84l92 -150h-76z" />
    <glyph glyph-name="y_cap_dieresis" unicode="&#x178;" horiz-adv-x="543" 
d="M146 722h109l106 -292l-71 -99zM551 722h110l-282 -391l-36 99zM303 430h98l-75 -425h-98zM326 5v0v-2l-1 -3h-49h-49v3l1 2v0h98zM257 717h-109v0q-1 1 -1 2l-1 3h55h54q1 -1 1 -3l1 -2v0zM657 717h-109v0q0 1 1 2l2 3h55h55q-1 -1 -2 -3l-2 -2v0zM299 802l16 91h91
l-16 -91h-91zM445 802l16 91h91l-16 -91h-91z" />
    <glyph glyph-name="z_cap_acute" unicode="&#x179;" horiz-adv-x="625" 
d="M708 722l-14 -80h-521l14 80h521zM45 0l14 80h536l-14 -80h-536zM592 658l102 -16l-533 -578l-102 16zM590 80v0h2h3q-1 -6 -3.5 -20t-3.5 -20t-3.5 -20t-3.5 -20v0h-5zM192 722l-14 -80v0h-2h-3q1 6 3.5 20t3.5 20t3.5 20t3.5 20v0h5zM424 802l74 150h109l-107 -150h-76
z" />
    <glyph glyph-name="z_cap_dot_accent" unicode="&#x17b;" horiz-adv-x="625" 
d="M708 722l-14 -80h-521l14 80h521zM45 0l14 80h536l-14 -80h-536zM592 658l102 -16l-533 -578l-102 16zM590 80v0h2h3q-1 -6 -3.5 -20t-3.5 -20t-3.5 -20t-3.5 -20v0h-5zM192 722l-14 -80v0h-2h-3q1 6 3.5 20t3.5 20t3.5 20t3.5 20v0h5zM416 802l16 91h91l-16 -91h-91z
" />
    <glyph glyph-name="z_dot_accent" unicode="&#x17c;" horiz-adv-x="432" 
d="M132 492h262h89l-9 -51l-336 -382l-108 -59l9 51l93 14h292l-12 -65h-292h-90l9 51l334 385l101 5l-91 -14h-263zM419 65v0h2h3q-5 -22 -6 -32q-1 -5 -3 -16.5t-3 -16.5v0h-5zM137 492l-12 -65v0h-2h-3q1 5 3 16t3 16t3 16.5t3 16.5v0h5zM284 572l16 91h91l-16 -91h-91z
" />
    <glyph glyph-name="z_cap_caron" unicode="&#x17d;" horiz-adv-x="625" 
d="M708 722l-14 -80h-521l14 80h521zM45 0l14 80h536l-14 -80h-536zM592 658l102 -16l-533 -578l-102 16zM590 80v0h2h3q-1 -6 -3.5 -20t-3.5 -20t-3.5 -20t-3.5 -20v0h-5zM192 722l-14 -80v0h-2h-3q1 6 3.5 20t3.5 20t3.5 20t3.5 20v0h5zM473 867l-69 85h-77l93 -150h84
l145 150h-76z" />
    <glyph glyph-name="z_caron" unicode="&#x17e;" horiz-adv-x="432" 
d="M132 492h262h89l-9 -51l-336 -382l-108 -59l9 51l93 14h292l-12 -65h-292h-90l9 51l334 385l101 5l-91 -14h-263zM419 65v0h2h3q-5 -22 -6 -32q-1 -5 -3 -16.5t-3 -16.5v0h-5zM137 492l-12 -65v0h-2h-3q1 5 3 16t3 16t3 16.5t3 16.5v0h5zM341 637l-70 85h-76l92 -150h84
l146 150h-77z" />
    <glyph glyph-name="Q_sc" unicode="&#x1eb;" horiz-adv-x="720" 
d="M117 284q23 126 123.5 210.5t227.5 84.5q128 0 199 -84.5t48 -210.5q-23 -132 -119.5 -213t-230.5 -81q-135 0 -203 81t-45 213zM377 62q92 0 159 61t85 161q17 95 -30.5 159t-134.5 64q-88 0 -157.5 -64t-86.5 -159q-17 -100 28.5 -161t136.5 -61zM550 -90l-151 216
l66 43l150 -216z" />
    <glyph glyph-name="a_cap_dotaccent" unicode="&#x226;" horiz-adv-x="680" 
d="M20 0l404 722h104l142 -722h-105l-140 722h98l-398 -722h-105zM531 175h-309l41 75h253zM128 5v0l-2 -2l-1 -3h-53h-52q0 1 1 3q2 2 1 2q2 0 0 0h106zM669 5v0q0 -1 1 -2v-3h-52h-53v3l-1 2v0h105zM520 717h-99v0q0 1 1 2l2 3h49h50v0q0 -1 -3 -5zM445 802l16 91h91
l-16 -91h-91z" />
    <glyph glyph-name="G_sc" unicode="&#x262;" horiz-adv-x="634" 
d="M415 274l13 72h223l-44 -251q-145 -105 -256 -105q-131 0 -196.5 81t-42.5 213q23 133 117.5 214t225.5 81q95 0 150 -41t49 -108l-75 -55q6 59 -32 95.5t-105 36.5q-88 0 -152.5 -61.5t-82.5 -161.5q-17 -100 26 -161t131 -61q60 0 166 76l24 136h-139z" />
    <glyph glyph-name="I_sc" unicode="&#x26a;" horiz-adv-x="262" 
d="M90 5l99 559h88l-98 -559h-89zM179 5v0q0 -1 -1 -2v-3h-44h-44v3q2 2 0 2q2 0 0 0h89zM277 564h-88v0v2l1 3h44h44v-3l-1 -2v0z" />
    <glyph glyph-name="N_sc" unicode="&#x274;" horiz-adv-x="601" 
d="M196 564h89l-99 -559h-88zM197 569h90l204 -569h-90zM527 564h88l-99 -564h-88zM186 5v0v-2l-1 -3h-44h-44v3l1 2v0h88zM285 564h-89v0q1 1 1 2v3h44h44v0v-5zM615 564h-88v0q1 1 1 2v3h44h44v-3l-1 -2v0z" />
    <glyph glyph-name="R_sc" unicode="&#x280;" horiz-adv-x="562" 
d="M98 5l98 559h89l-99 -559h-88zM285 569h120q110 0 159 -43t34 -128q-26 -147 -250 -147h-118l12 69h122q131 0 146 78q8 50 -22.5 76t-98.5 26h-116zM455 0l-140 263h102l139 -263h-101zM186 5v0v-2l-1 -3h-44h-44v3l1 2v0h88zM285 564h-89v0q1 1 1 2v3h44h44v0v-5z
M553 5v0l2 -2l1 -3h-51h-50v0q0 1 -3 5h101z" />
    <glyph glyph-name="Y_sc" unicode="&#x28f;" horiz-adv-x="465" 
d="M123 569h93l90 -212l-63 -89zM463 569h93l-226 -301l-31 89zM258 357h88l-62 -352h-88zM284 5v0v-2l-1 -3h-44h-44q0 1 1 3v2v0h88zM219 564h-94v0q-1 1 -1 2l-1 3h47h46q1 -1 1 -3l2 -2q-1 0 0 0zM552 564h-93v0q0 1 2 2q1 3 2 3h46h47q0 -1 -2 -3l-2 -2v0z" />
    <glyph glyph-name="B_sc" unicode="&#x299;" horiz-adv-x="611" 
d="M98 5l98 559h89l-99 -559h-88zM285 569h117q122 0 168 -34.5t32 -115.5q-9 -50 -51.5 -80.5t-104.5 -30.5h-206l6 36h167q38 0 64.5 18.5t32.5 49.5q8 47 -18.5 67.5t-97.5 20.5h-121zM243 328h196q88 0 133.5 -45t32.5 -119q-16 -89 -74.5 -126.5t-179.5 -37.5h-166
l12 69h141q84 0 123.5 24t50.5 81q8 47 -30.5 75.5t-109.5 28.5h-138zM186 5l-1 -5v0h-44h-44v3l1 2v0h88zM285 564h-89v0q1 1 1 2v3h44h44v0v-5z" />
    <glyph glyph-name="H_sc" unicode="&#x29c;" horiz-adv-x="640" 
d="M98 5l98 559h89l-99 -559h-88zM176 322h415l-13 -72h-415zM468 5l99 559h88l-98 -559h-89zM186 5v0v-2l-1 -3h-44h-44v3l1 2v0h88zM285 564h-89v0q1 1 1 2v3h44h44v-3v-2v0zM557 5v0q0 -1 -1 -2v-3h-44h-45q0 1 1 3v2v0h89zM655 564h-88v0v2l1 3h44h44v-3l-1 -2v0z" />
    <glyph glyph-name="L_sc" unicode="&#x29f;" horiz-adv-x="443" 
d="M90 5l99 559h88l-98 -559h-89zM178 0l12 72h236l-13 -72h-235zM179 5l-1 -5v0h-44h-44v3q2 2 0 2q2 0 0 0h89zM277 564h-88v0v2l1 3h44h44v-3l-1 -2v0zM421 72v0h2h3l-6 -36l-3.5 -17.5t-3.5 -18.5v0h-5z" />
    <glyph glyph-name="A_sc" unicode="&#x1d00;" horiz-adv-x="613" 
d="M22 0l347 569h94l140 -569h-95l-137 569h88l-342 -569h-95zM477 131h-281l40 66h225zM120 5v0q-1 -1 -1 -2l-2 -3h-47h-48q1 1 2 3l1 2v0h95zM602 5v0q0 -1 1 -2v-3h-47h-48v3l-1 2v0h95zM456 564h-90v0l2 2l1 3h45h45v0q0 -1 -3 -5z" />
    <glyph glyph-name="C_sc" unicode="&#x1d04;" horiz-adv-x="629" 
d="M583 214l55 -55q-14 -76 -93 -122.5t-196 -46.5q-127 0 -193 86t-44 208t118 208.5t223 86.5q110 0 173 -46.5t56 -123.5l-74 -54q6 68 -40 110t-128 42q-85 0 -151 -65t-82 -158q-16 -92 27 -157t128 -65q87 0 148 42t73 110z" />
    <glyph glyph-name="D_sc" unicode="&#x1d05;" horiz-adv-x="643" 
d="M98 5l98 559h89l-99 -559h-88zM285 569h64q168 0 241 -72t48 -213q-26 -144 -114.5 -214t-245.5 -70h-93l12 68h87q112 0 176 53t84 163q36 216 -204 216h-67zM186 5l-1 -5v0h-44h-44v3l1 2v0h88zM285 564h-89v0q1 1 1 2v3h44h44v0v-5z" />
    <glyph glyph-name="E_sc" unicode="&#x1d07;" horiz-adv-x="510" 
d="M98 5l98 559h89l-99 -559h-88zM285 569h267l-13 -72h-266zM243 328h254l-12 -69h-254zM185 0l13 72h275l-12 -72h-276zM186 5l-1 -5v0h-44h-44v3l1 2v0h88zM285 564h-89v0q1 1 1 2v3h44h44v0v-5zM492 328v0h3h2q0 -4 -6 -35q-1 -8 -6 -34h-2h-3q2 0 0 0zM547 569h5v0
q-1 -5 -3 -18t-3 -18t-3.5 -18t-3.5 -18h-2h-3v0zM468 72v0h3h2l-6 -36l-3 -18l-3 -18v0h-5z" />
    <glyph glyph-name="J_sc" unicode="&#x1d0a;" horiz-adv-x="444" 
d="M109 281l90 16l-9 -53q-16 -89 -8 -130.5t40 -41.5q30 0 50.5 25.5t28.5 69.5l70 397h88l-70 -397q-14 -81 -61 -129t-120 -48q-78 0 -104.5 55t-5.5 174zM459 564h-88v0v2q0 3 1 3h44h44v0q0 -1 -1 -5z" />
    <glyph glyph-name="K_sc" unicode="&#x1d0b;" horiz-adv-x="562" 
d="M98 5l98 559h89l-99 -559h-88zM149 224l362 345h108l-396 -364zM448 0l-135 287l76 70l164 -357h-105zM186 5v0v-2l-1 -3h-44h-44v3l1 2v0h88zM285 564h-89v0q1 1 1 2v3h44h44v-3v-2v0zM550 5v0l2 -2l1 -3h-53h-52v0q0 1 -2 5h104zM614 564h-108v0l2 2l3 3h54h54l-3 -3
l-2 -2q-2 0 0 0z" />
    <glyph glyph-name="M_sc" unicode="&#x1d0d;" horiz-adv-x="784" 
d="M99 5l98 559h85l-98 -559h-85zM360 0l-110 569h82l106 -569h-78zM360 0l302 569h82l-306 -569h-78zM616 5l98 559h85l-98 -559h-85zM184 5v0q0 -1 -1 -2v-3h-43h-42v3l1 2v0h85zM282 564h-85v0q1 1 1 2v3h43h42v0q0 -1 -1 -5zM701 5v0q0 -1 -1 -2v-3h-43h-42v3l1 2v0h85z
M799 564h-85l1 5v0h43h42v-3l-1 -2v0z" />
    <glyph glyph-name="O_sc" unicode="&#x1d0f;" horiz-adv-x="720" 
d="M117 284q23 126 123.5 210.5t227.5 84.5q128 0 199 -84.5t48 -210.5q-23 -132 -119.5 -213t-230.5 -81q-135 0 -203 81t-45 213zM377 62q92 0 159 61t85 161q17 95 -30.5 159t-134.5 64q-88 0 -157.5 -64t-86.5 -159q-17 -100 28.5 -161t136.5 -61z" />
    <glyph glyph-name="P_sc" unicode="&#x1d18;" horiz-adv-x="542" 
d="M98 5l98 559h89l-99 -559h-88zM285 569h100q110 0 159 -43t34 -128q-29 -162 -253 -162h-98l12 69h102q132 0 149 93q9 50 -21.5 76t-99.5 26h-96zM186 5v0v-2l-1 -3h-44h-44v3l1 2v0h88zM285 564h-89v0q1 1 1 2v3h44h44v0v-5z" />
    <glyph glyph-name="T_sc" unicode="&#x1d1b;" horiz-adv-x="481" 
d="M110 569h462l-13 -72h-461zM198 5l99 564h88l-99 -564h-88zM286 5v0q0 -1 -1 -2v-3h-44h-44v3l1 2v0h88zM567 569h5v0q-6 -31 -7 -36l-6 -36h-2h-3v0zM115 569l-12 -72v0h-3h-2q1 5 3 17.5t3 18.5t3 18.5t3 17.5v0h5z" />
    <glyph glyph-name="U_sc" unicode="&#x1d1c;" horiz-adv-x="624" 
d="M189 564h89l-58 -329q-29 -163 110 -163t168 163l58 329h88l-61 -344q-39 -230 -268 -230q-112 0 -159 58t-27 172zM278 564h-89v0q1 1 1 2v3h44h44v-3v-2v0zM644 564h-88v0v2q0 3 1 3h44h44q0 -1 -1 -3v-2v0z" />
    <glyph glyph-name="V_sc" unicode="&#x1d20;" horiz-adv-x="536" 
d="M123 569h94l98 -569h-82zM318 0h-81l295 569h94zM218 564h-94v0q-1 0 -1 2v3h47h47q1 -1 1 -3v-2v0zM624 564h-95v0q1 1 1 2l2 3h47h47q0 -1 -1 -3l-1 -2v0z" />
    <glyph glyph-name="W_sc" unicode="&#x1d21;" horiz-adv-x="824" 
d="M123 569h94l57 -569h-85zM274 0h-78l280 569h85zM476 569h85l83 -569h-85zM644 0h-79l255 569h94zM218 564h-95v0v2v3h47h47q0 -1 1 -3v-2v0zM912 564h-95v0q1 1 1 2l2 3h47h47q0 -1 -1 -3l-1 -2v0z" />
    <glyph glyph-name="Z_sc" unicode="&#x1d22;" horiz-adv-x="571" 
d="M627 569l-13 -72h-466l12 72h467zM45 0l13 72h481l-13 -72h-481zM526 511l88 -14l-469 -439l-87 14zM534 72v0h3h2l-6 -36t-3.5 -18t-3.5 -18v0h-5zM165 569l-12 -72v0h-3h-2q1 5 3 17.5t3 18.5t3 18.5t3 17.5v0h5z" />
    <glyph glyph-name="w_cap_grave" unicode="&#x1e80;" horiz-adv-x="880" 
d="M147 722h105l40 -722h-94zM292 0h-87l320 722h95zM525 722h95l69 -722h-94zM689 0h-87l291 722h105zM253 717h-106v0v2v3h53h52v-3q0 -2 1 -2q-1 0 0 0zM996 717h-105v0q0 1 1 2l1 3h53h52q0 -1 -1 -3l-1 -2v0zM549 802l-55 150h109l22 -150h-76z" />
    <glyph glyph-name="w_cap_acute" unicode="&#x1e82;" horiz-adv-x="880" 
d="M147 722h105l40 -722h-94zM292 0h-87l320 722h95zM525 722h95l69 -722h-94zM689 0h-87l291 722h105zM253 717h-106v0v2v3h53h52v-3q0 -2 1 -2q-1 0 0 0zM996 717h-105v0q0 1 1 2l1 3h53h52q0 -1 -1 -3l-1 -2v0zM549 802l74 150h109l-107 -150h-76z" />
    <glyph glyph-name="w_cap_dieresis" unicode="&#x1e84;" horiz-adv-x="880" 
d="M147 722h105l40 -722h-94zM292 0h-87l320 722h95zM525 722h95l69 -722h-94zM689 0h-87l291 722h105zM253 717h-106v0v2v3h53h52v-3q0 -2 1 -2q-1 0 0 0zM996 717h-105v0q0 1 1 2l1 3h53h52q0 -1 -1 -3l-1 -2v0zM469 802l16 91h90l-16 -91h-90zM614 802l16 91h91l-16 -91
h-91z" />
    <glyph glyph-name="e_cap_tilde" unicode="&#x1ebc;" horiz-adv-x="582" 
d="M95 5l126 712h98l-126 -712h-98zM320 722h327l-14 -80h-327zM265 411h310l-14 -77h-309zM193 0l14 80h340l-14 -80h-340zM193 5v-5v0h-49h-50q0 1 1 3v2v0h98zM319 717h-98v0v2q0 3 1 3h49h49v0q0 -1 -1 -5zM570 411v0h2h3q-1 -7 -4 -21.5t-3 -16.5q-1 -6 -3.5 -19.5
t-3.5 -19.5h-2h-3v0zM642 722h5v0q-1 -6 -3.5 -20t-3.5 -20t-3.5 -20t-3.5 -20h-3h-2v0zM542 80v0h2h3q-1 -6 -3.5 -20t-3.5 -20t-3.5 -20t-3.5 -20v0h-5zM418 935q18 0 30.5 -12t18 -27t15.5 -27t24 -12l-6 -65q-18 0 -30 12t-17.5 27t-15.5 27t-24 12zM380 802h-62
q10 60 38 96.5t62 36.5l-5 -65q-21 0 -33 -68zM500 792l6 65q21 0 33 68h62q-11 -60 -38.5 -96.5t-62.5 -36.5z" />
    <glyph glyph-name="y_cap_grave" unicode="&#x1ef2;" horiz-adv-x="543" 
d="M146 722h109l106 -292l-71 -99zM551 722h110l-282 -391l-36 99zM303 430h98l-75 -425h-98zM326 5v0v-2l-1 -3h-49h-49v3l1 2v0h98zM257 717h-109v0q-1 1 -1 2l-1 3h55h54q1 -1 1 -3l1 -2v0zM657 717h-109v0q0 1 1 2l2 3h55h55q-1 -1 -2 -3l-2 -2v0zM379 802l-54 150h109
l22 -150h-77z" />
    <glyph glyph-name="quoteleft" unicode="&#x2018;" horiz-adv-x="190" 
d="M161 628h91l-16 -90h-91zM270 732l-8 -44q-37 0 -47 -60h-54q18 104 109 104z" />
    <glyph glyph-name="quoteright" unicode="&#x2019;" horiz-adv-x="190" 
d="M224 732h91l-16 -91h-91zM299 641q-10 -55 -35 -79t-74 -24l8 43q19 0 30 14t17 46h54z" />
    <glyph glyph-name="quotedblleft" unicode="&#x201c;" horiz-adv-x="378" 
d="M206 628h91l-16 -90h-91zM315 732l-7 -44q-37 0 -47 -60h-55q18 104 109 104zM349 628h91l-16 -90h-91zM458 732l-8 -44q-35 0 -47 -60h-54q18 104 109 104z" />
    <glyph glyph-name="quotedblright" unicode="&#x201d;" horiz-adv-x="378" 
d="M224 732h91l-16 -91h-91zM299 641q-10 -55 -35 -79t-74 -24l8 43q19 0 30 14t17 46h54zM367 732h91l-16 -91h-91zM442 641q-10 -55 -35 -79t-74 -24l8 43q36 0 46 60h55z" />
    <glyph glyph-name="ellipsis" unicode="&#x2026;" horiz-adv-x="522" 
d="M50 0l16 91h91l-16 -91h-91zM216 0l16 91h91l-16 -91h-91zM382 0l16 91h90l-16 -91h-90z" />
    <glyph glyph-name="guilsinglleft" unicode="&#x2039;" horiz-adv-x="245" 
d="M256 445h72l-155 -199l85 -199h-72l-86 199z" />
    <glyph glyph-name="guilsinglright" unicode="&#x203a;" horiz-adv-x="245" 
d="M149 445h73l85 -199l-155 -199h-73l155 199z" />
    <glyph glyph-name="F_sc" unicode="&#xa730;" horiz-adv-x="475" 
d="M98 5l98 559h89l-99 -559h-88zM285 569h261l-13 -72h-260zM243 328h242l-12 -69h-242zM186 5v0v-2l-1 -3h-44h-44v3l1 2v0h88zM285 564h-89v0q1 1 1 2v3h44h44v0v-5zM480 328v0h3h2q0 -4 -6 -35q-1 -8 -6 -34h-2h-3q2 0 0 0zM541 569h5v0q-1 -5 -3 -18t-3 -18t-3.5 -18
t-3.5 -18h-2h-3v0z" />
    <glyph glyph-name="S_sc" unicode="&#xa731;" horiz-adv-x="563" 
d="M75 167l84 52q-13 -73 30 -112.5t129 -39.5q64 0 103 24t47 65q12 74 -145 92q-96 11 -138.5 53.5t-29.5 113.5q14 74 74.5 119t145.5 45t138.5 -35.5t61.5 -102.5l-73 -57q-7 56 -44.5 86t-96.5 30q-45 0 -76 -21t-37 -55q-12 -70 114 -87q110 -14 159 -58.5t36 -119.5
q-14 -78 -79.5 -123.5t-173.5 -45.5q-120 0 -182 45.5t-47 131.5z" />
    <glyph glyph-name="X_sc" unicode="&#xf078;" horiz-adv-x="482" 
d="M157 569h90l221 -569h-91zM286 322l46 -63l-202 -259h-91zM477 569h91l-233 -309l-51 59zM249 564h-91v0v2q-2 3 -1 3h45h45q1 -1 1 -3l1 -2v0zM564 564h-91v0l2 2l2 3h46h45q0 -1 -2 -3l-2 -2v0zM134 5v0l-2 -2l-2 -3h-45h-46q1 1 2 3l2 2v0h91zM466 5v0q0 -1 1 -2l1 -3
h-46h-45q0 1 -1 3l-1 2v0h91z" />
  </font>
</defs>
</svg>
