<?xml version="1.0" standalone="no"?>
<!DOCTYPE svg PUBLIC "-//W3C//DTD SVG 1.1//EN" "http://www.w3.org/Graphics/SVG/1.1/DTD/svg11.dtd" >
<svg xmlns="http://www.w3.org/2000/svg">
<metadata></metadata>
<defs>
<font id="marche_llarge" horiz-adv-x="1652" >
<font-face units-per-em="2048" ascent="1638" descent="-410" />
<missing-glyph horiz-adv-x="1044" />
<glyph horiz-adv-x="0" />
<glyph unicode="&#xd;" horiz-adv-x="681" />
<glyph unicode=" "  horiz-adv-x="1044" />
<glyph unicode="&#x09;" horiz-adv-x="1044" />
<glyph unicode="&#xa0;" horiz-adv-x="1044" />
<glyph unicode="!" horiz-adv-x="860" d="M332 98q0 41 29.5 70t70.5 29t68.5 -29t27.5 -70t-28.5 -69.5t-69.5 -28.5t-69.5 28.5t-28.5 69.5zM352 461l15 1300h163l-14 -1300h-164z" />
<glyph unicode="&#x22;" horiz-adv-x="1079" d="M186 1233l7 528h163l-6 -528h-164zM754 1233l6 528h164l-6 -528h-164z" />
<glyph unicode="#" horiz-adv-x="1880" d="M76 535v163h422l86 365h-434l2 164h469l124 534h164l-125 -534h488l125 534h166l-125 -534h385l-2 -164h-420l-86 -365h432v-163h-469l-125 -535h-166l125 535h-487l-125 -535h-164l125 535h-385zM662 698h487l86 365h-487z" />
<glyph unicode="%" horiz-adv-x="2854" d="M291 1317q0 195 133 321q131 123 336 123q203 0 332 -123q127 -121 127 -305q0 -197 -134 -323q-131 -123 -335 -123q-203 0 -332 123q-127 121 -127 307zM442 -88l1772 1937h217l-1774 -1937h-215zM455 1325q0 -123 81.5 -198.5t215 -75.5t217.5 75q86 80 86 199 q0 121 -82 196.5t-215 75.5t-217 -75q-86 -80 -86 -197zM1655 428q0 197 133 324q131 122 333.5 122t332.5 -122q127 -121 126 -308q0 -195 -133 -321q-131 -123 -333.5 -123t-331.5 123q-127 121 -127 305zM1819 436q0 -121 81.5 -196.5t215.5 -75.5q131 0 215 76 q86 80 86 196q0 123 -82 199t-215 76q-131 0 -215 -76q-86 -80 -86 -199z" />
<glyph unicode="&#x26;" horiz-adv-x="2054" d="M317 477q0 133 89.5 240t218.5 164q-127 55 -213 160.5t-86 234.5q0 106 57 197.5t154 152.5q209 135 530 135q324 0 528 -135q96 -66 152 -156l-141 -84q-61 106 -213 158.5t-328 52.5q-254 0 -412 -88q-164 -92 -164 -229q0 -141 158 -229t412 -88h1034l-2 -164h-297 l-4 -318q-2 -104 -58.5 -194t-150.5 -152q-209 -135 -532.5 -135t-528.5 135q-92 61 -147.5 150.5t-55.5 191.5zM481 481q0 -141 158 -229t412 -88q256 0 413 88q162 90 162 229l4 318h-573q-254 0 -412 -88q-164 -92 -164 -230z" />
<glyph unicode="'" horiz-adv-x="899" d="M186 1233l7 528h163l-6 -528h-164z" />
<glyph unicode="(" horiz-adv-x="956" d="M164 614q0 494 315 910q169 223 357 327l75 -139q-162 -84 -319 -299q-264 -369 -264 -792q0 -416 247 -773q152 -213 316 -299l-80 -139q-182 102 -348 328q-299 412 -299 876z" />
<glyph unicode=")" horiz-adv-x="956" d="M57 -451q166 86 322 299q264 369 264 793q0 416 -248 772q-152 213 -315 299l78 139q186 -104 350 -327q299 -412 299 -877q0 -492 -318 -909q-168 -223 -356 -328z" />
<glyph unicode="*" horiz-adv-x="1617" d="M322 881l352 358l-346 123l2 180l411 -147l4 366h164l-4 -366l416 147l-2 -180l-348 -123l344 -358h-223l-271 282l-276 -282h-223z" />
<glyph unicode="+" horiz-adv-x="1705" d="M145 580l2 163h631l6 578h164l-6 -578h633l-2 -163h-633l-6 -580h-164l6 580h-631z" />
<glyph unicode="," horiz-adv-x="712" d="M20 -330l314 594h184l-311 -594h-187z" />
<glyph unicode="-" horiz-adv-x="1095" d="M145 580l2 163h818l-2 -163h-818z" />
<glyph unicode="." horiz-adv-x="651" d="M227 98q0 41 30 70t71 29t68.5 -29t27.5 -70t-28.5 -69.5t-69.5 -28.5t-70 28.5t-29 69.5z" />
<glyph unicode="/" horiz-adv-x="1304" d="M70 -88l1003 1937h182l-1005 -1937h-180z" />
<glyph unicode="0" horiz-adv-x="1671" d="M131 854q0 227 36 394t144 298q176 215 543 215q362 0 537 -215q168 -211 168 -639q0 -227 -36 -394t-145 -298q-176 -215 -542 -215q-362 0 -537 215q-168 211 -168 639zM295 852q0 -344 129 -514q131 -174 414 -174q281 0 417 174q84 109 112 246t28 325 q0 344 -129 514q-131 174 -414 174q-281 0 -418 -174q-84 -109 -111.5 -246t-27.5 -325z" />
<glyph unicode="1" horiz-adv-x="1253" d="M152 1311l2 186l419 264h205l-16 -1761h-166l16 1602z" />
<glyph unicode="2" d="M139 0l2 164q106 74 322.5 223.5t324.5 222.5q102 72 156.5 111t140.5 113.5t130.5 135t79 144.5t34.5 172q0 137 -139 223q-141 88 -365 88q-166 0 -305 -57t-186 -170l-154 55q51 125 164 203q190 133 483 133t482 -133q84 -59 134 -147t50 -189q0 -109 -40 -213 t-96.5 -183t-152.5 -168t-171 -145.5t-191 -136.5q-68 -47 -205 -141t-205 -141h1049l-2 -164h-1340z" />
<glyph unicode="3" horiz-adv-x="1619" d="M156 291l145 78q37 -72 111 -117q139 -88 364 -88t367 88q143 90 143 229.5t-139 229.5q-139 88 -365 88h-147l2 164h147q223 0 365 88q145 90 145 229t-139 229q-139 88 -364 88q-223 0 -365 -88q-74 -47 -113 -112l-145 73q47 88 141 156q188 135 484 135 q297 0 481 -135q184 -133 184 -340q0 -131 -79.5 -239.5t-200.5 -165.5q117 -55 194.5 -161t77.5 -233q0 -219 -190 -352q-188 -135 -485.5 -135t-481.5 135q-88 63 -137 156z" />
<glyph unicode="4" horiz-adv-x="1687" d="M109 446l2 205l976 1110h205l-12 -1151h344v-164h-346q0 -76 -2 -223t-2 -223h-164l4 446h-1005zM270 610h846l10 975z" />
<glyph unicode="5" horiz-adv-x="1671" d="M147 375l152 61q41 -96 127 -160q152 -113 393 -112q244 0 398 112q158 115 157 299q0 174 -139 287q-141 113 -367 113q-150 0 -282.5 -64.5t-227.5 -179.5h-163l8 866l2 164h1263l-2 -164h-1099l-9 -770q74 141 212.5 226.5t299.5 85.5q295 0 484 -160 q184 -158 184 -404q0 -254 -205 -415q-203 -160 -514 -160q-315 0 -514 160q-106 86 -158 215z" />
<glyph unicode="6" horiz-adv-x="1671" d="M127 520q0 389 207 724t553 517h246q-281 -115 -485 -337t-294 -504q195 131 492 131q315 0 512 -148q197 -145 196 -371q0 -115 -54 -216t-148 -169q-201 -147 -516.5 -147t-511.5 147q-90 68 -143.5 165.5t-53.5 207.5zM291 522q0 -156 151 -258q152 -100 395.5 -100 t397.5 100q156 102 156 266q0 154 -152 256q-152 100 -395 101q-242 0 -395 -101q-158 -104 -158 -264z" />
<glyph unicode="7" d="M156 1597l2 164h1339l-2 -205l-950 -1556h-180l974 1597h-1183z" />
<glyph unicode="8" horiz-adv-x="1671" d="M127 498q0 111 54.5 208t148.5 160q135 94 311 123q-131 25 -223 76q-166 96 -166 233q0 205 170 334q168 129 432 129q262 0 428 -129q162 -124 162 -323q0 -131 -118 -212t-275 -108q176 -29 307 -123q90 -63 143 -157.5t53 -198.5q0 -111 -54 -208t-148 -161 q-203 -141 -516.5 -141t-511.5 141q-90 63 -143.5 157.5t-53.5 199.5zM291 504q0 -154 151 -246q150 -94 395.5 -94t397.5 94q70 41 113 106.5t43 139.5q0 152 -152 244q-150 94 -395.5 94t-397.5 -94q-156 -94 -155 -244zM416 1303q0 -131 119 -213q123 -84 311 -84 q184 0 311 84q123 84 123 213q0 131 -119 213q-121 82 -309 81q-190 0 -313 -81q-123 -84 -123 -213z" />
<glyph unicode="9" horiz-adv-x="1671" d="M135 1229q0 115 54.5 216t148.5 169q201 147 516 147t512 -147q90 -68 143.5 -165t53.5 -208q0 -389 -207 -724t-555 -517h-246q283 115 485.5 336t294.5 506q-195 -131 -493 -131q-315 0 -512 147q-195 143 -195 371zM299 1229q0 -154 150 -254q152 -100 395 -100.5 t397 100.5q158 104 158 264q0 156 -152 258q-151 100 -395 100t-397 -100q-70 -47 -113 -117.5t-43 -150.5z" />
<glyph unicode=":" horiz-adv-x="651" d="M227 98q0 41 30 70t71 29t68.5 -29t27.5 -70t-28.5 -69.5t-69.5 -28.5t-70 28.5t-29 69.5zM240 1223q0 41 28.5 69.5t69.5 28.5t69.5 -28.5t28.5 -69.5t-29.5 -70t-70.5 -29t-68.5 29t-27.5 70z" />
<glyph unicode=";" horiz-adv-x="712" d="M20 -330l314 594h184l-311 -594h-187zM336 1223q0 41 29.5 69.5t70.5 28.5t68.5 -28.5t27.5 -69.5t-28.5 -70t-69.5 -29t-69.5 29t-28.5 70z" />
<glyph unicode="&#x3c;" horiz-adv-x="1705" d="M145 573l2 175l1432 579v-176l-1217 -489l1207 -492l-2 -176z" />
<glyph unicode="=" horiz-adv-x="1705" d="M143 315v164h1428v-164h-1428zM147 842l3 164h1427l-2 -164h-1428z" />
<glyph unicode="&#x3e;" horiz-adv-x="1705" d="M139 -6l2 176l1217 489l-1206 492v176l1423 -579l-2 -175z" />
<glyph unicode="?" horiz-adv-x="1619" d="M233 1470q45 88 134 156q178 135 452.5 135t448.5 -135q172 -135 172 -340q0 -217 -178 -352q-147 -115 -371 -131l-4 -342h-164l6 502h82q201 0 334 88q131 90 131 229t-127 229q-129 88 -332 88q-139 0 -262 -51t-172 -145zM702 98q0 41 30 70t71 29t68.5 -29t27.5 -70 t-28.5 -69.5t-69.5 -28.5t-70 28.5t-29 69.5z" />
<glyph unicode="@" horiz-adv-x="2457" d="M154 651q0 209 84 398.5t226 326.5t337.5 218t410.5 81t412 -81t338 -218t225 -326.5t84 -398.5q0 -145 -65.5 -329.5t-157.5 -298.5v-3h-264q-37 0 -64 72t-30 127l-2 78q-37 -90 -113 -154q-145 -121 -369 -120q-283 0 -461 120q-27 18 -50 40t-42.5 45.5t-35 49 t-25.5 54t-16.5 59.5t-6.5 62q0 96 49.5 179t133.5 138q59 41 74.5 50t59.5 31.5t79.5 27t97 9.5t151.5 5q4 0 14.5 -2t40 -7t58.5 -11.5t68 -17.5t70.5 -22.5t63.5 -28t52 -34.5q72 -59 111 -149l2 272q0 123 -133 203q-133 78 -342 78q-141 0 -263 -41t-180 -123l-133 92 q49 70 113 110q178 125 463 125t460 -125q82 -55 130.5 -140t48.5 -179q-2 -20 -4.5 -54t-5.5 -127.5t-4 -171t1 -159.5t8 -119q12 -63 23 -76q8 -14 37 -15t37 9q2 4 4 6q59 88 101 224.5t44 240.5q0 233 -118.5 430t-322.5 311.5t-444.5 114.5t-444.5 -114.5t-322.5 -311 t-118.5 -430.5q0 -156 84 -340t202 -288h-233q-94 115 -159.5 299t-67.5 329zM733 457.5q0 -60.5 36 -111.5t93 -86q133 -76 345 -76t345 76q61 35 99.5 87t38.5 112q0 39 -18.5 76.5t-47.5 67.5t-68 50q-133 76 -345 76t-345 -76q-59 -33 -96 -84t-37 -111.5z" />
<glyph unicode="A" horiz-adv-x="1931" d="M35 0l846 1761h204l811 -1761h-180l-235 514h-1012l-248 -514h-186zM547 678h858l-420 911z" />
<glyph unicode="B" horiz-adv-x="1826" d="M244 0l18 1761h713q279 0 455 -129q172 -124 172 -323q0 -117 -68 -220.5t-172 -154.5q68 -31 119 -68q90 -63 142 -157.5t52 -198.5q0 -111 -54 -208t-148 -161q-203 -141 -515 -141h-714zM410 164h548q246 0 398 94q70 41 112.5 106.5t42.5 139.5q0 152 -151 244 q-152 96 -393 96h-551zM418 1008h549q209 0 338 82q133 82 133 213q0 133 -129 213q-125 81 -331 81h-5h-549z" />
<glyph unicode="C" horiz-adv-x="2349" d="M166 874q0 186 79 354.5t224 287.5q300 246 766 246h2q467 0 762 -246q125 -107 199 -248l-148 -78q-63 123 -170 207q-247 201 -643 201h-2q-397 0 -649 -201q-121 -96 -188.5 -233.5t-67.5 -289.5q0 -150 65.5 -283.5t179.5 -225.5q248 -201 646 -201q395 0 647 201 q111 88 176 206l145 -77q-78 -145 -202 -248q-301 -246 -768 -246t-762 246q-137 115 -214 280.5t-77 347.5z" />
<glyph unicode="D" horiz-adv-x="2177" d="M244 0l18 1761h670q487 0 792 -245q143 -115 223.5 -280t80.5 -349q-2 -188 -85 -356.5t-231 -284.5q-311 -246 -799 -246h-669zM410 164h505q416 0 680 201q125 92 197 230t72 292q0 150 -69 284t-189 226q-259 200 -672 200h-4h-506z" />
<glyph unicode="E" horiz-adv-x="1617" d="M244 0l18 1761h1254l-3 -164h-1089l-6 -634h1007l-2 -164h-1007l-6 -635h1089l-2 -164h-1253z" />
<glyph unicode="F" horiz-adv-x="1531" d="M244 0l18 1761h1254l-3 -164h-1089l-6 -634h1007l-2 -164h-1007l-8 -799h-164z" />
<glyph unicode="G" horiz-adv-x="2471" d="M166 874q0 186 79 354.5t224 287.5q300 246 766 246h2q467 -1 762 -246q86 -74 145 -160l-137 -96q-53 80 -127 137q-247 201 -643 201h-2q-397 -1 -649 -201q-121 -96 -188.5 -233.5t-67.5 -289.5q0 -150 65.5 -283.5t179.5 -225.5q248 -201 646 -201q395 0 647 201 q213 172 252 434h-893l2 164h1061v-82q0 -8 -1 -21.5t-1 -19.5l-9 -840h-163l4 383q-55 -72 -133 -137q-301 -246 -768 -246t-762 246q-137 115 -214 280.5t-77 347.5z" />
<glyph unicode="H" horiz-adv-x="2088" d="M244 0l18 1761h164l-8 -798h1274l8 798h164l-19 -1761h-164l9 799h-1274l-8 -799h-164z" />
<glyph unicode="I" horiz-adv-x="720" d="M279 0l18 1761h164l-19 -1761h-163z" />
<glyph unicode="J" horiz-adv-x="1531" d="M92 219l129 109q68 -80 179.5 -122t236.5 -42q223 0 367 112q139 111 143 287l12 1198h164l-12 -1198q-4 -250 -191 -405q-188 -158 -485 -158q-160 0 -308.5 57.5t-234.5 161.5z" />
<glyph unicode="K" horiz-adv-x="1845" d="M244 0l18 1761h164l-8 -880q66 45 195.5 135t195.5 135l891 610h289l-977 -669l880 -1092h-211l-804 997l-463 -317l-6 -680h-164z" />
<glyph unicode="L" horiz-adv-x="1497" d="M244 0l18 1761h164l-16 -1597h1089l-2 -164h-1253z" />
<glyph unicode="M" horiz-adv-x="2697" d="M244 0l18 1761h205l883 -1607l917 1607h205l-18 -1761h-164l16 1497l-854 -1497h-205l-825 1499l-14 -1499h-164z" />
<glyph unicode="N" horiz-adv-x="2177" d="M244 0l18 1761h205l1302 -1558l17 1558h164l-19 -1761h-205l-1302 1559l-16 -1559h-164z" />
<glyph unicode="O" horiz-adv-x="2437" d="M166 874q0 186 79 354.5t224 287.5q301 245 768 245t762 -245q137 -115 214 -281t77 -348q-2 -188 -81 -355t-222 -286q-301 -246 -768 -246t-762 246q-137 115 -214 280.5t-77 347.5zM330 874q0 -150 65.5 -283.5t179.5 -225.5q248 -201 646 -201q395 0 647 201 q121 96 189.5 233t68.5 289q0 150 -65.5 284t-180.5 226q-248 200 -645 200t-649 -200q-121 -96 -188.5 -233.5t-67.5 -289.5z" />
<glyph unicode="P" horiz-adv-x="1775" d="M244 0l18 1761h658q338 0 553 -159q98 -72 154 -178.5t56 -225.5q0 -125 -58 -233.5t-161 -182.5q-218 -159 -551 -159h-4h-495q0 -104 -2 -311.5t-4 -311.5h-164zM416 786h493q270 0 439 113q172 117 172 297q0 172 -166 289q-165 112 -431 112h-5h-494z" />
<glyph unicode="Q" horiz-adv-x="2437" d="M166 874q0 186 79 354.5t224 287.5q300 246 766 246h2q467 -1 762 -246q137 -115 214 -281t77 -348q-2 -201 -93.5 -378t-248.5 -294l168 -215h-168l-113 143q-260 -143 -616 -143q-467 0 -762 246q-137 115 -214 280.5t-77 347.5zM330 874q0 -150 65.5 -283.5 t179.5 -225.5q248 -201 646 -201q291 0 510 112l-193 246h170l137 -176q129 96 205 238.5t76 302.5q0 150 -65.5 284t-180.5 226q-247 201 -643 201h-2q-397 -1 -649 -201q-121 -96 -188.5 -233.5t-67.5 -289.5z" />
<glyph unicode="R" horiz-adv-x="1759" d="M244 0l18 1761h658q340 0 553 -147q96 -66 153 -164t57 -209q0 -115 -59 -215t-160 -168q-131 -88 -311 -125l518 -733h-201l-489 713q-25 -2 -72 -2h-493l-8 -711h-164zM416 874h495q266 0 437 101q172 102 172 264q0 156 -166 258q-166 100 -436 100h-494z" />
<glyph unicode="S" horiz-adv-x="1792" d="M174 338l150 65q51 -125 216 -182t359 -57q160 0 285 25.5t218 100.5t93 193q0 61 -30.5 108.5t-70.5 75t-117 53t-126 36t-139 26.5q-14 2 -23 4l-131 25q-622 117 -622 466q0 222 202.5 353t474.5 131q297 0 486 -135q113 -80 160 -203l-154 -59q-45 117 -184.5 175 t-307.5 58q-209 0 -361.5 -81.5t-152.5 -237.5q0 -59 30 -106.5t71 -77t110.5 -54t123.5 -38t136 -27.5l131 -25q133 -25 239 -58.5t207 -86.5t156.5 -135t55.5 -187q0 -160 -114.5 -272.5t-281.5 -161.5t-366 -49q-334 0 -545 135q-127 82 -178 203z" />
<glyph unicode="T" horiz-adv-x="1601" d="M16 1597l2 164h1602l-2 -164h-719l-16 -1597h-164l16 1597h-719z" />
<glyph unicode="U" horiz-adv-x="2054" d="M233 643l11 1118h164l-11 -1118v-8q0 -97 45 -185q47 -90 129 -151q178 -135 457 -135q281 0 461 135q178 133 182 344l10 1118h164l-10 -1118q-2 -135 -62.5 -257t-166.5 -206q-229 -180 -579.5 -180t-573.5 180q-104 84 -163 206q-57 118 -57 248v9z" />
<glyph unicode="V" horiz-adv-x="1740" d="M0 1761h178l694 -1589l723 1589h181l-803 -1761h-205z" />
<glyph unicode="W" horiz-adv-x="2646" d="M18 1761h179l721 -1591l323 686l-410 905h181l321 -710l336 710h180l-428 -907l310 -684l751 1591h182l-831 -1761h-205l-299 659l-311 -659h-205z" />
<glyph unicode="X" d="M-16 0l747 961l-608 800h209l506 -665l518 665h211l-625 -800l729 -961h-209l-626 823l-643 -823h-209z" />
<glyph unicode="Y" horiz-adv-x="1740" d="M0 1761h203l676 -936l692 936h205l-818 -1102l-6 -659h-164l7 659z" />
<glyph unicode="Z" horiz-adv-x="1740" d="M70 0l2 205l1446 1392h-1432l2 164h1602l-2 -205l-1446 -1392h1431l-2 -164h-1601z" />
<glyph unicode="[" horiz-adv-x="974" d="M307 -614l25 2463h557l-2 -163h-393l-21 -2137h393l-2 -163h-557z" />
<glyph unicode="\" horiz-adv-x="1304" d="M88 1849h188l959 -1937h-188z" />
<glyph unicode="]" horiz-adv-x="974" d="M98 -614l2 163h394l20 2137h-393l2 163h557l-25 -2463h-557z" />
<glyph unicode="^" horiz-adv-x="1880" d="M129 705l729 1056h199l708 -1056h-198l-611 911l-628 -911h-199z" />
<glyph unicode="_" horiz-adv-x="1705" d="M137 -246l2 164h1428l-2 -164h-1428z" />
<glyph unicode="`" horiz-adv-x="731" d="M86 1761h236l337 -352h-176z" />
<glyph unicode="a" d="M162 432q0 199 182 320q181 122 460 122h5q225 0 369 -122q72 -59 110 -150l2 272q0 123 -133 203t-344 80q-141 0 -264 -41t-180 -125l-133 92q49 70 112 113q180 125 465 125q287 0 463 -125q180 -125 178 -322l-8 -874h-164l2 276q-37 -92 -113 -153 q-145 -123 -370 -123q-283 0 -463 123q-176 121 -176 309zM326 438q0 -123 131 -198q133 -76 346 -76t346 76q137 78 137 198q0 119 -133 197q-133 76 -346 76t-346 -76q-135 -76 -135 -197z" />
<glyph unicode="b" horiz-adv-x="1826" d="M244 0l18 1946h164l-10 -1049q43 139 133 240q162 184 422 184q315 0 512 -184q195 -178 194 -467q0 -299 -204 -486q-199 -184 -515 -184q-258 0 -417 184q-86 98 -129 242q-2 -72 -2 -214t-2 -212h-164zM414 647q4 -211 151 -344q154 -139 393.5 -139t397 139 t157.5 367q0 215 -149 348q-153 139 -395 139q-240 0 -398 -139q-152 -133 -157 -348v-23z" />
<glyph unicode="c" horiz-adv-x="1734" d="M164 653q0 297 209 484q205 184 528 184q322 0 524 -184q98 -92 148 -209l-152 -66q-41 90 -114 156q-156 139 -408 139q-250 0 -410 -139q-161 -138 -161 -362q0 -216 155 -353q156 -139 406 -139t409 139q78 66 119 156l150 -66q-53 -121 -152 -209 q-204 -184 -526 -184q-324 0 -527 184q-199 180 -198 469z" />
<glyph unicode="d" horiz-adv-x="1826" d="M164 653q0 297 205 484q199 184 514 184q258 0 417 -184q88 -104 130 -238q2 174 5 523.5t5 523.5h164l-19 -1946h-166l4 420q-43 -139 -131 -236q-162 -184 -422 -184q-315 0 -512 184q-195 178 -194 469zM328 653q0 -217 149 -350q154 -139 395 -139q240 0 398 139 q139 121 155 324l2 71q-12 195 -151 320q-154 139 -393.5 139t-397 -139t-157.5 -365z" />
<glyph unicode="e" horiz-adv-x="1740" d="M164 653q0 297 209 484q205 184 528 184q322 0 524 -184q99 -90 151 -214q51 -119 50 -251v-10l-2 -82h-1290q27 -168 149 -277q156 -139 406 -139t409 139q29 23 62 64l131 -103q-29 -37 -76 -80q-204 -184 -526 -184q-324 0 -527 184q-199 180 -198 469zM336 743h1120 q-25 166 -149 275q-156 139 -408 139q-250 0 -410 -139q-125 -106 -153 -275z" />
<glyph unicode="f" horiz-adv-x="1026" d="M94 1157v164h334l2 276q0 150 94 250q92 98 240 99q102 0 185 -56.5t116 -144.5l-156 -62q-18 43 -58 71t-89 28q-74 0 -121 -54.5t-47 -130.5l-2 -276h332l-2 -164h-332q-2 -193 -6 -578.5t-6 -578.5h-164l12 1157h-332z" />
<glyph unicode="g" horiz-adv-x="1792" d="M164 653q0 297 205 484q199 184 514 184q258 0 417 -184q86 -98 130 -240l4 424h163l-14 -1403q-2 -113 -56 -214t-147 -169q-202 -149 -512 -149h-4q-311 0 -512 149q-125 92 -172 234l156 53q35 -100 135 -170q152 -102 395 -102q2 -1 3 -1q242 0 395 103 q154 104 155 266l6 504q-39 -131 -133 -238q-162 -184 -422 -184q-315 0 -512 184q-195 178 -194 469zM328 653q0 -217 149 -350q154 -139 395 -139q240 0 398 139q143 129 157 336v49q-6 201 -151 330q-154 139 -393.5 139t-397 -139t-157.5 -365z" />
<glyph unicode="h" horiz-adv-x="1601" d="M244 0l18 1946h164l-8 -953q37 106 119 185q152 143 387 143q221 0 358 -143q135 -141 135 -357v-12l-8 -809h-164l8 809q0 160 -90 252q-90 96 -241 96q-219 0 -363 -96q-143 -98 -143 -252q0 -135 -3 -404.5t-5 -404.5h-164z" />
<glyph unicode="i" horiz-adv-x="487" d="M158 1825q0 43 28.5 72.5t73.5 29.5q43 0 72.5 -28.5t29.5 -73.5q0 -43 -29.5 -73t-74.5 -30q-43 0 -71.5 29t-28.5 74zM162 0l12 1321h164l-12 -1321h-164z" />
<glyph unicode="j" horiz-adv-x="747" d="M-319 -440l135 96q35 -51 104.5 -79t145.5 -28q115 0 202.5 61.5t87.5 164.5l15 1546h164l-15 -1546q-4 -174 -129 -281q-124 -108 -324 -108h-4q-119 0 -222 46t-160 128zM311 1825q0 43 30 72.5t75 29.5q43 0 71.5 -28.5t28.5 -73.5q0 -43 -28.5 -73t-73.5 -30 q-43 0 -73 29t-30 74z" />
<glyph unicode="k" horiz-adv-x="1497" d="M244 0l18 1946h164l-18 -1946h-164zM412 397l2 215l841 709h254l-645 -543l633 -778h-231l-539 662z" />
<glyph unicode="l" horiz-adv-x="651" d="M244 0l18 1946h164l-18 -1946h-164z" />
<glyph unicode="m" horiz-adv-x="2525" d="M209 0l12 1321h164l-2 -326q41 111 115 183q145 143 379 143q215 0 350 -143q90 -96 119 -232q35 137 133 232q145 143 376 143q217 0 353 -143q133 -141 133 -356v-13l-8 -809h-164l8 809q0 156 -88 252q-90 96 -236 96q-215 0 -352 -96t-141 -252l-8 -809h-164l8 809 q0 156 -88 252q-90 96 -234 96q-217 0 -354 -96q-139 -98 -139 -252l-8 -809h-164z" />
<glyph unicode="n" d="M209 0l12 1321h164l-4 -336q45 115 135 193q166 143 426 143q233 0 383 -143q145 -140 145 -355v-14l-8 -809h-164l9 809q0 158 -101 252q-102 96 -266 96q-246 0 -401 -96q-154 -94 -158 -252l-8 -809h-164z" />
<glyph unicode="o" horiz-adv-x="1775" d="M164 653q0 297 209 484q204 184 528 184q322 0 524 -184q201 -182 201 -467q0 -297 -211 -486q-205 -184 -526 -184q-324 0 -527 184q-199 180 -198 469zM483 303q156 -139 406 -139t409 139q164 141 164 367q0 211 -155 348q-156 139 -408 139q-250 0 -410 -139 q-161 -138 -161 -362q0 -216 155 -353z" />
<glyph unicode="p" horiz-adv-x="1792" d="M203 -614l18 1935h164q0 -70 -2 -211t-2 -213q43 139 133 240q162 184 422 184q315 0 512 -184q195 -178 194 -467q0 -299 -204 -486q-199 -184 -516 -184q-256 0 -416 184q-86 96 -129 244l-10 -1042h-164zM379 653q0 -215 151 -350q154 -139 393.5 -139t397.5 139 t158 367q0 215 -150 348q-153 139 -395 139q-240 0 -397.5 -139t-157.5 -365z" />
<glyph unicode="q" horiz-adv-x="1792" d="M164 653q0 297 205 484q199 184 514 184q258 0 417 -184q86 -96 130 -242l4 426h163l-18 -1935h-164l10 1038q-43 -139 -133 -240q-162 -184 -422 -184q-315 0 -512 184q-195 178 -194 469zM328 653q0 -217 149 -350q154 -139 395 -139q240 0 398 139q152 133 157 348v25 q-4 209 -151 342q-154 139 -393.5 139t-397 -139t-157.5 -365z" />
<glyph unicode="r" horiz-adv-x="1028" d="M209 0l12 1321h164l-4 -363q35 113 102 197q133 166 340 166q100 0 189 -27l-47 -157q-68 20 -144 20q-193 0 -315 -121q-121 -115 -125 -309h-2q-2 -121 -4 -363.5t-2 -363.5h-164z" />
<glyph unicode="s" horiz-adv-x="1427" d="M141 279l154 55q31 -90 152.5 -130t267.5 -40q428 0 430 209q0 37 -16.5 64.5t-38 44t-64.5 31.5t-70.5 21.5t-85 17.5t-79.5 15l-115 23q-479 102 -479 358q0 172 157.5 272.5t372.5 100.5q231 0 377 -104q96 -68 131 -175l-156 -51q-25 84 -128 125t-226 41 q-96 0 -174 -18.5t-134.5 -67.5t-56.5 -123q0 -45 25 -77.5t70 -52t90 -32t106 -24.5q10 -2 17.5 -3t15.5 -3l115 -25q109 -23 185.5 -47.5t157.5 -65t124 -102t43 -143.5q-2 -182 -177.5 -277.5t-418.5 -95.5q-260 0 -424 104q-109 70 -148 175z" />
<glyph unicode="t" horiz-adv-x="870" d="M-6 1157l2 164h371l6 625h164l-7 -625h371l-2 -164h-371l-12 -1157h-164l13 1157h-371z" />
<glyph unicode="u" d="M197 512l8 809h164l-9 -809q0 -156 127 -252t332 -96t334 96q133 98 133 252l8 809h164l-12 -1321h-164l2 322q-35 -102 -108 -179q-141 -143 -357 -143q-276 0 -450 143q-172 140 -172 359v10z" />
<glyph unicode="v" horiz-adv-x="1392" d="M-4 1321h180l520 -1153l545 1153h182l-624 -1321h-205z" />
<glyph unicode="w" horiz-adv-x="2174" d="M-4 1321h180l537 -1155l293 604l-256 551h180l168 -360l174 360h182l-268 -553l280 -602l559 1155h181l-639 -1321h-205l-268 578l-281 -578h-205z" />
<glyph unicode="x" horiz-adv-x="1409" d="M35 0l569 686l-516 635h215l410 -504l417 504h218l-529 -637l555 -684h-213l-450 553l-459 -553h-217z" />
<glyph unicode="y" horiz-adv-x="1427" d="M12 1321h183l520 -1112l542 1112h183l-944 -1935h-183l299 614h19z" />
<glyph unicode="z" horiz-adv-x="1323" d="M104 0l2 205l963 952h-952v164h1114l-2 -205l-961 -952h953l-2 -164h-1115z" />
<glyph unicode="|" horiz-adv-x="720" d="M279 -88l18 1937h164l-19 -1937h-163z" />
<glyph unicode="&#xa8;" horiz-adv-x="731" d="M-35 1571q0 43 30 72.5t75 29.5q43 0 71.5 -28.5t28.5 -73.5q0 -43 -28.5 -73t-73.5 -30q-43 0 -73 29t-30 74zM592 1571q0 43 29.5 72.5t74.5 29.5q43 0 72 -28.5t29 -73.5q0 -43 -29 -73t-74 -30q-43 0 -72.5 29t-29.5 74z" />
<glyph unicode="&#xab;" horiz-adv-x="1671" d="M180 662l486 659h182l-483 -659l471 -662h-185zM842 662l485 659h182l-483 -659l471 -662h-184z" />
<glyph unicode="&#xad;" horiz-adv-x="1095" d="M145 580l2 163h818l-2 -163h-818z" />
<glyph unicode="&#xaf;" horiz-adv-x="731" d="M-66 1468v146h893v-146h-893z" />
<glyph unicode="&#xb4;" horiz-adv-x="731" d="M100 1409l344 352h236l-404 -352h-176z" />
<glyph unicode="&#xbb;" horiz-adv-x="1671" d="M174 0l483 662l-471 659h185l471 -659l-484 -662h-184zM836 0l483 662l-471 659h184l471 -659l-483 -662h-184z" />
<glyph unicode="&#xc0;" horiz-adv-x="1931" d="M35 0l846 1761h204l811 -1761h-180l-235 514h-1012l-248 -514h-186zM496 2245h235l336 -353h-174zM547 678h858l-420 911z" />
<glyph unicode="&#xc1;" horiz-adv-x="1931" d="M35 0l846 1761h204l811 -1761h-180l-235 514h-1012l-248 -514h-186zM547 678h858l-420 911zM893 1892l344 353h236l-406 -353h-174z" />
<glyph unicode="&#xc2;" horiz-adv-x="1931" d="M35 0l846 1761h204l811 -1761h-180l-235 514h-1012l-248 -514h-186zM522 1892l344 353h236l336 -353h-174l-281 250l-287 -250h-174zM547 678h858l-420 911z" />
<glyph unicode="&#xc3;" horiz-adv-x="1931" d="M35 0l846 1761h204l811 -1761h-180l-235 514h-1012l-248 -514h-186zM494 1903q0 104 94 176q92 70 237 69q55 0 157.5 -36.5t156.5 -36.5q74 0 137 24.5t63 75.5h131q0 -106 -94 -178q-90 -68 -239 -68q-55 0 -156 37t-156 37q-74 0 -137 -23.5t-63 -76.5h-131zM547 678 h858l-420 911z" />
<glyph unicode="&#xc4;" horiz-adv-x="1931" d="M35 0l846 1761h204l811 -1761h-180l-235 514h-1012l-248 -514h-186zM547 678h858l-420 911zM565 2054q0 43 30 73t75 30q43 0 71.5 -29t28.5 -74q0 -43 -28.5 -72.5t-73.5 -29.5q-43 0 -73 28.5t-30 73.5zM1192 2054q0 43 29.5 73t74.5 30q43 0 72 -29t29 -74 q0 -43 -29 -72.5t-74 -29.5q-43 0 -72.5 28.5t-29.5 73.5z" />
<glyph unicode="&#xc5;" horiz-adv-x="1931" d="M35 0l846 1761h204l811 -1761h-180l-235 514h-1012l-248 -514h-186zM547 678h858l-420 911zM692 2068.5q0 102.5 82 167.5q80 64 211 64q129 0 207 -64q80 -63 80 -168q0 -98 -84 -165q-80 -63 -209 -63.5t-207 63.5q-80 63 -80 165.5zM801 2068.5q0 -57.5 55 -89 t125 -31.5t126 31.5t56 88.5q0 59 -55 91t-125 32t-126 -32.5t-56 -90z" />
<glyph unicode="&#xc6;" horiz-adv-x="2801" d="M35 0l1317 1761h1347l-2 -164h-1102l-6 -634h1000l-2 -164h-1000l-6 -635h1102l-2 -164h-1266l6 578h-749l-432 -578h-205zM795 743h628l9 854z" />
<glyph unicode="&#xc8;" horiz-adv-x="1617" d="M244 0l18 1761h1254l-3 -164h-1089l-6 -634h1007l-2 -164h-1007l-6 -635h1089l-2 -164h-1253zM399 2245h236l338 -353h-176z" />
<glyph unicode="&#xc9;" horiz-adv-x="1617" d="M244 0l18 1761h1254l-3 -164h-1089l-6 -634h1007l-2 -164h-1007l-6 -635h1089l-2 -164h-1253zM797 1892l344 353h235l-403 -353h-176z" />
<glyph unicode="&#xca;" horiz-adv-x="1617" d="M244 0l18 1761h1254l-3 -164h-1089l-6 -634h1007l-2 -164h-1007l-6 -635h1089l-2 -164h-1253zM426 1892l344 353h236l337 -353h-176l-280 248l-285 -248h-176z" />
<glyph unicode="&#xcb;" horiz-adv-x="1617" d="M244 0l18 1761h1254l-3 -164h-1089l-6 -634h1007l-2 -164h-1007l-6 -635h1089l-2 -164h-1253zM471 2054q0 43 28.5 73t73.5 30q43 0 73 -29t30 -74q0 -43 -30 -72.5t-75 -29.5q-43 0 -71.5 28.5t-28.5 73.5zM1098 2054q0 43 28.5 73t73.5 30q43 0 73 -29t30 -74 q0 -43 -30 -72.5t-75 -29.5q-43 0 -71.5 28.5t-28.5 73.5z" />
<glyph unicode="&#xcc;" horiz-adv-x="720" d="M-111 2245h236l338 -353h-176zM279 0l18 1761h164l-19 -1761h-163z" />
<glyph unicode="&#xcd;" horiz-adv-x="720" d="M279 0l18 1761h164l-19 -1761h-163zM287 1892l344 353h235l-403 -353h-176z" />
<glyph unicode="&#xce;" horiz-adv-x="720" d="M-84 1892l344 353h236l338 -353h-177l-280 248l-285 -248h-176zM279 0l18 1761h164l-19 -1761h-163z" />
<glyph unicode="&#xcf;" horiz-adv-x="720" d="M-39 2054q0 43 28.5 73t73.5 30q43 0 73 -29t30 -74q0 -43 -30 -72.5t-75 -29.5q-43 0 -71.5 28.5t-28.5 73.5zM279 0l18 1761h164l-19 -1761h-163zM588 2054q0 43 28.5 73t73.5 30q43 0 73 -29t30 -74q0 -43 -30 -72.5t-75 -29.5q-43 0 -71.5 28.5t-28.5 73.5z" />
<glyph unicode="&#xd1;" horiz-adv-x="2177" d="M244 0l18 1761h205l1302 -1558l17 1558h164l-19 -1761h-205l-1302 1559l-16 -1559h-164zM616 1903q0 106 92.5 175.5t239.5 69.5q55 0 157.5 -36.5t156.5 -36.5q43 0 85 8t77.5 31.5t35.5 60.5h131q0 -106 -94 -178q-90 -68 -237 -68q-55 0 -158 37t-156 37 q-74 0 -136 -23.5t-62 -76.5h-132z" />
<glyph unicode="&#xd2;" horiz-adv-x="2437" d="M166 874q0 186 79 354.5t224 287.5q301 245 768 245t762 -245q137 -115 214 -281t77 -348q-2 -188 -81 -355t-222 -286q-301 -246 -768 -246t-762 246q-137 115 -214 280.5t-77 347.5zM330 874q0 -150 65.5 -283.5t179.5 -225.5q248 -201 646 -201q395 0 647 201 q121 96 189.5 233t68.5 289q0 150 -65.5 284t-180.5 226q-248 200 -645 200t-649 -200q-121 -96 -188.5 -233.5t-67.5 -289.5zM748 2245h235l338 -353h-176z" />
<glyph unicode="&#xd3;" horiz-adv-x="2437" d="M166 874q0 186 79 354.5t224 287.5q301 245 768 245t762 -245q137 -115 214 -281t77 -348q-2 -188 -81 -355t-222 -286q-301 -246 -768 -246t-762 246q-137 115 -214 280.5t-77 347.5zM330 874q0 -150 65.5 -283.5t179.5 -225.5q248 -201 646 -201q395 0 647 201 q121 96 189.5 233t68.5 289q0 150 -65.5 284t-180.5 226q-248 200 -645 200t-649 -200q-121 -96 -188.5 -233.5t-67.5 -289.5zM1145 1892l344 353h235l-403 -353h-176z" />
<glyph unicode="&#xd4;" horiz-adv-x="2437" d="M166 874q0 186 79 354.5t224 287.5q301 245 768 245t762 -245q137 -115 214 -281t77 -348q-2 -188 -81 -355t-222 -286q-301 -246 -768 -246t-762 246q-137 115 -214 280.5t-77 347.5zM330 874q0 -150 65.5 -283.5t179.5 -225.5q248 -201 646 -201q395 0 647 201 q121 96 189.5 233t68.5 289q0 150 -65.5 284t-180.5 226q-248 200 -645 200t-649 -200q-121 -96 -188.5 -233.5t-67.5 -289.5zM774 1892l344 353h236l338 -353h-176l-281 248l-285 -248h-176z" />
<glyph unicode="&#xd5;" horiz-adv-x="2437" d="M166 874q0 186 79 354.5t224 287.5q301 245 768 245t762 -245q137 -115 214 -281t77 -348q-2 -188 -81 -355t-222 -286q-301 -246 -768 -246t-762 246q-137 115 -214 280.5t-77 347.5zM330 874q0 -150 65.5 -283.5t179.5 -225.5q248 -201 646 -201q395 0 647 201 q121 96 189.5 233t68.5 289q0 150 -65.5 284t-180.5 226q-248 200 -645 200t-649 -200q-121 -96 -188.5 -233.5t-67.5 -289.5zM745 1903q0 104 95 176q92 70 239 69q55 0 155.5 -36.5t156.5 -36.5q74 0 137 24.5t63 75.5h131q0 -106 -94 -178q-90 -68 -237 -68 q-55 0 -158 37t-156 37q-74 0 -137 -23.5t-63 -76.5h-132z" />
<glyph unicode="&#xd6;" horiz-adv-x="2437" d="M166 874q0 186 79 354.5t224 287.5q301 245 768 245t762 -245q137 -115 214 -281t77 -348q-2 -188 -81 -355t-222 -286q-301 -246 -768 -246t-762 246q-137 115 -214 280.5t-77 347.5zM330 874q0 -150 65.5 -283.5t179.5 -225.5q248 -201 646 -201q395 0 647 201 q121 96 189.5 233t68.5 289q0 150 -65.5 284t-180.5 226q-248 200 -645 200t-649 -200q-121 -96 -188.5 -233.5t-67.5 -289.5zM819 2054q0 43 29 73t74 30q43 0 72.5 -29t29.5 -74q0 -43 -29.5 -72.5t-74.5 -29.5q-43 0 -72 28.5t-29 73.5zM1446 2054q0 43 28.5 73t73.5 30 q43 0 73 -29t30 -74q0 -43 -30 -72.5t-75 -29.5q-43 0 -71.5 28.5t-28.5 73.5z" />
<glyph unicode="&#xd9;" horiz-adv-x="2054" d="M233 643l11 1118h164l-11 -1118q-2 -102 45 -192.5t129 -151.5q178 -135 457 -135q281 0 461 135q178 133 182 344l10 1118h164l-10 -1118q-2 -135 -62.5 -257t-166.5 -206q-229 -180 -579.5 -180t-573.5 180q-104 84 -163 206t-57 257zM555 2245h238l335 -353h-174z" />
<glyph unicode="&#xda;" horiz-adv-x="2054" d="M233 643l11 1118h164l-11 -1118q-2 -102 45 -192.5t129 -151.5q178 -135 457 -135q281 0 461 135q178 133 182 344l10 1118h164l-10 -1118q-2 -135 -62.5 -257t-166.5 -206q-229 -180 -579.5 -180t-573.5 180q-104 84 -163 206t-57 257zM954 1892l342 353h238l-406 -353 h-174z" />
<glyph unicode="&#xdb;" horiz-adv-x="2054" d="M233 643l11 1118h164l-11 -1118q-2 -102 45 -192.5t129 -151.5q178 -135 457 -135q281 0 461 135q178 133 182 344l10 1118h164l-10 -1118q-2 -135 -62.5 -257t-166.5 -206q-229 -180 -579.5 -180t-573.5 180q-104 84 -163 206t-57 257zM584 1892l342 353h237l336 -353 h-174l-281 248l-286 -248h-174z" />
<glyph unicode="&#xdc;" horiz-adv-x="2054" d="M233 643l11 1118h164l-11 -1118q-2 -102 45 -192.5t129 -151.5q178 -135 457 -135q281 0 461 135q178 133 182 344l10 1118h164l-10 -1118q-2 -135 -62.5 -257t-166.5 -206q-229 -180 -579.5 -180t-573.5 180q-104 84 -163 206t-57 257zM627 2054q0 43 29.5 73t74.5 30 q43 0 71.5 -29t28.5 -74q0 -43 -28.5 -72.5t-73.5 -29.5q-43 0 -72.5 28.5t-29.5 73.5zM1253 2054q0 43 30 73t75 30q43 0 71.5 -29t28.5 -74q0 -43 -28.5 -72.5t-73.5 -29.5q-43 0 -73 28.5t-30 73.5z" />
<glyph unicode="&#xdd;" horiz-adv-x="1740" d="M0 1761h203l676 -936l692 936h205l-818 -1102l-6 -659h-164l7 659zM797 1892l344 353h235l-403 -353h-176z" />
<glyph unicode="&#xe0;" d="M162 432q0 199 182 320q182 123 465 122q225 0 369 -122q72 -59 110 -150l2 272q0 123 -133 203t-344 80q-141 0 -264 -41t-180 -125l-133 92q49 70 112 113q180 125 465 125q287 0 463 -125q180 -125 178 -322l-8 -874h-164l2 276q-37 -92 -113 -153 q-145 -123 -370 -123q-283 0 -463 123q-176 121 -176 309zM326 438q0 -123 131 -198q133 -76 346 -76t346 76q137 78 137 198q0 119 -133 197q-133 76 -346 76t-346 -76q-135 -76 -135 -197zM330 2015h235l338 -352h-176z" />
<glyph unicode="&#xe1;" d="M162 432q0 199 182 320q182 123 465 122q225 0 369 -122q72 -59 110 -150l2 272q0 123 -133 203t-344 80q-141 0 -264 -41t-180 -125l-133 92q49 70 112 113q180 125 465 125q287 0 463 -125q180 -125 178 -322l-8 -874h-164l2 276q-37 -92 -113 -153 q-145 -123 -370 -123q-283 0 -463 123q-176 121 -176 309zM326 438q0 -123 131 -198q133 -76 346 -76t346 76q137 78 137 198q0 119 -133 197q-133 76 -346 76t-346 -76q-135 -76 -135 -197zM727 1663l344 352h236l-404 -352h-176z" />
<glyph unicode="&#xe2;" d="M162 432q0 199 182 320q182 123 465 122q225 0 369 -122q72 -59 110 -150l2 272q0 123 -133 203t-344 80q-141 0 -264 -41t-180 -125l-133 92q49 70 112 113q180 125 465 125q287 0 463 -125q180 -125 178 -322l-8 -874h-164l2 276q-37 -92 -113 -153 q-145 -123 -370 -123q-283 0 -463 123q-176 121 -176 309zM326 438q0 -123 131 -198q133 -76 346 -76t346 76q137 78 137 198q0 119 -133 197q-133 76 -346 76t-346 -76q-135 -76 -135 -197zM356 1663l344 352h236l338 -352h-176l-281 248l-285 -248h-176z" />
<glyph unicode="&#xe3;" d="M162 432q0 199 182 320q182 123 465 122q225 0 369 -122q72 -59 110 -150l2 272q0 123 -133 203t-344 80q-141 0 -264 -41t-180 -125l-133 92q49 70 112 113q180 125 465 125q287 0 463 -125q180 -125 178 -322l-8 -874h-164l2 276q-37 -92 -113 -153 q-145 -123 -370 -123q-283 0 -463 123q-176 121 -176 309zM326 438q0 -123 131 -198q133 -76 346 -76t346 76q137 78 137 198q0 119 -133 197q-133 76 -346 76t-346 -76q-135 -76 -135 -197zM328 1671q0 106 94 178q90 68 240 68q55 0 155.5 -37t155.5 -37q74 0 137.5 24.5 t63.5 76.5h131q0 -106 -95 -177q-92 -70 -237 -69q-53 0 -156 37t-158 37q-74 0 -137 -24t-63 -77h-131z" />
<glyph unicode="&#xe4;" d="M162 432q0 199 182 320q182 123 465 122q225 0 369 -122q72 -59 110 -150l2 272q0 123 -133 203t-344 80q-141 0 -264 -41t-180 -125l-133 92q49 70 112 113q180 125 465 125q287 0 463 -125q180 -125 178 -322l-8 -874h-164l2 276q-37 -92 -113 -153 q-145 -123 -370 -123q-283 0 -463 123q-176 121 -176 309zM326 438q0 -123 131 -198q133 -76 346 -76t346 76q137 78 137 198q0 119 -133 197q-133 76 -346 76t-346 -76q-135 -76 -135 -197zM401 1825q0 43 29 72.5t74 29.5q43 0 72.5 -28.5t29.5 -73.5q0 -43 -29.5 -73 t-74.5 -30q-43 0 -72 29t-29 74zM1028 1825q0 43 28.5 72.5t73.5 29.5q43 0 73 -28.5t30 -73.5q0 -43 -30 -73t-75 -30q-43 0 -71.5 29t-28.5 74z" />
<glyph unicode="&#xe5;" d="M162 432q0 199 182 320q182 123 465 122q225 0 369 -122q72 -59 110 -150l2 272q0 123 -133 203t-344 80q-141 0 -264 -41t-180 -125l-133 92q49 70 112 113q180 125 465 125q287 0 463 -125q180 -125 178 -322l-8 -874h-164l2 276q-37 -92 -113 -153 q-145 -123 -370 -123q-283 0 -463 123q-176 121 -176 309zM326 438q0 -123 131 -198q133 -76 346 -76t346 76q137 78 137 198q0 119 -133 197q-133 76 -346 76t-346 -76q-135 -76 -135 -197zM526 1839q0 98 84 166q80 63 209 63t207 -63q80 -64 80 -166q0 -104 -88 -167.5 t-203 -63.5q-129 0 -209 65q-80 63 -80 166zM637 1839q0 -59 54 -91t124 -32t126 33t56 90t-55 89t-124.5 32t-125 -32t-55.5 -89z" />
<glyph unicode="&#xe6;" horiz-adv-x="2576" d="M162 432q0 197 166 320q164 122 422 122q201 0 325 -122q66 -66 94 -142v60l2 204q0 123 -116 203q-119 80 -301 80q-121 0 -228.5 -42t-158.5 -120l-138 88q41 68 103 113q164 125 424 125q258 0 420 -125q74 -55 114 -137q29 39 66 78q182 184 466.5 184t463.5 -184 q180 -186 176 -475l-2 -82h-1123q20 -166 127 -277q135 -139 346 -139q119 0 225.5 52t170.5 142l135 -94q-37 -49 -66 -80q-182 -184 -466.5 -184t-462.5 184q-37 41 -62 76q-43 -78 -121 -137q-164 -123 -422 -123t-419 123q-160 119 -160 309zM326 438q0 -123 114 -198 q117 -76 303 -76q184 0 304 76q121 78 120 198q0 119 -116 197q-117 76 -301 76q-186 0 -306 -76q-119 -78 -118 -197zM1339 743h955q-20 164 -127 275q-135 139 -346 139q-209 0 -348 -139q-106 -106 -134 -275z" />
<glyph unicode="&#xe7;" horiz-adv-x="1798" d="M150 657q0 143 54 271.5t158 220.5q209 188 537 188t535 -188q100 -94 149 -213l-153 -66q-43 92 -117 158q-160 141 -416 141q-254 0 -416 -141q-166 -143 -166 -371q0 -217 160 -356q160 -141 412 -141q254 0 418 141q80 68 120 158l152 -66q-55 -123 -154 -213 q-94 -86 -216 -131t-257 -55l-32 -88q25 -20 45 -56t24 -65q14 -90 -45 -166t-160 -92q-41 -6 -93 3t-85 28l43 116q18 -20 53 -31.5t66 -4.5q33 4 58.5 23.5t37.5 46t6 56.5q-6 43 -47 69t-92 15q-8 0 -18 -4l45 121l2 -2l12 37q-254 31 -418 180q-98 88 -150 213t-52 264z " />
<glyph unicode="&#xe8;" horiz-adv-x="1740" d="M164 653q0 297 209 484q205 184 528 184q322 0 524 -184q98 -90 150.5 -214t50.5 -261l-2 -82h-1290q27 -168 149 -277q156 -139 406 -139t409 139q29 23 62 64l131 -103q-29 -37 -76 -80q-204 -184 -526 -184q-324 0 -527 184q-199 180 -198 469zM336 743h1120 q-25 166 -149 275q-156 139 -408 139q-250 0 -410 -139q-125 -106 -153 -275zM416 2015h237l336 -352h-174z" />
<glyph unicode="&#xe9;" horiz-adv-x="1740" d="M164 653q0 297 209 484q205 184 528 184q322 0 524 -184q98 -90 150.5 -214t50.5 -261l-2 -82h-1290q27 -168 149 -277q156 -139 406 -139t409 139q29 23 62 64l131 -103q-29 -37 -76 -80q-204 -184 -526 -184q-324 0 -527 184q-199 180 -198 469zM336 743h1120 q-25 166 -149 275q-156 139 -408 139q-250 0 -410 -139q-125 -106 -153 -275zM815 1663l342 352h238l-406 -352h-174z" />
<glyph unicode="&#xea;" horiz-adv-x="1740" d="M164 653q0 297 209 484q205 184 528 184q322 0 524 -184q98 -90 150.5 -214t50.5 -261l-2 -82h-1290q27 -168 149 -277q156 -139 406 -139t409 139q29 23 62 64l131 -103q-29 -37 -76 -80q-204 -184 -526 -184q-324 0 -527 184q-199 180 -198 469zM336 743h1120 q-25 166 -149 275q-156 139 -408 139q-250 0 -410 -139q-125 -106 -153 -275zM444 1663l342 352h238l336 -352h-174l-281 248l-287 -248h-174z" />
<glyph unicode="&#xeb;" horiz-adv-x="1740" d="M164 653q0 297 209 484q205 184 528 184q322 0 524 -184q98 -90 150.5 -214t50.5 -261l-2 -82h-1290q27 -168 149 -277q156 -139 406 -139t409 139q29 23 62 64l131 -103q-29 -37 -76 -80q-204 -184 -526 -184q-324 0 -527 184q-199 180 -198 469zM336 743h1120 q-25 166 -149 275q-156 139 -408 139q-250 0 -410 -139q-125 -106 -153 -275zM487 1825q0 43 30 72.5t75 29.5q43 0 71.5 -28.5t28.5 -73.5q0 -43 -28.5 -73t-73.5 -30q-43 0 -73 29t-30 74zM1114 1825q0 43 30 72.5t75 29.5q43 0 71.5 -28.5t28.5 -73.5q0 -43 -28.5 -73 t-73.5 -30q-43 0 -73 29t-30 74z" />
<glyph unicode="&#xec;" horiz-adv-x="487" d="M-227 2015h235l338 -352h-176zM162 0l12 1321h164l-12 -1321h-164z" />
<glyph unicode="&#xed;" horiz-adv-x="487" d="M162 0l12 1321h164l-12 -1321h-164zM170 1663l344 352h236l-404 -352h-176z" />
<glyph unicode="&#xee;" horiz-adv-x="487" d="M-201 1663l344 352h236l338 -352h-176l-281 248l-285 -248h-176zM162 0l12 1321h164l-12 -1321h-164z" />
<glyph unicode="&#xef;" horiz-adv-x="487" d="M-156 1825q0 43 29 72.5t74 29.5q43 0 72.5 -28.5t29.5 -73.5q0 -43 -29.5 -73t-74.5 -30q-43 0 -72 29t-29 74zM162 0l12 1321h164l-12 -1321h-164zM471 1825q0 43 28.5 72.5t73.5 29.5q43 0 73 -28.5t30 -73.5q0 -43 -30 -73t-75 -30q-43 0 -71.5 29t-28.5 74z" />
<glyph unicode="&#xf1;" d="M209 0l12 1321h164l-4 -336q45 115 135 193q166 143 426 143q233 0 383 -143q150 -145 145 -369l-8 -809h-164l9 809q0 158 -101 252q-102 96 -266 96q-246 0 -401 -96q-154 -94 -158 -252l-8 -809h-164zM362 1671q0 106 95 178q90 68 239 68q53 0 155.5 -37t156.5 -37 q74 0 137 24.5t63 76.5h131q0 -106 -94 -177q-92 -70 -237 -69q-53 0 -157 37t-157 37q-74 0 -137 -24t-63 -77h-132z" />
<glyph unicode="&#xf2;" horiz-adv-x="1775" d="M164 653q0 297 209 484q204 184 528 184q322 0 524 -184q201 -182 201 -467q0 -297 -211 -486q-205 -184 -526 -184q-324 0 -527 184q-199 180 -198 469zM328 653q0 -213 155 -350q156 -139 406 -139t409 139q164 141 164 367q0 211 -155 348q-156 139 -408 139 q-250 0 -410 -139q-162 -139 -161 -365zM416 2015h237l336 -352h-174z" />
<glyph unicode="&#xf3;" horiz-adv-x="1775" d="M164 653q0 297 209 484q204 184 528 184q322 0 524 -184q201 -182 201 -467q0 -297 -211 -486q-205 -184 -526 -184q-324 0 -527 184q-199 180 -198 469zM328 653q0 -213 155 -350q156 -139 406 -139t409 139q164 141 164 367q0 211 -155 348q-156 139 -408 139 q-250 0 -410 -139q-162 -139 -161 -365zM815 1663l342 352h238l-406 -352h-174z" />
<glyph unicode="&#xf4;" horiz-adv-x="1775" d="M164 653q0 297 209 484q204 184 528 184q322 0 524 -184q201 -182 201 -467q0 -297 -211 -486q-205 -184 -526 -184q-324 0 -527 184q-199 180 -198 469zM328 653q0 -213 155 -350q156 -139 406 -139t409 139q164 141 164 367q0 211 -155 348q-156 139 -408 139 q-250 0 -410 -139q-162 -139 -161 -365zM444 1663l342 352h238l336 -352h-174l-281 248l-287 -248h-174z" />
<glyph unicode="&#xf5;" horiz-adv-x="1775" d="M164 653q0 297 209 484q204 184 528 184q322 0 524 -184q201 -182 201 -467q0 -297 -211 -486q-205 -184 -526 -184q-324 0 -527 184q-199 180 -198 469zM328 653q0 -213 155 -350q156 -139 406 -139t409 139q164 141 164 367q0 211 -155 348q-156 139 -408 139 q-250 0 -410 -139q-162 -139 -161 -365zM416 1671q0 106 94 178q90 68 238 68q55 0 157.5 -37t155.5 -37q43 0 85 8.5t78 32t36 60.5h131q0 -106 -95 -177q-92 -70 -237 -69q-55 0 -158 37t-156 37q-74 0 -136 -24t-62 -77h-131z" />
<glyph unicode="&#xf6;" horiz-adv-x="1775" d="M164 653q0 297 209 484q204 184 528 184q322 0 524 -184q201 -182 201 -467q0 -297 -211 -486q-205 -184 -526 -184q-324 0 -527 184q-199 180 -198 469zM328 653q0 -213 155 -350q156 -139 406 -139t409 139q164 141 164 367q0 211 -155 348q-156 139 -408 139 q-250 0 -410 -139q-162 -139 -161 -365zM487 1825q0 43 30 72.5t75 29.5q43 0 71.5 -28.5t28.5 -73.5q0 -43 -28.5 -73t-73.5 -30q-43 0 -73 29t-30 74zM1114 1825q0 43 30 72.5t75 29.5q43 0 71.5 -28.5t28.5 -73.5q0 -43 -28.5 -73t-73.5 -30q-43 0 -73 29t-30 74z" />
<glyph unicode="&#xf9;" d="M197 512l8 809h164l-9 -809q0 -156 127 -252t332 -96t334 96q133 98 133 252l8 809h164l-12 -1321h-164l2 322q-35 -102 -108 -179q-141 -143 -357 -143q-276 0 -450 143q-176 143 -172 369zM346 2015h238l336 -352h-175z" />
<glyph unicode="&#xfa;" d="M197 512l8 809h164l-9 -809q0 -156 127 -252t332 -96t334 96q133 98 133 252l8 809h164l-12 -1321h-164l2 322q-35 -102 -108 -179q-141 -143 -357 -143q-276 0 -450 143q-176 143 -172 369zM745 1663l342 352h238l-405 -352h-175z" />
<glyph unicode="&#xfb;" d="M197 512l8 809h164l-9 -809q0 -156 127 -252t332 -96t334 96q133 98 133 252l8 809h164l-12 -1321h-164l2 322q-35 -102 -108 -179q-141 -143 -357 -143q-276 0 -450 143q-176 143 -172 369zM375 1663l342 352h237l336 -352h-174l-280 248l-287 -248h-174z" />
<glyph unicode="&#xfc;" d="M197 512l8 809h164l-9 -809q0 -156 127 -252t332 -96t334 96q133 98 133 252l8 809h164l-12 -1321h-164l2 322q-35 -102 -108 -179q-141 -143 -357 -143q-276 0 -450 143q-176 143 -172 369zM418 1825q0 43 29.5 72.5t74.5 29.5q43 0 72 -28.5t29 -73.5q0 -43 -29 -73 t-74 -30q-43 0 -72.5 29t-29.5 74zM1044 1825q0 43 30 72.5t75 29.5q43 0 71.5 -28.5t28.5 -73.5q0 -43 -28.5 -73t-73.5 -30q-43 0 -73 29t-30 74z" />
<glyph unicode="&#xfd;" horiz-adv-x="1427" d="M12 1321h183l520 -1112l542 1112h183l-944 -1935h-183l299 614h19zM641 1663l342 352h238l-406 -352h-174z" />
<glyph unicode="&#xff;" horiz-adv-x="1427" d="M12 1321h183l520 -1112l542 1112h183l-944 -1935h-183l299 614h19zM313 1825q0 43 30 72.5t75 29.5q43 0 71.5 -28.5t28.5 -73.5q0 -43 -28.5 -73t-73.5 -30q-43 0 -73 29t-30 74zM940 1825q0 43 29.5 72.5t74.5 29.5q43 0 72 -28.5t29 -73.5q0 -43 -29 -73t-74 -30 q-43 0 -72.5 29t-29.5 74z" />
<glyph unicode="&#x152;" horiz-adv-x="2924" d="M166 872q0 395 260 644q258 245 659.5 245t653.5 -245q47 -47 90 -107l4 352h987l-2 -164h-823l-6 -634h741l-2 -164h-741l-7 -635h824l-2 -164h-987l4 350q-41 -55 -93 -104q-258 -246 -659 -246t-653 246q-248 242 -248 626zM330 872q0 -311 202 -507 q207 -201 537 -201q328 0 541 201q197 184 213 475l2 82q-14 291 -205 475q-207 200 -537 200q-326 0 -538 -200q-215 -203 -215 -525z" />
<glyph unicode="&#x153;" horiz-adv-x="2750" d="M164 653q0 297 188 484q184 184 477 184q289 0 471 -184q63 -63 103 -140q47 86 104 140q184 184 475 184t474 -184q184 -186 180 -475l-2 -82h-1149q23 -168 131 -277q137 -139 356 -139q121 0 230.5 53t175.5 143l135 -96q-31 -43 -68 -80q-184 -184 -475 -184 t-473 184q-57 57 -100 140q-37 -72 -105 -140q-184 -184 -477 -184q-291 0 -473 184q-178 180 -178 469zM328 653q0 -211 135 -350q137 -139 354 -139q219 0 359 139q141 141 141 367q0 211 -135 348q-138 139 -355 139q-219 0 -358 -139q-141 -141 -141 -365zM1487 743h981 q-23 166 -131 275q-137 139 -357 139q-217 0 -356 -139q-111 -111 -137 -275z" />
<glyph unicode="&#x178;" horiz-adv-x="1740" d="M0 1761h203l676 -936l692 936h205l-818 -1102l-6 -659h-164l7 659zM471 2054q0 43 28.5 73t73.5 30q43 0 73 -29t30 -74q0 -43 -30 -72.5t-75 -29.5q-43 0 -71.5 28.5t-28.5 73.5zM1098 2054q0 43 28.5 73t73.5 30q43 0 73 -29t30 -74q0 -43 -30 -72.5t-75 -29.5 q-43 0 -71.5 28.5t-28.5 73.5z" />
<glyph unicode="&#x2c6;" horiz-adv-x="731" d="M-78 1409l342 352h238l336 -352h-174l-281 248l-287 -248h-174z" />
<glyph unicode="&#x2dc;" horiz-adv-x="731" d="M-106 1417q0 106 94 178q92 70 237 70q53 0 155.5 -38t158.5 -38q72 0 135 24.5t63 78.5h131q0 -106 -94 -179q-92 -70 -237 -69q-53 0 -156 38t-158 38q-74 0 -136 -25t-62 -78h-131z" />
<glyph unicode="&#x2000;" horiz-adv-x="1150" />
<glyph unicode="&#x2001;" horiz-adv-x="2300" />
<glyph unicode="&#x2002;" horiz-adv-x="1150" />
<glyph unicode="&#x2003;" horiz-adv-x="2300" />
<glyph unicode="&#x2004;" horiz-adv-x="766" />
<glyph unicode="&#x2005;" horiz-adv-x="575" />
<glyph unicode="&#x2006;" horiz-adv-x="383" />
<glyph unicode="&#x2007;" horiz-adv-x="383" />
<glyph unicode="&#x2008;" horiz-adv-x="287" />
<glyph unicode="&#x2009;" horiz-adv-x="460" />
<glyph unicode="&#x200a;" horiz-adv-x="127" />
<glyph unicode="&#x2010;" horiz-adv-x="1095" d="M145 580l2 163h818l-2 -163h-818z" />
<glyph unicode="&#x2011;" horiz-adv-x="1095" d="M145 580l2 163h818l-2 -163h-818z" />
<glyph unicode="&#x2012;" horiz-adv-x="1095" d="M145 580l2 163h818l-2 -163h-818z" />
<glyph unicode="&#x2013;" horiz-adv-x="1705" d="M145 580l2 163h1428l-2 -163h-1428z" />
<glyph unicode="&#x2014;" horiz-adv-x="2576" d="M145 580l2 163h2298l-2 -163h-2298z" />
<glyph unicode="&#x2018;" horiz-adv-x="886" d="M215 1233l311 528h176l-311 -528h-176z" />
<glyph unicode="&#x2019;" horiz-adv-x="886" d="M215 1233l311 528h176l-311 -528h-176z" />
<glyph unicode="&#x201a;" horiz-adv-x="886" d="M195 -330l313 594h184l-311 -594h-186z" />
<glyph unicode="&#x201c;" horiz-adv-x="1497" d="M217 1233l281 528h172l-281 -528h-172zM856 1233l281 528h174l-281 -528h-174z" />
<glyph unicode="&#x201d;" horiz-adv-x="1497" d="M217 1233l281 528h172l-281 -528h-172zM856 1233l281 528h174l-281 -528h-174z" />
<glyph unicode="&#x201e;" horiz-adv-x="1497" d="M197 -330l282 594h178l-280 -594h-180zM838 -330l280 594h182l-282 -594h-180z" />
<glyph unicode="&#x202f;" horiz-adv-x="460" />
<glyph unicode="&#x2039;" horiz-adv-x="993" d="M180 662l469 659h182l-466 -659l454 -662h-184z" />
<glyph unicode="&#x203a;" horiz-adv-x="993" d="M174 0l467 662l-455 659h185l454 -659l-469 -662h-182z" />
<glyph unicode="&#x205f;" horiz-adv-x="575" />
<glyph unicode="&#x25fc;" horiz-adv-x="1320" d="M0 0v1321h1321v-1321h-1321z" />
</font>
</defs>
</svg>
