<?xml version="1.0" encoding="UTF-8" standalone="no"?>
<svg width="215px" height="128px" viewBox="0 0 215 128" version="1.1" xmlns="http://www.w3.org/2000/svg" xmlns:xlink="http://www.w3.org/1999/xlink">
    <!-- Generator: Sketch 40.2 (33826) - http://www.bohemiancoding.com/sketch -->
    <title>fig-feature-import-img</title>
    <desc>Created with Sketch.</desc>
    <defs></defs>
    <g id="Symbols" stroke="none" stroke-width="1" fill="none" fill-rule="evenodd">
        <g id="fig-feature-import-img">
            <g id="ico-edit-img-4" transform="translate(92.000000, 56.000000)">
                <path d="M1.48632812,12.2363281 C2.02753448,13.8193372 3.70068359,15.4587402 3.70068359,15.4587402 L3.90112305,17.2658691 L1.17211914,16.7580566 L0.970703125,20.0168457 L4.87426758,27.9194336 L11.1433105,31.9941406 L14.6130371,32.7128906 L14.685791,37.1052246 L12.4367676,37.7536621 L12.6320801,39.7668457 L7.42895508,40.2893066 L6.84033203,41.9064941 L7.45068359,43.2685547 L24.8273926,43.1191406 L25.2856445,41.2597656 L24.387207,40.4914551 L20.776123,40.1687012 L19.3681641,38.8500977 L17.453125,37.1520996 L17.2770996,32.9255371 L24.3056641,30.4082031 L29.8369141,23.9645996 L31.5217285,17.1608887 L29.2458496,16.7050781 L27.845459,16.5776367 L28.4541016,13.9907227 L29.7717285,13.7155762 L28.9384766,14.8769531 L30.949707,12.4553223 L28.4541016,6.73120117 L19.9628906,1.59594727 L15.7092285,1.16186523 L10.6738281,2.11401367 L5.13891602,5.25561523 L2.19287109,10.0246582 L1.66162109,11.3806152" id="bg" fill="#FFFFFF"></path>
                <path d="M31.7243082,16.4705876 C31.4556124,16.1783612 31.078156,16.0105445 30.6890221,16.0105445 L29.1774792,16.0105445 C29.1720984,15.9096173 29.1676335,15.808097 29.1600775,15.7071698 C29.133746,15.3615741 29.2454832,15.0210782 29.4673547,14.7722588 C29.6824717,14.5309111 29.9762397,14.3979623 30.2946219,14.3979623 L30.2959958,14.3979623 C30.7185592,14.3979623 31.1098683,14.1996658 31.3702067,13.8540701 C31.6255078,13.5153531 31.7149205,13.0846038 31.6147463,12.6712884 C29.8228301,5.25248518 23.4246177,0.0711590296 16.05649,0.0711590296 C8.6879044,0.0711590296 2.28969201,5.25248518 0.497775817,12.6712884 C0.39805955,13.0841294 0.487014245,13.5153531 0.742315364,13.8540701 C1.00265381,14.1996658 1.39396288,14.3979623 1.8165263,14.3979623 L1.85808429,14.3979623 C2.16398769,14.3979623 2.44619274,14.5253369 2.65283782,14.7579084 C2.8715038,15.003407 2.98106576,15.3416496 2.95427631,15.6858221 C2.94568995,15.794221 2.93904983,15.9021456 2.93321111,16.0105445 L1.4239579,16.0105445 C1.03436611,16.0105445 0.656909698,16.1783612 0.388213857,16.4705876 C0.12031941,16.7615094 -0.0169478736,17.1410243 0.00182763473,17.5384474 C0.200802229,21.8130889 1.95963231,25.7991806 4.95329552,28.762717 C7.43303643,31.2171105 10.5527474,32.7603127 13.9040612,33.2245067 L13.9040612,36.5044636 L13.12545,36.5044636 C12.3428318,36.5044636 11.7060674,37.1642264 11.7060674,37.9754394 L11.7060674,38.7342318 C11.7060674,39.1789757 11.3567742,39.5408194 10.9274562,39.5408194 L7.99653065,39.5408194 C6.81001011,39.5408194 5.84455974,40.5409596 5.84455974,41.7705876 C5.84455974,42.9996226 6.81001011,43.9997628 7.99653065,43.9997628 L24.1159914,43.9997628 C25.3029699,43.9997628 26.2684203,42.9996226 26.2684203,41.7705876 C26.2684203,40.5409596 25.3029699,39.5408194 24.1159914,39.5408194 L21.1855238,39.5408194 C20.7562058,39.5408194 20.4069127,39.1789757 20.4069127,38.7342318 L20.4069127,37.9754394 C20.4069127,37.1642264 19.7701482,36.5044636 18.9870721,36.5044636 L18.2089189,36.5044636 L18.2089189,33.2245067 C21.5597747,32.7603127 24.6799436,31.2171105 27.1592266,28.762717 C30.1533477,25.7991806 31.9117198,21.8130889 32.1111524,17.5384474 C32.1295844,17.1410243 31.9922027,16.7619838 31.7243082,16.4705876 L31.7243082,16.4705876 Z M1.85808429,12.9747817 L1.8406826,12.9747817 C3.49361424,6.21325067 9.33314077,1.49433962 16.05649,1.49433962 C22.7793813,1.49433962 28.6189078,6.21325067 30.2722974,12.9747817 C29.5750849,12.981186 28.9315658,13.275903 28.4584001,13.8063935 C27.9772205,14.3460162 27.7339403,15.079903 27.7907247,15.8201941 C27.8135072,16.1213154 27.8256426,16.4248086 27.8256426,16.7221348 C27.8256426,19.9344906 26.6297343,22.9657466 24.4591024,25.2584906 C22.2914471,27.5480323 19.3953249,28.8456173 16.3042351,28.9114394 C13.8195714,28.96469 11.430159,28.1910728 9.38729208,26.6746739 C7.37258845,25.1797412 5.84272798,23.0782965 4.96314121,20.5988787 C4.40365396,19.0214016 4.19437574,17.4518706 4.32362908,15.8007439 C4.38132943,15.0614016 4.14022442,14.3298868 3.66259381,13.7928733 C3.19263368,13.2652291 2.55220567,12.9747817 1.85808429,12.9747817 L1.85808429,12.9747817 Z M24.8946026,41.7705876 C24.8946026,42.2148571 24.5453094,42.5765822 24.1159914,42.5765822 L7.99653065,42.5765822 C7.56721263,42.5765822 7.21837742,42.2148571 7.21837742,41.7705876 C7.21837742,41.3258437 7.56721263,40.964 7.99653065,40.964 L24.1159914,40.964 C24.5453094,40.964 24.8946026,41.3258437 24.8946026,41.7705876 L24.8946026,41.7705876 Z M19.033095,37.9754394 L19.033095,38.7342318 C19.033095,39.0186307 19.0849566,39.2905768 19.1792921,39.5408194 L12.93323,39.5408194 C13.0275655,39.2905768 13.0794271,39.0186307 13.0794271,38.7342318 L13.0794271,37.9754394 C13.0794271,37.9489919 13.1004923,37.9276442 13.12545,37.9276442 L18.9870721,37.9276442 C19.0124877,37.9276442 19.033095,37.9489919 19.033095,37.9754394 L19.033095,37.9754394 Z M16.8351012,36.5044636 L15.2778788,36.5044636 L15.2778788,33.3542534 C15.5363855,33.3671806 15.7958081,33.3737035 16.05649,33.3737035 C16.316714,33.3737035 16.5761365,33.3671806 16.8351012,33.3542534 L16.8351012,36.5044636 Z M16.05649,31.9505229 C8.20180191,31.9505229 1.75264378,25.5897358 1.37381356,17.4698976 C1.37381356,17.4652722 1.37644671,17.4592237 1.38274337,17.4528194 C1.38766622,17.4472453 1.40197682,17.4337251 1.4239579,17.4337251 L2.93458493,17.4337251 C3.00384823,18.6735526 3.25079196,19.8974879 3.67381332,21.0899946 C4.64865145,23.8385121 6.34806392,26.1698005 8.58727225,27.8319569 C10.7995767,29.4738329 13.3794918,30.3373477 16.0645039,30.3373477 C16.1535731,30.3373477 16.2429858,30.3363989 16.3323984,30.3346199 C19.7848022,30.2609704 23.0194559,28.8122911 25.4402372,26.2554286 C27.7030294,23.8649596 29.0165136,20.7554286 29.1811427,17.4341995 L30.6890221,17.4341995 C30.7105453,17.4341995 30.7248559,17.4472453 30.7302366,17.4528194 C30.7360754,17.4592237 30.7391665,17.4652722 30.7387085,17.4698976 C30.3603362,25.5897358 23.9107202,31.9505229 16.05649,31.9505229 L16.05649,31.9505229 Z" id="Fill-1" fill="#000000"></path>
                <path d="M16.05649,26.5421995 C21.2834083,26.5421995 25.5359465,22.1369811 25.5359465,16.7221348 C25.5359465,11.307407 21.2834083,6.90266307 16.05649,6.90266307 C10.8295717,6.90266307 6.57703353,11.307407 6.57703353,16.7221348 C6.57703353,22.1369811 10.8295717,26.5421995 16.05649,26.5421995 L16.05649,26.5421995 Z M16.05649,8.32584367 C20.5258624,8.32584367 24.1621288,12.0921725 24.1621288,16.7221348 C24.1621288,21.3522156 20.5258624,25.1190189 16.05649,25.1190189 C11.5871176,25.1190189 7.95085121,21.3522156 7.95085121,16.7221348 C7.95085121,12.0921725 11.5871176,8.32584367 16.05649,8.32584367 L16.05649,8.32584367 Z" id="Fill-3" fill="#000000"></path>
                <path d="M16.05649,23.5064367 C19.6672263,23.5064367 22.6049065,20.4630836 22.6049065,16.7221348 C22.6049065,12.9816604 19.6672263,9.93842588 16.05649,9.93842588 C12.4452958,9.93842588 9.50807355,12.9816604 9.50807355,16.7221348 C9.50807355,20.4630836 12.4452958,23.5064367 16.05649,23.5064367 L16.05649,23.5064367 Z M16.05649,11.3616065 C18.9096804,11.3616065 21.2310888,13.7665445 21.2310888,16.7221348 C21.2310888,19.6783181 18.9096804,22.0832561 16.05649,22.0832561 C13.2028417,22.0832561 10.8818912,19.6783181 10.8818912,16.7221348 C10.8818912,13.7665445 13.2028417,11.3616065 16.05649,11.3616065 L16.05649,11.3616065 Z" id="Fill-4" fill="#000000"></path>
                <path d="M10.3830625,6.71824259 C11.9609118,5.78380593 13.7488157,5.28948787 15.5544644,5.28948787 C17.3596695,5.28948787 19.1480171,5.78380593 20.7254227,6.71824259 C20.8276774,6.77896496 20.9385827,6.80766577 21.0472698,6.80766577 C21.2817236,6.80766577 21.5087467,6.67519137 21.6299661,6.44072237 C21.80808,6.09702426 21.6919622,5.66378437 21.3704478,5.47343396 C19.5959634,4.4222965 17.5850291,3.86630728 15.5544644,3.86630728 C13.5238998,3.86630728 11.5125218,4.4222965 9.73803742,5.47343396 C9.41652304,5.66378437 9.30040522,6.09702426 9.47851909,6.44072237 C9.65652205,6.78442049 10.061659,6.90906739 10.3830625,6.71824259 L10.3830625,6.71824259 Z" id="Fill-6" fill="#000000"></path>
                <path d="M16.1739299,14 C14.9750943,14 14,15.114625 14,16.4845143 C14,17.8548967 14.9750943,18.9695217 16.1739299,18.9695217 C17.3723342,18.9695217 18.3474286,17.8548967 18.3474286,16.4845143 C18.3474286,15.114625 17.3723342,14 16.1739299,14 L16.1739299,14 Z M16.1739299,17.7863726 C15.5458329,17.7863726 15.0350404,17.2024886 15.0350404,16.4845143 C15.0350404,15.7670331 15.5458329,15.183149 16.1739299,15.183149 C16.8015957,15.183149 17.3123881,15.7670331 17.3123881,16.4845143 C17.3123881,17.2024886 16.8015957,17.7863726 16.1739299,17.7863726 L16.1739299,17.7863726 Z" id="Fill-8" fill="#000000"></path>
            </g>
            <g id="ico-edit-img-1" transform="translate(42.000000, 74.616247) rotate(-32.000000) translate(-42.000000, -74.616247) translate(26.000000, 42.616247)">
                <g id="Group">
                    <rect id="bg" fill="#FFFFFF" x="1.6" y="1.6" width="28.8" height="60.8" rx="2"></rect>
                    <path d="M27.1943269,0.098311396 L5.77952262,0.098311396 C3.12915522,0.098311396 0.973089098,2.54397886 0.973089098,5.55034182 L0.973089098,12.2476338 C0.953012861,12.2455635 0.933392903,12.2434933 0.912556203,12.2434933 C0.408825179,12.2434933 0,12.7072316 0,13.2786234 L0,17.6955237 C0,18.267088 0.408825179,18.7306538 0.912556203,18.7306538 C0.933392903,18.7306538 0.953012861,18.7285836 0.973089098,18.7272034 L0.973089098,21.0805717 C0.953012861,21.0785015 0.933392903,21.0772938 0.912556203,21.0772938 C0.408825179,21.0772938 0,21.5401695 0,22.112424 L0,26.5284616 C0,27.100026 0.408825179,27.5635918 0.912556203,27.5635918 C0.933392903,27.5635918 0.953012861,27.561694 0.973089098,27.5603139 L0.973089098,58.5488322 C0.973089098,61.5545051 3.12915522,64 5.77952262,64 L27.1943269,64 C29.844086,64 32,61.5545051 32,58.5488322 L32,5.55034182 C32,2.54397886 29.844086,0.098311396 27.1943269,0.098311396 L27.1943269,0.098311396 Z M30.1748876,58.5488322 C30.1748876,60.4127565 28.8375365,61.9297397 27.1943269,61.9297397 L5.77952262,61.9297397 C4.13555262,61.9297397 2.7982015,60.4127565 2.7982015,58.5488322 L2.7982015,5.55034182 C2.7982015,3.68555488 4.13555262,2.16857167 5.77952262,2.16857167 L27.1943269,2.16857167 C28.8375365,2.16857167 30.1748876,3.68555488 30.1748876,5.55034182 L30.1748876,58.5488322 Z" id="Fill-1" fill="#000000"></path>
                    <path d="M7.28186699,4.29325866 C5.79585067,4.29325866 4.58691253,5.67502533 4.58691253,7.37302699 C4.58691253,9.07184791 5.79585067,10.4536146 7.28186699,10.4536146 C8.76788331,10.4536146 9.97682144,9.07184791 9.97682144,7.37302699 C9.97682144,5.67502533 8.76788331,4.29325866 7.28186699,4.29325866 L7.28186699,4.29325866 Z M7.28186699,8.48738667 C6.74433818,8.48738667 6.30700473,7.98747322 6.30700473,7.37302699 C6.30700473,6.75923618 6.74433818,6.25948658 7.28186699,6.25948658 C7.8193958,6.25948658 8.25672924,6.75923618 8.25672924,7.37302699 C8.25672924,7.98747322 7.8193958,8.48738667 7.28186699,8.48738667 L7.28186699,8.48738667 Z" id="Fill-2" fill="#000000"></path>
                    <path d="M16.4556921,9.27404169 C17.3722145,9.27404169 18.1180178,8.42151803 18.1180178,7.37302699 C18.1180178,6.32535522 17.3722145,5.47283156 16.4556921,5.47283156 C15.5384529,5.47283156 14.7926496,6.32535522 14.7926496,7.37302699 C14.7926496,8.42151803 15.5384529,9.27404169 16.4556921,9.27404169 L16.4556921,9.27404169 Z" id="Fill-3" fill="#000000"></path>
                    <path d="M11.8687795,8.35614095 L12.7858753,8.35614095 C13.2607641,8.35614095 13.6459214,7.91652516 13.6459214,7.37302699 C13.6459214,6.83034809 13.2607641,6.38991303 12.7858753,6.38991303 L11.8687795,6.38991303 C11.3938907,6.38991303 11.0087334,6.83034809 11.0087334,7.37302699 C11.0087334,7.91652516 11.3938907,8.35614095 11.8687795,8.35614095 L11.8687795,8.35614095 Z" id="Fill-4" fill="#000000"></path>
                    <path d="M15.5378795,25.2663565 C13.0407357,25.2663565 11.0087334,27.5889632 11.0087334,30.4435984 C11.0087334,33.2988891 13.0407357,35.6216597 15.5378795,35.6216597 C18.0357401,35.6216597 20.0677423,33.2988891 20.0677423,30.4435984 C20.0677423,27.5889632 18.0357401,25.2663565 15.5378795,25.2663565 L15.5378795,25.2663565 Z M15.5378795,33.6554317 C13.9892232,33.6554317 12.7288256,32.2146782 12.7288256,30.4435984 C12.7288256,28.6733379 13.9892232,27.2325844 15.5378795,27.2325844 C17.0872526,27.2325844 18.3476501,28.6733379 18.3476501,30.4435984 C18.3476501,32.2146782 17.0872526,33.6554317 15.5378795,33.6554317 L15.5378795,33.6554317 Z" id="Fill-5" fill="#000000"></path>
                </g>
            </g>
            <g id="ico-save-1" transform="translate(170.159045, 80.843988) rotate(34.000000) translate(-170.159045, -80.843988) translate(154.159045, 56.843988)">
                <path d="M32,14.0937454 L32,7.81590381 C32,7.38747532 31.8563783,6.98491031 31.5952075,6.68179037 L26.3083924,0.545809926 C26.0472216,0.242689984 25.700368,0.0759998785 25.3313417,0.0759998785 L2.8076978,0.0759998785 C1.65259628,0.0759998785 0.712871563,1.16666268 0.712871563,2.50729597 L0.712871563,11.0366825 C0.288580392,11.3104474 0,11.8358639 0,12.4390002 L0,15.7491372 C0,16.6336681 0.619723606,17.3530607 1.38139757,17.3530607 L2.13917179,17.3530607 L2.13917179,19.8872934 C2.13917179,20.3722336 1.79922632,20.7667809 1.38139757,20.7667809 C1.01237121,20.7667809 0.712871563,21.1143861 0.712871563,21.5426852 L0.712871563,45.5442499 C0.712871563,46.8843659 1.65259628,47.9748994 2.8076978,47.9748994 L11.3649421,47.9748994 C11.7339684,47.9748994 12.0334681,47.6279409 12.0334681,47.1989951 C12.0334681,46.7145722 12.3734136,46.3201542 12.7912423,46.3201542 L19.9221864,46.3201542 C20.3400151,46.3201542 20.6799606,46.7145722 20.6799606,47.1989951 C20.6799606,47.6279409 20.9789031,47.9748994 21.3484866,47.9748994 L29.9051738,47.9748994 C31.0603867,47.9748994 32,46.8843659 32,45.5442499 L32,17.404529 C32,16.9762299 31.7006118,16.6286247 31.331474,16.6286247 C30.9136452,16.6286247 30.5736998,16.2340774 30.5736998,15.7491372 C30.5736998,15.264197 30.9136452,14.8696497 31.331474,14.8696497 C31.7006118,14.8696497 32,14.5226912 32,14.0937454 Z" id="bg" fill="#FFFFFF"></path>
                <path d="M31.331474,14.8696497 C31.7006118,14.8696497 32,14.5226912 32,14.0937454 L32,7.81590381 C32,7.38747532 31.8563783,6.98491031 31.5952075,6.68179037 L26.3083924,0.545809926 C26.0472216,0.242689984 25.700368,0.0759998785 25.3313417,0.0759998785 L2.8076978,0.0759998785 C1.65259628,0.0759998785 0.712871563,1.16666268 0.712871563,2.50729597 L0.712871563,11.0366825 C0.288580392,11.3104474 0,11.8358639 0,12.4390002 L0,15.7491372 C0,16.6336681 0.619723606,17.3530607 1.38139757,17.3530607 L2.13917179,17.3530607 L2.13917179,19.8872934 C2.13917179,20.3722336 1.79922632,20.7667809 1.38139757,20.7667809 C1.01237121,20.7667809 0.712871563,21.1143861 0.712871563,21.5426852 L0.712871563,45.5442499 C0.712871563,46.8843659 1.65259628,47.9748994 2.8076978,47.9748994 L11.3649421,47.9748994 C11.7339684,47.9748994 12.0334681,47.6279409 12.0334681,47.1989951 C12.0334681,46.7145722 12.3734136,46.3201542 12.7912423,46.3201542 L19.9221864,46.3201542 C20.3400151,46.3201542 20.6799606,46.7145722 20.6799606,47.1989951 C20.6799606,47.6279409 20.9789031,47.9748994 21.3484866,47.9748994 L29.9051738,47.9748994 C31.0603867,47.9748994 32,46.8843659 32,45.5442499 L32,17.404529 C32,16.9762299 31.7006118,16.6286247 31.331474,16.6286247 C30.9136452,16.6286247 30.5736998,16.2340774 30.5736998,15.7491372 C30.5736998,15.264197 30.9136452,14.8696497 31.331474,14.8696497 L31.331474,14.8696497 Z M1.38139757,15.8012521 C1.35710779,15.8012521 1.33705201,15.777975 1.33705201,15.7491372 L1.33705201,12.4390002 C1.33705201,12.4101624 1.35710779,12.3868853 1.38139757,12.3868853 C1.79922632,12.3868853 2.13917179,12.7814326 2.13917179,13.2663728 L2.13917179,15.8012521 L1.38139757,15.8012521 Z M30.662948,13.4452187 C29.8347557,13.7695467 29.2366478,14.6798118 29.2366478,15.7491372 C29.2366478,16.818592 29.8347557,17.728857 30.662948,18.0537023 L30.662948,45.5442499 C30.662948,46.0286728 30.3230025,46.4230908 29.9051738,46.4230908 L21.9072629,46.4230908 C21.627819,45.4618747 20.8435266,44.7683456 19.9221864,44.7683456 L12.7912423,44.7683456 C11.8697906,44.7683456 11.0854982,45.4618747 10.8056087,46.4230908 L2.8076978,46.4230908 C2.38986905,46.4230908 2.04992357,46.0286728 2.04992357,45.5442499 L2.04992357,22.1918585 C2.87822729,21.8670132 3.4762238,20.9567482 3.4762238,19.8872934 L3.4762238,13.2663728 C3.4762238,12.1969181 2.87822729,11.286653 2.04992357,10.9619371 L2.04992357,2.50729597 C2.04992357,2.02235579 2.38986905,1.62780846 2.8076978,1.62780846 L25.3313417,1.62780846 C25.3434866,1.62780846 25.3548515,1.63336911 25.3630967,1.64293859 L30.6503574,7.77891904 C30.6581569,7.78861784 30.662948,7.80219616 30.662948,7.81590381 L30.662948,13.4452187 Z" id="Fill-1" fill="#000000"></path>
                <path d="M31.1597014,14.8435263 C31.5268154,14.8435263 31.8245623,14.4971805 31.8245623,14.0689922 L31.8245623,7.80223629 C31.8245623,7.37456435 31.681728,6.97271021 31.421989,6.67012553 L26.1641586,0.544980312 C25.9044196,0.242395634 25.5594676,0.0759998785 25.1924644,0.0759998785 L2.7923048,0.0759998785 C1.64353604,0.0759998785 0.708963296,1.16473673 0.708963296,2.50300267 L0.708963296,11.0173276 C0.286998271,11.2906091 0,11.8150978 0,12.417169 L0,15.7214608 C0,16.6044297 0.616326016,17.322552 1.37382415,17.322552 L2.12744394,17.322552 L2.12744394,19.8523096 C2.12744394,20.3363935 1.78936219,20.7302441 1.37382415,20.7302441 C1.00682096,20.7302441 0.708963296,21.0772354 0.708963296,21.5047783 L0.708963296,45.4639598 C0.708963296,46.8017094 1.64353604,47.8903171 2.7923048,47.8903171 L11.3026346,47.8903171 C11.6696378,47.8903171 11.9674955,47.5439713 11.9674955,47.115783 C11.9674955,46.6322155 12.3055772,46.2384939 12.7211152,46.2384939 L19.8129644,46.2384939 C20.2285024,46.2384939 20.5665842,46.6322155 20.5665842,47.115783 C20.5665842,47.5439713 20.8638878,47.8903171 21.231445,47.8903171 L29.7412208,47.8903171 C30.8901004,47.8903171 31.8245623,46.8017094 31.8245623,45.4639598 L31.8245623,17.3739294 C31.8245623,16.9463866 31.5268154,16.5993953 31.1597014,16.5993953 C30.7441634,16.5993953 30.4060817,16.2055447 30.4060817,15.7214608 C30.4060817,15.237377 30.7441634,14.8435263 31.1597014,14.8435263 L31.1597014,14.8435263 Z M1.37382415,15.7734837 C1.34966754,15.7734837 1.32972172,15.7502477 1.32972172,15.7214608 L1.32972172,12.417169 C1.32972172,12.3883821 1.34966754,12.3651461 1.37382415,12.3651461 C1.78936219,12.3651461 2.12744394,12.7589967 2.12744394,13.2430806 L2.12744394,15.7734837 L1.37382415,15.7734837 Z M30.4948406,13.4216107 C29.6711888,13.745366 29.0763599,14.6540236 29.0763599,15.7214608 C29.0763599,16.7890271 29.6711888,17.6976847 30.4948406,18.0219563 L30.4948406,45.4639598 C30.4948406,45.9475273 30.1567588,46.3412488 29.7412208,46.3412488 L21.7871579,46.3412488 C21.5092461,45.3817301 20.7292535,44.6894256 19.8129644,44.6894256 L12.7211152,44.6894256 C11.8047154,44.6894256 11.0247228,45.3817301 10.7463677,46.3412488 L2.7923048,46.3412488 C2.37676676,46.3412488 2.03868501,45.9475273 2.03868501,45.4639598 L2.03868501,22.1528052 C2.86244762,21.8285336 3.45716566,20.9198759 3.45716566,19.8523096 L3.45716566,13.2430806 C3.45716566,12.1755143 2.86244762,11.2668567 2.03868501,10.9427141 L2.03868501,2.50300267 C2.03868501,2.01891882 2.37676676,1.6250682 2.7923048,1.6250682 L25.1924644,1.6250682 C25.2045427,1.6250682 25.2158454,1.63061902 25.2240453,1.64017161 L30.482319,7.76531683 C30.4900757,7.77499851 30.4948406,7.78855286 30.4948406,7.80223629 L30.4948406,13.4216107 Z" id="Fill-1" fill="#000000"></path>
                <path d="M25.4863329,7.51178598 L7.04774672,7.51178598 C5.89886716,7.51178598 4.96440522,8.60039374 4.96440522,9.93814333 L4.96440522,39.6806423 C4.96440522,41.0189082 5.89886716,42.1076451 7.04774672,42.1076451 L25.4863329,42.1076451 C26.6351017,42.1076451 27.5696744,41.0189082 27.5696744,39.6806423 L27.5696744,9.93814333 C27.5696744,8.60039374 26.6351017,7.51178598 25.4863329,7.51178598 L25.4863329,7.51178598 Z M26.2399527,39.6806423 C26.2399527,40.1647261 25.901871,40.5585768 25.4863329,40.5585768 L7.04774672,40.5585768 C6.63220869,40.5585768 6.29412694,40.1647261 6.29412694,39.6806423 L6.29412694,9.93814333 C6.29412694,9.45457583 6.63220869,9.0608543 7.04774672,9.0608543 L25.4863329,9.0608543 C25.901871,9.0608543 26.2399527,9.45457583 26.2399527,9.93814333 L26.2399527,39.6806423 Z" id="Fill-2" fill="#000000"></path>
                <path d="M13.1911719,18.3976706 L16.2670398,14.8816629 L19.3429078,18.3976706 C19.4726665,18.545617 19.6428708,18.6197169 19.8129644,18.6197169 C19.983058,18.6197169 20.1531515,18.545617 20.283021,18.3976706 C20.54276,18.1007644 20.54276,17.6193052 20.283021,17.322399 L16.7370964,13.2690721 C16.4773575,12.9726726 16.0561681,12.9726726 15.7969832,13.2690721 L12.2510586,17.322399 C11.9913196,17.6193052 11.9913196,18.1007644 12.2510586,18.3976706 C12.5102435,18.6939435 12.9314329,18.6939435 13.1911719,18.3976706 L13.1911719,18.3976706 Z" id="Fill-3" fill="#000000"></path>
            </g>
        </g>
    </g>
</svg>