<?xml version="1.0" encoding="UTF-8" standalone="no"?>
<svg width="215px" height="128px" viewBox="0 0 215 128" version="1.1" xmlns="http://www.w3.org/2000/svg" xmlns:xlink="http://www.w3.org/1999/xlink">
    <!-- Generator: Sketch 40.2 (33826) - http://www.bohemiancoding.com/sketch -->
    <title>fig-feature-txt</title>
    <desc>Created with Sketch.</desc>
    <defs></defs>
    <g id="Symbols" stroke="none" stroke-width="1" fill="none" fill-rule="evenodd">
        <g id="fig-feature-txt">
            <g id="ico-select-text" transform="translate(82.000000, 38.000000)">
                <g id="text-entry-box" transform="translate(1.000000, 0.000000)">
                    <g id="Capa_1">
                        <g id="Group">
                            <path d="M0.0272942519,23.0111539 C0.0272942519,23.4730566 0.405214663,23.850977 0.867117387,23.850977 L3.4411753,23.850977 L3.4411753,12.0430638 L0.867117387,12.0430638 C0.405214663,12.0430638 0.0272942519,12.4167851 0.0272942519,12.8828869 L0.0272942519,23.0111539 Z" id="Shape" stroke="#000000" stroke-width="2" fill="#FFFFFF"></path>
                            <path d="M30.8278077,23.850977 C31.2897105,23.850977 31.6676309,23.4730566 31.6676309,23.0111539 L31.6676309,12.8828869 C31.6676309,12.4209842 31.2897105,12.0430638 30.8278077,12.0430638 L11.4824818,12.0430638 L11.4824818,23.850977 L30.8278077,23.850977 Z" id="Shape" stroke="#000000" stroke-width="2" fill="#FFFFFF"></path>
                            <path d="M12.108192,0 C10.4915325,0 8.9336186,0.596274426 7.72851439,1.67964627 L7.4639701,1.91899586 L7.19942582,1.67964627 C5.99427962,0.596274426 4.4364077,0 2.81974817,0 C1.76577013,0 0.909150535,0.869216945 0.925946998,1.92739409 C0.94274346,2.96457567 1.81615952,3.77500499 2.85334109,3.78760234 C4.20545634,3.8043988 5.33921757,4.77859364 5.55337247,6.11811154 L5.55337247,29.7759293 C5.33921757,31.1154472 4.20545634,32.089642 2.85334109,32.1064385 C1.81615952,32.1190778 0.94274346,32.9294651 0.925946998,33.9666887 C0.909150535,35.0248238 1.76577013,35.8940828 2.81974817,35.8940828 C4.4364077,35.8940828 5.99427962,35.2977664 7.19942582,34.2144365 L7.4639701,33.9750449 L7.72851439,34.2144365 C8.93366059,35.2977664 10.4915325,35.8940828 12.108192,35.8940828 C13.1621701,35.8940828 14.0187897,35.0248238 14.0019932,33.9666887 C13.9851967,32.9294651 13.1117807,32.1190778 12.0745991,32.1064385 C10.7225259,32.089642 9.58876463,31.1154472 9.37456774,29.7759293 L9.37456774,6.11811154 C9.58876463,4.77859364 10.7225259,3.8043988 12.0745991,3.78760234 C13.1117807,3.77500499 13.9851967,2.96457567 14.0019932,1.92739409 C14.0187897,0.865017829 13.1621281,0 12.108192,0 L12.108192,0 Z" id="Shape" fill="#000000"></path>
                        </g>
                    </g>
                </g>
            </g>
        </g>
    </g>
</svg>