<?xml version="1.0" encoding="UTF-8" standalone="no"?>
<svg width="215px" height="128px" viewBox="0 0 215 128" version="1.1" xmlns="http://www.w3.org/2000/svg" xmlns:xlink="http://www.w3.org/1999/xlink">
    <!-- Generator: Sketch 40.2 (33826) - http://www.bohemiancoding.com/sketch -->
    <title>fig-feature-link-imgtext</title>
    <desc>Created with Sketch.</desc>
    <defs>
        <rect id="path-1" x="46" y="5" width="51" height="21" rx="3"></rect>
        <mask id="mask-2" maskContentUnits="userSpaceOnUse" maskUnits="objectBoundingBox" x="-2" y="-2" width="55" height="25">
            <rect x="44" y="3" width="55" height="25" fill="white"></rect>
            <use xlink:href="#path-1" fill="black"></use>
        </mask>
        <rect id="path-3" x="46" y="53" width="51" height="21" rx="3"></rect>
        <mask id="mask-4" maskContentUnits="userSpaceOnUse" maskUnits="objectBoundingBox" x="-2" y="-2" width="55" height="25">
            <rect x="44" y="51" width="55" height="25" fill="white"></rect>
            <use xlink:href="#path-3" fill="black"></use>
        </mask>
    </defs>
    <g id="Symbols" stroke="none" stroke-width="1" fill="none" fill-rule="evenodd">
        <g id="fig-feature-link-imgtext">
            <g id="Group" transform="translate(59.000000, 29.000000)">
                <g id="ico-pic">
                    <path d="M30.3761467,0 L1.62428523,0 C0.728643243,0 0,0.755283582 0,1.68367164 L0,22.3163284 C0,23.2447164 0.728643243,24 1.62428523,24 L30.3761467,24 C31.2714432,24 32,23.2447164 32,22.3163284 L32,1.68367164 C32,0.755283582 31.2714432,0 30.3761467,0 L30.3761467,0 Z" id="Path" fill="#FFFFFF"></path>
                    <path d="M30.3761467,0 L1.62428523,0 C0.728643243,0 0,0.755283582 0,1.68367164 L0,22.3163284 C0,23.2447164 0.728643243,24 1.62428523,24 L30.3761467,24 C31.2714432,24 32,23.2447164 32,22.3163284 L32,1.68367164 C32,0.755283582 31.2714432,0 30.3761467,0 L30.3761467,0 Z M6.01316422,7.39432836 C6.01316422,6.54671642 6.64625619,5.67008955 7.70621872,5.67008955 L8.25939665,5.67008955 C8.54250833,5.67008955 8.77231519,5.43474627 8.77706683,5.14226866 C9.57888542,4.87746269 10.7907278,5.13913433 11.8881851,5.37591045 C12.4673675,5.50119403 13.0197679,5.62047761 13.4979563,5.65791045 C13.7230979,6.12071642 14.0412853,7.28238806 13.549274,8.8719403 C12.5281022,8.21050746 10.1921069,7.15889552 6.48487303,8.03731343 C6.31277707,8.07823881 6.18050853,8.20379104 6.11942829,8.3619403 C6.11303517,8.37385075 6.10560532,8.38746269 6.09817548,8.40250746 C6.04720328,8.07895522 6.01316422,7.73471642 6.01316422,7.39432836 L6.01316422,7.39432836 Z M6.56521903,10.5807761 C6.56521903,9.94486567 6.81256378,9.32847761 6.95234855,9.03152239 C9.17594587,8.55044776 10.7981577,8.85062687 11.7785517,9.1959403 C12.5398517,9.4638806 13.0393793,9.79791045 13.2745425,9.97808955 L13.2745425,10.8676119 C13.2745425,12.7850149 11.7697396,14.345194 9.92005356,14.345194 C8.07002198,14.345194 6.56521903,12.7850149 6.56521903,10.8676119 L6.56521903,10.5807761 Z M9.92005356,15.4198209 C10.5680052,15.4198209 11.1832137,15.2721493 11.737342,15.0097612 C11.8493944,15.3113731 12.0198489,15.5474328 12.1804545,15.7114925 C12.0640824,15.8419701 11.9452913,15.9777313 11.8244267,16.1169851 C11.2493912,16.7780597 10.3800129,17.7775522 9.91806651,17.7775522 C9.45603378,17.7775522 8.58674183,16.7780597 8.01161993,16.1169851 C7.89049617,15.9780896 7.77205061,15.8419701 7.65559209,15.7114925 C7.81662968,15.5470746 7.98699777,15.3106567 8.09905021,15.0084179 C8.6542152,15.271791 9.27046042,15.4198209 9.92005356,15.4198209 L9.92005356,15.4198209 Z M7.24150778,16.8365373 C8.10345628,17.8275224 8.9946922,18.8521791 9.91806651,18.8521791 C10.8413544,18.8521791 11.7326767,17.8275224 12.5945388,16.8365373 C12.8601126,16.5315224 13.114628,16.2386866 13.3346724,16.0210746 L14.3480688,16.4534328 C14.3599048,16.4587164 14.3719998,16.4632836 14.3841813,16.4674925 C14.7419371,16.5884776 15.0945955,16.8480896 15.3837548,17.1971642 C15.0935588,17.7089552 14.9295839,18.2861194 14.9295839,18.87 L14.9295839,22.9253731 L3.80131642,22.9253731 L3.80131642,18.87 C3.80131642,17.8709552 4.55726003,16.7704478 5.45186529,16.4674925 C5.46404678,16.4632836 5.47622827,16.4587164 5.4879778,16.4534328 L6.50146059,16.0214328 C6.72150498,16.2386866 6.975934,16.5315224 7.24150778,16.8365373 L7.24150778,16.8365373 Z M27.9536715,15.3071642 C27.5517686,15.5128657 26.8747887,15.761194 25.9524511,15.761194 C25.0048866,15.761194 24.4035011,14.697403 24.4035011,14.2485672 C24.4035011,14.2174925 24.4004773,14.1870448 24.3957257,14.1573134 C25.641348,13.353403 26.4725403,11.922 26.4725403,10.2922388 C26.4725403,8.80934328 25.7017371,7.48808955 24.5084693,6.92597015 C24.3541704,6.85316418 24.1753357,6.86337313 24.0295898,6.95292537 L23.8874724,7.04032836 C22.6381352,7.8099403 20.9274564,8.8638806 18.1557784,9.17319403 C17.892278,9.20256716 17.6927953,9.43307463 17.6927953,9.70764179 L17.6927953,10.2922388 C17.6927953,11.9216418 18.5239877,13.3530448 19.7692644,14.1569552 C19.7645128,14.1870448 19.7611434,14.2174925 19.7611434,14.2485672 C19.7611434,14.6977612 19.1601035,15.761194 18.2121934,15.761194 C17.2813892,15.761194 16.6084698,15.5149254 16.2099363,15.3099403 C16.5895496,14.6742985 17.0752542,13.4254925 17.0752542,11.1978806 L17.0752542,9.82871642 C17.0752542,7.21979104 19.3214866,5.09677612 22.0826246,5.09677612 C24.8435035,5.09677612 27.0894767,7.21979104 27.0894767,9.82871642 L27.0894767,11.1978806 C27.0894767,13.4227164 27.5740582,14.670806 27.9536715,15.3071642 L27.9536715,15.3071642 Z M28.1993747,18.87 L28.1993747,22.9253731 L15.9659609,22.9253731 L15.9659609,18.87 C15.9659609,18.0394925 16.491061,17.192597 17.2588405,16.7585373 C17.39923,16.7819104 17.5460127,16.800806 17.699534,16.813791 C17.8149558,19.2162985 19.7368668,21.1343284 22.0826246,21.1343284 C24.4288144,21.1343284 26.3507254,19.2162985 26.4658017,16.813791 C26.619323,16.8004478 26.7661056,16.7816418 26.9064952,16.7585373 C27.6742747,17.1922388 28.1993747,18.0392239 28.1993747,18.87 L28.1993747,18.87 Z M22.0826246,13.7679403 C20.2336298,13.7679403 18.729518,12.2084776 18.729518,10.2922388 L18.729518,10.1823582 C21.3786899,9.79755224 23.1200384,8.76179104 24.308641,8.03068657 C25.0008261,8.47352239 25.4358177,9.33161194 25.4358177,10.2922388 C25.4358177,12.2084776 23.9317059,13.7679403 22.0826246,13.7679403 L22.0826246,13.7679403 Z M20.755706,14.6295224 C21.174542,14.7673433 21.6203327,14.8425672 22.0826246,14.8425672 C22.5450029,14.8425672 22.9904481,14.7673433 23.4092841,14.6295224 C23.5891554,15.4911045 24.3387059,16.5171045 25.4297701,16.7745672 C25.3345644,18.6026866 23.8699345,20.0597015 22.0826246,20.0597015 C20.2957467,20.0597015 18.8311168,18.6026866 18.7359111,16.774209 C19.8266297,16.5168358 20.5758346,15.4907463 20.755706,14.6295224 L20.755706,14.6295224 Z M30.9632773,22.3163284 C30.9632773,22.6521493 30.699777,22.9253731 30.3761467,22.9253731 L29.2360974,22.9253731 L29.2360974,18.87 C29.2360974,17.9499403 28.8290973,17.0467164 28.1625711,16.3891343 C28.72387,16.1421493 29.0289256,15.8808358 29.0525111,15.8601493 C29.1726845,15.7545672 29.2493156,15.6059104 29.2452551,15.4428358 C29.240849,15.2819104 29.1760539,15.1385373 29.0538934,15.040209 C29.0218414,15.0077015 28.8095724,14.7792537 28.5979946,14.2479403 C28.3826155,13.707403 28.1261994,12.7395224 28.1261994,11.1982388 L28.1261994,9.82871642 C28.1261994,6.62722388 25.415256,4.02250746 22.0826246,4.02250746 C18.7500796,4.02250746 16.0385315,6.62722388 16.0385315,9.82871642 L16.0385315,11.1982388 C16.0385315,12.7395224 15.7820291,13.707403 15.5670819,14.2479403 C15.3554177,14.7792537 15.1431487,15.0077015 15.1110967,15.040209 C14.9889362,15.1385373 14.9241411,15.2819104 14.919735,15.4428358 C14.9191302,15.4732836 14.9218084,15.5030149 14.9264737,15.5323881 C14.860037,15.5033731 14.7931684,15.4760597 14.7253495,15.4526866 L13.4328155,14.9010448 C13.2651256,14.8296716 13.0741095,14.8548358 12.9286227,14.9660597 C12.849659,14.8919104 12.6927683,14.7110149 12.6563102,14.4241791 C13.6640047,13.589194 14.3112652,12.3057313 14.3112652,10.8676119 L14.3112652,9.828 C15.3841003,7.18307463 14.5647439,5.25940299 14.1864265,4.78898507 C14.0878514,4.6661194 13.9421055,4.59546269 13.7882386,4.59546269 C13.3568756,4.59546269 12.7460731,4.46364179 12.0995038,4.32402985 C10.5902948,3.99832836 8.73110546,3.59785075 7.62319451,4.59761194 C6.96314775,4.61892537 6.31277707,4.89214925 5.82750447,5.35629851 C5.278819,5.88179104 4.97644156,6.60555224 4.97644156,7.39432836 C4.97644156,8.71038806 5.40028834,10.0239403 5.52849637,10.3908358 L5.52849637,10.8676119 C5.52849637,12.3040299 6.17411541,13.5860597 7.18008197,14.4210448 C7.14431503,14.7096716 6.98673319,14.8915522 6.90742391,14.9657015 C6.76202355,14.8548358 6.5710074,14.8293134 6.40323112,14.9010448 L5.11035157,15.4526866 C3.793541,15.9098507 2.76459376,17.4063582 2.76459376,18.87 L2.76459376,22.9253731 L1.62428523,22.9253731 C1.3003094,22.9253731 1.03672266,22.6521493 1.03672266,22.3163284 L1.03672266,1.68367164 C1.03672266,1.34785075 1.3003094,1.07462687 1.62428523,1.07462687 L30.3761467,1.07462687 C30.699777,1.07462687 30.9632773,1.34785075 30.9632773,1.68367164 L30.9632773,22.3163284 Z" id="Fill-1" fill="#000000"></path>
                </g>
                <g id="Rectangle-3">
                    <use fill="#FFFFFF" fill-rule="evenodd" xlink:href="#path-1"></use>
                    <use stroke="#000000" mask="url(#mask-2)" stroke-width="4" xlink:href="#path-1"></use>
                </g>
                <g id="Rectangle-3-Copy">
                    <use fill="#FFFFFF" fill-rule="evenodd" xlink:href="#path-3"></use>
                    <use stroke="#000000" mask="url(#mask-4)" stroke-width="4" xlink:href="#path-3"></use>
                </g>
                <path d="M55,13 L89.0147018,13" id="Line" stroke="#000000" stroke-width="2" stroke-linecap="square"></path>
                <path d="M55,61 L89.0147018,61" id="Line-Copy-2" stroke="#000000" stroke-width="2" stroke-linecap="square"></path>
                <path d="M55,18 L81.5,18" id="Line-Copy" stroke="#000000" stroke-width="2" stroke-linecap="square"></path>
                <path d="M55,66 L81.5,66" id="Line-Copy-3" stroke="#000000" stroke-width="2" stroke-linecap="square"></path>
                <g id="ico-pic" transform="translate(0.000000, 44.000000)">
                    <path d="M30.3761467,0 L1.62428523,0 C0.728643243,0 0,0.755283582 0,1.68367164 L0,22.3163284 C0,23.2447164 0.728643243,24 1.62428523,24 L30.3761467,24 C31.2714432,24 32,23.2447164 32,22.3163284 L32,1.68367164 C32,0.755283582 31.2714432,0 30.3761467,0 L30.3761467,0 Z" id="Path" fill="#FFFFFF"></path>
                    <path d="M30.3761467,0 L1.62428523,0 C0.728643243,0 0,0.755283582 0,1.68367164 L0,22.3163284 C0,23.2447164 0.728643243,24 1.62428523,24 L30.3761467,24 C31.2714432,24 32,23.2447164 32,22.3163284 L32,1.68367164 C32,0.755283582 31.2714432,0 30.3761467,0 L30.3761467,0 Z M6.01316422,7.39432836 C6.01316422,6.54671642 6.64625619,5.67008955 7.70621872,5.67008955 L8.25939665,5.67008955 C8.54250833,5.67008955 8.77231519,5.43474627 8.77706683,5.14226866 C9.57888542,4.87746269 10.7907278,5.13913433 11.8881851,5.37591045 C12.4673675,5.50119403 13.0197679,5.62047761 13.4979563,5.65791045 C13.7230979,6.12071642 14.0412853,7.28238806 13.549274,8.8719403 C12.5281022,8.21050746 10.1921069,7.15889552 6.48487303,8.03731343 C6.31277707,8.07823881 6.18050853,8.20379104 6.11942829,8.3619403 C6.11303517,8.37385075 6.10560532,8.38746269 6.09817548,8.40250746 C6.04720328,8.07895522 6.01316422,7.73471642 6.01316422,7.39432836 L6.01316422,7.39432836 Z M6.56521903,10.5807761 C6.56521903,9.94486567 6.81256378,9.32847761 6.95234855,9.03152239 C9.17594587,8.55044776 10.7981577,8.85062687 11.7785517,9.1959403 C12.5398517,9.4638806 13.0393793,9.79791045 13.2745425,9.97808955 L13.2745425,10.8676119 C13.2745425,12.7850149 11.7697396,14.345194 9.92005356,14.345194 C8.07002198,14.345194 6.56521903,12.7850149 6.56521903,10.8676119 L6.56521903,10.5807761 Z M9.92005356,15.4198209 C10.5680052,15.4198209 11.1832137,15.2721493 11.737342,15.0097612 C11.8493944,15.3113731 12.0198489,15.5474328 12.1804545,15.7114925 C12.0640824,15.8419701 11.9452913,15.9777313 11.8244267,16.1169851 C11.2493912,16.7780597 10.3800129,17.7775522 9.91806651,17.7775522 C9.45603378,17.7775522 8.58674183,16.7780597 8.01161993,16.1169851 C7.89049617,15.9780896 7.77205061,15.8419701 7.65559209,15.7114925 C7.81662968,15.5470746 7.98699777,15.3106567 8.09905021,15.0084179 C8.6542152,15.271791 9.27046042,15.4198209 9.92005356,15.4198209 L9.92005356,15.4198209 Z M7.24150778,16.8365373 C8.10345628,17.8275224 8.9946922,18.8521791 9.91806651,18.8521791 C10.8413544,18.8521791 11.7326767,17.8275224 12.5945388,16.8365373 C12.8601126,16.5315224 13.114628,16.2386866 13.3346724,16.0210746 L14.3480688,16.4534328 C14.3599048,16.4587164 14.3719998,16.4632836 14.3841813,16.4674925 C14.7419371,16.5884776 15.0945955,16.8480896 15.3837548,17.1971642 C15.0935588,17.7089552 14.9295839,18.2861194 14.9295839,18.87 L14.9295839,22.9253731 L3.80131642,22.9253731 L3.80131642,18.87 C3.80131642,17.8709552 4.55726003,16.7704478 5.45186529,16.4674925 C5.46404678,16.4632836 5.47622827,16.4587164 5.4879778,16.4534328 L6.50146059,16.0214328 C6.72150498,16.2386866 6.975934,16.5315224 7.24150778,16.8365373 L7.24150778,16.8365373 Z M27.9536715,15.3071642 C27.5517686,15.5128657 26.8747887,15.761194 25.9524511,15.761194 C25.0048866,15.761194 24.4035011,14.697403 24.4035011,14.2485672 C24.4035011,14.2174925 24.4004773,14.1870448 24.3957257,14.1573134 C25.641348,13.353403 26.4725403,11.922 26.4725403,10.2922388 C26.4725403,8.80934328 25.7017371,7.48808955 24.5084693,6.92597015 C24.3541704,6.85316418 24.1753357,6.86337313 24.0295898,6.95292537 L23.8874724,7.04032836 C22.6381352,7.8099403 20.9274564,8.8638806 18.1557784,9.17319403 C17.892278,9.20256716 17.6927953,9.43307463 17.6927953,9.70764179 L17.6927953,10.2922388 C17.6927953,11.9216418 18.5239877,13.3530448 19.7692644,14.1569552 C19.7645128,14.1870448 19.7611434,14.2174925 19.7611434,14.2485672 C19.7611434,14.6977612 19.1601035,15.761194 18.2121934,15.761194 C17.2813892,15.761194 16.6084698,15.5149254 16.2099363,15.3099403 C16.5895496,14.6742985 17.0752542,13.4254925 17.0752542,11.1978806 L17.0752542,9.82871642 C17.0752542,7.21979104 19.3214866,5.09677612 22.0826246,5.09677612 C24.8435035,5.09677612 27.0894767,7.21979104 27.0894767,9.82871642 L27.0894767,11.1978806 C27.0894767,13.4227164 27.5740582,14.670806 27.9536715,15.3071642 L27.9536715,15.3071642 Z M28.1993747,18.87 L28.1993747,22.9253731 L15.9659609,22.9253731 L15.9659609,18.87 C15.9659609,18.0394925 16.491061,17.192597 17.2588405,16.7585373 C17.39923,16.7819104 17.5460127,16.800806 17.699534,16.813791 C17.8149558,19.2162985 19.7368668,21.1343284 22.0826246,21.1343284 C24.4288144,21.1343284 26.3507254,19.2162985 26.4658017,16.813791 C26.619323,16.8004478 26.7661056,16.7816418 26.9064952,16.7585373 C27.6742747,17.1922388 28.1993747,18.0392239 28.1993747,18.87 L28.1993747,18.87 Z M22.0826246,13.7679403 C20.2336298,13.7679403 18.729518,12.2084776 18.729518,10.2922388 L18.729518,10.1823582 C21.3786899,9.79755224 23.1200384,8.76179104 24.308641,8.03068657 C25.0008261,8.47352239 25.4358177,9.33161194 25.4358177,10.2922388 C25.4358177,12.2084776 23.9317059,13.7679403 22.0826246,13.7679403 L22.0826246,13.7679403 Z M20.755706,14.6295224 C21.174542,14.7673433 21.6203327,14.8425672 22.0826246,14.8425672 C22.5450029,14.8425672 22.9904481,14.7673433 23.4092841,14.6295224 C23.5891554,15.4911045 24.3387059,16.5171045 25.4297701,16.7745672 C25.3345644,18.6026866 23.8699345,20.0597015 22.0826246,20.0597015 C20.2957467,20.0597015 18.8311168,18.6026866 18.7359111,16.774209 C19.8266297,16.5168358 20.5758346,15.4907463 20.755706,14.6295224 L20.755706,14.6295224 Z M30.9632773,22.3163284 C30.9632773,22.6521493 30.699777,22.9253731 30.3761467,22.9253731 L29.2360974,22.9253731 L29.2360974,18.87 C29.2360974,17.9499403 28.8290973,17.0467164 28.1625711,16.3891343 C28.72387,16.1421493 29.0289256,15.8808358 29.0525111,15.8601493 C29.1726845,15.7545672 29.2493156,15.6059104 29.2452551,15.4428358 C29.240849,15.2819104 29.1760539,15.1385373 29.0538934,15.040209 C29.0218414,15.0077015 28.8095724,14.7792537 28.5979946,14.2479403 C28.3826155,13.707403 28.1261994,12.7395224 28.1261994,11.1982388 L28.1261994,9.82871642 C28.1261994,6.62722388 25.415256,4.02250746 22.0826246,4.02250746 C18.7500796,4.02250746 16.0385315,6.62722388 16.0385315,9.82871642 L16.0385315,11.1982388 C16.0385315,12.7395224 15.7820291,13.707403 15.5670819,14.2479403 C15.3554177,14.7792537 15.1431487,15.0077015 15.1110967,15.040209 C14.9889362,15.1385373 14.9241411,15.2819104 14.919735,15.4428358 C14.9191302,15.4732836 14.9218084,15.5030149 14.9264737,15.5323881 C14.860037,15.5033731 14.7931684,15.4760597 14.7253495,15.4526866 L13.4328155,14.9010448 C13.2651256,14.8296716 13.0741095,14.8548358 12.9286227,14.9660597 C12.849659,14.8919104 12.6927683,14.7110149 12.6563102,14.4241791 C13.6640047,13.589194 14.3112652,12.3057313 14.3112652,10.8676119 L14.3112652,9.828 C15.3841003,7.18307463 14.5647439,5.25940299 14.1864265,4.78898507 C14.0878514,4.6661194 13.9421055,4.59546269 13.7882386,4.59546269 C13.3568756,4.59546269 12.7460731,4.46364179 12.0995038,4.32402985 C10.5902948,3.99832836 8.73110546,3.59785075 7.62319451,4.59761194 C6.96314775,4.61892537 6.31277707,4.89214925 5.82750447,5.35629851 C5.278819,5.88179104 4.97644156,6.60555224 4.97644156,7.39432836 C4.97644156,8.71038806 5.40028834,10.0239403 5.52849637,10.3908358 L5.52849637,10.8676119 C5.52849637,12.3040299 6.17411541,13.5860597 7.18008197,14.4210448 C7.14431503,14.7096716 6.98673319,14.8915522 6.90742391,14.9657015 C6.76202355,14.8548358 6.5710074,14.8293134 6.40323112,14.9010448 L5.11035157,15.4526866 C3.793541,15.9098507 2.76459376,17.4063582 2.76459376,18.87 L2.76459376,22.9253731 L1.62428523,22.9253731 C1.3003094,22.9253731 1.03672266,22.6521493 1.03672266,22.3163284 L1.03672266,1.68367164 C1.03672266,1.34785075 1.3003094,1.07462687 1.62428523,1.07462687 L30.3761467,1.07462687 C30.699777,1.07462687 30.9632773,1.34785075 30.9632773,1.68367164 L30.9632773,22.3163284 Z" id="Fill-1" fill="#000000"></path>
                </g>
            </g>
        </g>
    </g>
</svg>