<?xml version="1.0" encoding="UTF-8" standalone="no"?>
<svg width="20px" height="50px" viewBox="0 0 20 50" version="1.1" xmlns="http://www.w3.org/2000/svg" xmlns:xlink="http://www.w3.org/1999/xlink">
    <!-- Generator: Sketch 3.8.3 (29802) - http://www.bohemiancoding.com/sketch -->
    <title>ico-remove-1</title>
    <desc>Created with Sketch.</desc>
    <defs>
        <polygon id="path-1" points="0.00716705083 0.0804857601 0.00716705083 49.991264 19.7812992 49.991264 19.7812992 0.0804857601 0.00716705083 0.0804857601"></polygon>
    </defs>
    <g id="Symbols" stroke="none" stroke-width="1" fill="none" fill-rule="evenodd">
        <g id="ico-remove-1">
            <g id="camera-1">
                <path d="M12.7719373,4.18369202 C12.6541066,2.50013296 11.4986314,1.15683196 10.0448506,1.07089383 C9.2429823,1.02287719 8.48161469,1.34035646 7.90072194,1.96224309 C7.35803526,2.54258433 7.03483264,3.34696006 7.00213376,4.18718649 C3.08503735,5.91682081 0.390649602,10.9885942 0.390649602,16.752532 C0.390649602,19.4730433 0.980950444,22.0838023 2.0973017,24.3016274 C3.20252386,26.496803 4.7392565,28.1551242 6.54090745,29.0959138 C6.82372408,29.2441053 6.99949491,29.5483832 6.99949491,29.8907121 L6.99949491,30.8340902 C6.99949491,31.4488584 7.30778225,31.9837715 7.75914153,32.2532342 L8.46853514,48.2674943 C8.4868924,48.6810068 8.7894431,49.0056045 9.15647369,49.0056045 L10.6247108,49.0056045 C10.9917414,49.0056045 11.2942921,48.6810068 11.3126493,48.2674943 L12.0221577,32.2532342 C12.4734022,31.9837715 12.7818043,31.4493761 12.7818043,30.8340902 L12.7818043,29.8907121 C12.7818043,29.5483832 12.9574604,29.2441053 13.240277,29.0959138 C15.041928,28.1551242 16.5787753,26.496803 17.6839975,24.3016274 C18.8003488,22.0838023 19.3906496,19.4730433 19.3906496,16.752532 C19.3906496,10.9856175 16.6925904,5.91073784 12.7719373,4.18369202 L12.7719373,4.18369202 Z" id="Path" fill="#FFFFFF"></path>
                <mask id="mask-2" fill="white">
                    <use xlink:href="#path-1"></use>
                </mask>
                <g id="Clip-2"></g>
                <path d="M12.8904187,3.32622918 C12.7677427,1.57344048 11.5647532,0.174901579 10.0511915,0.0854295848 C9.21634957,0.0354384555 8.42367375,0.365972795 7.81889411,1.01343203 C7.2538916,1.61763748 6.91739856,2.45508996 6.88335507,3.32986735 C2.8051837,5.13062598 0,10.4109558 0,16.4119126 C0,19.2442941 0.614574609,21.9624101 1.77683135,24.2714344 C2.92750136,26.5568779 4.52742601,28.2833909 6.40316267,29.2628667 C6.697609,29.417152 6.8806077,29.7339421 6.8806077,30.0903479 L6.8806077,31.0725186 C6.8806077,31.7125668 7.20157213,32.2694761 7.67149176,32.5500193 L8.41005635,49.222802 C8.42916849,49.6533186 8.74416037,49.991264 9.12628363,49.991264 L10.6548961,49.991264 C11.0370194,49.991264 11.3520113,49.6533186 11.3711234,49.222802 L12.1098074,32.5500193 C12.5796076,32.2694761 12.9006915,31.7131058 12.9006915,31.0725186 L12.9006915,30.0903479 C12.9006915,29.7339421 13.0835707,29.417152 13.3780171,29.2628667 C15.2537537,28.2833909 16.8537978,26.5568779 18.0044679,24.2714344 C19.1667246,21.9624101 19.7812992,19.2442941 19.7812992,16.4119126 C19.7812992,10.4078567 16.9722931,5.12429287 12.8904187,3.32622918 L12.8904187,3.32622918 Z M11.4672813,30.1561044 L11.4672813,31.3224421 C11.4672813,31.3599995 11.4457802,31.3906972 11.4197399,31.3906972 L8.36155931,31.3906972 C8.33539957,31.3906972 8.31401787,31.3599995 8.31401787,31.3224421 L8.31401787,30.1561044 L11.4672813,30.1561044 Z M9.97319014,48.3737613 L9.80798962,48.3737613 L9.1151747,32.7431117 L10.6661245,32.7431117 L9.97319014,48.3737613 Z M12.7756265,27.7960111 C12.4443893,27.968622 12.1629631,28.2270667 11.9460403,28.5391407 L7.83525887,28.5391407 C7.61821668,28.2270667 7.33690994,27.968622 7.00555329,27.7960111 C3.67263575,26.0548106 1.43341017,21.4797464 1.43341017,16.4119126 C1.43341017,10.8651879 4.05858144,6.03639517 7.81698289,4.6700608 C8.11334045,4.56212847 8.31401787,4.25153668 8.31401787,3.9005208 L8.31401787,3.47620257 C8.31401787,2.98356761 8.48841611,2.52515839 8.80579701,2.185596 C9.10155731,1.86867111 9.48415837,1.69767719 9.8906496,1.69767719 C9.9190789,1.69767719 9.94750821,1.69821618 9.97653476,1.70023738 C10.7985955,1.74874629 11.4672813,2.61085747 11.4672813,3.62253779 L11.4672813,3.9005208 C11.4672813,4.2509977 11.6679588,4.56212847 11.9641969,4.6700608 C15.7227178,6.03639517 18.347889,10.8651879 18.347889,16.4119126 C18.347889,21.4797464 16.108544,26.0548106 12.7756265,27.7960111 L12.7756265,27.7960111 Z" id="Fill-1" fill="#000000" mask="url(#mask-2)"></path>
            </g>
        </g>
    </g>
</svg>