<?xml version="1.0" encoding="UTF-8" standalone="no"?>
<svg width="32px" height="23px" viewBox="0 0 32 23" version="1.1" xmlns="http://www.w3.org/2000/svg" xmlns:xlink="http://www.w3.org/1999/xlink">
    <!-- Generator: Sketch 3.8.3 (29802) - http://www.bohemiancoding.com/sketch -->
    <title>ico-export-1</title>
    <desc>Created with Sketch.</desc>
    <defs></defs>
    <g id="Symbols" stroke="none" stroke-width="1" fill="none" fill-rule="evenodd">
        <g id="ico-export-1">
            <path d="M31.447254,16.6333398 L31.447254,5.08565362 C31.447254,4.06381212 30.7186108,3.23250015 29.8229688,3.23250015 L25.7567697,3.23250015 L24.914087,0.846889105 C24.7507168,0.379879844 24.3599587,0.0783641562 23.9195244,0.0783641562 L20.4232636,0.0783641562 C20.1371282,0.0783641562 19.9049023,0.34331158 19.9049023,0.669764655 L19.9049023,3.23250015 L12.0950977,3.23250015 L12.0950977,0.669764655 C12.0950977,0.34331158 11.8628718,0.0783641562 11.5767364,0.0783641562 L8.0804756,0.0783641562 C7.64012765,0.0783641562 7.24962878,0.379879844 7.08625857,0.845312037 L6.24366222,3.23250015 L2.17703119,3.23250015 C1.28138921,3.23250015 0.552745965,4.06381212 0.552745965,5.08565362 L0.552745965,16.6333398 C0.223759308,16.8420056 0,17.2424823 0,17.7021976 L0,18.9639506 C0,19.6377529 0.480520953,20.1859811 1.0711073,20.1859811 L7.74103532,20.1859811 L7.74103532,20.8563336 C7.74103532,21.5301359 8.22155627,22.0783642 8.81214261,22.0783642 L23.1878574,22.0783642 C23.7787893,22.0783642 24.2593966,21.5301359 24.2593966,20.8563336 L24.2593966,20.1859811 L30.9288927,20.1859811 C31.519479,20.1859811 32,19.6377529 32,18.9639506 L32,17.7021976 C32,17.2424823 31.7765863,16.8420056 31.447254,16.6333398 L31.447254,16.6333398 Z" id="Path" fill="#FFFFFF"></path>
            <g id="Group" fill="#000000">
                <path d="M31.447254,16.6333398 L31.447254,5.08565362 C31.447254,4.06381212 30.7186108,3.23250015 29.8229688,3.23250015 L25.7567697,3.23250015 L24.914087,0.846889105 C24.7507168,0.379879844 24.3599587,0.0783641562 23.9195244,0.0783641562 L20.4232636,0.0783641562 C20.1371282,0.0783641562 19.9049023,0.34331158 19.9049023,0.669764655 L19.9049023,3.23250015 L12.0950977,3.23250015 L12.0950977,0.669764655 C12.0950977,0.34331158 11.8628718,0.0783641562 11.5767364,0.0783641562 L8.0804756,0.0783641562 C7.64012765,0.0783641562 7.24962878,0.379879844 7.08625857,0.845312037 L6.24366222,3.23250015 L2.17703119,3.23250015 C1.28138921,3.23250015 0.552745965,4.06381212 0.552745965,5.08565362 L0.552745965,16.6333398 C0.223759308,16.8420056 0,17.2424823 0,17.7021976 L0,18.9639506 C0,19.6377529 0.480520953,20.1859811 1.0711073,20.1859811 L7.74103532,20.1859811 L7.74103532,20.8563336 C7.74103532,21.5301359 8.22155627,22.0783642 8.81214261,22.0783642 L23.1878574,22.0783642 C23.7787893,22.0783642 24.2593966,21.5301359 24.2593966,20.8563336 L24.2593966,20.1859811 L30.9288927,20.1859811 C31.519479,20.1859811 32,19.6377529 32,18.9639506 L32,17.7021976 C32,17.2424823 31.7765863,16.8420056 31.447254,16.6333398 L31.447254,16.6333398 Z M24.2593966,16.4796742 L24.2593966,13.8777091 L26.5056291,13.8777091 C26.7917645,13.8777091 27.0239904,13.6128603 27.0239904,13.2863086 C27.0239904,12.9598556 26.7917645,12.6949081 26.5056291,12.6949081 L5.49480289,12.6949081 C5.20823547,12.6949081 4.97644156,12.9598556 4.97644156,13.2863086 C4.97644156,13.6128603 5.20823547,13.8777091 5.49480289,13.8777091 L7.74103532,13.8777091 L7.74103532,16.4796742 L1.58946863,16.4796742 L1.58946863,7.56943714 L30.4105314,7.56943714 L30.4105314,16.4796742 L24.2593966,16.4796742 Z M20.941625,1.26116515 L23.9195244,1.26116515 C23.9336929,1.26116515 23.94622,1.2708247 23.951922,1.28738391 L24.6390099,3.23250015 L20.941625,3.23250015 L20.941625,1.26116515 Z M8.04842359,1.28580684 C8.05386638,1.2708247 8.06630705,1.26116515 8.0804756,1.26116515 L11.058375,1.26116515 L11.058375,3.23250015 L7.36133564,3.23250015 L8.04842359,1.28580684 Z M2.17703119,4.41530115 L29.8229688,4.41530115 C30.1469446,4.41530115 30.4105314,4.7160283 30.4105314,5.08565362 L30.4105314,6.38663615 L1.58946863,6.38663615 L1.58946863,5.08565362 C1.58946863,4.7160283 1.85305536,4.41530115 2.17703119,4.41530115 L2.17703119,4.41530115 Z M1.0711073,19.0031801 C1.0522735,19.0031801 1.03672266,18.9854381 1.03672266,18.9639506 L1.03672266,17.7021976 C1.03672266,17.6802172 1.0522735,17.6624752 1.0711073,17.6624752 L7.74103532,17.6624752 L7.74103532,19.0031801 L1.0711073,19.0031801 Z M23.1878574,20.8955632 L8.81214261,20.8955632 C8.79322243,20.8955632 8.77775798,20.8779197 8.77775798,20.8563336 L8.77775798,13.8777091 L23.222674,13.8777091 L23.222674,20.8563336 C23.222674,20.8779197 23.2071231,20.8955632 23.1878574,20.8955632 L23.1878574,20.8955632 Z M30.9632773,18.9639506 C30.9632773,18.9854381 30.9478129,19.0031801 30.9288927,19.0031801 L24.2593966,19.0031801 L24.2593966,17.6624752 L30.9288927,17.6624752 C30.9478129,17.6624752 30.9632773,17.6802172 30.9632773,17.7021976 L30.9632773,18.9639506 Z" id="Fill-1"></path>
                <path d="M8.86922541,9.4820629 L5.53039681,9.4820629 C5.24197308,9.4820629 5.00867767,9.74536646 5.00867767,10.0697941 C5.00867767,10.3943196 5.24197308,10.6575252 5.53039681,10.6575252 L8.86922541,10.6575252 C9.15721437,10.6575252 9.39094455,10.3943196 9.39094455,10.0697941 C9.39094455,9.74536646 9.15721437,9.4820629 8.86922541,9.4820629 L8.86922541,9.4820629 Z" id="Fill-2"></path>
                <path d="M25.5642379,8.22813845 C24.6627942,8.22813845 23.929431,9.05429256 23.929431,10.0697941 C23.929431,11.0852956 24.6627942,11.9114497 25.5642379,11.9114497 C26.4656817,11.9114497 27.1990449,11.0852956 27.1990449,10.0697941 C27.1990449,9.05429256 26.4656817,8.22813845 25.5642379,8.22813845 L25.5642379,8.22813845 Z M25.5642379,10.7359874 C25.2381635,10.7359874 24.9728693,10.4371261 24.9728693,10.0697941 C24.9728693,9.70246209 25.2381635,9.40360079 25.5642379,9.40360079 C25.8903124,9.40360079 26.1556066,9.70246209 26.1556066,10.0697941 C26.1556066,10.4371261 25.8903124,10.7359874 25.5642379,10.7359874 L25.5642379,10.7359874 Z" id="Fill-3"></path>
                <path d="M22.2254093,8.85534556 C21.6306495,8.85534556 21.1469289,9.40017236 21.1469289,10.0697941 C21.1469289,10.7394158 21.6306495,11.2842426 22.2254093,11.2842426 C22.8198213,11.2842426 23.303455,10.7394158 23.303455,10.0697941 C23.303455,9.40017236 22.8198213,8.85534556 22.2254093,8.85534556 L22.2254093,8.85534556 Z" id="Fill-4"></path>
            </g>
        </g>
    </g>
</svg>