<?xml version="1.0" encoding="UTF-8" standalone="no"?>
<svg width="32px" height="32px" viewBox="0 0 32 32" version="1.1" xmlns="http://www.w3.org/2000/svg" xmlns:xlink="http://www.w3.org/1999/xlink">
    <!-- Generator: Sketch 3.8.3 (29802) - http://www.bohemiancoding.com/sketch -->
    <title>ico-edit-txt-2</title>
    <desc>Created with Sketch.</desc>
    <defs></defs>
    <g id="Symbols" stroke="none" stroke-width="1" fill="none" fill-rule="evenodd">
        <g id="ico-edit-txt-2">
            <path d="M31.3487781,2.49608767 L29.4975123,0.644646575 C28.6378959,-0.214794521 27.2391014,-0.214794521 26.3794849,0.644646575 C26.3794849,0.644646575 26.3794849,0.644646575 26.3794849,0.644734247 L26.3794849,0.644734247 L3.59907945,23.4251397 C3.53227397,23.4920329 3.48326575,23.5696219 3.45117808,23.6524712 C3.45100274,23.6519452 3.45065205,23.6514192 3.45038904,23.6508932 L0.0596164384,31.0622685 C-0.0546191781,31.3120438 -0.00157808219,31.6065315 0.192613699,31.8007233 C0.318684932,31.9268822 0.486838356,31.993337 0.657709589,31.993337 C0.750115068,31.993337 0.84339726,31.9737863 0.931068493,31.9337205 L8.3769863,28.5274301 C8.37996712,28.5260274 8.38259726,28.524274 8.38557808,28.5227836 C8.45159452,28.4913973 8.51375342,28.4490521 8.5683726,28.3944329 L31.3487781,5.61420274 C31.3490411,5.61393973 31.3492164,5.61358904 31.3495671,5.6134137 C32.2084822,4.75362192 32.2081315,3.35535342 31.3487781,2.49608767 L31.3487781,2.49608767 Z" id="Path" fill="#FFFFFF"></path>
            <path d="M31.3487781,2.49608767 L29.4975123,0.644646575 C28.6378959,-0.214794521 27.2391014,-0.214794521 26.3794849,0.644646575 C26.3794849,0.644646575 26.3794849,0.644646575 26.3794849,0.644734247 L26.3794849,0.644734247 L3.59907945,23.4251397 C3.53227397,23.4920329 3.48326575,23.5696219 3.45117808,23.6524712 C3.45100274,23.6519452 3.45065205,23.6514192 3.45038904,23.6508932 L0.0596164384,31.0622685 C-0.0546191781,31.3120438 -0.00157808219,31.6065315 0.192613699,31.8007233 C0.318684932,31.9268822 0.486838356,31.993337 0.657709589,31.993337 C0.750115068,31.993337 0.84339726,31.9737863 0.931068493,31.9337205 L8.3769863,28.5274301 C8.37996712,28.5260274 8.38259726,28.524274 8.38557808,28.5227836 C8.45159452,28.4913973 8.51375342,28.4490521 8.5683726,28.3944329 L31.3487781,5.61420274 C31.3490411,5.61393973 31.3492164,5.61358904 31.3495671,5.6134137 C32.2084822,4.75362192 32.2081315,3.35535342 31.3487781,2.49608767 L31.3487781,2.49608767 Z M23.519211,5.36469041 L24.6091397,6.45453151 L6.08368219,24.9798137 L4.99392877,23.8900603 L23.519211,5.36469041 L23.519211,5.36469041 Z M2.71018082,28.4296767 L3.56374795,29.2832438 L1.9904,30.002937 L2.71018082,28.4296767 L2.71018082,28.4296767 Z M4.83989041,28.6994411 L3.29407123,27.1536219 L4.26827397,25.0241753 L6.96933699,27.725326 L4.83989041,28.6994411 L4.83989041,28.6994411 Z M8.10345205,26.9996712 L7.01352329,25.9097425 L25.5389808,7.3843726 L26.6288219,8.4742137 L8.10345205,26.9996712 L8.10345205,26.9996712 Z M27.5587507,7.54428493 L24.4491397,4.43476164 L25.9923288,2.8915726 L29.1019397,6.00127123 L27.5587507,7.54428493 L27.5587507,7.54428493 Z M30.4190247,4.68401096 C30.4190247,4.68409863 30.4188493,4.68409863 30.4188493,4.6841863 L30.0316932,5.07125479 L26.9222575,1.96164384 L27.3092384,1.57457534 C27.6563288,1.22766027 28.2207562,1.22774795 28.5675836,1.57448767 L30.4188493,3.42592877 C30.7656767,3.77275616 30.7658521,4.33700822 30.4190247,4.68401096 L30.4190247,4.68401096 Z" id="Shape" fill="#000000"></path>
        </g>
    </g>
</svg>