<?xml version="1.0" encoding="UTF-8" standalone="no"?>
<svg width="32px" height="64px" viewBox="0 0 32 64" version="1.1" xmlns="http://www.w3.org/2000/svg" xmlns:xlink="http://www.w3.org/1999/xlink">
    <!-- Generator: Sketch 3.8.3 (29802) - http://www.bohemiancoding.com/sketch -->
    <title>ico-edit-img-1</title>
    <desc>Created with Sketch.</desc>
    <defs></defs>
    <g id="Symbols" stroke="none" stroke-width="1" fill="none" fill-rule="evenodd">
        <g id="ico-edit-img-1">
            <g id="Group">
                <rect id="bg" fill="#FFFFFF" x="1.6" y="1.6" width="28.8" height="60.8" rx="2"></rect>
                <path d="M27.1943269,0.098311396 L5.77952262,0.098311396 C3.12915522,0.098311396 0.973089098,2.54397886 0.973089098,5.55034182 L0.973089098,12.2476338 C0.953012861,12.2455635 0.933392903,12.2434933 0.912556203,12.2434933 C0.408825179,12.2434933 0,12.7072316 0,13.2786234 L0,17.6955237 C0,18.267088 0.408825179,18.7306538 0.912556203,18.7306538 C0.933392903,18.7306538 0.953012861,18.7285836 0.973089098,18.7272034 L0.973089098,21.0805717 C0.953012861,21.0785015 0.933392903,21.0772938 0.912556203,21.0772938 C0.408825179,21.0772938 0,21.5401695 0,22.112424 L0,26.5284616 C0,27.100026 0.408825179,27.5635918 0.912556203,27.5635918 C0.933392903,27.5635918 0.953012861,27.561694 0.973089098,27.5603139 L0.973089098,58.5488322 C0.973089098,61.5545051 3.12915522,64 5.77952262,64 L27.1943269,64 C29.844086,64 32,61.5545051 32,58.5488322 L32,5.55034182 C32,2.54397886 29.844086,0.098311396 27.1943269,0.098311396 L27.1943269,0.098311396 Z M30.1748876,58.5488322 C30.1748876,60.4127565 28.8375365,61.9297397 27.1943269,61.9297397 L5.77952262,61.9297397 C4.13555262,61.9297397 2.7982015,60.4127565 2.7982015,58.5488322 L2.7982015,5.55034182 C2.7982015,3.68555488 4.13555262,2.16857167 5.77952262,2.16857167 L27.1943269,2.16857167 C28.8375365,2.16857167 30.1748876,3.68555488 30.1748876,5.55034182 L30.1748876,58.5488322 Z" id="Fill-1" fill="#000000"></path>
                <path d="M7.28186699,4.29325866 C5.79585067,4.29325866 4.58691253,5.67502533 4.58691253,7.37302699 C4.58691253,9.07184791 5.79585067,10.4536146 7.28186699,10.4536146 C8.76788331,10.4536146 9.97682144,9.07184791 9.97682144,7.37302699 C9.97682144,5.67502533 8.76788331,4.29325866 7.28186699,4.29325866 L7.28186699,4.29325866 Z M7.28186699,8.48738667 C6.74433818,8.48738667 6.30700473,7.98747322 6.30700473,7.37302699 C6.30700473,6.75923618 6.74433818,6.25948658 7.28186699,6.25948658 C7.8193958,6.25948658 8.25672924,6.75923618 8.25672924,7.37302699 C8.25672924,7.98747322 7.8193958,8.48738667 7.28186699,8.48738667 L7.28186699,8.48738667 Z" id="Fill-2" fill="#000000"></path>
                <path d="M16.4556921,9.27404169 C17.3722145,9.27404169 18.1180178,8.42151803 18.1180178,7.37302699 C18.1180178,6.32535522 17.3722145,5.47283156 16.4556921,5.47283156 C15.5384529,5.47283156 14.7926496,6.32535522 14.7926496,7.37302699 C14.7926496,8.42151803 15.5384529,9.27404169 16.4556921,9.27404169 L16.4556921,9.27404169 Z" id="Fill-3" fill="#000000"></path>
                <path d="M11.8687795,8.35614095 L12.7858753,8.35614095 C13.2607641,8.35614095 13.6459214,7.91652516 13.6459214,7.37302699 C13.6459214,6.83034809 13.2607641,6.38991303 12.7858753,6.38991303 L11.8687795,6.38991303 C11.3938907,6.38991303 11.0087334,6.83034809 11.0087334,7.37302699 C11.0087334,7.91652516 11.3938907,8.35614095 11.8687795,8.35614095 L11.8687795,8.35614095 Z" id="Fill-4" fill="#000000"></path>
                <path d="M15.5378795,25.2663565 C13.0407357,25.2663565 11.0087334,27.5889632 11.0087334,30.4435984 C11.0087334,33.2988891 13.0407357,35.6216597 15.5378795,35.6216597 C18.0357401,35.6216597 20.0677423,33.2988891 20.0677423,30.4435984 C20.0677423,27.5889632 18.0357401,25.2663565 15.5378795,25.2663565 L15.5378795,25.2663565 Z M15.5378795,33.6554317 C13.9892232,33.6554317 12.7288256,32.2146782 12.7288256,30.4435984 C12.7288256,28.6733379 13.9892232,27.2325844 15.5378795,27.2325844 C17.0872526,27.2325844 18.3476501,28.6733379 18.3476501,30.4435984 C18.3476501,32.2146782 17.0872526,33.6554317 15.5378795,33.6554317 L15.5378795,33.6554317 Z" id="Fill-5" fill="#000000"></path>
            </g>
        </g>
    </g>
</svg>