<?xml version="1.0" encoding="UTF-8" standalone="no"?>
<svg width="32px" height="30px" viewBox="0 0 32 30" version="1.1" xmlns="http://www.w3.org/2000/svg" xmlns:xlink="http://www.w3.org/1999/xlink">
    <!-- Generator: Sketch 3.8.3 (29802) - http://www.bohemiancoding.com/sketch -->
    <title>ico-edit-img-2</title>
    <desc>Created with Sketch.</desc>
    <defs></defs>
    <g id="Symbols" stroke="none" stroke-width="1" fill="none" fill-rule="evenodd">
        <g id="ico-edit-img-2">
            <path d="M13.2432992,2 L27.9957423,2 C30.2072328,2 32,3.79245532 32,5.99847066 L32,25.0015293 C32,27.2098237 30.2109725,29 27.9957423,29 L4.0042577,29 C1.79276724,29 0,27.2075447 0,25.0015293 L0,5.99847066 C0,3.79159126 1.78673561,2.00229428 4,2.0000022 L4,1.99810135 C4,0.894580447 4.88772964,0 6,0 C7.1045695,0 8,0.886706352 8,1.99810135 L8,2 L10,2 L10,1.61891937 C10,0.724814892 10.7197932,0 11.6216496,0 C12.5172619,0 13.2432992,0.724056363 13.2432992,1.61891937 L13.2432992,2 Z" id="Combined-Shape" fill="#FFFFFF"></path>
            <path d="M29.2227278,1.89293983 L13.7314501,1.89293983 L13.7314501,1.22239012 C13.7314501,0.548389569 13.2517089,0 12.6620809,0 L10.4538221,0 C9.86419407,0 9.38445283,0.548389569 9.38445283,1.22239012 L9.38445283,1.89293983 L8.2112345,1.89293983 L8.2112345,1.22239012 C8.2112345,0.548389569 7.73149326,0 7.14186523,0 L4.38175741,0 C3.79178437,0 3.31195687,0.548389569 3.31195687,1.22239012 L3.31195687,1.89293983 L2.72577898,1.89293983 C1.22272776,1.89293983 0,3.2906332 0,5.00876276 L0,26.4629025 C0,28.181032 1.22272776,29.5787254 2.72577898,29.5787254 L29.2227278,29.5787254 C30.725434,29.5787254 31.9480755,28.181032 31.9480755,26.4629025 L31.9480755,5.00876276 C31.9480755,3.2906332 30.725434,1.89293983 29.2227278,1.89293983 L29.2227278,1.89293983 Z M10.4194933,1.23309192 C10.4194933,1.20573626 10.4349326,1.18314902 10.4538221,1.18314902 L12.6620809,1.18314902 C12.6809704,1.18314902 12.6964097,1.20573626 12.6964097,1.23309192 L12.6964097,2.08651322 L10.4194933,2.08651322 L10.4194933,1.23309192 Z M4.3469973,1.23309192 C4.3469973,1.20573626 4.36252291,1.18314902 4.38175741,1.18314902 L7.14186523,1.18314902 C7.16075472,1.18314902 7.17619407,1.20573626 7.17619407,1.23309192 L7.17619407,2.08651322 L4.3469973,2.08651322 L4.3469973,1.23309192 Z M1.03504043,26.4629025 L1.03504043,5.00876276 C1.03504043,3.94304129 1.79346631,3.07608884 2.72577898,3.07608884 L9.93630189,3.07608884 L9.93630189,28.3955764 L2.72577898,28.3955764 C1.79346631,28.3955764 1.03504043,27.5286239 1.03504043,26.4629025 L1.03504043,26.4629025 Z M30.913035,26.4629025 C30.913035,27.5286239 30.1546092,28.3955764 29.2227278,28.3955764 L10.9713423,28.3955764 L10.9713423,3.07608884 L29.2227278,3.07608884 C30.1546092,3.07608884 30.913035,3.94304129 30.913035,5.00876276 L30.913035,26.4629025 Z" id="Fill-1" fill="#000000"></path>
            <path d="M20.9424043,7.5722523 C16.395558,7.5722523 12.6964097,11.8007283 12.6964097,16.9977103 C12.6964097,22.1951854 16.395558,26.4236613 20.9424043,26.4236613 C25.4892507,26.4236613 29.1879677,22.1951854 29.1879677,16.9977103 C29.1879677,11.8007283 25.4892507,7.5722523 20.9424043,7.5722523 L20.9424043,7.5722523 Z M20.9424043,25.2405123 C16.9662965,25.2405123 13.7314501,21.5427773 13.7314501,16.9977103 C13.7314501,12.452742 16.9662965,8.75540131 20.9424043,8.75540131 C24.9184259,8.75540131 28.1529272,12.452742 28.1529272,16.9977103 C28.1529272,21.5427773 24.9184259,25.2405123 20.9424043,25.2405123 L20.9424043,25.2405123 Z" id="Fill-4" fill="#000000"></path>
            <path d="M20.9424043,10.0960077 C17.6131968,10.0960077 14.9046685,13.1922101 14.9046685,16.9977103 C14.9046685,20.8037035 17.6131968,23.8994129 20.9424043,23.8994129 C24.2715256,23.8994129 26.9801402,20.8037035 26.9801402,16.9977103 C26.9801402,13.1922101 24.2715256,10.0960077 20.9424043,10.0960077 L20.9424043,10.0960077 Z M20.9424043,22.7162639 C18.1839353,22.7162639 15.9397089,20.1512954 15.9397089,16.9977103 C15.9397089,13.8446182 18.1839353,11.2791568 20.9424043,11.2791568 C23.7007871,11.2791568 25.9450997,13.8446182 25.9450997,16.9977103 C25.9450997,20.1512954 23.7007871,22.7162639 20.9424043,22.7162639 L20.9424043,22.7162639 Z" id="Fill-5" fill="#000000"></path>
            <path d="M20.9424043,14.513196 C19.7439137,14.513196 18.7689057,15.627821 18.7689057,16.9977103 C18.7689057,18.3680927 19.7439137,19.4827176 20.9424043,19.4827176 C22.1408086,19.4827176 23.115903,18.3680927 23.115903,16.9977103 C23.115903,15.627821 22.1408086,14.513196 20.9424043,14.513196 L20.9424043,14.513196 Z M20.9424043,18.2995686 C20.3146523,18.2995686 19.8039461,17.7156846 19.8039461,16.9977103 C19.8039461,16.280229 20.3146523,15.696345 20.9424043,15.696345 C21.5700701,15.696345 22.0808625,16.280229 22.0808625,16.9977103 C22.0808625,17.7156846 21.5700701,18.2995686 20.9424043,18.2995686 L20.9424043,18.2995686 Z" id="Fill-6" fill="#000000"></path>
            <path d="M14.3180593,8.75540131 C15.212248,8.75540131 15.9397089,7.92384474 15.9397089,6.90170259 C15.9397089,5.87956044 15.212248,5.04800387 14.3180593,5.04800387 C13.4238706,5.04800387 12.6964097,5.87956044 12.6964097,6.90170259 C12.6964097,7.92384474 13.4238706,8.75540131 14.3180593,8.75540131 L14.3180593,8.75540131 Z M14.3180593,6.23115289 C14.6415094,6.23115289 14.9046685,6.53196852 14.9046685,6.90170259 C14.9046685,7.27143666 14.6415094,7.5722523 14.3180593,7.5722523 C13.9946092,7.5722523 13.7314501,7.27143666 13.7314501,6.90170259 C13.7314501,6.53196852 13.9946092,6.23115289 14.3180593,6.23115289 L14.3180593,6.23115289 Z" id="Fill-7" fill="#000000"></path>
            <path d="M5.48588679,14.513196 C4.28705121,14.513196 3.31195687,15.627821 3.31195687,16.9977103 C3.31195687,18.3680927 4.28705121,19.4827176 5.48588679,19.4827176 C6.68429111,19.4827176 7.65938544,18.3680927 7.65938544,16.9977103 C7.65938544,15.627821 6.68429111,14.513196 5.48588679,14.513196 L5.48588679,14.513196 Z M5.48588679,18.2995686 C4.85778976,18.2995686 4.3469973,17.7156846 4.3469973,16.9977103 C4.3469973,16.280229 4.85778976,15.696345 5.48588679,15.696345 C6.11355256,15.696345 6.62434501,16.280229 6.62434501,16.9977103 C6.62434501,17.7156846 6.11355256,18.2995686 5.48588679,18.2995686 L5.48588679,18.2995686 Z" id="Fill-8" fill="#000000"></path>
        </g>
    </g>
</svg>