<?xml version="1.0" encoding="UTF-8" standalone="no"?>
<svg width="33px" height="38px" viewBox="0 0 33 38" version="1.1" xmlns="http://www.w3.org/2000/svg" xmlns:xlink="http://www.w3.org/1999/xlink">
    <!-- Generator: Sketch 3.8.3 (29802) - http://www.bohemiancoding.com/sketch -->
    <title>ico-editor-1</title>
    <desc>Created with Sketch.</desc>
    <defs>
        <polygon id="path-1" points="0.00537528813 0.0613422148 0.00537528813 37.993463 32.0368964 37.993463 32.0368964 0.0613422148"></polygon>
    </defs>
    <g id="Symbols" stroke="none" stroke-width="1" fill="none" fill-rule="evenodd">
        <g id="ico-editor-1">
            <path d="M30.3525499,5.30451426 L19.4171533,5.30451426 C19.4202889,5.26416562 19.4227973,5.22330495 19.4227973,5.18172742 L19.4227973,3.37924942 C19.4227973,2.63392615 18.8922564,2.02746773 18.2403235,2.02746773 L14.2623416,2.02746773 L14.2623416,1.33109534 C14.2623416,0.631036273 13.7640524,0.0613422148 13.1516279,0.0613422148 L6.27116948,0.0613422148 C5.65874499,0.0613422148 5.16045578,0.631036273 5.16045578,1.33109534 L5.16045578,2.02746773 L1.1824738,2.02746773 C0.530540938,2.02746773 0,2.63392615 0,3.37924942 L0,5.18172742 C0,5.91343047 0.511279489,6.5094433 1.14681772,6.53146096 L1.14681772,33.4894698 C0.511279489,33.5114875 0,34.1075003 0,34.8392034 L0,36.6412717 C0,37.3870046 0.530540938,37.993463 1.1824738,37.993463 L18.2403235,37.993463 C18.8922564,37.993463 19.4227973,37.3870046 19.4227973,36.6412717 L19.4227973,34.8392034 C19.4227973,34.7976258 19.4202889,34.7567651 19.4171533,34.7164165 L28.0589144,34.7164165 C28.9876746,34.7164165 29.743261,33.8527099 29.743261,32.7910493 L29.743261,30.8249238 C29.743261,30.4408949 30.0165944,30.128449 30.3525499,30.128449 C31.2813101,30.128449 32.0368964,29.2647424 32.0368964,28.2030817 L32.0368964,7.2298815 C32.0368964,6.16822083 31.2813101,5.30451426 30.3525499,5.30451426 L30.3525499,5.30451426 Z" id="bg" fill="#FFFFFF"></path>
            <g id="Group-3">
                <mask id="mask-2" fill="white">
                    <use xlink:href="#path-1"></use>
                </mask>
                <g id="Clip-2"></g>
                <path d="M30.3525499,5.30451426 L19.4171533,5.30451426 C19.4202889,5.26416562 19.4227973,5.22330495 19.4227973,5.18172742 L19.4227973,3.37924942 C19.4227973,2.63392615 18.8922564,2.02746773 18.2403235,2.02746773 L14.2623416,2.02746773 L14.2623416,1.33109534 C14.2623416,0.631036273 13.7640524,0.0613422148 13.1516279,0.0613422148 L6.27116948,0.0613422148 C5.65874499,0.0613422148 5.16045578,0.631036273 5.16045578,1.33109534 L5.16045578,2.02746773 L1.1824738,2.02746773 C0.530540938,2.02746773 0,2.63392615 0,3.37924942 L0,5.18172742 C0,5.91343047 0.511279489,6.5094433 1.14681772,6.53146096 L1.14681772,33.4894698 C0.511279489,33.5114875 0,34.1075003 0,34.8392034 L0,36.6412717 C0,37.3870046 0.530540938,37.993463 1.1824738,37.993463 L18.2403235,37.993463 C18.8922564,37.993463 19.4227973,37.3870046 19.4227973,36.6412717 L19.4227973,34.8392034 C19.4227973,34.7976258 19.4202889,34.7567651 19.4171533,34.7164165 L28.0589144,34.7164165 C28.9876746,34.7164165 29.743261,33.8527099 29.743261,32.7910493 L29.743261,30.8249238 C29.743261,30.4408949 30.0165944,30.128449 30.3525499,30.128449 C31.2813101,30.128449 32.0368964,29.2647424 32.0368964,28.2030817 L32.0368964,7.2298815 C32.0368964,6.16822083 31.2813101,5.30451426 30.3525499,5.30451426 L30.3525499,5.30451426 Z M2.22187535,33.4871144 L17.200922,33.4871144 L17.200922,6.53340671 L2.22187535,6.53340671 L2.22187535,33.4871144 Z M6.2355134,1.34223882 C6.2355134,1.31369518 6.25119133,1.29023466 6.27116948,1.29023466 L13.1516279,1.29023466 C13.1712477,1.29023466 13.1872839,1.31369518 13.1872839,1.34223882 L13.1872839,2.22852513 L6.2355134,2.22852513 L6.2355134,1.34223882 Z M1.07505763,5.18172742 L1.07505763,3.37924942 C1.07505763,3.31155793 1.12334563,3.25636018 1.1824738,3.25636018 L18.2403235,3.25636018 C18.2994517,3.25636018 18.3477397,3.31155793 18.3477397,3.37924942 L18.3477397,5.18172742 C18.3477397,5.24931651 18.2994517,5.30451426 18.2403235,5.30451426 L1.1824738,5.30451426 C1.12334563,5.30451426 1.07505763,5.24931651 1.07505763,5.18172742 L1.07505763,5.18172742 Z M18.3477397,34.8392034 L18.3477397,36.6412717 C18.3477397,36.7092704 18.2994517,36.764161 18.2403235,36.764161 L1.1824738,36.764161 C1.12334563,36.764161 1.07505763,36.7092704 1.07505763,36.6412717 L1.07505763,34.8392034 C1.07505763,34.7712046 1.12334563,34.7160069 1.1824738,34.7160069 L18.2403235,34.7160069 C18.2994517,34.7160069 18.3477397,34.7712046 18.3477397,34.8392034 L18.3477397,34.8392034 Z M30.9618388,28.2030817 C30.9618388,28.5871106 30.6885054,28.8995565 30.3525499,28.8995565 C29.4237897,28.8995565 28.6682033,29.7631607 28.6682033,30.8245141 L28.6682033,32.7910493 C28.6682033,33.1746685 28.3948699,33.4871144 28.0589144,33.4871144 L18.2759796,33.4871144 L18.2759796,6.53340671 L30.3525499,6.53340671 C30.6885054,6.53340671 30.9618388,6.84585261 30.9618388,7.2298815 L30.9618388,28.2030817 Z" id="Fill-1" fill="#000000" mask="url(#mask-2)"></path>
            </g>
            <g id="trous" transform="translate(3.000000, 7.000000)" fill="#000000">
                <path d="M23.9120967,0.926356299 C23.6153808,0.926356299 23.3745679,1.20121858 23.3745679,1.54080252 L23.3745679,3.50692804 C23.3745679,3.84620476 23.6153808,4.12137426 23.9120967,4.12137426 C24.2092606,4.12137426 24.4496255,3.84620476 24.4496255,3.50692804 L24.4496255,1.54080252 C24.4496255,1.20121858 24.2092606,0.926356299 23.9120967,0.926356299 L23.9120967,0.926356299 Z" id="Fill-4"></path>
                <path d="M26.2057322,0.926356299 C25.9090162,0.926356299 25.6682033,1.20121858 25.6682033,1.54080252 L25.6682033,3.50692804 C25.6682033,3.84620476 25.9090162,4.12137426 26.2057322,4.12137426 C26.5024481,4.12137426 26.743261,3.84620476 26.743261,3.50692804 L26.743261,1.54080252 C26.743261,1.20121858 26.5024481,0.926356299 26.2057322,0.926356299 L26.2057322,0.926356299 Z" id="Fill-5"></path>
                <path d="M21.6189092,0.926356299 C21.3221037,0.926356299 21.0813804,1.20121858 21.0813804,1.54080252 L21.0813804,3.50692804 C21.0813804,3.84620476 21.3221037,4.12137426 21.6189092,4.12137426 C21.9156251,4.12137426 22.156438,3.84620476 22.156438,3.50692804 L22.156438,1.54080252 C22.156438,1.20121858 21.9156251,0.926356299 21.6189092,0.926356299 L21.6189092,0.926356299 Z" id="Fill-6"></path>
                <path d="M19.3252738,0.926356299 C19.0285579,0.926356299 18.7877449,1.20121858 18.7877449,1.54080252 L18.7877449,3.50692804 C18.7877449,3.84620476 19.0285579,4.12137426 19.3252738,4.12137426 C19.6220793,4.12137426 19.8628026,3.84620476 19.8628026,3.50692804 L19.8628026,1.54080252 C19.8628026,1.20121858 19.6220793,0.926356299 19.3252738,0.926356299 L19.3252738,0.926356299 Z" id="Fill-7"></path>
                <path d="M17.0320863,0.926356299 C16.7349224,0.926356299 16.4945574,1.20121858 16.4945574,1.54080252 L16.4945574,3.50692804 C16.4945574,3.84620476 16.7349224,4.12137426 17.0320863,4.12137426 C17.3288022,4.12137426 17.5696151,3.84620476 17.5696151,3.50692804 L17.5696151,1.54080252 C17.5696151,1.20121858 17.3288022,0.926356299 17.0320863,0.926356299 L17.0320863,0.926356299 Z" id="Fill-8"></path>
                <path d="M10.1516279,0.926356299 C9.85482238,0.926356299 9.61409906,1.20121858 9.61409906,1.54080252 L9.61409906,3.50692804 C9.61409906,3.84620476 9.85482238,4.12137426 10.1516279,4.12137426 C10.4483438,4.12137426 10.6891567,3.84620476 10.6891567,3.50692804 L10.6891567,1.54080252 C10.6891567,1.20121858 10.4483438,0.926356299 10.1516279,0.926356299 L10.1516279,0.926356299 Z" id="Fill-9"></path>
                <path d="M12.4448154,0.926356299 C12.1480995,0.926356299 11.9072866,1.20121858 11.9072866,1.54080252 L11.9072866,3.50692804 C11.9072866,3.84620476 12.1480995,4.12137426 12.4448154,4.12137426 C12.7419792,4.12137426 12.9823442,3.84620476 12.9823442,3.50692804 L12.9823442,1.54080252 C12.9823442,1.20121858 12.7419792,0.926356299 12.4448154,0.926356299 L12.4448154,0.926356299 Z" id="Fill-10"></path>
                <path d="M7.85799243,0.926356299 C7.56127652,0.926356299 7.32046361,1.20121858 7.32046361,1.54080252 L7.32046361,3.50692804 C7.32046361,3.84620476 7.56127652,4.12137426 7.85799243,4.12137426 C8.15479792,4.12137426 8.39552124,3.84620476 8.39552124,3.50692804 L8.39552124,1.54080252 C8.39552124,1.20121858 8.15479792,0.926356299 7.85799243,0.926356299 L7.85799243,0.926356299 Z" id="Fill-11"></path>
                <path d="M5.56480492,0.926356299 C5.26764108,0.926356299 5.02727611,1.20121858 5.02727611,1.54080252 L5.02727611,3.50692804 C5.02727611,3.84620476 5.26764108,4.12137426 5.56480492,4.12137426 C5.86152083,4.12137426 6.10233374,3.84620476 6.10233374,3.50692804 L6.10233374,1.54080252 C6.10233374,1.20121858 5.86152083,0.926356299 5.56480492,0.926356299 L5.56480492,0.926356299 Z" id="Fill-12"></path>
                <path d="M0.977534037,0.926356299 C0.680818132,0.926356299 0.440005224,1.20121858 0.440005224,1.54080252 L0.440005224,3.50692804 C0.440005224,3.84620476 0.680818132,4.12137426 0.977534037,4.12137426 C1.27469788,4.12137426 1.51506285,3.84620476 1.51506285,3.50692804 L1.51506285,1.54080252 C1.51506285,1.20121858 1.27469788,0.926356299 0.977534037,0.926356299 L0.977534037,0.926356299 Z" id="Fill-13"></path>
                <path d="M3.27116948,0.926356299 C2.97445358,0.926356299 2.73364067,1.20121858 2.73364067,1.54080252 L2.73364067,3.50692804 C2.73364067,3.84620476 2.97445358,4.12137426 3.27116948,4.12137426 C3.56788538,4.12137426 3.80869829,3.84620476 3.80869829,3.50692804 L3.80869829,1.54080252 C3.80869829,1.20121858 3.56788538,0.926356299 3.27116948,0.926356299 L3.27116948,0.926356299 Z" id="Fill-14"></path>
                <path d="M10.1516279,21.8995565 C9.85482238,21.8995565 9.61409906,22.1743164 9.61409906,22.5140027 L9.61409906,24.4801282 C9.61409906,24.8193026 9.85482238,25.0945745 10.1516279,25.0945745 C10.4483438,25.0945745 10.6891567,24.8193026 10.6891567,24.4801282 L10.6891567,22.5140027 C10.6891567,22.1743164 10.4483438,21.8995565 10.1516279,21.8995565 L10.1516279,21.8995565 Z" id="Fill-15"></path>
                <path d="M12.4448154,21.8995565 C12.1480995,21.8995565 11.9072866,22.1743164 11.9072866,22.5140027 L11.9072866,24.4801282 C11.9072866,24.8193026 12.1480995,25.0945745 12.4448154,25.0945745 C12.7419792,25.0945745 12.9823442,24.8193026 12.9823442,24.4801282 L12.9823442,22.5140027 C12.9823442,22.1743164 12.7419792,21.8995565 12.4448154,21.8995565 L12.4448154,21.8995565 Z" id="Fill-16"></path>
                <path d="M7.85799243,21.8995565 C7.56127652,21.8995565 7.32046361,22.1743164 7.32046361,22.5140027 L7.32046361,24.4801282 C7.32046361,24.8193026 7.56127652,25.0945745 7.85799243,25.0945745 C8.15479792,25.0945745 8.39552124,24.8193026 8.39552124,24.4801282 L8.39552124,22.5140027 C8.39552124,22.1743164 8.15479792,21.8995565 7.85799243,21.8995565 L7.85799243,21.8995565 Z" id="Fill-17"></path>
                <path d="M5.56480492,21.8995565 C5.26764108,21.8995565 5.02727611,22.1743164 5.02727611,22.5140027 L5.02727611,24.4801282 C5.02727611,24.8193026 5.26764108,25.0945745 5.56480492,25.0945745 C5.86152083,25.0945745 6.10233374,24.8193026 6.10233374,24.4801282 L6.10233374,22.5140027 C6.10233374,22.1743164 5.86152083,21.8995565 5.56480492,21.8995565 L5.56480492,21.8995565 Z" id="Fill-18"></path>
                <path d="M0.977534037,21.8995565 C0.680818132,21.8995565 0.440005224,22.1743164 0.440005224,22.5140027 L0.440005224,24.4801282 C0.440005224,24.8193026 0.680818132,25.0945745 0.977534037,25.0945745 C1.27469788,25.0945745 1.51506285,24.8193026 1.51506285,24.4801282 L1.51506285,22.5140027 C1.51506285,22.1743164 1.27469788,21.8995565 0.977534037,21.8995565 L0.977534037,21.8995565 Z" id="Fill-19"></path>
                <path d="M3.27116948,21.8995565 C2.97445358,21.8995565 2.73364067,22.1743164 2.73364067,22.5140027 L2.73364067,24.4801282 C2.73364067,24.8193026 2.97445358,25.0945745 3.27116948,25.0945745 C3.56788538,25.0945745 3.80869829,24.8193026 3.80869829,24.4801282 L3.80869829,22.5140027 C3.80869829,22.1743164 3.56788538,21.8995565 3.27116948,21.8995565 L3.27116948,21.8995565 Z" id="Fill-20"></path>
                <path d="M23.9120967,21.8995565 C23.6153808,21.8995565 23.3745679,22.1743164 23.3745679,22.5140027 L23.3745679,24.4801282 C23.3745679,24.8193026 23.6153808,25.0945745 23.9120967,25.0945745 C24.2092606,25.0945745 24.4496255,24.8193026 24.4496255,24.4801282 L24.4496255,22.5140027 C24.4496255,22.1743164 24.2092606,21.8995565 23.9120967,21.8995565 L23.9120967,21.8995565 Z" id="Fill-21"></path>
                <path d="M21.6189092,21.8995565 C21.3221037,21.8995565 21.0813804,22.1743164 21.0813804,22.5140027 L21.0813804,24.4801282 C21.0813804,24.8193026 21.3221037,25.0945745 21.6189092,25.0945745 C21.9156251,25.0945745 22.156438,24.8193026 22.156438,24.4801282 L22.156438,22.5140027 C22.156438,22.1743164 21.9156251,21.8995565 21.6189092,21.8995565 L21.6189092,21.8995565 Z" id="Fill-22"></path>
                <path d="M19.3252738,21.8995565 C19.0285579,21.8995565 18.7877449,22.1743164 18.7877449,22.5140027 L18.7877449,24.4801282 C18.7877449,24.8193026 19.0285579,25.0945745 19.3252738,25.0945745 C19.6220793,25.0945745 19.8628026,24.8193026 19.8628026,24.4801282 L19.8628026,22.5140027 C19.8628026,22.1743164 19.6220793,21.8995565 19.3252738,21.8995565 L19.3252738,21.8995565 Z" id="Fill-23"></path>
                <path d="M17.0320863,21.8995565 C16.7349224,21.8995565 16.4945574,22.1743164 16.4945574,22.5140027 L16.4945574,24.4801282 C16.4945574,24.8193026 16.7349224,25.0945745 17.0320863,25.0945745 C17.3288022,25.0945745 17.5696151,24.8193026 17.5696151,24.4801282 L17.5696151,22.5140027 C17.5696151,22.1743164 17.3288022,21.8995565 17.0320863,21.8995565 L17.0320863,21.8995565 Z" id="Fill-24"></path>
            </g>
        </g>
    </g>
</svg>