<?xml version="1.0" encoding="UTF-8" standalone="no"?>
<svg width="32px" height="32px" viewBox="0 0 32 32" version="1.1" xmlns="http://www.w3.org/2000/svg" xmlns:xlink="http://www.w3.org/1999/xlink">
    <!-- Generator: Sketch 3.8.3 (29802) - http://www.bohemiancoding.com/sketch -->
    <title>ico-preview-1</title>
    <desc>Created with Sketch.</desc>
    <defs></defs>
    <g id="Symbols" stroke="none" stroke-width="1" fill="none" fill-rule="evenodd">
        <g id="ico-preview-1">
            <polygon id="bg" fill="#FFFFFF" points="6.56583821 25.1595506 25.4342432 25.1595506 25.4342432 4.32429776 6.56583821 4.32429776"></polygon>
            <path d="M31.9131138,31.0832489 L28.6824474,25.570752 L28.6824474,20.0490169 L28.7171774,20.0490169 C29.0033974,20.0490169 29.2355354,19.7849399 29.2355354,19.4593399 C29.2355354,19.1338382 29.0033974,18.869663 28.7171774,18.869663 L28.6824474,18.869663 L28.6824474,4.32429776 L28.7171774,4.32429776 C29.0033974,4.32429776 29.2355354,4.06022076 29.2355354,3.73462079 C29.2355354,3.40911911 29.0033974,3.14494383 28.7171774,3.14494383 L28.6824474,3.14494383 L28.6824474,1.21856745 C28.6824474,0.892967488 28.4505686,0.628890486 28.1640894,0.628890486 L26.4709593,0.628890486 L26.4709593,0.589676968 C26.4709593,0.264175281 26.2388213,0 25.9526012,0 C25.666122,0 25.4342432,0.264175281 25.4342432,0.589676968 L25.4342432,0.628890486 L16.5185715,0.628890486 L16.5185715,0.589676968 C16.5185715,0.264175281 16.2864335,0 16.0002135,0 C15.7137343,0 15.4818555,0.264175281 15.4818555,0.589676968 L15.4818555,0.628890486 L6.56583821,0.628890486 L6.56583821,0.589676968 C6.56583821,0.264175281 6.33395938,0 6.04748018,0 C5.76134655,0 5.52912215,0.264175281 5.52912215,0.589676968 L5.52912215,0.628890486 L3.83599204,0.628890486 C3.54951284,0.628890486 3.31763402,0.892967488 3.31763402,1.21856745 L3.31763402,3.14494383 L3.28290403,3.14494383 C2.9967704,3.14494383 2.764546,3.40911911 2.764546,3.73462079 C2.764546,4.06022076 2.9967704,4.32429776 3.28290403,4.32429776 L3.31763402,4.32429776 L3.31763402,18.869663 L3.28290403,18.869663 C2.9967704,18.869663 2.764546,19.1338382 2.764546,19.4593399 C2.764546,19.7849399 2.9967704,20.0490169 3.28290403,20.0490169 L3.31763402,20.0490169 L3.31763402,25.570752 L0.0870539978,31.0832489 C-0.0715635589,31.3539106 -0.00745994937,31.7201 0.230811958,31.9009343 C0.319192001,31.9677643 0.419148708,32 0.517982305,32 C0.685411948,32 0.849731443,31.9078138 0.949601757,31.7373972 L1.53310011,30.7419242 L3.31763402,30.7419242 L3.31763402,31.410323 C3.31763402,31.7358247 3.54951284,32 3.83599204,32 C4.12221207,32 4.35435007,31.7358247 4.35435007,31.410323 L4.35435007,30.7419242 L6.1386248,30.7419242 L6.72212315,31.7373972 C6.82199346,31.9078138 6.98631296,32 7.1537426,32 C7.2525762,32 7.35244651,31.9677643 7.44091295,31.9009343 C7.67918486,31.7201 7.74328847,31.3539106 7.58467091,31.0832489 L4.35435007,25.570752 L4.35435007,20.0490169 L5.52912215,20.0490169 L5.52912215,25.7492276 C5.52912215,26.0748276 5.76134655,26.3389046 6.04748018,26.3389046 L25.9526012,26.3389046 C26.2388213,26.3389046 26.4709593,26.0748276 26.4709593,25.7492276 L26.4709593,20.0490169 L27.6457314,20.0490169 L27.6457314,25.570752 L24.4154105,31.0828558 C24.2565338,31.3539106 24.320983,31.7201 24.5591685,31.9005412 C24.6472893,31.9677643 24.7475052,32 24.8460796,32 C25.0137685,32 25.1781744,31.9074207 25.2780447,31.7370041 L25.8611974,30.7419242 L27.6457314,30.7419242 L27.6457314,31.4099299 C27.6457314,31.7358247 27.8779557,31.9996069 28.1640894,31.9996069 C28.4505686,31.9996069 28.6824474,31.7358247 28.6824474,31.4099299 L28.6824474,30.7419242 L30.4669813,30.7419242 L31.0504797,31.7373972 C31.1500044,31.9078138 31.3147559,32 31.4820991,32 C31.5810191,32 31.6808894,31.9677643 31.7690103,31.9009343 C32.0071958,31.7201 32.071645,31.3539106 31.9131138,31.0832489 L31.9131138,31.0832489 Z M2.22424415,29.5625703 L3.31763402,27.6968323 L3.31763402,29.5625703 L2.22424415,29.5625703 Z M4.35435007,29.5625703 L4.35435007,27.6968323 L5.44748076,29.5625703 L4.35435007,29.5625703 Z M26.4709593,3.14494383 L27.6457314,3.14494383 L27.6457314,1.80824442 L26.4709593,1.80824442 L26.4709593,3.14494383 Z M16.5185715,3.14494383 L25.4342432,3.14494383 L25.4342432,1.80824442 L16.5185715,1.80824442 L16.5185715,3.14494383 Z M6.56583821,3.14494383 L15.4818555,3.14494383 L15.4818555,1.80824442 L6.56583821,1.80824442 L6.56583821,3.14494383 Z M4.35435007,3.14494383 L5.52912215,3.14494383 L5.52912215,1.80824442 L4.35435007,1.80824442 L4.35435007,3.14494383 Z M4.35435007,18.869663 L5.52912215,18.869663 L5.52912215,4.32429776 L4.35435007,4.32429776 L4.35435007,18.869663 Z M6.56583821,25.1595506 L25.4342432,25.1595506 L25.4342432,4.32429776 L6.56583821,4.32429776 L6.56583821,25.1595506 Z M26.4709593,18.869663 L27.6457314,18.869663 L27.6457314,4.32429776 L26.4709593,4.32429776 L26.4709593,18.869663 Z M26.5523415,29.5625703 L27.6457314,27.6968323 L27.6457314,29.5625703 L26.5523415,29.5625703 Z M28.6824474,29.5625703 L28.6824474,27.6968323 L29.7758373,29.5625703 L28.6824474,29.5625703 Z" id="background" fill="#000000"></path>
        </g>
    </g>
</svg>