<?xml version="1.0" encoding="UTF-8" standalone="no"?>
<svg width="64px" height="48px" viewBox="0 0 64 48" version="1.1" xmlns="http://www.w3.org/2000/svg" xmlns:xlink="http://www.w3.org/1999/xlink">
    <!-- Generator: Sketch 3.8.3 (29802) - http://www.bohemiancoding.com/sketch -->
    <title>ico-laptop</title>
    <desc>Created with Sketch.</desc>
    <defs></defs>
    <g id="Symbols" stroke="none" stroke-width="1" fill="none" fill-rule="evenodd">
        <g id="ico-laptop">
            <path d="M62.7982736,40.9551331 L61.6270897,40.9551331 L61.6270897,3.50436502 C61.6270897,1.61228897 60.1736223,0.0730038023 58.3870326,0.0730038023 L5.4461085,0.0730038023 C3.65934649,0.0730038023 2.20605135,1.61228897 2.20605135,3.50436502 L2.20605135,40.9551331 L1.03400579,40.9551331 C0.463234594,40.9551331 0,41.4455361 0,42.0501901 L0,44.3864943 C0,46.2785703 1.45346747,47.8178555 3.24005714,47.8178555 L60.593084,47.8178555 C62.3789843,47.8178555 63.8322794,46.2785703 63.8322794,44.3864943 L63.8322794,42.0501901 C63.8322794,41.4455361 63.3699065,40.9551331 62.7982736,40.9551331 L62.7982736,40.9551331 Z" id="Path" fill="#FFFFFF"></path>
            <path d="M62.7982736,40.9551331 L61.6270897,40.9551331 L61.6270897,3.50436502 C61.6270897,1.61228897 60.1736223,0.0730038023 58.3870326,0.0730038023 L5.4461085,0.0730038023 C3.65934649,0.0730038023 2.20605135,1.61228897 2.20605135,3.50436502 L2.20605135,40.9551331 L1.03400579,40.9551331 C0.463234594,40.9551331 0,41.4455361 0,42.0501901 L0,44.3864943 C0,46.2785703 1.45346747,47.8178555 3.24005714,47.8178555 L60.593084,47.8178555 C62.3789843,47.8178555 63.8322794,46.2785703 63.8322794,44.3864943 L63.8322794,42.0501901 C63.8322794,41.4455361 63.3699065,40.9551331 62.7982736,40.9551331 L62.7982736,40.9551331 Z M4.27406293,3.50436502 C4.27406293,2.81995437 4.79985488,2.26311787 5.4461085,2.26311787 L58.3870326,2.26311787 C59.0332862,2.26311787 59.5590782,2.81995437 59.5590782,3.50436502 L59.5590782,40.9551331 L4.27406293,40.9551331 L4.27406293,3.50436502 Z M61.7642678,44.3864943 C61.7642678,45.0709049 61.2386482,45.6277414 60.593084,45.6277414 L3.24005714,45.6277414 C2.59380352,45.6277414 2.06801158,45.0709049 2.06801158,44.3864943 L2.06801158,43.1452471 L26.4741672,43.1452471 C26.4720992,43.1695209 26.4708929,43.1937947 26.4708929,43.2178859 C26.4708929,43.82327 26.9332658,44.312943 27.5048987,44.312943 L36.3282424,44.312943 C36.8990136,44.312943 37.3622482,43.82327 37.3622482,43.2178859 C37.3622482,43.1937947 37.3601802,43.1695209 37.3588015,43.1452471 L61.7642678,43.1452471 L61.7642678,44.3864943 Z" id="Fill-1" fill="#000000"></path>
            <path d="M56.1809812,4.74561217 L7.65129818,4.74561217 C7.08052698,4.74561217 6.61729239,5.23528517 6.61729239,5.8406692 L6.61729239,37.3775817 C6.61729239,37.9829658 7.08052698,38.4726388 7.65129818,38.4726388 L56.1809812,38.4726388 C56.7517524,38.4726388 57.214987,37.9829658 57.214987,37.3775817 L57.214987,5.8406692 C57.214987,5.23528517 56.7517524,4.74561217 56.1809812,4.74561217 L56.1809812,4.74561217 Z M8.68530397,6.93572624 L33.0881853,6.93572624 L33.0881853,36.2825247 L30.7440941,36.2825247 L30.7440941,29.2018859 C30.7440941,28.290616 30.4924861,27.4423118 30.0595823,26.7272395 C30.3268728,26.6252167 30.5490117,26.410038 30.6627524,26.1233156 C30.8175086,25.7347529 30.7482302,25.287057 30.4843864,24.9713156 C29.2477154,23.4926236 28.5389045,20.7770646 28.5389045,17.5212776 C28.5389045,13.0525323 25.1063499,9.41730798 20.8867446,9.41730798 C16.668001,9.41730798 13.2354464,13.0525323 13.2354464,17.5212776 C13.2354464,20.7770646 12.5259461,23.4926236 11.2892752,24.9713156 C11.0254314,25.287057 10.9559807,25.7347529 11.1109092,26.1233156 C11.2253392,26.410038 11.4467888,26.6252167 11.7140793,26.7272395 C11.2818648,27.4423118 11.0293951,28.290616 11.0293951,29.2018859 L11.0293951,36.2825247 L8.68530397,36.2825247 L8.68530397,6.93572624 Z M25.3674364,17.5212776 C25.3674364,20.1375513 23.3573291,22.2665247 20.8867446,22.2665247 C18.5824627,22.2665247 16.6786857,20.4142357 16.432937,18.0531103 C18.8201117,17.4805779 21.8232092,16.4196502 24.2884513,14.4684411 C24.9817522,15.3218555 25.3674364,16.3968365 25.3674364,17.5212776 L25.3674364,17.5212776 Z M19.3378039,24.2584335 C19.8353331,24.3867376 20.3535423,24.4566388 20.8867446,24.4566388 C21.4206363,24.4566388 21.9390178,24.3867376 22.4358576,24.2584335 C23.0846963,25.1175057 24.0582127,25.7661445 25.3426202,26.1968669 C25.1063499,28.579346 23.1984369,30.4422205 20.8867446,30.4422205 C18.5757417,30.4422205 16.6673117,28.579346 16.4310413,26.1968669 C17.7154489,25.7661445 18.688793,25.1175057 19.3378039,24.2584335 L19.3378039,24.2584335 Z M24.4680237,23.3230722 C25.4044883,22.6727909 26.1746502,21.7752091 26.6949275,20.7186616 C26.9063817,22.1458859 27.2631137,23.4241825 27.7559898,24.507924 C26.610139,24.3580837 25.302811,24.0180684 24.4680237,23.3230722 L24.4680237,23.3230722 Z M15.4832027,16.0290798 C16.1092932,13.4881825 18.2943198,11.6074221 20.8867446,11.6074221 C21.8419936,11.6074221 22.7420957,11.8634829 23.5289741,12.3131863 C21.0018639,14.5368821 17.5215728,15.581384 15.4832027,16.0290798 L15.4832027,16.0290798 Z M15.0785618,20.7186616 C15.5997007,21.7752091 16.369001,22.6720608 17.3061549,23.3230722 C16.4706782,24.0187985 15.1640396,24.3580837 14.0176718,24.5071939 C14.5103756,23.4241825 14.8672799,22.1458859 15.0785618,20.7186616 L15.0785618,20.7186616 Z M13.0974067,29.2018859 C13.0974067,28.2187072 13.6568038,27.3724106 14.4552286,26.9980837 C15.0322038,30.2027681 17.6959751,32.6323346 20.8867446,32.6323346 C24.0776865,32.6323346 26.7414577,30.2027681 27.318433,26.9980837 C28.1173748,27.3724106 28.6760826,28.2187072 28.6760826,29.2018859 L28.6760826,36.2825247 L13.0974067,36.2825247 L13.0974067,29.2018859 Z M35.1561969,36.2825247 L55.1469755,36.2825247 L55.1469755,6.93572624 L35.1561969,6.93572624 L35.1561969,36.2825247 Z" id="Fill-2" fill="#000000"></path>
            <path d="M38.5342938,13.9437262 L39.7054777,13.9437262 L39.7054777,14.016365 C39.7054777,14.621749 40.1687123,15.1114221 40.7394835,15.1114221 C41.3111163,15.1114221 41.7734892,14.621749 41.7734892,14.016365 L41.7734892,13.9437262 L51.7688785,13.9437262 C52.3405114,13.9437262 52.8028843,13.4531407 52.8028843,12.8486692 C52.8028843,12.2440152 52.3405114,11.7536122 51.7688785,11.7536122 L41.7734892,11.7536122 L41.7734892,11.6809734 C41.7734892,11.0755894 41.3111163,10.5859163 40.7394835,10.5859163 C40.1687123,10.5859163 39.7054777,11.0755894 39.7054777,11.6809734 L39.7054777,11.7536122 L38.5342938,11.7536122 C37.9626609,11.7536122 37.500288,12.2440152 37.500288,12.8486692 C37.500288,13.4531407 37.9626609,13.9437262 38.5342938,13.9437262 L38.5342938,13.9437262 Z" id="Fill-3" fill="#000000"></path>
            <path d="M38.5342938,19.7840304 L48.5296831,19.7840304 L48.5296831,19.8566692 C48.5296831,20.4620532 48.992056,20.9517262 49.5636889,20.9517262 C50.1344601,20.9517262 50.5976947,20.4620532 50.5976947,19.8566692 L50.5976947,19.7840304 L51.7688785,19.7840304 C52.3405114,19.7840304 52.8028843,19.2934449 52.8028843,18.6889734 C52.8028843,18.0843194 52.3405114,17.5939163 51.7688785,17.5939163 L50.5976947,17.5939163 L50.5976947,17.5212776 C50.5976947,16.9158935 50.1344601,16.4262205 49.5636889,16.4262205 C48.992056,16.4262205 48.5296831,16.9158935 48.5296831,17.5212776 L48.5296831,17.5939163 L38.5342938,17.5939163 C37.9626609,17.5939163 37.500288,18.0843194 37.500288,18.6889734 C37.500288,19.2934449 37.9626609,19.7840304 38.5342938,19.7840304 L38.5342938,19.7840304 Z" id="Fill-4" fill="#000000"></path>
            <path d="M38.5342938,25.6243346 L45.2201752,25.6243346 L45.2201752,25.6969734 C45.2201752,26.3023574 45.6834098,26.7920304 46.254181,26.7920304 C46.8258139,26.7920304 47.2881868,26.3023574 47.2881868,25.6969734 L47.2881868,25.6243346 L51.7688785,25.6243346 C52.3405114,25.6243346 52.8028843,25.133749 52.8028843,24.5292776 C52.8028843,23.9246236 52.3405114,23.4342205 51.7688785,23.4342205 L47.2881868,23.4342205 L47.2881868,23.3615817 C47.2881868,22.7561977 46.8258139,22.2665247 46.254181,22.2665247 C45.6834098,22.2665247 45.2201752,22.7561977 45.2201752,23.3615817 L45.2201752,23.4342205 L38.5342938,23.4342205 C37.9626609,23.4342205 37.500288,23.9246236 37.500288,24.5292776 C37.500288,25.133749 37.9626609,25.6243346 38.5342938,25.6243346 L38.5342938,25.6243346 Z" id="Fill-5" fill="#000000"></path>
            <path d="M51.7688785,29.2745247 L43.9795406,29.2745247 L43.9795406,29.2018859 C43.9795406,28.5965019 43.5171677,28.1068289 42.9455348,28.1068289 C42.3747636,28.1068289 41.911529,28.5965019 41.911529,29.2018859 L41.911529,29.2745247 L38.5342938,29.2745247 C37.9626609,29.2745247 37.500288,29.7649278 37.500288,30.3695817 C37.500288,30.9740532 37.9626609,31.4646388 38.5342938,31.4646388 L41.911529,31.4646388 L41.911529,31.5372776 C41.911529,32.1426616 42.3747636,32.6323346 42.9455348,32.6323346 C43.5171677,32.6323346 43.9795406,32.1426616 43.9795406,31.5372776 L43.9795406,31.4646388 L51.7688785,31.4646388 C52.3405114,31.4646388 52.8028843,30.9740532 52.8028843,30.3695817 C52.8028843,29.7649278 52.3405114,29.2745247 51.7688785,29.2745247 L51.7688785,29.2745247 Z" id="Fill-6" fill="#000000"></path>
        </g>
    </g>
</svg>