<?xml version="1.0" encoding="UTF-8" standalone="no"?>
<svg width="32px" height="32px" viewBox="0 0 32 32" version="1.1" xmlns="http://www.w3.org/2000/svg" xmlns:xlink="http://www.w3.org/1999/xlink">
    <!-- Generator: Sketch 3.8.3 (29802) - http://www.bohemiancoding.com/sketch -->
    <title>ico-edit-img-3</title>
    <desc>Created with Sketch.</desc>
    <defs></defs>
    <g id="Symbols" stroke="none" stroke-width="1" fill="none" fill-rule="evenodd">
        <g id="ico-edit-img-3">
            <g id="Group-7">
                <polygon id="Path-370" fill="#FFFFFF" points="1.49565972 1.01857311 0.554398148 13.3528892 1.20978009 31.0058962 29.8278356 31.3988797 31.0109954 29.0268278 31.2045718 8.41479953 30.0274884 0.693691038"></polygon>
                <g id="camera-3" fill="#000000">
                    <path d="M29.5912327,0.0796535326 L2.07415702,0.0796535326 C1.23558616,0.0796535326 0.531661961,0.840842603 0.471220571,1.812317 C0.329563734,4.09926949 0,10.0565572 0,15.9707324 L0,21.0684589 C0,24.3887169 0.280150546,28.2010345 0.447112406,30.1780352 C0.528327853,31.1375615 1.21592347,31.8613135 2.04645828,31.8613135 L29.6189314,31.8613135 C30.4498082,31.8613135 31.1370619,31.1375615 31.2181918,30.1780352 C31.3851537,28.2010345 31.6653042,24.3887169 31.6653042,21.0684589 L31.6653042,15.9707324 C31.6653042,10.0565572 31.3357405,4.09926949 31.1941691,1.812317 C31.1340697,0.840842603 30.4297181,0.0796535326 29.5912327,0.0796535326 Z M16.3455918,20.4710574 L30.6394249,20.4710574 L30.6394249,19.1167482 L16.3455918,19.1167482 L16.3455918,20.4710574 Z M1.02587933,20.4710574 L15.3197125,20.4710574 L15.3197125,19.1167482 L1.02587933,19.1167482 L1.02587933,20.4710574 Z M1.49436422,1.89834281 C1.51642062,1.54278936 1.76588028,1.27445652 2.07415702,1.27445652 L29.5912327,1.27445652 C29.8997659,1.27445652 30.1488836,1.54278936 30.17094,1.89834281 C30.3118274,4.1723516 30.6394249,10.0954879 30.6394249,15.9707324 L30.6394249,17.9219453 L16.3455918,17.9219453 L16.3455918,16.5420474 C19.4062173,16.2378704 21.8169482,13.2400102 21.8169482,9.59844981 C21.8169482,5.75496773 19.132393,2.62876571 15.8326521,2.62876571 C12.5329968,2.62876571 9.84835604,5.75496773 9.84835604,9.59844981 C9.84835604,13.2400102 12.2594289,16.2378704 15.3197125,16.5420474 L15.3197125,17.9219453 L1.02587933,17.9219453 L1.02587933,15.9707324 C1.02587933,10.0954879 1.35347679,4.1723516 1.49436422,1.89834281 L1.49436422,1.89834281 Z M15.8326521,15.3733309 C13.0986837,15.3733309 10.8742354,12.7825998 10.8742354,9.59844981 C10.8742354,6.41380201 13.0986837,3.8235687 15.8326521,3.8235687 C18.566706,3.8235687 20.7910689,6.41380201 20.7910689,9.59844981 C20.7910689,12.7825998 18.566706,15.3733309 15.8326521,15.3733309 L15.8326521,15.3733309 Z M2.04645828,30.6665105 C1.74587563,30.6665105 1.49744186,30.4063421 1.46803332,30.0609445 C1.31304005,28.2236362 1.05896393,24.7862876 1.02887147,21.6658604 L30.6364328,21.6658604 C30.6064258,24.7862876 30.3522642,28.2240345 30.1973564,30.0609445 C30.1682898,30.4063421 29.9195141,30.6665105 29.6192734,30.6665105 L2.04645828,30.6665105 Z" id="Fill-1"></path>
                    <path d="M6.80517051,16.5681339 C8.14394303,16.5681339 9.23291394,15.2993527 9.23291394,13.7401348 C9.23291394,12.1809169 8.14394303,10.9126335 6.80517051,10.9126335 C5.4663125,10.9126335 4.37699964,12.1809169 4.37699964,13.7401348 C4.37699964,15.2993527 5.4663125,16.5681339 6.80517051,16.5681339 L6.80517051,16.5681339 Z M6.80517051,12.1074365 C7.57825607,12.1074365 8.20703461,12.8397512 8.20703461,13.7401348 C8.20703461,14.6405184 7.57825607,15.3733309 6.80517051,15.3733309 C6.03208495,15.3733309 5.40287896,14.6405184 5.40287896,13.7401348 C5.40287896,12.8397512 6.03208495,12.1074365 6.80517051,12.1074365 L6.80517051,12.1074365 Z" id="Fill-2"></path>
                    <path d="M24.8605612,16.5681339 C26.1993337,16.5681339 27.2883046,15.2993527 27.2883046,13.7401348 C27.2883046,12.1809169 26.1993337,10.9126335 24.8605612,10.9126335 C23.5217886,10.9126335 22.4323903,12.1809169 22.4323903,13.7401348 C22.4323903,15.2993527 23.5217886,16.5681339 24.8605612,16.5681339 L24.8605612,16.5681339 Z M24.8605612,12.1074365 C25.6336467,12.1074365 26.2624253,12.8397512 26.2624253,13.7401348 C26.2624253,14.6405184 25.6336467,15.3733309 24.8605612,15.3733309 C24.0874756,15.3733309 23.4582696,14.6405184 23.4582696,13.7401348 C23.4582696,12.8397512 24.0874756,12.1074365 24.8605612,12.1074365 L24.8605612,12.1074365 Z" id="Fill-3"></path>
                    <path d="M15.8326521,5.17738005 C13.7398583,5.17738005 12.0370696,7.16055388 12.0370696,9.59844981 C12.0370696,12.0358479 13.7398583,14.0190217 15.8326521,14.0190217 C17.9258734,14.0190217 19.6286621,12.0358479 19.6286621,9.59844981 C19.6286621,7.16055388 17.9258734,5.17738005 15.8326521,5.17738005 L15.8326521,5.17738005 Z M15.8326521,12.8242187 C14.3055452,12.8242187 13.0629489,11.3770136 13.0629489,9.59844981 C13.0629489,7.81938816 14.3055452,6.37218304 15.8326521,6.37218304 C17.3601009,6.37218304 18.6027828,7.81938816 18.6027828,9.59844981 C18.6027828,11.3770136 17.3601009,12.8242187 15.8326521,12.8242187 L15.8326521,12.8242187 Z" id="Fill-4"></path>
                    <path d="M15.8326521,8.44327445 C15.2860294,8.44327445 14.8412252,8.96132111 14.8412252,9.59844981 C14.8412252,10.2350807 15.2860294,10.7531273 15.8326521,10.7531273 C16.3797023,10.7531273 16.8245064,10.2350807 16.8245064,9.59844981 C16.8245064,8.96132111 16.3797023,8.44327445 15.8326521,8.44327445 L15.8326521,8.44327445 Z" id="Fill-5"></path>
                    <path d="M24.5870788,8.28376825 L27.8697217,8.28376825 C28.454131,8.28376825 28.929626,7.72997707 28.929626,7.04933763 L28.929626,3.86319633 C28.929626,3.18255689 28.454131,2.62876571 27.8697217,2.62876571 L24.5870788,2.62876571 C24.0023276,2.62876571 23.5267471,3.18255689 23.5267471,3.86319633 L23.5267471,7.04933763 C23.5267471,7.72997707 24.0023276,8.28376825 24.5870788,8.28376825 L24.5870788,8.28376825 Z M24.5526264,3.86319633 C24.5526264,3.84099291 24.5680146,3.8235687 24.5870788,3.8235687 L27.8697217,3.8235687 C27.888786,3.8235687 27.9037467,3.84099291 27.9037467,3.86319633 L27.9037467,7.04933763 C27.9037467,7.07154105 27.888786,7.08896526 27.8697217,7.08896526 L24.5870788,7.08896526 C24.5680146,7.08896526 24.5526264,7.07154105 24.5526264,7.04933763 L24.5526264,3.86319633 Z" id="Fill-6"></path>
                    <path d="M27.8697217,23.0196718 L3.79558253,23.0196718 C3.21117327,23.0196718 2.7356782,23.5735625 2.7356782,24.2546002 L2.7356782,28.0777707 C2.7356782,28.7588084 3.21117327,29.3126991 3.79558253,29.3126991 L27.8697217,29.3126991 C28.454131,29.3126991 28.929626,28.7588084 28.929626,28.0777707 L28.929626,24.2546002 C28.929626,23.5735625 28.454131,23.0196718 27.8697217,23.0196718 L27.8697217,23.0196718 Z M27.9037467,28.0777707 C27.9037467,28.0999741 27.888786,28.1178961 27.8697217,28.1178961 L3.79558253,28.1178961 C3.77694572,28.1178961 3.76155753,28.0999741 3.76155753,28.0777707 L3.76155753,24.2546002 C3.76155753,24.2323968 3.77694572,24.2144748 3.79558253,24.2144748 L27.8697217,24.2144748 C27.888786,24.2144748 27.9037467,24.2323968 27.9037467,24.2546002 L27.9037467,28.0777707 Z" id="Fill-7"></path>
                    <path d="M26.2284003,25.568784 L5.43733141,25.568784 C5.15376127,25.568784 4.92439175,25.8363203 4.92439175,26.1661854 C4.92439175,26.4959511 5.15376127,26.7635869 5.43733141,26.7635869 L26.2284003,26.7635869 C26.511543,26.7635869 26.7413399,26.4959511 26.7413399,26.1661854 C26.7413399,25.8363203 26.511543,25.568784 26.2284003,25.568784 L26.2284003,25.568784 Z" id="Fill-8"></path>
                </g>
            </g>
        </g>
    </g>
</svg>