<?xml version="1.0" encoding="UTF-8" standalone="no"?>
<svg
   xmlns:dc="http://purl.org/dc/elements/1.1/"
   xmlns:cc="http://creativecommons.org/ns#"
   xmlns:rdf="http://www.w3.org/1999/02/22-rdf-syntax-ns#"
   xmlns:svg="http://www.w3.org/2000/svg"
   xmlns="http://www.w3.org/2000/svg"
   xmlns:sodipodi="http://sodipodi.sourceforge.net/DTD/sodipodi-0.dtd"
   xmlns:inkscape="http://www.inkscape.org/namespaces/inkscape"
   width="53"
   height="43"
   viewBox="0 0 53 43"
   version="1.1"
   id="svg2"
   inkscape:version="0.48.4 r9939"
   sodipodi:docname="ico-txt-as-bubble.svg">
  <metadata
     id="metadata18">
    <rdf:RDF>
      <cc:Work
         rdf:about="">
        <dc:format>image/svg+xml</dc:format>
        <dc:type
           rdf:resource="http://purl.org/dc/dcmitype/StillImage" />
      </cc:Work>
    </rdf:RDF>
  </metadata>
  <sodipodi:namedview
     pagecolor="#ffffff"
     bordercolor="#666666"
     borderopacity="1"
     objecttolerance="10"
     gridtolerance="10"
     guidetolerance="10"
     inkscape:pageopacity="0"
     inkscape:pageshadow="2"
     inkscape:window-width="1920"
     inkscape:window-height="1004"
     id="namedview16"
     showgrid="false"
     inkscape:zoom="15.52346"
     inkscape:cx="15.556123"
     inkscape:cy="20.728761"
     inkscape:window-x="1920"
     inkscape:window-y="24"
     inkscape:window-maximized="1"
     inkscape:current-layer="ico-txt-as-title" />
  <!-- Generator: Sketch 3.8.3 (29802) - http://www.bohemiancoding.com/sketch -->
  <title
     id="title4">ico-txt-as-title</title>
  <desc
     id="desc6">Created with Sketch.</desc>
  <defs
     id="defs8" />
  <g
     id="Symbols"
     style="fill:none;stroke:none">
    <g
       id="ico-txt-as-title">
      <g
         id="g2995"
         transform="translate(0.60104351,-4)">
        <g
           transform="translate(0,8)"
           id="ico-pic">
          <path
             style="fill:#ffffff"
             inkscape:connector-curvature="0"
             id="Path"
             d="M 44.614965,0 2.3856689,0 C 1.0701948,0 0,1.1014552 0,2.4553545 L 0,32.544646 C 0,33.898545 1.0701948,35 2.3856689,35 L 44.614965,35 C 45.929932,35 47,33.898545 47,32.544646 L 47,2.4553545 C 47,1.1014552 45.929932,0 44.614965,0 l 0,0 z" />
          <path
             style="fill:#000000"
             inkscape:connector-curvature="0"
             id="Fill-1"
             d="M 44.614965,0 2.3856689,0 C 1.0701948,0 0,1.1014552 0,2.4553545 L 0,32.544646 C 0,33.898545 1.0701948,35 2.3856689,35 L 44.614965,35 C 45.929932,35 47,33.898545 47,32.544646 L 47,2.4553545 C 47,1.1014552 45.929932,0 44.614965,0 l 0,0 z M 8.8318349,10.783395 c 0,-1.2361002 0.9298539,-2.5145144 2.4866741,-2.5145144 l 0.81248,0 c 0.41582,0 0.753349,-0.343209 0.760328,-0.7697388 1.177671,-0.3861754 2.957564,-0.00457 4.569455,0.3407276 0.850674,0.1827052 1.662012,0.3566604 2.364351,0.41125 0.330677,0.6749254 0.798015,2.3690296 0.07537,4.6871266 -1.499846,-0.964589 -4.930839,-2.49819 -10.3758387,-1.217164 -0.252766,0.05968 -0.4470354,0.24278 -0.536747,0.473414 -0.00939,0.01737 -0.020302,0.03722 -0.031215,0.05916 C 8.8818298,11.78181 8.8318349,11.279795 8.8318349,10.783395 l 0,0 z m 0.8108306,4.646903 c 0,-0.927369 0.3632875,-1.826268 0.5685965,-2.259328 3.265909,-0.701567 5.648532,-0.263806 7.088486,0.239776 1.118159,0.390747 1.85184,0.877873 2.197236,1.140635 l 0,1.29722 c 0,2.796212 -2.210179,5.071474 -4.926905,5.071474 -2.717234,0 -4.9274135,-2.275262 -4.9274135,-5.071474 l 0,-0.418303 z m 4.9274135,7.056941 c 0.951679,0 1.855266,-0.215355 2.669142,-0.598004 0.164577,0.439851 0.414932,0.784105 0.650822,1.023358 -0.170922,0.19028 -0.345396,0.388265 -0.522916,0.591344 -0.844584,0.964067 -2.121483,2.42166 -2.799967,2.42166 -0.67861,0 -1.955383,-1.457593 -2.800093,-2.42166 -0.177901,-0.202556 -0.351868,-0.401064 -0.522916,-0.591344 0.236524,-0.239776 0.486752,-0.584552 0.651329,-1.025317 0.815399,0.384086 1.720509,0.599963 2.674599,0.599963 l 0,0 z m -3.934114,2.066045 c 1.265986,1.445186 2.574989,2.939477 3.931195,2.939477 1.356079,0 2.665209,-1.494291 3.931069,-2.939477 0.390061,-0.444814 0.763881,-0.871866 1.087071,-1.189217 l 1.488426,0.630523 c 0.01738,0.0077 0.03515,0.01437 0.05304,0.0205 0.525454,0.176437 1.043421,0.555038 1.468124,1.064105 -0.426226,0.746362 -0.667064,1.58806 -0.667064,2.439552 l 0,5.914086 -16.3446425,0 0,-5.914086 c 0,-1.45694 1.1102922,-3.061847 2.4242437,-3.503657 0.017891,-0.0061 0.035783,-0.0128 0.05304,-0.0205 l 1.4885528,-0.63 c 0.3231902,0.316828 0.696883,0.74388 1.086945,1.188694 l 0,0 z m 30.42099,-2.230336 c -0.590295,0.299981 -1.584609,0.662127 -2.939292,0.662127 -1.391736,0 -2.275021,-1.551362 -2.275021,-2.205915 0,-0.04532 -0.0044,-0.08972 -0.01142,-0.133078 1.829508,-1.172369 3.050322,-3.259832 3.050322,-5.636567 0,-2.162556 -1.132118,-4.089384 -2.88473,-4.909142 -0.226626,-0.1061752 -0.48929,-0.09129 -0.703354,0.03931 l -0.208735,0.127463 c -1.834964,1.12235 -4.347523,2.659347 -8.418426,3.110429 -0.387016,0.04284 -0.680006,0.378992 -0.680006,0.779403 l 0,0.852537 c 0,2.376213 1.220814,4.463675 3.049814,5.636045 -0.007,0.04388 -0.01193,0.08828 -0.01193,0.1336 0,0.655075 -0.882777,2.205915 -2.27502,2.205915 -1.367119,0 -2.355469,-0.359142 -2.940815,-0.658079 0.557557,-0.926977 1.270936,-2.748153 1.270936,-5.996754 l 0,-1.996697 c 0,-3.804683 3.299153,-6.9007465 7.354575,-6.9007465 4.055041,0 7.353814,3.0960635 7.353814,6.9007465 l 0,1.996697 c 0,3.244553 0.711729,5.064683 1.269286,5.992706 l 0,0 z m 0.360877,5.195802 0,5.914086 -17.967827,0 0,-5.914086 c 0,-1.211157 0.771241,-2.446213 1.898917,-3.079216 0.206197,0.03409 0.421784,0.06164 0.647269,0.08058 0.169525,3.503657 2.992332,6.300783 6.437664,6.300783 3.445966,0 6.268773,-2.797126 6.437791,-6.300783 0.225485,-0.01946 0.441072,-0.04688 0.647269,-0.08058 1.127676,0.632481 1.898917,1.867668 1.898917,3.079216 l 0,0 z m -8.983977,-7.440504 c -2.715711,0 -4.924876,-2.274216 -4.924876,-5.068731 l 0,-0.160243 c 3.890972,-0.561175 6.448578,-2.07166 8.194337,-3.137854 1.016647,0.645802 1.655541,1.897183 1.655541,3.298097 0,2.794515 -2.209164,5.068731 -4.925002,5.068731 l 0,0 z m -1.948912,1.256474 c 0.615165,0.200989 1.269921,0.31069 1.948912,0.31069 0.679118,0 1.333366,-0.109701 1.948531,-0.31069 0.264186,1.256474 1.365088,2.752724 2.967589,3.12819 -0.139834,2.666008 -2.291009,4.790821 -4.91612,4.790821 -2.624477,0 -4.775652,-2.124813 -4.915486,-4.791343 1.601993,-0.375336 2.702388,-1.871716 2.966574,-3.127668 l 0,0 z m 14.992371,11.209926 c 0,0.489738 -0.387017,0.88819 -0.862349,0.88819 l -1.674447,0 0,-5.914086 c 0,-1.341754 -0.597781,-2.658955 -1.576742,-3.617929 0.824408,-0.360187 1.272458,-0.741269 1.3071,-0.771437 0.176504,-0.153974 0.289056,-0.370765 0.283092,-0.608582 -0.0065,-0.234683 -0.101639,-0.443768 -0.281062,-0.587164 -0.04708,-0.04741 -0.358847,-0.38056 -0.669601,-1.155392 -0.316339,-0.788283 -0.69295,-2.199776 -0.69295,-4.447481 l 0,-1.99722 c 0,-4.6688435 -3.981698,-8.4673883 -8.8765,-8.4673883 -4.894676,0 -8.877262,3.7985448 -8.877262,8.4673883 l 0,1.99722 c 0,2.247705 -0.376738,3.659198 -0.692442,4.447481 -0.310881,0.774832 -0.622651,1.107985 -0.669728,1.155392 -0.179423,0.143396 -0.274591,0.352481 -0.281062,0.587164 -8.89e-4,0.0444 0.003,0.08776 0.0099,0.130597 -0.09758,-0.04231 -0.195792,-0.08215 -0.295401,-0.116231 L 19.729448,21.73069 c -0.246295,-0.104086 -0.52685,-0.06739 -0.740533,0.09481 -0.115978,-0.108135 -0.346412,-0.371941 -0.399959,-0.790243 1.480051,-1.217686 2.430715,-3.089403 2.430715,-5.18666 l 0,-1.516101 C 22.595397,10.475317 21.391968,7.6699627 20.836314,6.9839366 20.691532,6.8047575 20.477467,6.7017164 20.251475,6.7017164 c -0.633564,0 -1.53068,-0.1922388 -2.480329,-0.3958395 C 15.554495,5.8308955 12.823811,5.2468657 11.196567,6.7048507 10.227123,6.7359328 9.2718913,7.1343843 8.5591472,7.8112687 7.7532654,8.5776119 7.3091485,9.633097 7.3091485,10.783395 c 0,1.919254 0.622525,3.834851 0.8108306,4.369907 l 0,0.695299 c 0,2.094776 0.9482529,3.964403 2.4257659,5.182089 -0.05253,0.420914 -0.283981,0.686157 -0.400466,0.794291 C 9.9317221,21.663302 9.6511671,21.626082 9.4047457,21.73069 L 7.5058289,22.535168 C 5.5717634,23.201866 4.0604971,25.384272 4.0604971,27.51875 l 0,5.914086 -1.6748282,0 c -0.4758395,0 -0.8629825,-0.398452 -0.8629825,-0.88819 l 0,-30.0892915 c 0,-0.4897388 0.387143,-0.8881903 0.8629825,-0.8881903 l 42.2292961,0 c 0.475332,0 0.862349,0.3984515 0.862349,0.8881903 l 0,30.0892915 z" />
        </g>
        <polygon
           transform="matrix(0.9018452,0,0,1.5061878,19.65059,12.515536)"
           style="fill:#ffffff;stroke:#000000;stroke-linejoin:round"
           points="11,0 11,4 35,4 35,0 "
           id="Stroke-11-Copy-4" />
      </g>
    </g>
  </g>
</svg>
