<?xml version="1.0" encoding="UTF-8" standalone="no"?>
<svg width="32px" height="32px" viewBox="0 0 32 32" version="1.1" xmlns="http://www.w3.org/2000/svg" xmlns:xlink="http://www.w3.org/1999/xlink">
    <!-- Generator: Sketch 3.8.3 (29802) - http://www.bohemiancoding.com/sketch -->
    <title>ico-edit-txt-3</title>
    <desc>Created with Sketch.</desc>
    <defs></defs>
    <g id="Symbols" stroke="none" stroke-width="1" fill="none" fill-rule="evenodd">
        <g id="ico-edit-txt-3">
            <path d="M31.9559229,2.74634254 C31.9559229,2.12198895 31.7134986,1.53511602 31.2734325,1.09383425 L30.8646612,0.683756906 C29.9560551,-0.227093923 28.4780606,-0.227093923 27.5693664,0.683049724 C27.5690138,0.683314917 27.5686612,0.683668508 27.5683967,0.683933702 L25.5974435,2.6601547 L25.2703912,2.3321989 C25.1463581,2.2079116 24.9782479,2.13807735 24.8028209,2.13807735 C24.6275702,2.13807735 24.4593719,2.2079116 24.3353388,2.33228729 L2.00647934,24.7231823 C2.0055978,24.7239779 2.00506887,24.7247735 2.00445179,24.7254807 C1.92802204,24.8024751 1.8694876,24.8992707 1.83775207,25.0111823 L0.113190083,31.1115138 C0.0477796143,31.342674 0.11230854,31.5912486 0.281741047,31.7612376 C0.407449036,31.8872928 0.576352617,31.9553591 0.749399449,31.9553591 C0.809520661,31.9553591 0.870082645,31.9471381 0.929674931,31.9302541 L7.0132011,30.2009282 C7.0151405,30.2003094 7.17540496,30.160442 7.30040771,30.0319116 L27.8276584,9.4478674 L27.8846942,9.50506077 C28.5164077,10.1384309 28.5164077,11.1690608 27.8846942,11.8025193 L19.7439118,19.9655249 C19.485708,20.2245304 19.485708,20.6442431 19.7439118,20.9031602 C19.8730579,21.0325746 20.042314,21.0972818 20.2114821,21.0972818 C20.3806501,21.0972818 20.5499063,21.0325746 20.6790523,20.9031602 L28.8197466,12.7400663 C29.9669862,11.5895691 29.9669862,9.71774586 28.8197466,8.56733702 L28.7627989,8.51023204 L29.6296198,7.64092818 C29.7536529,7.51655249 29.8232066,7.3479779 29.8232066,7.1720663 C29.8232066,6.99624309 29.7536529,6.82766851 29.6296198,6.70320442 L29.3025675,6.37524862 L31.2732562,4.39893923 C31.7134986,3.95756906 31.9559229,3.37069613 31.9559229,2.74634254 L31.9559229,2.74634254 Z" id="Path" fill="#FFFFFF"></path>
            <path d="M31.9559229,2.74634254 C31.9559229,2.12198895 31.7134986,1.53511602 31.2734325,1.09383425 L30.8646612,0.683756906 C29.9560551,-0.227093923 28.4780606,-0.227093923 27.5693664,0.683049724 C27.5690138,0.683314917 27.5686612,0.683668508 27.5683967,0.683933702 L25.5974435,2.6601547 L25.2703912,2.3321989 C25.1463581,2.2079116 24.9782479,2.13807735 24.8028209,2.13807735 C24.6275702,2.13807735 24.4593719,2.2079116 24.3353388,2.33228729 L2.00647934,24.7231823 C2.0055978,24.7239779 2.00506887,24.7247735 2.00445179,24.7254807 C1.92802204,24.8024751 1.8694876,24.8992707 1.83775207,25.0111823 L0.113190083,31.1115138 C0.0477796143,31.342674 0.11230854,31.5912486 0.281741047,31.7612376 C0.407449036,31.8872928 0.576352617,31.9553591 0.749399449,31.9553591 C0.809520661,31.9553591 0.870082645,31.9471381 0.929674931,31.9302541 L7.0132011,30.2009282 C7.0151405,30.2003094 7.17540496,30.160442 7.30040771,30.0319116 L27.8276584,9.4478674 L27.8846942,9.50506077 C28.5164077,10.1384309 28.5164077,11.1690608 27.8846942,11.8025193 L19.7439118,19.9655249 C19.485708,20.2245304 19.485708,20.6442431 19.7439118,20.9031602 C19.8730579,21.0325746 20.042314,21.0972818 20.2114821,21.0972818 C20.3806501,21.0972818 20.5499063,21.0325746 20.6790523,20.9031602 L28.8197466,12.7400663 C29.9669862,11.5895691 29.9669862,9.71774586 28.8197466,8.56733702 L28.7627989,8.51023204 L29.6296198,7.64092818 C29.7536529,7.51655249 29.8232066,7.3479779 29.8232066,7.1720663 C29.8232066,6.99624309 29.7536529,6.82766851 29.6296198,6.70320442 L29.3025675,6.37524862 L31.2732562,4.39893923 C31.7134986,3.95756906 31.9559229,3.37069613 31.9559229,2.74634254 L31.9559229,2.74634254 Z M24.8029091,3.73869613 L28.2269972,7.1721547 L27.8276584,7.57259669 L24.4035702,4.13913812 L24.8029091,3.73869613 L24.8029091,3.73869613 Z M1.70851791,30.3305193 L2.80286501,26.4594033 L5.5689697,29.2331492 L1.70851791,30.3305193 L1.70851791,30.3305193 Z M6.83292562,28.6254144 L3.40892562,25.1919558 L4.27548209,24.3230939 L7.69957025,27.7564641 L6.83292562,28.6254144 L6.83292562,28.6254144 Z M8.63462259,26.8189171 L5.21035813,23.385547 L23.4686061,5.07677348 L26.8926061,8.51023204 L8.63462259,26.8189171 L8.63462259,26.8189171 Z M30.3382039,3.46139227 L28.367427,5.43770166 L26.5324959,3.59787845 L28.5033609,1.62156906 C28.503449,1.62148066 28.5035372,1.62139227 28.5035372,1.62130387 C28.8967934,1.22722652 29.5364408,1.22722652 29.9295207,1.62121547 L30.3382039,2.03129282 C30.5287052,2.22223204 30.6336088,2.4761989 30.6336088,2.74634254 C30.6336088,3.01648619 30.5287052,3.27045304 30.3382039,3.46139227 L30.3382039,3.46139227 Z" id="Shape" fill="#000000"></path>
        </g>
    </g>
</svg>