<?xml version="1.0" encoding="UTF-8" standalone="no"?>
<svg
   xmlns:dc="http://purl.org/dc/elements/1.1/"
   xmlns:cc="http://creativecommons.org/ns#"
   xmlns:rdf="http://www.w3.org/1999/02/22-rdf-syntax-ns#"
   xmlns:svg="http://www.w3.org/2000/svg"
   xmlns="http://www.w3.org/2000/svg"
   xmlns:sodipodi="http://sodipodi.sourceforge.net/DTD/sodipodi-0.dtd"
   xmlns:inkscape="http://www.inkscape.org/namespaces/inkscape"
   width="32px"
   height="48px"
   viewBox="0 0 32 48"
   version="1.1"
   id="svg2"
   inkscape:version="0.48.4 r9939"
   sodipodi:docname="ico-save-1 (copie).svg">
  <metadata
     id="metadata21">
    <rdf:RDF>
      <cc:Work
         rdf:about="">
        <dc:format>image/svg+xml</dc:format>
        <dc:type
           rdf:resource="http://purl.org/dc/dcmitype/StillImage" />
        <dc:title>ico-save-1</dc:title>
      </cc:Work>
    </rdf:RDF>
  </metadata>
  <sodipodi:namedview
     pagecolor="#ffffff"
     bordercolor="#666666"
     borderopacity="1"
     objecttolerance="10"
     gridtolerance="10"
     guidetolerance="10"
     inkscape:pageopacity="0"
     inkscape:pageshadow="2"
     inkscape:window-width="1920"
     inkscape:window-height="1052"
     id="namedview19"
     showgrid="false"
     inkscape:zoom="27.812867"
     inkscape:cx="22.755095"
     inkscape:cy="28.681849"
     inkscape:window-x="0"
     inkscape:window-y="0"
     inkscape:window-maximized="1"
     inkscape:current-layer="ico-save-1" />
  <!-- Generator: Sketch 3.8.3 (29802) - http://www.bohemiancoding.com/sketch -->
  <title
     id="title4">ico-save-1</title>
  <desc
     id="desc6">Created with Sketch.</desc>
  <defs
     id="defs8" />
  <g
     id="Symbols"
     stroke="none"
     stroke-width="1"
     fill="none"
     fill-rule="evenodd">
    <g
       id="ico-save-1">
      <path
         d="M31.331474,14.8696497 C31.7006118,14.8696497 32,14.5226912 32,14.0937454 L32,7.81590381 C32,7.38747532 31.8563783,6.98491031 31.5952075,6.68179037 L26.3083924,0.545809926 C26.0472216,0.242689984 25.700368,0.0759998785 25.3313417,0.0759998785 L2.8076978,0.0759998785 C1.65259628,0.0759998785 0.712871563,1.16666268 0.712871563,2.50729597 L0.712871563,11.0366825 C0.288580392,11.3104474 0,11.8358639 0,12.4390002 L0,15.7491372 C0,16.6336681 0.619723606,17.3530607 1.38139757,17.3530607 L2.13917179,17.3530607 L2.13917179,19.8872934 C2.13917179,20.3722336 1.79922632,20.7667809 1.38139757,20.7667809 C1.01237121,20.7667809 0.712871563,21.1143861 0.712871563,21.5426852 L0.712871563,45.5442499 C0.712871563,46.8843659 1.65259628,47.9748994 2.8076978,47.9748994 L11.3649421,47.9748994 C11.7339684,47.9748994 12.0334681,47.6279409 12.0334681,47.1989951 C12.0334681,46.7145722 12.3734136,46.3201542 12.7912423,46.3201542 L19.9221864,46.3201542 C20.3400151,46.3201542 20.6799606,46.7145722 20.6799606,47.1989951 C20.6799606,47.6279409 20.9789031,47.9748994 21.3484866,47.9748994 L29.9051738,47.9748994 C31.0603867,47.9748994 32,46.8843659 32,45.5442499 L32,17.404529 C32,16.9762299 31.7006118,16.6286247 31.331474,16.6286247 C30.9136452,16.6286247 30.5736998,16.2340774 30.5736998,15.7491372 C30.5736998,15.264197 30.9136452,14.8696497 31.331474,14.8696497 L31.331474,14.8696497 Z"
         id="bg"
         fill="#FFFFFF" />
      <path
         d="M31.331474,14.8696497 C31.7006118,14.8696497 32,14.5226912 32,14.0937454 L32,7.81590381 C32,7.38747532 31.8563783,6.98491031 31.5952075,6.68179037 L26.3083924,0.545809926 C26.0472216,0.242689984 25.700368,0.0759998785 25.3313417,0.0759998785 L2.8076978,0.0759998785 C1.65259628,0.0759998785 0.712871563,1.16666268 0.712871563,2.50729597 L0.712871563,11.0366825 C0.288580392,11.3104474 0,11.8358639 0,12.4390002 L0,15.7491372 C0,16.6336681 0.619723606,17.3530607 1.38139757,17.3530607 L2.13917179,17.3530607 L2.13917179,19.8872934 C2.13917179,20.3722336 1.79922632,20.7667809 1.38139757,20.7667809 C1.01237121,20.7667809 0.712871563,21.1143861 0.712871563,21.5426852 L0.712871563,45.5442499 C0.712871563,46.8843659 1.65259628,47.9748994 2.8076978,47.9748994 L11.3649421,47.9748994 C11.7339684,47.9748994 12.0334681,47.6279409 12.0334681,47.1989951 C12.0334681,46.7145722 12.3734136,46.3201542 12.7912423,46.3201542 L19.9221864,46.3201542 C20.3400151,46.3201542 20.6799606,46.7145722 20.6799606,47.1989951 C20.6799606,47.6279409 20.9789031,47.9748994 21.3484866,47.9748994 L29.9051738,47.9748994 C31.0603867,47.9748994 32,46.8843659 32,45.5442499 L32,17.404529 C32,16.9762299 31.7006118,16.6286247 31.331474,16.6286247 C30.9136452,16.6286247 30.5736998,16.2340774 30.5736998,15.7491372 C30.5736998,15.264197 30.9136452,14.8696497 31.331474,14.8696497 L31.331474,14.8696497 Z M1.38139757,15.8012521 C1.35710779,15.8012521 1.33705201,15.777975 1.33705201,15.7491372 L1.33705201,12.4390002 C1.33705201,12.4101624 1.35710779,12.3868853 1.38139757,12.3868853 C1.79922632,12.3868853 2.13917179,12.7814326 2.13917179,13.2663728 L2.13917179,15.8012521 L1.38139757,15.8012521 Z M30.662948,13.4452187 C29.8347557,13.7695467 29.2366478,14.6798118 29.2366478,15.7491372 C29.2366478,16.818592 29.8347557,17.728857 30.662948,18.0537023 L30.662948,45.5442499 C30.662948,46.0286728 30.3230025,46.4230908 29.9051738,46.4230908 L21.9072629,46.4230908 C21.627819,45.4618747 20.8435266,44.7683456 19.9221864,44.7683456 L12.7912423,44.7683456 C11.8697906,44.7683456 11.0854982,45.4618747 10.8056087,46.4230908 L2.8076978,46.4230908 C2.38986905,46.4230908 2.04992357,46.0286728 2.04992357,45.5442499 L2.04992357,22.1918585 C2.87822729,21.8670132 3.4762238,20.9567482 3.4762238,19.8872934 L3.4762238,13.2663728 C3.4762238,12.1969181 2.87822729,11.286653 2.04992357,10.9619371 L2.04992357,2.50729597 C2.04992357,2.02235579 2.38986905,1.62780846 2.8076978,1.62780846 L25.3313417,1.62780846 C25.3434866,1.62780846 25.3548515,1.63336911 25.3630967,1.64293859 L30.6503574,7.77891904 C30.6581569,7.78861784 30.662948,7.80219616 30.662948,7.81590381 L30.662948,13.4452187 Z"
         id="Fill-1"
         fill="#000000" />
      <path
         d="M31.1597014,14.8435263 C31.5268154,14.8435263 31.8245623,14.4971805 31.8245623,14.0689922 L31.8245623,7.80223629 C31.8245623,7.37456435 31.681728,6.97271021 31.421989,6.67012553 L26.1641586,0.544980312 C25.9044196,0.242395634 25.5594676,0.0759998785 25.1924644,0.0759998785 L2.7923048,0.0759998785 C1.64353604,0.0759998785 0.708963296,1.16473673 0.708963296,2.50300267 L0.708963296,11.0173276 C0.286998271,11.2906091 0,11.8150978 0,12.417169 L0,15.7214608 C0,16.6044297 0.616326016,17.322552 1.37382415,17.322552 L2.12744394,17.322552 L2.12744394,19.8523096 C2.12744394,20.3363935 1.78936219,20.7302441 1.37382415,20.7302441 C1.00682096,20.7302441 0.708963296,21.0772354 0.708963296,21.5047783 L0.708963296,45.4639598 C0.708963296,46.8017094 1.64353604,47.8903171 2.7923048,47.8903171 L11.3026346,47.8903171 C11.6696378,47.8903171 11.9674955,47.5439713 11.9674955,47.115783 C11.9674955,46.6322155 12.3055772,46.2384939 12.7211152,46.2384939 L19.8129644,46.2384939 C20.2285024,46.2384939 20.5665842,46.6322155 20.5665842,47.115783 C20.5665842,47.5439713 20.8638878,47.8903171 21.231445,47.8903171 L29.7412208,47.8903171 C30.8901004,47.8903171 31.8245623,46.8017094 31.8245623,45.4639598 L31.8245623,17.3739294 C31.8245623,16.9463866 31.5268154,16.5993953 31.1597014,16.5993953 C30.7441634,16.5993953 30.4060817,16.2055447 30.4060817,15.7214608 C30.4060817,15.237377 30.7441634,14.8435263 31.1597014,14.8435263 L31.1597014,14.8435263 Z M1.37382415,15.7734837 C1.34966754,15.7734837 1.32972172,15.7502477 1.32972172,15.7214608 L1.32972172,12.417169 C1.32972172,12.3883821 1.34966754,12.3651461 1.37382415,12.3651461 C1.78936219,12.3651461 2.12744394,12.7589967 2.12744394,13.2430806 L2.12744394,15.7734837 L1.37382415,15.7734837 Z M30.4948406,13.4216107 C29.6711888,13.745366 29.0763599,14.6540236 29.0763599,15.7214608 C29.0763599,16.7890271 29.6711888,17.6976847 30.4948406,18.0219563 L30.4948406,45.4639598 C30.4948406,45.9475273 30.1567588,46.3412488 29.7412208,46.3412488 L21.7871579,46.3412488 C21.5092461,45.3817301 20.7292535,44.6894256 19.8129644,44.6894256 L12.7211152,44.6894256 C11.8047154,44.6894256 11.0247228,45.3817301 10.7463677,46.3412488 L2.7923048,46.3412488 C2.37676676,46.3412488 2.03868501,45.9475273 2.03868501,45.4639598 L2.03868501,22.1528052 C2.86244762,21.8285336 3.45716566,20.9198759 3.45716566,19.8523096 L3.45716566,13.2430806 C3.45716566,12.1755143 2.86244762,11.2668567 2.03868501,10.9427141 L2.03868501,2.50300267 C2.03868501,2.01891882 2.37676676,1.6250682 2.7923048,1.6250682 L25.1924644,1.6250682 C25.2045427,1.6250682 25.2158454,1.63061902 25.2240453,1.64017161 L30.482319,7.76531683 C30.4900757,7.77499851 30.4948406,7.78855286 30.4948406,7.80223629 L30.4948406,13.4216107 Z"
         id="path14"
         fill="#000000" />
      <path
         d="M25.4863329,7.51178598 L7.04774672,7.51178598 C5.89886716,7.51178598 4.96440522,8.60039374 4.96440522,9.93814333 L4.96440522,39.6806423 C4.96440522,41.0189082 5.89886716,42.1076451 7.04774672,42.1076451 L25.4863329,42.1076451 C26.6351017,42.1076451 27.5696744,41.0189082 27.5696744,39.6806423 L27.5696744,9.93814333 C27.5696744,8.60039374 26.6351017,7.51178598 25.4863329,7.51178598 L25.4863329,7.51178598 Z M26.2399527,39.6806423 C26.2399527,40.1647261 25.901871,40.5585768 25.4863329,40.5585768 L7.04774672,40.5585768 C6.63220869,40.5585768 6.29412694,40.1647261 6.29412694,39.6806423 L6.29412694,9.93814333 C6.29412694,9.45457583 6.63220869,9.0608543 7.04774672,9.0608543 L25.4863329,9.0608543 C25.901871,9.0608543 26.2399527,9.45457583 26.2399527,9.93814333 L26.2399527,39.6806423 Z"
         id="Fill-2"
         fill="#000000" />
      <path
         d="m 19.342908,13.268977 -3.075868,3.516008 -3.075868,-3.516008 c -0.129759,-0.147946 -0.299963,-0.222046 -0.470056,-0.222046 -0.170094,0 -0.340188,0.0741 -0.470057,0.222046 -0.259739,0.296906 -0.259739,0.778365 0,1.075272 l 3.545925,4.053327 c 0.259738,0.296399 0.680928,0.296399 0.940113,0 l 3.545924,-4.053327 c 0.259739,-0.296907 0.259739,-0.778366 0,-1.075272 -0.259185,-0.296273 -0.680374,-0.296273 -0.940113,0 l 0,0 z"
         id="Fill-3"
         inkscape:connector-curvature="0"
         style="fill:#000000" />
      <path
         d="M24.0678523,37.2536395 L8.46567332,37.2536395 C8.09867012,37.2536395 7.80081246,37.6006308 7.80081246,38.0281737 C7.80081246,38.4558456 8.09867012,38.8027078 8.46567332,38.8027078 L24.0678523,38.8027078 C24.4349663,38.8027078 24.7327131,38.4558456 24.7327131,38.0281737 C24.7327131,37.6006308 24.4349663,37.2536395 24.0678523,37.2536395 L24.0678523,37.2536395 Z"
         id="Fill-4"
         fill="#000000" />
    </g>
  </g>
</svg>
