<?xml version="1.0" encoding="UTF-8" standalone="no"?>
<svg width="5px" height="48px" viewBox="0 0 5 48" version="1.1" xmlns="http://www.w3.org/2000/svg" xmlns:xlink="http://www.w3.org/1999/xlink">
    <!-- Generator: Sketch 3.8.3 (29802) - http://www.bohemiancoding.com/sketch -->
    <title>ico-about-1</title>
    <desc>Created with Sketch.</desc>
    <defs>
        <polygon id="path-1" points="0.0073090078 0.0776195912 0.0073090078 47.9945218 4.58055519 47.9945218 4.58055519 0.0776195912 0.0073090078 0.0776195912"></polygon>
    </defs>
    <g id="Symbols" stroke="none" stroke-width="1" fill="none" fill-rule="evenodd">
        <g id="ico-about-1">
            <g id="hygiene">
                <path d="M3.02117837,37.6831472 L3.02117837,10.3889942 C3.46507878,9.87709298 3.78350789,8.75329067 4.11326596,6.7096962 C4.39819544,4.94203937 4.58055519,3.04191178 4.58055519,2.50982948 C4.58055519,1.16869231 3.55315232,0.0776195912 2.29027759,0.0776195912 C1.02740286,0.0776195912 0,1.16869231 0,2.50982948 C0,3.04191178 0.181750661,4.94203937 0.467289232,6.7096962 C0.7970473,8.75329067 1.11486732,9.87709298 1.55937681,10.3889942 L1.55937681,37.6831472 C1.11486732,38.1950484 0.7970473,39.3189801 0.467289232,41.3625746 C0.181750661,43.1302314 0,45.0307471 0,45.5629588 C0,46.9035785 1.02740286,47.9945218 2.29027759,47.9945218 C3.55315232,47.9945218 4.58055519,46.9035785 4.58055519,45.5629588 C4.58055519,45.0307471 4.39819544,43.1302314 4.11326596,41.3630921 C3.78350789,39.3189801 3.46507878,38.1950484 3.02117837,37.6831472 L3.02117837,37.6831472 Z" id="Path" fill="#FFFFFF"></path>
                <mask id="mask-2" fill="white">
                    <use xlink:href="#path-1"></use>
                </mask>
                <g id="Clip-2"></g>
                <path d="M3.02117837,37.6831472 L3.02117837,10.3889942 C3.46507878,9.87709298 3.78350789,8.75329067 4.11326596,6.7096962 C4.39819544,4.94203937 4.58055519,3.04191178 4.58055519,2.50982948 C4.58055519,1.16869231 3.55315232,0.0776195912 2.29027759,0.0776195912 C1.02740286,0.0776195912 0,1.16869231 0,2.50982948 C0,3.04191178 0.181750661,4.94203937 0.467289232,6.7096962 C0.7970473,8.75329067 1.11486732,9.87709298 1.55937681,10.3889942 L1.55937681,37.6831472 C1.11486732,38.1950484 0.7970473,39.3189801 0.467289232,41.3625746 C0.181750661,43.1302314 0,45.0307471 0,45.5629588 C0,46.9035785 1.02740286,47.9945218 2.29027759,47.9945218 C3.55315232,47.9945218 4.58055519,46.9035785 4.58055519,45.5629588 C4.58055519,45.0307471 4.39819544,43.1302314 4.11326596,41.3630921 C3.78350789,39.3189801 3.46507878,38.1950484 3.02117837,37.6831472 L3.02117837,37.6831472 Z M2.29027759,1.63001142 C2.74709058,1.63001142 3.11875363,2.02470704 3.11875363,2.50982948 C3.11875363,2.83932465 2.98597332,4.3668782 2.74282699,5.99210308 C2.5753289,7.11241251 2.41915976,7.86428762 2.29027759,8.36519271 C2.16127361,7.86428762 2.00473902,7.11241251 1.83724093,5.99210308 C1.59458187,4.3668782 1.46180156,2.83932465 1.46180156,2.50982948 C1.46180156,2.02470704 1.83346461,1.63001142 2.29027759,1.63001142 L2.29027759,1.63001142 Z M1.46180156,45.5629588 C1.46180156,45.2334636 1.59458187,43.7052632 1.83724093,42.0801677 C2.00473902,40.9602464 2.16127361,40.2083713 2.29027759,39.7070781 C2.41915976,40.2083713 2.57581617,40.9602464 2.74282699,42.0801677 C2.98597332,43.7052632 3.11875363,45.2334636 3.11875363,45.5629588 C3.11875363,46.0475638 2.74709058,46.44213 2.29027759,46.44213 C1.83346461,46.44213 1.46180156,46.0475638 1.46180156,45.5629588 Z" id="Fill-1" fill="#000000" mask="url(#mask-2)"></path>
            </g>
        </g>
    </g>
</svg>