<?xml version="1.0" encoding="UTF-8" standalone="no"?>
<svg width="32px" height="31px" viewBox="0 0 32 31" version="1.1" xmlns="http://www.w3.org/2000/svg" xmlns:xlink="http://www.w3.org/1999/xlink">
    <!-- Generator: Sketch 3.8.3 (29802) - http://www.bohemiancoding.com/sketch -->
    <title>ico-edit-txt-1</title>
    <desc>Created with Sketch.</desc>
    <defs></defs>
    <g id="Symbols" stroke="none" stroke-width="1" fill="none" fill-rule="evenodd">
        <g id="ico-edit-txt-1">
            <path d="M31.7374524,5.23084726 L26.7325418,0.226028818 C26.6027896,0.0963688761 26.4268357,0.0235158501 26.2434121,0.0235158501 C26.0600807,0.0235158501 25.8841268,0.0963688761 25.7543746,0.226121037 L24.8079308,1.17256484 L24.5060058,0.870639769 C24.2413372,0.605878963 23.8140865,0.599884726 23.5420403,0.856899135 L4.30266282,19.1083343 C4.20583285,19.2051643 4.13998847,19.3286455 4.11333718,19.4630086 L2.87695677,25.704853 L0.113152738,29.923781 C-0.0260979827,30.1363458 -0.0376253602,30.4081153 0.0831815562,30.6316542 C0.203988473,30.8551931 0.43767147,30.994536 0.69173487,30.994536 L15.401683,30.994536 C15.7837464,30.994536 16.0933256,30.6849568 16.0933256,30.3028934 C16.0933256,29.92083 15.7837464,29.6112507 15.401683,29.6112507 L5.79384438,29.6112507 L6.33304899,29.0719539 L12.5008415,27.8504207 C12.6352046,27.8237695 12.7586859,27.7578329 12.8555159,27.6610029 L31.1067666,8.4218098 C31.363781,8.14976369 31.3576945,7.72251297 31.0931182,7.4579366 L30.7910086,7.15582709 L31.7377291,6.20901441 C32.0076542,5.9389049 32.0076542,5.50095677 31.7374524,5.23084726 L31.7374524,5.23084726 Z" id="Path" fill="#FFFFFF"></path>
            <path d="M31.7374524,5.23084726 L26.7325418,0.226028818 C26.6027896,0.0963688761 26.4268357,0.0235158501 26.2434121,0.0235158501 C26.0600807,0.0235158501 25.8841268,0.0963688761 25.7543746,0.226121037 L24.8079308,1.17256484 L24.5060058,0.870639769 C24.2413372,0.605878963 23.8140865,0.599884726 23.5420403,0.856899135 L4.30266282,19.1083343 C4.20583285,19.2051643 4.13998847,19.3286455 4.11333718,19.4630086 L2.87695677,25.704853 L0.113152738,29.923781 C-0.0260979827,30.1363458 -0.0376253602,30.4081153 0.0831815562,30.6316542 C0.203988473,30.8551931 0.43767147,30.994536 0.69173487,30.994536 L15.401683,30.994536 C15.7837464,30.994536 16.0933256,30.6849568 16.0933256,30.3028934 C16.0933256,29.92083 15.7837464,29.6112507 15.401683,29.6112507 L5.79384438,29.6112507 L6.33304899,29.0719539 L12.5008415,27.8504207 C12.6352046,27.8237695 12.7586859,27.7578329 12.8555159,27.6610029 L31.1067666,8.4218098 C31.363781,8.14976369 31.3576945,7.72251297 31.0931182,7.4579366 L30.7910086,7.15582709 L31.7377291,6.20901441 C32.0076542,5.9389049 32.0076542,5.50095677 31.7374524,5.23084726 L31.7374524,5.23084726 Z M1.97164265,29.6111585 L3.64163689,27.0616715 L5.014317,28.4342594 L3.83760231,29.6111585 L1.97164265,29.6111585 L1.97164265,29.6111585 Z M12.0259135,26.5342709 L6.22035735,27.6841499 L4.27942363,25.7433084 L5.42948703,19.9378444 L6.21445533,19.1527839 L12.8108818,25.7493026 L12.0259135,26.5342709 L12.0259135,26.5342709 Z M13.7749395,24.7571182 L7.20663977,18.1887262 L8.70455331,16.7738098 L15.1896715,23.2590202 L13.7749395,24.7571182 L13.7749395,24.7571182 Z M16.1400807,22.2529107 L9.71066282,15.8234928 L21.8039885,4.40115274 L27.5624207,10.1597695 L16.1400807,22.2529107 L16.1400807,22.2529107 Z M28.5127378,9.15365994 L22.810098,3.45092795 L24.0032277,2.32391931 L29.639562,7.96062248 L28.5127378,9.15365994 L28.5127378,9.15365994 Z M29.8129337,6.1774755 L25.786098,2.15063977 L26.2434121,1.69323343 L30.2703401,5.71997695 L29.8129337,6.1774755 L29.8129337,6.1774755 Z" id="Shape" fill="#000000"></path>
        </g>
    </g>
</svg>