<?xml version="1.0" encoding="UTF-8" standalone="no"?>
<svg width="32px" height="32px" viewBox="0 0 32 32" version="1.1" xmlns="http://www.w3.org/2000/svg" xmlns:xlink="http://www.w3.org/1999/xlink">
    <!-- Generator: Sketch 3.8.3 (29802) - http://www.bohemiancoding.com/sketch -->
    <title>ico-capture-1</title>
    <desc>Created with Sketch.</desc>
    <defs>
        <path d="M16,32 C24.836556,32 32,24.836556 32,16 C32,7.163444 24.836556,0 16,0 C7.163444,0 0,7.163444 0,16 C0,24.836556 7.163444,32 16,32 Z" id="path-1"></path>
        <mask id="mask-2" maskContentUnits="userSpaceOnUse" maskUnits="objectBoundingBox" x="0" y="0" width="32" height="32" fill="white">
            <use xlink:href="#path-1"></use>
        </mask>
        <path d="M16,28.5 C22.9035594,28.5 28.5,22.9035594 28.5,16 C28.5,9.09644063 22.9035594,3.5 16,3.5 C9.09644063,3.5 3.5,9.09644063 3.5,16 C3.5,22.9035594 9.09644063,28.5 16,28.5 Z" id="path-3"></path>
        <mask id="mask-4" maskContentUnits="userSpaceOnUse" maskUnits="objectBoundingBox" x="0" y="0" width="25" height="25" fill="white">
            <use xlink:href="#path-3"></use>
        </mask>
    </defs>
    <g id="Symbols" stroke="none" stroke-width="1" fill="none" fill-rule="evenodd">
        <g id="ico-capture-1" stroke="#000000" stroke-width="4" fill="#FFFFFF">
            <use id="Oval-1" mask="url(#mask-2)" xlink:href="#path-1"></use>
            <use id="Oval-1" mask="url(#mask-4)" xlink:href="#path-3"></use>
        </g>
    </g>
</svg>