<?xml version="1.0" encoding="UTF-8" standalone="no"?>
<svg width="32px" height="32px" viewBox="0 0 32 32" version="1.1" xmlns="http://www.w3.org/2000/svg" xmlns:xlink="http://www.w3.org/1999/xlink">
    <!-- Generator: Sketch 3.8.3 (29802) - http://www.bohemiancoding.com/sketch -->
    <title>ico-edit-txt-4</title>
    <desc>Created with Sketch.</desc>
    <defs></defs>
    <g id="Symbols" stroke="none" stroke-width="1" fill="none" fill-rule="evenodd">
        <g id="ico-edit-txt-4">
            <path d="M29.7961582,7.02197183 C30.1360452,6.1927662 30.259435,5.61910986 30.303548,5.29153803 L31.3199548,4.27781408 L31.3199548,4.27781408 C31.751322,3.84766197 31.9887006,3.27607887 31.9887006,2.66780845 C31.9887006,2.05953803 31.7512316,1.48768451 31.3201356,1.05780282 L30.9272768,0.665690141 C30.0368814,-0.222016901 28.588113,-0.22183662 27.6977175,0.665870423 L26.6800452,1.68067606 C25.9770395,1.77766761 24.1242938,2.23891831 21.0624181,4.40851831 C16.1340565,7.90039437 10.4122938,14.0641352 4.05622599,22.7283831 C3.85880226,22.9973634 3.88763842,23.3699155 4.1240226,23.6056338 L4.33410169,23.8151211 L1.50481356,26.2084507 C1.3019661,26.3798986 1.21735593,26.6496901 1.2899435,26.9047887 C1.31181921,26.9851042 1.80438418,28.8943775 0.188745763,30.8196056 C-0.0439322034,31.0970592 -0.0166327684,31.5080113 0.251028249,31.7522028 C0.380836158,31.8706479 0.544813559,31.9295099 0.708700565,31.9295099 C0.862644068,31.9295099 1.01622599,31.8772282 1.14124294,31.7738366 C1.1419661,31.7731155 1.14296045,31.7725746 1.14386441,31.7719437 C3.07425989,30.1608563 4.98883616,30.6523944 5.06512994,30.6728563 C5.32131073,30.7452394 5.59566102,30.6623099 5.76777401,30.4598535 L8.16786441,27.6379944 L8.31548023,27.7853746 C8.44682486,27.916169 8.62056497,27.9832338 8.79520904,27.9832338 C8.93487006,27.9832338 9.07543503,27.9402366 9.19529944,27.8529803 C17.9367232,21.4764169 24.1377627,15.7423775 27.6268475,10.8104113 C28.295774,9.8648338 28.7991864,9.03788169 29.1780339,8.32658028 L29.612565,8.76006761 C29.8987571,9.04545352 30.0564068,9.42503662 30.0564068,9.82868732 C30.0564068,10.2324282 29.8987571,10.6119211 29.612565,10.897307 L21.784678,18.7031437 C21.5198192,18.9672563 21.5198192,19.3952451 21.784678,19.6592676 C21.9171073,19.7911437 22.0906667,19.8571268 22.2640452,19.8571268 C22.4376045,19.8571268 22.6111638,19.7911437 22.7435932,19.6592676 L30.5714802,11.853431 C31.1136723,11.3125859 31.4124294,10.5933521 31.4124294,9.82859718 C31.4124294,9.06366197 31.1136723,8.34460845 30.5714802,7.80376338 L29.7961582,7.02197183 L29.7961582,7.02197183 Z" id="Path" fill="#FFFFFF"></path>
            <path d="M29.7961582,7.02197183 C30.1360452,6.1927662 30.259435,5.61910986 30.303548,5.29153803 L31.3199548,4.27781408 L31.3199548,4.27781408 C31.751322,3.84766197 31.9887006,3.27607887 31.9887006,2.66780845 C31.9887006,2.05953803 31.7512316,1.48768451 31.3201356,1.05780282 L30.9272768,0.665690141 C30.0368814,-0.222016901 28.588113,-0.22183662 27.6977175,0.665870423 L26.6800452,1.68067606 C25.9770395,1.77766761 24.1242938,2.23891831 21.0624181,4.40851831 C16.1340565,7.90039437 10.4122938,14.0641352 4.05622599,22.7283831 C3.85880226,22.9973634 3.88763842,23.3699155 4.1240226,23.6056338 L4.33410169,23.8151211 L1.50481356,26.2084507 C1.3019661,26.3798986 1.21735593,26.6496901 1.2899435,26.9047887 C1.31181921,26.9851042 1.80438418,28.8943775 0.188745763,30.8196056 C-0.0439322034,31.0970592 -0.0166327684,31.5080113 0.251028249,31.7522028 C0.380836158,31.8706479 0.544813559,31.9295099 0.708700565,31.9295099 C0.862644068,31.9295099 1.01622599,31.8772282 1.14124294,31.7738366 C1.1419661,31.7731155 1.14296045,31.7725746 1.14386441,31.7719437 C3.07425989,30.1608563 4.98883616,30.6523944 5.06512994,30.6728563 C5.32131073,30.7452394 5.59566102,30.6623099 5.76777401,30.4598535 L8.16786441,27.6379944 L8.31548023,27.7853746 C8.44682486,27.916169 8.62056497,27.9832338 8.79520904,27.9832338 C8.93487006,27.9832338 9.07543503,27.9402366 9.19529944,27.8529803 C17.9367232,21.4764169 24.1377627,15.7423775 27.6268475,10.8104113 C28.295774,9.8648338 28.7991864,9.03788169 29.1780339,8.32658028 L29.612565,8.76006761 C29.8987571,9.04545352 30.0564068,9.42503662 30.0564068,9.82868732 C30.0564068,10.2324282 29.8987571,10.6119211 29.612565,10.897307 L21.784678,18.7031437 C21.5198192,18.9672563 21.5198192,19.3952451 21.784678,19.6592676 C21.9171073,19.7911437 22.0906667,19.8571268 22.2640452,19.8571268 C22.4376045,19.8571268 22.6111638,19.7911437 22.7435932,19.6592676 L30.5714802,11.853431 C31.1136723,11.3125859 31.4124294,10.5933521 31.4124294,9.82859718 C31.4124294,9.06366197 31.1136723,8.34460845 30.5714802,7.80376338 L29.7961582,7.02197183 L29.7961582,7.02197183 Z M4.98838418,29.285769 C4.67344633,29.2429521 4.21152542,29.2116732 3.65767232,29.2686423 L4.5399322,28.3888676 C4.80461017,28.1249352 4.80461017,27.6967662 4.53975141,27.4329239 C4.27507345,27.1689915 3.84587571,27.1688113 3.58110734,27.4329239 L2.69902825,28.3125183 C2.75624859,27.7604056 2.72479096,27.2996958 2.68212429,26.9855549 L5.29636158,24.7744901 L7.2059661,26.6787155 L4.98838418,29.285769 L4.98838418,29.285769 Z M8.86282486,26.4186592 L5.49441808,23.059831 C9.10282486,18.1763606 12.2251751,14.5069972 14.8547797,11.7527437 L20.2023051,17.0852958 C17.4338531,19.7137127 13.7528588,22.8259155 8.86282486,26.4186592 L8.86282486,26.4186592 Z M26.5187797,10.0307831 C25.4273446,11.5737239 23.7470734,13.6128 21.1758644,16.1439549 L15.7985989,10.7818366 C18.216678,8.33901972 20.1762712,6.71260845 21.6696949,5.63785915 C24.4624633,3.62798873 26.139661,3.15285634 26.7397966,3.04117183 L28.9409266,5.23619155 C28.8382373,5.80317746 28.3975593,7.37496338 26.5187797,10.0307831 L26.5187797,10.0307831 Z M27.9454011,2.33113239 L28.6567232,1.62199437 C29.0184859,1.26107042 29.6069605,1.2612507 29.9683616,1.62145352 L30.3612203,2.01374648 C30.5364972,2.18843944 30.6329492,2.42082254 30.6329492,2.66780845 C30.6329492,2.91479437 30.5365876,3.14699718 30.3612203,3.32187042 L30.3612203,3.32187042 L30.3612203,3.32187042 L29.6500791,4.03118873 L27.9454011,2.33113239 L27.9454011,2.33113239 Z" id="Shape" fill="#000000"></path>
        </g>
    </g>
</svg>