<?xml version="1.0" encoding="UTF-8" standalone="no"?>
<svg width="32px" height="44px" viewBox="0 0 32 44" version="1.1" xmlns="http://www.w3.org/2000/svg" xmlns:xlink="http://www.w3.org/1999/xlink">
    <!-- Generator: Sketch 3.8.3 (29802) - http://www.bohemiancoding.com/sketch -->
    <title>ico-edit-img-4</title>
    <desc>Created with Sketch.</desc>
    <defs></defs>
    <g id="Symbols" stroke="none" stroke-width="1" fill="none" fill-rule="evenodd">
        <g id="ico-edit-img-4">
            <path d="M1.48632812,12.2363281 C2.02753448,13.8193372 3.70068359,15.4587402 3.70068359,15.4587402 L3.90112305,17.2658691 L1.17211914,16.7580566 L0.970703125,20.0168457 L4.87426758,27.9194336 L11.1433105,31.9941406 L14.6130371,32.7128906 L14.685791,37.1052246 L12.4367676,37.7536621 L12.6320801,39.7668457 L7.42895508,40.2893066 L6.84033203,41.9064941 L7.45068359,43.2685547 L24.8273926,43.1191406 L25.2856445,41.2597656 L24.387207,40.4914551 L20.776123,40.1687012 L19.3681641,38.8500977 L17.453125,37.1520996 L17.2770996,32.9255371 L24.3056641,30.4082031 L29.8369141,23.9645996 L31.5217285,17.1608887 L29.2458496,16.7050781 L27.845459,16.5776367 L28.4541016,13.9907227 L29.7717285,13.7155762 L28.9384766,14.8769531 L30.949707,12.4553223 L28.4541016,6.73120117 L19.9628906,1.59594727 L15.7092285,1.16186523 L10.6738281,2.11401367 L5.13891602,5.25561523 L2.19287109,10.0246582 L1.66162109,11.3806152" id="bg" fill="#FFFFFF"></path>
            <path d="M31.7243082,16.4705876 C31.4556124,16.1783612 31.078156,16.0105445 30.6890221,16.0105445 L29.1774792,16.0105445 C29.1720984,15.9096173 29.1676335,15.808097 29.1600775,15.7071698 C29.133746,15.3615741 29.2454832,15.0210782 29.4673547,14.7722588 C29.6824717,14.5309111 29.9762397,14.3979623 30.2946219,14.3979623 L30.2959958,14.3979623 C30.7185592,14.3979623 31.1098683,14.1996658 31.3702067,13.8540701 C31.6255078,13.5153531 31.7149205,13.0846038 31.6147463,12.6712884 C29.8228301,5.25248518 23.4246177,0.0711590296 16.05649,0.0711590296 C8.6879044,0.0711590296 2.28969201,5.25248518 0.497775817,12.6712884 C0.39805955,13.0841294 0.487014245,13.5153531 0.742315364,13.8540701 C1.00265381,14.1996658 1.39396288,14.3979623 1.8165263,14.3979623 L1.85808429,14.3979623 C2.16398769,14.3979623 2.44619274,14.5253369 2.65283782,14.7579084 C2.8715038,15.003407 2.98106576,15.3416496 2.95427631,15.6858221 C2.94568995,15.794221 2.93904983,15.9021456 2.93321111,16.0105445 L1.4239579,16.0105445 C1.03436611,16.0105445 0.656909698,16.1783612 0.388213857,16.4705876 C0.12031941,16.7615094 -0.0169478736,17.1410243 0.00182763473,17.5384474 C0.200802229,21.8130889 1.95963231,25.7991806 4.95329552,28.762717 C7.43303643,31.2171105 10.5527474,32.7603127 13.9040612,33.2245067 L13.9040612,36.5044636 L13.12545,36.5044636 C12.3428318,36.5044636 11.7060674,37.1642264 11.7060674,37.9754394 L11.7060674,38.7342318 C11.7060674,39.1789757 11.3567742,39.5408194 10.9274562,39.5408194 L7.99653065,39.5408194 C6.81001011,39.5408194 5.84455974,40.5409596 5.84455974,41.7705876 C5.84455974,42.9996226 6.81001011,43.9997628 7.99653065,43.9997628 L24.1159914,43.9997628 C25.3029699,43.9997628 26.2684203,42.9996226 26.2684203,41.7705876 C26.2684203,40.5409596 25.3029699,39.5408194 24.1159914,39.5408194 L21.1855238,39.5408194 C20.7562058,39.5408194 20.4069127,39.1789757 20.4069127,38.7342318 L20.4069127,37.9754394 C20.4069127,37.1642264 19.7701482,36.5044636 18.9870721,36.5044636 L18.2089189,36.5044636 L18.2089189,33.2245067 C21.5597747,32.7603127 24.6799436,31.2171105 27.1592266,28.762717 C30.1533477,25.7991806 31.9117198,21.8130889 32.1111524,17.5384474 C32.1295844,17.1410243 31.9922027,16.7619838 31.7243082,16.4705876 L31.7243082,16.4705876 Z M1.85808429,12.9747817 L1.8406826,12.9747817 C3.49361424,6.21325067 9.33314077,1.49433962 16.05649,1.49433962 C22.7793813,1.49433962 28.6189078,6.21325067 30.2722974,12.9747817 C29.5750849,12.981186 28.9315658,13.275903 28.4584001,13.8063935 C27.9772205,14.3460162 27.7339403,15.079903 27.7907247,15.8201941 C27.8135072,16.1213154 27.8256426,16.4248086 27.8256426,16.7221348 C27.8256426,19.9344906 26.6297343,22.9657466 24.4591024,25.2584906 C22.2914471,27.5480323 19.3953249,28.8456173 16.3042351,28.9114394 C13.8195714,28.96469 11.430159,28.1910728 9.38729208,26.6746739 C7.37258845,25.1797412 5.84272798,23.0782965 4.96314121,20.5988787 C4.40365396,19.0214016 4.19437574,17.4518706 4.32362908,15.8007439 C4.38132943,15.0614016 4.14022442,14.3298868 3.66259381,13.7928733 C3.19263368,13.2652291 2.55220567,12.9747817 1.85808429,12.9747817 L1.85808429,12.9747817 Z M24.8946026,41.7705876 C24.8946026,42.2148571 24.5453094,42.5765822 24.1159914,42.5765822 L7.99653065,42.5765822 C7.56721263,42.5765822 7.21837742,42.2148571 7.21837742,41.7705876 C7.21837742,41.3258437 7.56721263,40.964 7.99653065,40.964 L24.1159914,40.964 C24.5453094,40.964 24.8946026,41.3258437 24.8946026,41.7705876 L24.8946026,41.7705876 Z M19.033095,37.9754394 L19.033095,38.7342318 C19.033095,39.0186307 19.0849566,39.2905768 19.1792921,39.5408194 L12.93323,39.5408194 C13.0275655,39.2905768 13.0794271,39.0186307 13.0794271,38.7342318 L13.0794271,37.9754394 C13.0794271,37.9489919 13.1004923,37.9276442 13.12545,37.9276442 L18.9870721,37.9276442 C19.0124877,37.9276442 19.033095,37.9489919 19.033095,37.9754394 L19.033095,37.9754394 Z M16.8351012,36.5044636 L15.2778788,36.5044636 L15.2778788,33.3542534 C15.5363855,33.3671806 15.7958081,33.3737035 16.05649,33.3737035 C16.316714,33.3737035 16.5761365,33.3671806 16.8351012,33.3542534 L16.8351012,36.5044636 Z M16.05649,31.9505229 C8.20180191,31.9505229 1.75264378,25.5897358 1.37381356,17.4698976 C1.37381356,17.4652722 1.37644671,17.4592237 1.38274337,17.4528194 C1.38766622,17.4472453 1.40197682,17.4337251 1.4239579,17.4337251 L2.93458493,17.4337251 C3.00384823,18.6735526 3.25079196,19.8974879 3.67381332,21.0899946 C4.64865145,23.8385121 6.34806392,26.1698005 8.58727225,27.8319569 C10.7995767,29.4738329 13.3794918,30.3373477 16.0645039,30.3373477 C16.1535731,30.3373477 16.2429858,30.3363989 16.3323984,30.3346199 C19.7848022,30.2609704 23.0194559,28.8122911 25.4402372,26.2554286 C27.7030294,23.8649596 29.0165136,20.7554286 29.1811427,17.4341995 L30.6890221,17.4341995 C30.7105453,17.4341995 30.7248559,17.4472453 30.7302366,17.4528194 C30.7360754,17.4592237 30.7391665,17.4652722 30.7387085,17.4698976 C30.3603362,25.5897358 23.9107202,31.9505229 16.05649,31.9505229 L16.05649,31.9505229 Z" id="Fill-1" fill="#000000"></path>
            <path d="M16.05649,26.5421995 C21.2834083,26.5421995 25.5359465,22.1369811 25.5359465,16.7221348 C25.5359465,11.307407 21.2834083,6.90266307 16.05649,6.90266307 C10.8295717,6.90266307 6.57703353,11.307407 6.57703353,16.7221348 C6.57703353,22.1369811 10.8295717,26.5421995 16.05649,26.5421995 L16.05649,26.5421995 Z M16.05649,8.32584367 C20.5258624,8.32584367 24.1621288,12.0921725 24.1621288,16.7221348 C24.1621288,21.3522156 20.5258624,25.1190189 16.05649,25.1190189 C11.5871176,25.1190189 7.95085121,21.3522156 7.95085121,16.7221348 C7.95085121,12.0921725 11.5871176,8.32584367 16.05649,8.32584367 L16.05649,8.32584367 Z" id="Fill-3" fill="#000000"></path>
            <path d="M16.05649,23.5064367 C19.6672263,23.5064367 22.6049065,20.4630836 22.6049065,16.7221348 C22.6049065,12.9816604 19.6672263,9.93842588 16.05649,9.93842588 C12.4452958,9.93842588 9.50807355,12.9816604 9.50807355,16.7221348 C9.50807355,20.4630836 12.4452958,23.5064367 16.05649,23.5064367 L16.05649,23.5064367 Z M16.05649,11.3616065 C18.9096804,11.3616065 21.2310888,13.7665445 21.2310888,16.7221348 C21.2310888,19.6783181 18.9096804,22.0832561 16.05649,22.0832561 C13.2028417,22.0832561 10.8818912,19.6783181 10.8818912,16.7221348 C10.8818912,13.7665445 13.2028417,11.3616065 16.05649,11.3616065 L16.05649,11.3616065 Z" id="Fill-4" fill="#000000"></path>
            <path d="M16.05649,18.951903 C17.243354,18.951903 18.2089189,17.9517628 18.2089189,16.7221348 C18.2089189,15.4930997 17.243354,14.4929596 16.05649,14.4929596 C14.869626,14.4929596 13.9040612,15.4930997 13.9040612,16.7221348 C13.9040612,17.9517628 14.869626,18.951903 16.05649,18.951903 L16.05649,18.951903 Z M16.05649,15.9161402 C16.485808,15.9161402 16.8351012,16.2778652 16.8351012,16.7221348 C16.8351012,17.1668787 16.485808,17.5287224 16.05649,17.5287224 C15.627172,17.5287224 15.2778788,17.1668787 15.2778788,16.7221348 C15.2778788,16.2778652 15.627172,15.9161402 16.05649,15.9161402 L16.05649,15.9161402 Z" id="Fill-5" fill="#000000"></path>
            <path d="M10.3830625,6.71824259 C11.9609118,5.78380593 13.7488157,5.28948787 15.5544644,5.28948787 C17.3596695,5.28948787 19.1480171,5.78380593 20.7254227,6.71824259 C20.8276774,6.77896496 20.9385827,6.80766577 21.0472698,6.80766577 C21.2817236,6.80766577 21.5087467,6.67519137 21.6299661,6.44072237 C21.80808,6.09702426 21.6919622,5.66378437 21.3704478,5.47343396 C19.5959634,4.4222965 17.5850291,3.86630728 15.5544644,3.86630728 C13.5238998,3.86630728 11.5125218,4.4222965 9.73803742,5.47343396 C9.41652304,5.66378437 9.30040522,6.09702426 9.47851909,6.44072237 C9.65652205,6.78442049 10.061659,6.90906739 10.3830625,6.71824259 L10.3830625,6.71824259 Z" id="Fill-6" fill="#000000"></path>
        </g>
    </g>
</svg>