<?xml version="1.0" encoding="UTF-8" standalone="no"?>
<svg width="75px" height="24px" viewBox="0 0 75 24" version="1.1" xmlns="http://www.w3.org/2000/svg" xmlns:xlink="http://www.w3.org/1999/xlink">
    <!-- Generator: Sketch 39.1 (31720) - http://www.bohemiancoding.com/sketch -->
    <title>logo-texte-alone</title>
    <desc>Created with Sketch.</desc>
    <defs>
        <polygon id="path-1" points="9.07504508 17 17.6326082 17 17.6326082 0.394 0.517481981 0.394 0.517481981 17"></polygon>
    </defs>
    <g id="Symbols" stroke="none" stroke-width="1" fill="none" fill-rule="evenodd">
        <g id="logo-texte-alone">
            <g id="Group">
                <polygon id="Fill-21" fill="#FEFEFE" points="4.74761033 22.5801 4.85666976 10.3101 1.25570756 10.3101 1.25570756 7.2741 4.8906883 7.2741 4.95672428 0.6501 7.99437953 0.6501 7.92934409 7.2741 11.5603226 7.2741 11.5223019 10.3101 7.89532555 10.3101 7.78726667 22.5801"></polygon>
                <path d="M8.6511374,0 L7.33842209,0 L5.60047507,0 L4.31277338,0 L4.2997663,1.287 L4.2467374,6.624 L1.90646216,6.624 L0.605753394,6.624 L0.605753394,7.924 L0.605753394,9.66 L0.605753394,10.96 L1.90646216,10.96 L4.20071232,10.96 L4.10365944,21.918 L4.09165289,23.229 L5.40436821,23.229 L7.14231523,23.229 L8.432018,23.229 L8.443024,21.941 L8.54007688,10.96 L10.8803521,10.96 L12.1650522,10.96 L12.1800603,9.676 L12.2020723,7.94 L12.2180811,6.624 L10.9013636,6.624 L8.58610196,6.624 L8.63813031,1.312 L8.6511374,0 Z M7.33842209,1.3 L7.27238611,7.924 L10.9013636,7.924 L10.8803521,9.66 L7.25037411,9.66 L7.14231523,21.93 L5.40436821,21.93 L5.51242709,9.66 L1.90646216,9.66 L1.90646216,7.924 L5.53443908,7.924 L5.60047507,1.3 L7.33842209,1.3 Z" id="Fill-23" fill="#1D1C1B"></path>
                <path d="M25.1084051,13.397 C24.8982906,12.713 24.5330916,12.121 24.0038032,11.6 C23.1213223,10.732 21.9766986,10.31 20.5048966,10.31 C19.0441006,10.31 17.890472,10.734 16.9779748,11.606 C16.4466853,12.109 16.0744825,12.699 15.8503603,13.397 L25.1084051,13.397 Z M20.3758263,22.58 C18.0635663,22.58 16.1625304,21.859 14.7237464,20.438 C13.2869635,19.049 12.5545644,17.219 12.5545644,15.003 C12.5545644,12.728 13.3249842,10.845 14.8418108,9.406 C16.3036073,7.993 18.2176503,7.274 20.5269086,7.274 C22.8381681,7.274 24.7392039,7.995 26.1769874,9.416 C27.6617965,10.851 28.4001989,12.706 28.369182,14.924 L28.3311612,16.434 L15.7893271,16.434 C15.9974405,17.138 16.3626395,17.736 16.893929,18.248 C17.7794115,19.121 18.9230347,19.543 20.3968377,19.543 C21.8736425,19.543 23.0342749,19.119 23.9457716,18.246 C24.0528299,18.138 24.2159188,17.945 24.4300355,17.68 L24.818247,17.196 L27.2795882,18.984 L26.8983805,19.509 C26.6462431,19.857 26.3710932,20.173 26.078934,20.448 C24.6191385,21.86 22.6980917,22.58 20.3758263,22.58 L20.3758263,22.58 Z" id="Fill-25" fill="#FEFEFE"></path>
                <path d="M16.7834688,17.084 L24.0734412,17.084 L23.9223588,17.273 C23.6562138,17.605 23.5261429,17.746 23.4721135,17.8 C22.7106986,18.527 21.6971463,18.893 20.3964375,18.893 C19.1027326,18.893 18.1081906,18.532 17.3557806,17.79 C17.1296574,17.573 16.9395538,17.338 16.7834688,17.084 L16.7834688,17.084 Z M16.8675146,12.747 C17.0225991,12.506 17.2077,12.285 17.4228172,12.081 C18.2132479,11.325 19.2207969,10.96 20.505497,10.96 C21.7982014,10.96 22.7927433,11.321 23.5471544,12.063 C23.7642727,12.276 23.948373,12.503 24.1004559,12.747 L16.8675146,12.747 Z M20.5265084,6.624 C18.0441557,6.624 15.9770294,7.404 14.3851619,8.943 C12.7422667,10.501 11.9048104,12.543 11.9048104,15.003 C11.9048104,17.402 12.7032454,19.39 14.277103,20.91 C15.8309498,22.446 17.8860696,23.23 20.3754261,23.23 C22.8727869,23.23 24.944916,22.449 26.5367835,20.91 C26.8469525,20.617 27.1491171,20.272 27.4252676,19.891 L28.1866825,18.84 L27.1371106,18.076 L25.7703658,17.084 L27.6964154,17.084 L28.9661072,17.084 L28.9971241,15.816 L29.0191361,14.947 C29.0531547,12.529 28.2477158,10.514 26.6248314,8.944 C25.0699842,7.408 23.0158649,6.624 20.5265084,6.624 L20.5265084,6.624 Z M15.029513,14.047 L25.9144443,14.047 C25.7553577,12.904 25.2700932,11.934 24.4596516,11.137 C23.460107,10.153 22.1413884,9.66 20.505497,9.66 C18.8826126,9.66 17.5568902,10.153 16.5283298,11.137 C15.7168876,11.904 15.2186161,12.875 15.029513,14.047 L15.029513,14.047 Z M20.5265084,7.924 C22.6706768,7.924 24.40162,8.575 25.7203386,9.878 C27.0820806,11.195 27.7474432,12.875 27.7184274,14.915 L27.6964154,15.784 L14.9874901,15.784 C15.1465768,16.956 15.6308407,17.935 16.4422829,18.716 C17.440827,19.7 18.7595456,20.192 20.3964375,20.192 C22.0333295,20.192 23.3660557,19.7 24.3946162,18.716 C24.5246871,18.585 24.7047852,18.376 24.9369117,18.086 L26.3716935,19.128 C26.1405676,19.447 25.8924323,19.73 25.6322906,19.976 C24.2855567,21.278 22.5326015,21.93 20.3754261,21.93 C18.2312577,21.93 16.4993139,21.278 15.1805954,19.976 C13.8628773,18.702 13.2055191,17.044 13.2055191,15.003 C13.2055191,12.904 13.8998975,11.195 15.2896548,9.878 C16.6373892,8.575 18.3843411,7.924 20.5265084,7.924 L20.5265084,7.924 Z" id="Fill-27" fill="#1D1C1B"></path>
                <polygon id="Fill-29" fill="#FEFEFE" points="40.4516658 22.5801 36.4034599 17.1851 32.2551995 22.5801 28.3770863 22.5801 34.4844142 14.6291 28.9594036 7.2741 32.8014972 7.2741 36.4364779 12.1051 40.1525028 7.2741 44.008604 7.2741 38.3345122 14.6591 44.296761 22.5801"></polygon>
                <path d="M45.3283232,6.624 L42.6888849,6.624 L40.4726773,6.624 L39.8323283,6.624 L39.4421157,7.131 L36.4424812,11.031 L33.5158864,7.143 L33.1256738,6.624 L32.47632,6.624 L30.2601123,6.624 L27.6576943,6.624 L29.2195453,8.705 L33.6689699,14.625 L28.6642427,21.138 L27.0563666,23.229 L29.6958048,23.229 L31.9340245,23.229 L32.5753739,23.229 L32.9655866,22.722 L36.3964561,18.26 L39.736276,22.71 L40.1264886,23.229 L40.776843,23.229 L42.9930506,23.229 L45.5994709,23.229 L44.0326171,21.148 L39.150957,14.663 L43.7214476,8.716 L45.3283232,6.624 Z M42.6888849,7.924 L37.5170667,14.655 L42.9930506,21.93 L40.776843,21.93 L36.4094632,16.11 L31.9340245,21.93 L29.6958048,21.93 L35.3018596,14.634 L30.2601123,7.924 L32.47632,7.924 L36.4304746,13.179 L40.4726773,7.924 L42.6888849,7.924 Z" id="Fill-31" fill="#1D1C1B"></path>
                <polygon id="Fill-33" fill="#FEFEFE" points="49.5572275 22.5801 49.6652864 10.3101 46.0643242 10.3101 46.0643242 7.2741 49.7003055 7.2741 49.7663415 0.6501 52.8039967 0.6501 52.7389613 7.2741 56.3689393 7.2741 56.3319191 10.3101 52.7049427 10.3101 52.5968839 22.5801"></polygon>
                <path d="M53.4607546,0 L52.1480393,0 L50.4100923,0 L49.1223906,0 L49.1093835,1.287 L49.0563546,6.624 L46.7150788,6.624 L45.41437,6.624 L45.41437,7.924 L45.41437,9.66 L45.41437,10.96 L46.7150788,10.96 L49.0103295,10.96 L48.9132766,21.918 L48.9012701,23.229 L50.2139854,23.229 L51.9519324,23.229 L53.2406346,23.229 L53.2526412,21.941 L53.3506946,10.96 L55.6899693,10.96 L56.9756699,10.96 L56.9896775,9.675 L57.010689,7.939 L57.0256972,6.624 L55.7099802,6.624 L53.3957192,6.624 L53.4477475,1.312 L53.4607546,0 Z M52.1480393,1.3 L52.0820033,7.924 L55.7099802,7.924 L55.6899693,9.66 L52.0609918,9.66 L51.9519324,21.93 L50.2139854,21.93 L50.3220443,9.66 L46.7150788,9.66 L46.7150788,7.924 L50.3440563,7.924 L50.4100923,1.3 L52.1480393,1.3 Z" id="Fill-35" fill="#1D1C1B"></path>
                <path d="M69.7928541,13.397 C69.5827396,12.713 69.2175406,12.121 68.6882522,11.6 C67.8057713,10.732 66.6611476,10.31 65.1893456,10.31 C63.7285496,10.31 62.574921,10.734 61.6634243,11.606 C61.1321348,12.109 60.7589314,12.699 60.5348093,13.397 L69.7928541,13.397 Z M65.0602753,22.58 C62.7480153,22.58 60.84798,21.859 59.409196,20.438 C57.9714125,19.048 57.2380129,17.218 57.2380129,15.003 C57.2380129,12.729 58.0094332,10.845 59.5272603,9.406 C60.9880563,7.993 62.9020993,7.274 65.2113576,7.274 C67.5216165,7.274 69.4226524,7.995 70.8604358,9.416 C72.3462455,10.852 73.0846478,12.707 73.0536309,14.924 L73.0156102,16.434 L60.471775,16.434 C60.6798884,17.137 61.0450874,17.735 61.5773774,18.248 C62.464861,19.121 63.6084842,19.543 65.0812867,19.543 C66.5570909,19.543 67.7177234,19.118 68.6302206,18.246 C68.7372789,18.138 68.9003678,17.945 69.1144845,17.68 L69.502696,17.196 L71.9640372,18.984 L71.5828295,19.509 C71.3306921,19.857 71.0555422,20.173 70.763383,20.448 C69.3035875,21.86 67.3825407,22.58 65.0602753,22.58 L65.0602753,22.58 Z" id="Fill-37" fill="#FEFEFE"></path>
                <g id="Group-41" transform="translate(56.070877, 6.230000)">
                    <mask id="mask-2" fill="white">
                        <use xlink:href="#path-1"></use>
                    </mask>
                    <g id="Clip-40"></g>
                    <path d="M5.39614041,10.854 L12.6871133,10.854 L12.536031,11.043 C12.269886,11.375 12.1398151,11.516 12.0857857,11.57 C11.3243708,12.297 10.3098179,12.663 9.0101097,12.663 C7.71740529,12.663 6.72186281,12.302 5.96745172,11.56 C5.74232905,11.342 5.55122492,11.108 5.39614041,10.854 L5.39614041,10.854 Z M5.4821873,6.517 C5.6372718,6.276 5.82237267,6.055 6.03748989,5.851 C6.8279206,5.095 7.83346853,4.73 9.11916912,4.73 C10.4118735,4.73 11.4064155,5.091 12.1608266,5.833 C12.3779449,6.046 12.5610446,6.273 12.7141281,6.517 L5.4821873,6.517 Z M9.14018057,0.394 C6.65682737,0.394 4.59070152,1.174 2.99883409,2.714 C1.35593886,4.271 0.517481981,6.313 0.517481981,8.773 C0.517481981,11.171 1.31591706,13.158 2.89177576,14.68 C4.44562246,16.216 6.50074232,17 8.98909825,17 C11.4864591,17 13.5585882,16.219 15.1504556,14.68 C15.4606246,14.387 15.7627893,14.042 16.0389398,13.661 L16.8003547,12.61 L15.7507828,11.846 L14.384038,10.854 L16.3100875,10.854 L17.5797794,10.854 L17.6107963,9.586 L17.6318077,8.717 C17.6668268,6.3 16.8613879,4.284 15.2375031,2.714 C13.6826558,1.178 11.6285365,0.394 9.14018057,0.394 L9.14018057,0.394 Z M3.64318521,7.817 L14.5281165,7.817 C14.3690298,6.674 13.8827649,5.704 13.0733238,4.907 C12.0737791,3.923 10.7550605,3.43 9.11916912,3.43 C7.4962848,3.43 6.1705624,3.923 5.14300247,4.907 C4.33156031,5.674 3.83228825,6.645 3.64318521,7.817 L3.64318521,7.817 Z M9.14018057,1.694 C11.284349,1.694 13.0142916,2.345 14.3330102,3.648 C15.6947522,4.965 16.3611153,6.645 16.3320995,8.685 L16.3100875,9.554 L3.59916122,9.554 C3.75824791,10.726 4.24451288,11.705 5.05495449,12.486 C6.0554997,13.47 7.37221719,13.962 9.0101097,13.962 C10.6460011,13.962 11.9787273,13.47 13.0082883,12.486 C13.1383592,12.355 13.3184574,12.146 13.5505838,11.856 L14.9853657,12.898 C14.7542397,13.217 14.5061045,13.5 14.2459628,13.746 C12.8992289,15.048 11.1462737,15.7 8.98909825,15.7 C6.84392932,15.7 5.11398666,15.048 3.79526808,13.746 C2.47755004,12.472 1.81819075,10.814 1.81819075,8.773 C1.81819075,6.674 2.51356967,4.965 3.90432751,3.648 C5.25006081,2.345 6.99701274,1.694 9.14018057,1.694 L9.14018057,1.694 Z" id="Fill-39" fill="#1D1C1B" mask="url(#mask-2)"></path>
                </g>
            </g>
        </g>
    </g>
</svg>