<?xml version="1.0" encoding="UTF-8" standalone="no"?>
<svg width="76px" height="24px" viewBox="0 0 76 24" version="1.1" xmlns="http://www.w3.org/2000/svg" xmlns:xlink="http://www.w3.org/1999/xlink">
    <!-- Generator: Sketch 39.1 (31720) - http://www.bohemiancoding.com/sketch -->
    <title>logo-icono-alone</title>
    <desc>Created with Sketch.</desc>
    <defs></defs>
    <g id="Symbols" stroke="none" stroke-width="1" fill="none" fill-rule="evenodd">
        <g id="logo-icono-alone">
            <g id="Group-2">
                <path d="M2.36568909,4.3169 C1.88742848,4.3169 1.4651984,4.1459 1.14302284,3.8209 C0.821847833,3.5009 0.650754602,3.0709 0.650754602,2.5819 C0.650754602,2.1109 0.818846197,1.6889 1.13802012,1.3589 C1.45919513,1.0239 1.8924312,0.8449 2.38670054,0.8449 C2.85695678,0.8449 3.28018741,1.0129 3.61036732,1.3319 C3.94755106,1.6589 4.12364701,2.0899 4.12364701,2.5819 C4.12364701,3.0549 3.94955215,3.4799 3.61937223,3.8109 C3.28619068,4.1429 2.85395515,4.3169 2.36568909,4.3169 L2.36568909,4.3169 Z M0.687774775,22.5799 L0.854865825,7.2739 L3.89252107,7.2739 L3.72643057,22.5799 L0.687774775,22.5799 Z" id="Fill-1" fill="#FEFEFE"></path>
                <path d="M4.5504796,6.624 L3.2357632,6.624 L1.49781617,6.624 L0.211115039,6.624 L0.197107406,7.91 L0.0450245343,21.916 L0.0300163562,23.229 L1.3457333,23.229 L3.08267978,23.229 L4.36938092,23.229 L4.38338855,21.943 L4.53547142,7.938 L4.5504796,6.624 Z M2.38730086,0.195 C1.7109323,0.195 1.11560791,0.443 0.666363108,0.911 C0.232126488,1.36 0,1.939 0,2.582 C0,3.248 0.238129759,3.837 0.688375102,4.285 C1.12761445,4.729 1.7109323,4.967 2.36528887,4.967 C3.02865034,4.967 3.6209731,4.728 4.07622117,4.274 C4.53447088,3.814 4.77460173,3.23 4.77460173,2.582 C4.77460173,1.911 4.52946815,1.318 4.06621572,0.868 C3.60696547,0.426 3.02865034,0.195 2.38730086,0.195 L2.38730086,0.195 Z M3.2357632,7.924 L3.08267978,21.93 L1.3457333,21.93 L1.49781617,7.924 L3.2357632,7.924 L3.2357632,7.924 Z M2.38730086,1.495 C2.69046606,1.495 2.94760618,1.597 3.15872122,1.8 C3.36783517,2.003 3.47389296,2.263 3.47389296,2.582 C3.47389296,2.885 3.36783517,3.143 3.15872122,3.353 C2.94760618,3.562 2.68446279,3.667 2.36528887,3.667 C2.06312422,3.667 1.80698464,3.566 1.60587506,3.363 C1.40276438,3.161 1.30070877,2.899 1.30070877,2.582 C1.30070877,2.277 1.40276438,2.02 1.60587506,1.811 C1.80698464,1.601 2.06912749,1.495 2.38730086,1.495 L2.38730086,1.495 Z" id="Fill-3" fill="#1D1C1B"></path>
                <path d="M14.446472,22.5801 C12.1352126,22.5801 10.2341767,21.8591 8.79539269,20.4371 C7.35760923,19.0481 6.62621069,17.2181 6.62621069,15.0031 C6.62621069,12.7281 7.39562995,10.8461 8.91445757,9.4061 C10.3772547,7.9931 12.2912976,7.2741 14.5985549,7.2741 C16.9108149,7.2741 18.8118508,7.9951 20.2486337,9.4161 C20.9590208,10.0931 21.5093206,10.9171 21.8745196,11.8571 L22.1076467,12.4571 L19.2851086,13.5851 L19.0389745,12.9951 C18.8158529,12.4611 18.4946779,11.9961 18.0854549,11.6101 C17.1929686,10.7321 16.0493454,10.3101 14.5775434,10.3101 C13.117748,10.3101 11.9641194,10.7341 11.049621,11.6071 C10.1171129,12.4891 9.66386593,13.6001 9.66386593,15.0031 C9.66386593,16.3491 10.0900982,17.4101 10.9645747,18.2461 C11.8510578,19.1211 12.9946809,19.5431 14.4674835,19.5431 C15.9452887,19.5431 17.1059212,19.1191 18.0164173,18.2471 C18.4436501,17.8311 18.7768317,17.3591 19.0029549,16.8471 L19.2570934,16.2701 L22.0566189,17.4051 L21.8044815,18.0101 C21.4102667,18.9571 20.8549641,19.7761 20.1545824,20.4451 C18.6917853,21.8601 16.7707385,22.5801 14.446472,22.5801" id="Fill-5" fill="#FEFEFE"></path>
                <path d="M14.5989551,6.624 C12.117603,6.624 10.0504766,7.404 8.45760863,8.943 C6.81371286,10.502 5.97625652,12.543 5.97625652,15.003 C5.97625652,17.401 6.77369105,19.388 8.34754866,20.91 C9.90339646,22.446 11.9585163,23.229 14.4468722,23.229 C16.9452336,23.229 19.0183633,22.449 20.6102307,20.91 C21.3706451,20.184 21.9759749,19.291 22.4052088,18.26 L22.9094836,17.049 L21.6928206,16.556 L20.0869456,15.905 L18.9163077,15.43 L18.4080307,16.585 C18.2129244,17.026 17.9357734,17.418 17.5595684,17.784 C16.7831453,18.527 15.769593,18.893 14.4678837,18.893 C13.1751793,18.893 12.1806373,18.532 11.4282274,17.79 C10.6738163,17.069 10.3146205,16.162 10.3146205,15.003 C10.3146205,13.788 10.700831,12.832 11.4942633,12.081 C12.2856946,11.325 13.2932436,10.96 14.5779437,10.96 C15.8706481,10.96 16.8641895,11.321 17.6176,12.062 C17.9868012,12.411 18.2479435,12.791 18.4380471,13.245 L18.9323164,14.427 L20.1219647,13.951 L21.7518528,13.3 L22.9475043,12.822 L22.4812502,11.622 C22.0810322,10.592 21.4777034,9.689 20.6882732,8.937 C19.1434314,7.408 17.0883116,6.624 14.5989551,6.624 M14.5989551,7.924 C16.7431235,7.924 18.4740667,8.575 19.7907842,9.878 C20.4441402,10.5 20.9364085,11.238 21.2685895,12.093 L19.6387013,12.744 C19.3785596,12.122 19.0093584,11.587 18.5310978,11.137 C17.5325537,10.153 16.2128345,9.66 14.5779437,9.66 C12.9550593,9.66 11.6303375,10.153 10.6007765,11.137 C9.54320018,12.137 9.01391177,13.425 9.01391177,15.003 C9.01391177,16.522 9.51618546,17.761 10.5147296,18.716 C11.5132737,19.7 12.8299912,20.192 14.4678837,20.192 C16.1057762,20.192 17.4385024,19.7 18.4660623,18.716 C18.9583306,18.237 19.3355361,17.703 19.597679,17.109 L21.2045546,17.761 C20.8423572,18.629 20.3420846,19.367 19.7057378,19.976 C18.359004,21.278 16.6060488,21.93 14.4468722,21.93 C12.3027039,21.93 10.5717607,21.278 9.25204153,19.976 C7.93532403,18.702 7.27696529,17.044 7.27696529,15.003 C7.27696529,12.904 7.97234421,11.195 9.3621015,9.878 C10.7098359,8.575 12.4547867,7.924 14.5989551,7.924" id="Fill-7" fill="#1D1C1B"></path>
                <path d="M32.0361568,10.3101 C30.5743603,10.3101 29.4207316,10.7341 28.509235,11.6061 C27.5757263,12.4891 27.1224793,13.6001 27.1224793,15.0031 C27.1224793,16.3501 27.547711,17.4111 28.421187,18.2461 C29.30767,19.1211 30.4522937,19.5431 31.9270974,19.5431 C33.401901,19.5431 34.5625335,19.1181 35.4760312,18.2461 C36.4085394,17.3621 36.8617863,16.2461 36.8617863,14.8291 C36.8617863,13.5121 36.4295508,12.4571 35.5390656,11.6061 C34.651582,10.7321 33.5079588,10.3101 32.0361568,10.3101 M31.9030843,22.5801 C29.593826,22.5801 27.6927901,21.8591 26.2540061,20.4371 C24.8162226,19.0481 24.0848241,17.2181 24.0848241,15.0031 C24.0848241,12.7281 24.8542433,10.8461 26.3730709,9.4061 C27.8338669,7.9931 29.7469094,7.2741 32.0561677,7.2741 C34.3664266,7.2741 36.2674625,7.9951 37.707247,9.4151 C39.1600387,10.8201 39.8994416,12.6431 39.8994416,14.8291 C39.8994416,17.1021 39.1300223,18.9911 37.6141963,20.4451 C36.1483976,21.8601 34.2263503,22.5801 31.9030843,22.5801" id="Fill-9" fill="#FEFEFE"></path>
                <path d="M31.9266972,18.8926 C30.6319917,18.8926 29.6364492,18.5316 28.8850397,17.7896 C28.1326297,17.0706 27.773434,16.1636 27.773434,15.0026 C27.773434,13.7886 28.1596445,12.8316 28.9530768,12.0806 C29.7435075,11.3256 30.750056,10.9596 32.0357566,10.9596 C33.328461,10.9596 34.3230029,11.3206 35.0764135,12.0626 C35.8448322,12.7976 36.2110317,13.6986 36.2110317,14.8296 C36.2110317,16.0576 35.8248213,17.0196 35.0303884,17.7716 C34.2409582,18.5276 33.2264054,18.8926 31.9266972,18.8926 M32.0557675,6.6236 C29.5724143,6.6236 27.507289,7.4046 25.9154216,8.9436 C24.2725263,10.5016 23.43507,12.5436 23.43507,15.0026 C23.43507,17.4006 24.2325045,19.3886 25.8063621,20.9106 C27.3622099,22.4466 29.4163292,23.2296 31.9036846,23.2296 C34.4010455,23.2296 36.4751757,22.4496 38.0680436,20.9106 C39.7139405,19.3326 40.5493958,17.2856 40.5493958,14.8296 C40.5493958,12.4596 39.7439569,10.4796 38.1540905,8.9436 C36.5992433,7.4076 34.5441234,6.6236 32.0557675,6.6236 M31.9266972,20.1926 C33.5625886,20.1926 34.8953148,19.7006 35.9248758,18.7156 C36.980451,17.7166 37.5117405,16.4206 37.5117405,14.8296 C37.5117405,13.3376 37.0034635,12.1076 35.9899112,11.1366 C34.9913671,10.1536 33.671648,9.6606 32.0357566,9.6606 C30.4138728,9.6606 29.0871499,10.1536 28.0595899,11.1366 C27.0020137,12.1366 26.4727252,13.4246 26.4727252,15.0026 C26.4727252,16.5226 26.9729978,17.7606 27.971542,18.7156 C28.9700861,19.7006 30.2888047,20.1926 31.9266972,20.1926 M32.0557675,7.9236 C34.2009364,7.9236 35.9308791,8.5756 37.2495977,9.8776 C38.5823239,11.1656 39.248687,12.8176 39.248687,14.8296 C39.248687,16.9286 38.5533081,18.6436 37.1635508,19.9756 C35.8158164,21.2786 34.0628612,21.9296 31.9036846,21.9296 C29.7615173,21.9296 28.0295736,21.2786 26.710855,19.9756 C25.3941375,18.7026 24.7357788,17.0436 24.7357788,15.0026 C24.7357788,12.9046 25.4311577,11.1956 26.8199144,9.8776 C28.1666483,8.5756 29.9115991,7.9236 32.0557675,7.9236" id="Fill-11" fill="#1D1C1B"></path>
                <path d="M52.9596582,22.5801 L53.05471,13.3461 C53.05471,12.4061 52.7945683,11.6811 52.2612777,11.1361 C51.7179816,10.5801 51.0246038,10.3101 50.1401218,10.3101 C48.6893313,10.3101 47.5126901,10.6151 46.6432163,11.2161 C45.8617905,11.7561 45.4475648,12.4031 45.3765261,13.1931 L45.2874776,22.5801 L42.2458202,22.5801 L42.4129112,7.2741 L45.4545686,7.2741 L45.4315561,9.1251 C45.4815834,9.0731 45.5336117,9.0221 45.5866406,8.9721 C46.7782899,7.8451 48.3171285,7.2741 50.1621338,7.2741 C51.8830716,7.2741 53.3258578,7.8501 54.4484695,8.9871 C55.5720818,10.1241 56.1253833,11.5971 56.0923653,13.3641 L55.998314,22.5801 L52.9596582,22.5801 Z" id="Fill-13" fill="#FEFEFE"></path>
                <path d="M50.1617336,6.624 C48.6058858,6.624 47.2441438,7 46.0985195,7.744 L46.1125272,6.624 L44.7958097,6.624 L43.0558616,6.624 L41.7691604,6.624 L41.7561533,7.91 L41.6030699,21.916 L41.5890623,23.229 L42.9037787,23.229 L44.6427263,23.229 L45.9314285,23.229 L45.943435,21.942 L46.0294819,13.205 C46.0705043,12.832 46.2295909,12.292 47.0130178,11.75 C47.7714311,11.226 48.8240047,10.96 50.1407222,10.96 C50.8491082,10.96 51.3753949,11.16 51.7946234,11.589 C52.2048469,12.008 52.4039554,12.584 52.4039554,13.353 L52.3159074,21.916 L52.3029004,23.229 L53.6166162,23.229 L55.3535627,23.229 L56.6412644,23.229 L56.6542715,21.943 L56.7423194,13.366 C56.7783391,11.428 56.1630038,9.797 54.9123223,8.53 C53.6626413,7.265 52.06377,6.624 50.1617336,6.624 M50.1617336,7.924 C51.7135792,7.924 52.9852722,8.431 53.9858174,9.443 C54.9863626,10.457 55.471627,11.76 55.4416107,13.353 L55.3535627,21.93 L53.6166162,21.93 L53.7046642,13.353 C53.7046642,12.238 53.3784865,11.348 52.726131,10.682 C52.0607684,10.001 51.1972979,9.66 50.1407222,9.66 C48.5458531,9.66 47.2581514,10.001 46.2726144,10.682 C45.3311014,11.333 44.8168211,12.151 44.7287731,13.135 L44.6427263,21.93 L42.9037787,21.93 L43.0558616,7.924 L44.7958097,7.924 L44.7527862,11.376 C45.0419438,10.623 45.4701771,9.979 46.0344846,9.443 C47.105068,8.431 48.4828188,7.924 50.1617336,7.924" id="Fill-15" fill="#1D1C1B"></path>
                <path d="M66.6766327,10.3101 C65.2148362,10.3101 64.0612076,10.7341 63.1497109,11.6061 C62.2162022,12.4891 61.7629552,13.6001 61.7629552,15.0031 C61.7629552,16.3501 62.1881869,17.4111 63.0616629,18.2461 C63.9501471,19.1211 65.0947708,19.5431 66.5675733,19.5431 C68.0433775,19.5431 69.2030094,19.1191 70.1135055,18.2471 C71.0480147,17.3651 71.5002612,16.2481 71.5002612,14.8291 C71.5002612,13.5101 71.0680257,12.4561 70.1795415,11.6061 C69.2910574,10.7321 68.1464336,10.3101 66.6766327,10.3101 M66.5455613,22.5801 C64.2343019,22.5801 62.333266,21.8591 60.8964831,20.4371 C59.4576991,19.0491 58.7253,17.2191 58.7253,15.0031 C58.7253,12.7271 59.4957198,10.8441 61.0135469,9.4061 C62.476344,7.9931 64.3893864,7.2741 66.6966436,7.2741 C69.0069025,7.2741 70.9079384,7.9951 72.347723,9.4151 C73.8005146,10.8201 74.5399175,12.6431 74.5399175,14.8291 C74.5399175,17.1021 73.7704983,18.9921 72.2516706,20.4451 C70.7888735,21.8601 68.8678267,22.5801 66.5455613,22.5801" id="Fill-17" fill="#FEFEFE"></path>
                <path d="M66.5671731,18.8926 C65.2744687,18.8926 64.2789262,18.5316 63.5245151,17.7896 C62.7731057,17.0706 62.4139099,16.1636 62.4139099,15.0026 C62.4139099,13.7886 62.8001204,12.8316 63.5935527,12.0806 C64.3839835,11.3256 65.3905319,10.9596 66.6762325,10.9596 C67.9679364,10.9596 68.9624783,11.3216 69.71789,12.0636 C70.483307,12.7966 70.8495066,13.6976 70.8495066,14.8296 C70.8495066,16.0596 70.4642967,17.0216 69.6708643,17.7706 C68.8804336,18.5276 67.8668813,18.8926 66.5671731,18.8926 M66.6962434,6.6236 C64.2148913,6.6236 62.149766,7.4046 60.556898,8.9436 C58.9130023,10.4996 58.0755459,12.5406 58.0755459,15.0026 C58.0755459,17.4016 58.873981,19.3896 60.4498397,20.9106 C62.0016853,22.4456 64.0568052,23.2296 66.5461616,23.2296 C69.0435225,23.2296 71.1156516,22.4496 72.707519,20.9106 C74.3524153,19.3336 75.1898717,17.2866 75.1898717,14.8296 C75.1898717,12.4596 74.3834322,10.4796 72.7945665,8.9436 C71.2397192,7.4076 69.1845994,6.6236 66.6962434,6.6236 M66.5671731,20.1926 C68.2030645,20.1926 69.5357907,19.7006 70.5633506,18.7156 C71.622928,17.7166 72.1502153,16.4206 72.1502153,14.8296 C72.1502153,13.3376 71.6439395,12.1076 70.6303872,11.1366 C69.629842,10.1536 68.3121239,9.6606 66.6762325,9.6606 C65.0523477,9.6606 63.7276258,10.1536 62.7000659,11.1366 C61.6424896,12.1366 61.1132012,13.4246 61.1132012,15.0026 C61.1132012,16.5226 61.6134738,17.7606 62.6120179,18.7156 C63.6125631,19.7006 64.9312817,20.1926 66.5671731,20.1926 M66.6962434,7.9236 C68.8394113,7.9236 70.571355,8.5756 71.8900736,9.8776 C73.2227998,11.1656 73.8891629,12.8176 73.8891629,14.8296 C73.8891629,16.9286 73.193784,18.6436 71.8020256,19.9756 C70.4562923,21.2786 68.7033371,21.9296 66.5461616,21.9296 C64.4019933,21.9296 62.6700495,21.2786 61.353332,19.9756 C60.0346134,18.7026 59.3762547,17.0436 59.3762547,15.0026 C59.3762547,12.9046 60.0696325,11.1956 61.4603904,9.8776 C62.8091253,8.5756 64.5540761,7.9236 66.6962434,7.9236" id="Fill-19" fill="#1D1C1B"></path>
            </g>
        </g>
    </g>
</svg>